<svg xmlns="http://www.w3.org/2000/svg" enable-background="new 0 0 3000 2500" viewBox="0 0 3000 2500"><path fill="none" d="M42.7 36.1h2914.7V2464H42.7z"/><path fill="#1169a8" stroke="#fff" stroke-miterlimit="10" stroke-width="1.317" d="m1917.4 837.2 748.7 432V632.8l-748.7-432.1z" opacity=".4"/><linearGradient id="a" x1="2386.172" x2="2631.282" y1="849.818" y2="849.818" gradientUnits="userSpaceOnUse"><stop offset="0" stop-color="#125d99"/><stop offset="1" stop-color="#0f88cc"/></linearGradient><path fill="url(#a)" d="m2386.2 1045.7 245.1 137.6V654l-245.1-137.7z"/><linearGradient id="b" x1="2175.112" x2="1943.217" y1="808.93" y2="443.946" gradientTransform="matrix(1 .0571 0 1 -.001 -92.105)" gradientUnits="userSpaceOnUse"><stop offset="0" stop-color="#125d99"/><stop offset="1" stop-color="#0f88cc"/></linearGradient><path fill="url(#b)" d="m1987.1 506.2-20.4-12.9v36l20.4 12.9z"/><linearGradient id="c" x1="2206.523" x2="1974.628" y1="788.974" y2="423.991" gradientTransform="matrix(1 .0571 0 1 -.001 -92.105)" gradientUnits="userSpaceOnUse"><stop offset="0" stop-color="#125d99"/><stop offset="1" stop-color="#0f88cc"/></linearGradient><path fill="url(#c)" d="m2028.1 477.8-20.4-12.9v87.7l20.4 12.9z"/><linearGradient id="d" x1="2221.918" x2="1990.023" y1="779.193" y2="414.211" gradientTransform="matrix(1 .0571 0 1 -.001 -92.105)" gradientUnits="userSpaceOnUse"><stop offset="0" stop-color="#125d99"/><stop offset="1" stop-color="#0f88cc"/></linearGradient><path fill="url(#d)" d="m2069.1 520.2-20.4-12.9v68.6l20.4 12.9z"/><linearGradient id="e" x1="2246.655" x2="2014.76" y1="763.478" y2="398.496" gradientTransform="matrix(1 .0571 0 1 -.001 -92.105)" gradientUnits="userSpaceOnUse"><stop offset="0" stop-color="#125d99"/><stop offset="1" stop-color="#0f88cc"/></linearGradient><path fill="url(#e)" d="m2110 521.2-20.3-12.9v91l20.3 12.9z"/><linearGradient id="f" x1="2274.06" x2="2042.166" y1="746.067" y2="381.086" gradientTransform="matrix(1 .0571 0 1 -.001 -92.105)" gradientUnits="userSpaceOnUse"><stop offset="0" stop-color="#125d99"/><stop offset="1" stop-color="#0f88cc"/></linearGradient><path fill="url(#f)" d="m2151 510.5-20.3-12.9v125l20.3 12.9z"/><linearGradient id="g" x1="2304.801" x2="2072.907" y1="726.536" y2="361.556" gradientTransform="matrix(1 .0571 0 1 -.001 -92.105)" gradientUnits="userSpaceOnUse"><stop offset="0" stop-color="#125d99"/><stop offset="1" stop-color="#0f88cc"/></linearGradient><path fill="url(#g)" d="m2192 485-20.4-12.9v173.8l20.4 12.9z"/><linearGradient id="h" x1="2313.46" x2="2081.566" y1="721.037" y2="356.056" gradientTransform="matrix(1 .0571 0 1 -.001 -92.105)" gradientUnits="userSpaceOnUse"><stop offset="0" stop-color="#125d99"/><stop offset="1" stop-color="#0f88cc"/></linearGradient><path fill="url(#h)" d="m2233 557.1-20.4-12.9v125l20.4 12.9z"/><linearGradient id="i" x1="2338.732" x2="2106.839" y1="704.981" y2="340.001" gradientTransform="matrix(1 .0571 0 1 -.001 -92.105)" gradientUnits="userSpaceOnUse"><stop offset="0" stop-color="#125d99"/><stop offset="1" stop-color="#0f88cc"/></linearGradient><path fill="url(#i)" d="m2274 555.8-20.4-12.9v149.6l20.4 12.9z"/><linearGradient id="j" x1="2368.939" x2="2137.046" y1="685.791" y2="320.811" gradientTransform="matrix(1 .0571 0 1 -.001 -92.105)" gradientUnits="userSpaceOnUse"><stop offset="0" stop-color="#125d99"/><stop offset="1" stop-color="#0f88cc"/></linearGradient><path fill="url(#j)" d="m2314.9 532.7-20.3-12.9v196l20.3 13z"/><linearGradient id="k" x1="2429.149" x2="2572.713" y1="825.221" y2="685.644" gradientUnits="userSpaceOnUse"><stop offset="0" stop-color="#f87d0b"/><stop offset="1" stop-color="#f7cb14"/></linearGradient><path fill="url(#k)" d="M2607.4 810.9c0 39.3-22.8 59.1-55.9 54.6-13.2-1.7-28.1-7.3-43.8-17.1-17.4-10.9-33.7-25.5-47.9-42.2-30.8-36.1-51.7-81.9-51.7-119.5 0-55 44.6-71.8 99.6-37.5 31.2 19.4 59.1 51.2 77.4 84.9 13.9 25.9 22.3 53 22.3 76.8z"/><linearGradient id="l" x1="2553.975" x2="2616.305" y1="790.255" y2="831.808" gradientUnits="userSpaceOnUse"><stop offset="0" stop-color="#3e3e3e"/><stop offset="1" stop-color="#6d6d6d"/></linearGradient><path fill="url(#l)" d="M2607.4 810.9c0 39.3-22.8 59.1-55.9 54.6l-43.8-116.7 77.4-14.6c13.9 25.8 22.3 52.9 22.3 76.7z"/><path fill="#e5e5e5" d="M2551.5 865.5c-13.2-1.7-28.1-7.3-43.8-17.1-17.4-10.9-33.7-25.5-47.9-42.2l47.9-57.4 43.8 116.7z"/><path fill="none" stroke="#fff" stroke-miterlimit="10" stroke-width="13.167" d="M1946.5 715.5s55.3-68.3 102.2-27.4c46.9 40.8 60 172 102.3 172.8 42.3.8 117.9-146.4 153.8-84.5s56.3 15.9 56.3 15.9"/><path fill="#fff" d="m2608.6 961.8-163.7-92.4c-1.6-.9-2.9-3-2.9-4.6 0-1.6 1.3-2.2 2.9-1.3l163.7 92.4c1.6.9 2.9 3 2.9 4.6 0 1.6-1.3 2.2-2.9 1.3zM2608.6 979.9 2420 873.4c-1.6-.9-2.9-3-2.9-4.6 0-1.6 1.3-2.2 2.9-1.3L2608.6 974c1.6.9 2.9 3 2.9 4.6 0 1.6-1.3 2.2-2.9 1.3zM2608.6 998 2420 891.5c-1.6-.9-2.9-3-2.9-4.6 0-1.6 1.3-2.2 2.9-1.3l188.6 106.5c1.6.9 2.9 3 2.9 4.6 0 1.6-1.3 2.2-2.9 1.3zM2608.6 1016.1 2420 909.6c-1.6-.9-2.9-3-2.9-4.6 0-1.6 1.3-2.2 2.9-1.3l188.6 106.5c1.6.9 2.9 3 2.9 4.6 0 1.7-1.3 2.2-2.9 1.3zM2608.6 1047.2l-163.7-92.4c-1.6-.9-2.9-3-2.9-4.6 0-1.6 1.3-2.2 2.9-1.3l163.7 92.4c1.6.9 2.9 3 2.9 4.6 0 1.6-1.3 2.2-2.9 1.3zM2608.6 1065.3 2420 958.8c-1.6-.9-2.9-3-2.9-4.6 0-1.6 1.3-2.2 2.9-1.3l188.6 106.5c1.6.9 2.9 3 2.9 4.6 0 1.7-1.3 2.2-2.9 1.3zM2608.6 1083.5 2420 977c-1.6-.9-2.9-3-2.9-4.6 0-1.6 1.3-2.2 2.9-1.3l188.6 106.5c1.6.9 2.9 3 2.9 4.6 0 1.6-1.3 2.2-2.9 1.3zM2608.6 1101.6 2420 995.1c-1.6-.9-2.9-3-2.9-4.6 0-1.6 1.3-2.2 2.9-1.3l188.6 106.5c1.6.9 2.9 3 2.9 4.6 0 1.6-1.3 2.2-2.9 1.3z" opacity=".5"/><linearGradient id="m" x1="2283.795" x2="1074.783" y1="1826.774" y2="1832.804" gradientUnits="userSpaceOnUse"><stop offset="0" stop-color="#3758a7"/><stop offset=".312" stop-color="#3951a2"/><stop offset="1" stop-color="#1a2652"/></linearGradient><path fill="url(#m)" d="m2344 1649.9-451.6-3-275.7-128.5c-39.7-17.9-85.3-17.4-124.6 1.3L1234 1642.6l-452.1-3v138.6c-.2 14.9 7.5 30 23.4 37.3l713.5 330c29.2 13.5 62.9 13.4 92-.3l711-332.3c18.4-8.7 25.3-28.2 21-45.1l1.3-.3v-117.6z"/><path fill="#170c3d" d="M804.6 1963.6c-30.8 14.8-30.4 58.7.5 73l713.5 330c29.2 13.5 62.9 13.4 92-.3l711-332.3c30-14.1 29.6-56.9-.6-70.5L1616.6 1635c-39.7-17.9-85.3-17.4-124.6 1.3l-687.4 327.3z" opacity=".28"/><linearGradient id="n" x1="2283.795" x2="1074.783" y1="1821.223" y2="1827.253" gradientUnits="userSpaceOnUse"><stop offset="0" stop-color="#fff"/><stop offset="1" stop-color="#e3e3e3"/></linearGradient><path fill="url(#n)" d="m2344 1644.3-451.6-3-275.7-128.5c-39.7-17.9-85.3-17.4-124.6 1.3L1233.9 1637l-452.1-3v138.6c-.2 14.9 7.5 30 23.4 37.3l713.5 330c29.2 13.5 62.9 13.4 92-.3l711-332.3c18.4-8.7 25.3-28.2 21-45.1l1.3-.3v-117.6z"/><linearGradient id="o" x1="905.772" x2="1793.703" y1="1980.562" y2="1511.734" gradientUnits="userSpaceOnUse"><stop offset="0" stop-color="#fff"/><stop offset="1" stop-color="#e3e3e3"/></linearGradient><path fill="url(#o)" d="M804.6 1598.3c-30.8 14.8-30.4 58.7.5 73l713.5 330c29.2 13.5 62.9 13.4 92-.3l711-332.3c30-14.1 29.6-56.9-.6-70.5l-704.5-328.4c-39.7-17.9-85.3-17.4-124.6 1.3l-687.3 327.2z"/><path fill="#fff" d="m2321.7 1665.9-711 332.3c-29.1 13.7-62.8 13.8-92 .3l-713.5-330c-15.1-7-22.9-21-23.4-35.3-.5 15.2 7.3 30.5 23.4 38l713.5 330c29.2 13.5 62.9 13.4 92-.3l711-332.3c15.3-7.2 22.7-22 22.2-36.5-.4 13.7-7.8 27.1-22.2 33.8z"/><ellipse cx="1853.5" cy="1537.6" fill="#170c3d" opacity=".15" rx="187.3" ry="57.1"/><ellipse cx="1405.2" cy="1779.5" fill="#170c3d" opacity=".15" rx="187.3" ry="57.1"/><linearGradient id="p" x1="1420.526" x2="990.313" y1="563.33" y2="1138.615" gradientUnits="userSpaceOnUse"><stop offset="0" stop-color="#3e3e3e"/><stop offset="1" stop-color="#6d6d6d"/></linearGradient><path fill="url(#p)" d="M779.5 1397.1c-33 0-59.8-26.8-59.8-59.8V653.8c0-27 15.8-51.9 40.4-63.4l991.4-462.3c6.7-3.2 14-4.8 21.4-4.8 27.9 0 50.6 22.7 50.6 50.7v696.5c0 28-16.3 53.6-41.6 65.3L805 1391.4c-8.2 3.8-16.8 5.7-25.5 5.7z"/><linearGradient id="q" x1="742.73" x2="1846.462" y1="773.846" y2="773.846" gradientUnits="userSpaceOnUse"><stop offset="0" stop-color="#3e3e3e"/><stop offset="1" stop-color="#6d6d6d"/></linearGradient><path fill="url(#q)" d="M802.5 1410.7c-33 0-59.8-26.8-59.8-59.8V667.4c0-27 15.8-51.9 40.4-63.4l991.4-462.3c6.7-3.2 14-4.8 21.4-4.8 27.9 0 50.6 22.7 50.6 50.7v696.5c0 28-16.3 53.6-41.6 65.3l-977 455.6c-8.1 3.8-16.6 5.7-25.4 5.7z"/><path fill="#fefefe" d="M769.1 667.4v683.4c0 24.5 25.5 40.7 47.7 30.3l977-455.6c16.1-7.5 26.4-23.7 26.4-41.4V187.7c0-17.8-18.4-29.6-34.5-22L794.3 627.9c-15.4 7.2-25.2 22.6-25.2 39.5z"/><linearGradient id="r" x1="6823.541" x2="7874.624" y1="439.924" y2="439.924" gradientTransform="matrix(-1 0 0 1 8643.68 0)" gradientUnits="userSpaceOnUse"><stop offset="0" stop-color="#125d99"/><stop offset="1" stop-color="#0f88cc"/></linearGradient><path fill="url(#r)" d="M769.1 667.4v49.1l1051.1-490.2v-38.6c0-17.8-18.4-29.6-34.5-22L794.3 627.9c-15.4 7.2-25.2 22.6-25.2 39.5z"/><linearGradient id="s" x1="797.858" x2="1047.741" y1="985.548" y2="985.548" gradientUnits="userSpaceOnUse"><stop offset="0" stop-color="#125d99"/><stop offset="1" stop-color="#0f88cc"/></linearGradient><path fill="url(#s)" d="M797.9 728.8v631.9l249.8-115.1V610.4z"/><linearGradient id="t" x1="1070.431" x2="1580.32" y1="800.375" y2="800.375" gradientUnits="userSpaceOnUse"><stop offset="0" stop-color="#125d99"/><stop offset="1" stop-color="#0f88cc"/></linearGradient><path fill="url(#t)" d="M1070.4 605.1V1237l509.9-238V363.8z" opacity=".6"/><linearGradient id="u" x1="7725.741" x2="7744.683" y1="-1003.819" y2="-1003.819" gradientTransform="matrix(-1 .4661 0 1 8643.68 -1986.708)" gradientUnits="userSpaceOnUse"><stop offset="0" stop-color="#fafafc"/><stop offset="1" stop-color="#f2f3f8"/></linearGradient><path fill="url(#u)" d="M899 619.3c0 5.2 4.2 7.5 9.5 5.1 5.2-2.4 9.5-8.7 9.5-13.9 0-5.2-4.2-7.5-9.5-5.1-5.3 2.4-9.5 8.6-9.5 13.9z"/><linearGradient id="v" x1="7762.836" x2="7781.779" y1="-1003.82" y2="-1003.82" gradientTransform="matrix(-1 .4661 0 1 8643.68 -1986.708)" gradientUnits="userSpaceOnUse"><stop offset="0" stop-color="#fafafc"/><stop offset="1" stop-color="#f2f3f8"/></linearGradient><path fill="url(#v)" d="M861.9 636.6c0 5.2 4.2 7.5 9.5 5.1 5.2-2.4 9.5-8.7 9.5-13.9 0-5.2-4.2-7.5-9.5-5.1-5.3 2.4-9.5 8.6-9.5 13.9z"/><linearGradient id="w" x1="7799.932" x2="7818.874" y1="-1003.82" y2="-1003.82" gradientTransform="matrix(-1 .4661 0 1 8643.68 -1986.708)" gradientUnits="userSpaceOnUse"><stop offset="0" stop-color="#fafafc"/><stop offset="1" stop-color="#f2f3f8"/></linearGradient><path fill="url(#w)" d="M824.8 653.8c0 5.2 4.2 7.5 9.5 5.1 5.2-2.4 9.5-8.7 9.5-13.9 0-5.2-4.2-7.5-9.5-5.1-5.3 2.5-9.5 8.7-9.5 13.9z"/><path fill="#dbdbdb" d="m946.1 768-116.6 56.2c-2.2 1-4.7-.6-4.7-3v-9c0-2.7 1.5-5.1 4-6.2l116.9-56.4c2.9-1.3 6.1.8 6.1 3.9v5.6c0 3.8-2.2 7.3-5.7 8.9zM992.3 798.6l-162.7 79c-2.2 1-4.7-.6-4.7-3v-9c0-2.7 1.5-5.1 4-6.2L992 780.2c2.9-1.3 6.1.8 6.1 3.9v5.6c-.2 3.8-2.4 7.3-5.8 8.9zM943.8 864l-114.3 54.5c-2.2 1-4.7-.6-4.7-3v-9c0-2.7 1.5-5.1 4-6.2l114.6-54.7c2.9-1.3 6.1.8 6.1 3.9v5.6c0 3.8-2.2 7.3-5.7 8.9zM992.3 883.8l-162.7 79c-2.2 1-4.7-.6-4.7-3v-9c0-2.7 1.5-5.1 4-6.2L992 865.4c2.9-1.3 6.1.8 6.1 3.9v5.6c-.2 3.8-2.4 7.3-5.8 8.9zM943.8 949.3l-114.3 54.5c-2.2 1-4.7-.6-4.7-3v-9c0-2.7 1.5-5.1 4-6.2l114.6-54.7c2.9-1.3 6.1.8 6.1 3.9v5.6c0 3.8-2.2 7.3-5.7 8.9z"/><path fill="#fffbff" d="m1261.3 964.9-116.6 56.2c-2.2 1-4.7-.6-4.7-3v-9c0-2.7 1.5-5.1 4-6.2l116.9-56.4c2.9-1.3 6.1.8 6.1 3.9v5.6c0 3.8-2.2 7.2-5.7 8.9zM1307.4 995.5l-162.7 79c-2.2 1-4.7-.6-4.7-3v-9c0-2.7 1.5-5.1 4-6.2l163.1-79.2c2.9-1.3 6.1.8 6.1 3.9v5.6c-.1 3.8-2.3 7.2-5.8 8.9zM1259 1060.9l-114.3 54.5c-2.2 1-4.7-.6-4.7-3v-9c0-2.7 1.5-5.1 4-6.2l114.6-54.7c2.9-1.3 6.1.8 6.1 3.9v5.6c0 3.8-2.2 7.3-5.7 8.9zM1307.4 1080.7l-162.7 79c-2.2 1-4.7-.6-4.7-3v-9c0-2.7 1.5-5.1 4-6.2l163.1-79.2c2.9-1.3 6.1.8 6.1 3.9v5.6c-.1 3.8-2.3 7.3-5.8 8.9zM1492.8 857.9l-116.6 56.2c-2.2 1-4.7-.6-4.7-3v-9c0-2.7 1.5-5.1 4-6.2l116.9-56.4c2.9-1.3 6.1.8 6.1 3.9v5.6c0 3.8-2.2 7.2-5.7 8.9zM1538.9 888.5l-162.7 79c-2.2 1-4.7-.6-4.7-3v-9c0-2.7 1.5-5.1 4-6.2l163.1-79.2c2.9-1.3 6.1.8 6.1 3.9v5.6c-.1 3.8-2.3 7.2-5.8 8.9zM1490.5 953.9l-114.3 54.5c-2.2 1-4.7-.6-4.7-3v-9c0-2.7 1.5-5.1 4-6.2l114.6-54.7c2.9-1.3 6.1.8 6.1 3.9v5.6c0 3.8-2.2 7.3-5.7 8.9zM1538.9 973.7l-162.7 79c-2.2 1-4.7-.6-4.7-3v-9c0-2.7 1.5-5.1 4-6.2l163.1-79.2c2.9-1.3 6.1.8 6.1 3.9v5.6c-.1 3.8-2.3 7.3-5.8 8.9z"/><path fill="#dbdbdb" d="M1738.6 363.4 1622 419.6c-2.2 1-4.7-.6-4.7-3v-9c0-2.7 1.5-5.1 4-6.2l116.9-56.4c2.9-1.3 6.1.8 6.1 3.9v5.6c0 3.8-2.2 7.2-5.7 8.9zM1784.8 394 1622 473c-2.2 1-4.7-.6-4.7-3v-9c0-2.7 1.5-5.1 4-6.2l163.1-79.2c2.9-1.3 6.1.8 6.1 3.9v5.6c0 3.8-2.3 7.2-5.7 8.9zM1736.4 459.4 1622 513.9c-2.2 1-4.7-.6-4.7-3v-9c0-2.7 1.5-5.1 4-6.2l114.6-54.7c2.9-1.3 6.1.8 6.1 3.9v5.6c0 3.8-2.2 7.3-5.6 8.9zM1784.8 479.2l-162.7 79c-2.2 1-4.7-.6-4.7-3v-9c0-2.7 1.5-5.1 4-6.2l163.1-79.2c2.9-1.3 6.1.8 6.1 3.9v5.6c-.1 3.8-2.4 7.3-5.8 8.9zM1738.6 627.3 1622 683.5c-2.2 1-4.7-.6-4.7-3v-9c0-2.7 1.5-5.1 4-6.2l116.9-56.4c2.9-1.3 6.1.8 6.1 3.9v5.6c0 3.8-2.2 7.3-5.7 8.9zM1784.8 657.9l-162.7 79c-2.2 1-4.7-.6-4.7-3v-9c0-2.7 1.5-5.1 4-6.2l163.1-79.2c2.9-1.3 6.1.8 6.1 3.9v5.6c-.1 3.8-2.4 7.3-5.8 8.9zM1736.4 723.4 1622 777.9c-2.2 1-4.7-.6-4.7-3v-9c0-2.7 1.5-5.1 4-6.2l114.6-54.7c2.9-1.3 6.1.8 6.1 3.9v5.6c0 3.8-2.2 7.3-5.6 8.9zM1784.8 743.2l-162.7 79c-2.2 1-4.7-.6-4.7-3v-9c0-2.7 1.5-5.1 4-6.2l163.1-79.2c2.9-1.3 6.1.8 6.1 3.9v5.6c-.1 3.8-2.4 7.2-5.8 8.9z"/><g opacity=".56"><path fill="none" stroke="#fffbff" stroke-miterlimit="10" stroke-width="3.819" d="M1124.1 603.1v353.3l420.5-216.7"/><path fill="#eaeaea" stroke="#fffbff" stroke-miterlimit="10" stroke-width="1.273" d="M1174 582.2v346M1226.5 557.1v346M1279.1 532v346M1331.7 506.8v346M1384.2 481.7v346M1436.8 456.5v346M1489.4 431.4v346M1126.2 904l402.2-207.3M1126.2 852.8l402.2-207.3M1126.2 801.6l402.2-207.3M1126.2 750.4l402.2-207.3M1126.2 699.2l402.2-207.4M1126.2 647.9l402.2-207.3"/></g><path fill="#fefefe" d="M1532.3 487.3v43.9s-53 188.2-84.4 206.6c-31.4 18.4-32.5-66-62.7-69.2-30.3-3.2-24.9 115.7-74.6 131.8-49.7 16-35.7-128.5-79-122.2-43.3 6.4-107.6 176.4-107.6 176.4v-67s79.4-193.4 115-194.4c35.6-1 48.2 109.7 61.7 104 13.5-5.8 40.3-138.6 71.1-137.6 30.8 1 34 64.4 64.8 50.9 31-13.6 95.7-123.2 95.7-123.2z" opacity=".6"/><linearGradient id="x" x1="1124.093" x2="1532.345" y1="743.835" y2="743.835" gradientUnits="userSpaceOnUse"><stop offset="0" stop-color="#f87d0b"/><stop offset="1" stop-color="#f7cb14"/></linearGradient><path fill="url(#x)" d="M1532.3 531.2V746L1124 956.4V854.6s64.3-170.1 107.6-176.4c43.3-6.3 29.2 138.2 79 122.2 49.8-16 44.3-135 74.6-131.8 30.3 3.3 31.4 87.6 62.7 69.2 31.5-18.4 84.4-206.6 84.4-206.6z"/><linearGradient id="y" x1="742.73" x2="1811.027" y1="771.301" y2="771.301" gradientUnits="userSpaceOnUse"><stop offset="0" stop-color="#fff"/><stop offset="1" stop-color="#6d6d6d"/></linearGradient><path fill="url(#y)" d="M745.5 1351.7V668.3c0-27 15.8-51.9 40.4-63.4l991.4-462.3c6.7-3.2 14-4.8 21.4-4.8 4.3 0 8.4.6 12.3 1.6-4.8-1.5-9.9-2.4-15.1-2.4-7.4 0-14.6 1.6-21.4 4.8L783.1 604.1c-24.5 11.5-40.4 36.3-40.4 63.4v683.4c0 24.4 14.7 45.5 35.7 54.7-2.9-1.6-5.7-3.5-8.2-5.6-14.9-10.9-24.7-28.5-24.7-48.3z"/><linearGradient id="z" x1="1816.246" x2="1820.82" y1="142.766" y2="142.766" gradientUnits="userSpaceOnUse"><stop offset="0" stop-color="#fff"/><stop offset="1" stop-color="#6d6d6d"/></linearGradient><path fill="url(#z)" d="M1816.2 141.9c1.6.5 3.1 1.1 4.6 1.7-.5-.3-1.1-.6-1.6-.8-.9-.3-1.9-.6-3-.9z"/><path fill="#fffbff" d="m946.1 1065-116.6 56.2c-2.2 1-4.7-.6-4.7-3v-9c0-2.7 1.5-5.1 4-6.2l116.9-56.4c2.9-1.3 6.1.8 6.1 3.9v5.6c0 3.9-2.2 7.3-5.7 8.9zM1093.1 1036.7l-263.5 129.2c-2.2 1-4.7-.6-4.7-3v-9c0-2.7 1.5-5.1 4-6.2l263.9-129.3c2.9-1.3 6.1.8 6.1 3.9v5.6c-.2 3.7-2.4 7.2-5.8 8.8zM1149.3 1057.5l-319.8 155.8c-2.2 1-4.7-.6-4.7-3v-9c0-2.7 1.5-5.1 4-6.2l320.1-156c2.9-1.3 6.1.8 6.1 3.9v5.6c0 3.8-2.3 7.2-5.7 8.9z" opacity=".58"/><path fill="#1169a8" stroke="#fff" stroke-miterlimit="10" stroke-width="1.317" d="M333.9 945.9v631.9l509.8-238V704.6z" opacity=".4"/><path fill="#fffbff" d="M517.8 978.8 401.2 1035c-2.2 1-4.7-.6-4.7-3v-9c0-2.7 1.5-5.1 4-6.2l116.9-56.4c2.9-1.3 6.1.8 6.1 3.9v5.6c0 3.9-2.2 7.3-5.7 8.9zM664.8 950.5l-263.5 129.2c-2.2 1-4.7-.6-4.7-3v-9c0-2.7 1.5-5.1 4-6.2l263.9-129.3c2.9-1.3 6.1.8 6.1 3.9v5.6c-.1 3.7-2.4 7.2-5.8 8.8zM721 971.2 401.2 1127c-2.2 1-4.7-.6-4.7-3v-9c0-2.7 1.5-5.1 4-6.2l320.1-156c2.9-1.3 6.1.8 6.1 3.9v5.6c0 3.9-2.2 7.3-5.7 8.9z" opacity=".58"/><linearGradient id="A" x1="470.616" x2="702.051" y1="1259.644" y2="1259.644" gradientUnits="userSpaceOnUse"><stop offset="0" stop-color="#f87d0b"/><stop offset="1" stop-color="#f7cb14"/></linearGradient><path fill="url(#A)" d="M588.8 1141.5c-19.1 8.5-37.1 21.2-53.1 36.3-25.8 24.5-46.2 55.8-56.9 87.8-5.3 15.8-8.2 31.8-8.2 47.1 0 52.1 33.7 81.2 80.6 76 11.7-1.4 24.4-4.9 37.6-10.8 1.9-.9 3.9-1.8 5.9-2.8l-10-20.3c-9 3.7-17.5 5.9-25.5 6.9-37.1 4.1-63.6-18.9-63.6-60 0-12.1 2.3-24.7 6.4-37.2 8.5-25.2 24.6-50 45-69.4 12.6-11.9 26.9-21.9 41.9-28.6 40.1-18 74.4-8 87.5 21.8l25.7-13.1c-14.6-42.5-59.8-57.8-113.3-33.7z"/><path fill="#e4e0f9" d="M707 1206.7c0 25.1-7.9 52-21.3 77-20.3 38.2-53.4 72.5-91 91.3l-10-20.3c1.4-.5 2.8-1.1 4.2-1.7 31.6-14.2 59.7-42.6 76.5-74.3 10.6-19.8 16.7-41 16.7-60.9 0-11.4-2-21.4-5.8-29.8l25.7-13.1c3.2 9.3 5 20 5 31.8z"/><linearGradient id="B" x1="1298.308" x2="1369.308" y1="1779.506" y2="1779.506" gradientUnits="userSpaceOnUse"><stop offset="0" stop-color="#fbd8d8"/><stop offset="1" stop-color="#f48e8f"/></linearGradient><path fill="url(#B)" d="M1369.3 1758.2s-2.1 40.1-12.2 42.5c-10 2.4-58.8-31.4-58.8-31.4l24.6-11.1h46.4z"/><linearGradient id="C" x1="1423.013" x2="1498.816" y1="1726.982" y2="1726.982" gradientUnits="userSpaceOnUse"><stop offset="0" stop-color="#fbd8d8"/><stop offset="1" stop-color="#f48e8f"/></linearGradient><path fill="url(#C)" d="m1498.8 1699.9-4.7 51.4s-36 8.1-51.9-3.1c-15.9-11.2-26-23-13.6-29.5s26.6-18.8 26.6-18.8h43.6z"/><linearGradient id="D" x1="1360.528" x2="1502.529" y1="1734.588" y2="1734.588" gradientUnits="userSpaceOnUse"><stop offset="0" stop-color="#3951a2"/><stop offset="1" stop-color="#1a2652"/></linearGradient><path fill="url(#D)" d="M1502.2 1727.3s-24.5 13.8-36.1 10.2c-11.5-3.6-31.3-15.9-25.4-20.2 5.9-4.3 9.4-8.7 9.4-8.7s-56.9-10.1-64.1-8.7c-7.2 1.4-37.5 17.1-20.2 27.3s101 42 103.2 42c2.2 0 32.5-4.3 33.2-8.7.7-4.2 0-33.2 0-33.2z"/><linearGradient id="E" x1="1400.213" x2="1527.387" y1="1447.738" y2="1447.738" gradientUnits="userSpaceOnUse"><stop offset="0" stop-color="#3951a2"/><stop offset="1" stop-color="#1a2652"/></linearGradient><path fill="url(#E)" d="M1516.1 1180.6s11.1 29.6 11.3 69.9c.2 40.3-14.2 60.9-14.2 60.9l-14.4 193.1s17 29.8 17.3 74.3c.3 44.5-9.1 121-9.1 121s-1.2 11.7-26.8 14.5c-25.6 2.7-35-6.5-35-6.5s-8.7-153.6-26.2-202.4c-17.5-48.8-18.7-255.8-18.7-255.8l115.8-69z"/><linearGradient id="F" x1="1300.418" x2="1451.661" y1="1491.191" y2="1491.191" gradientUnits="userSpaceOnUse"><stop offset="0" stop-color="#3951a2"/><stop offset="1" stop-color="#1a2652"/></linearGradient><path fill="url(#F)" d="M1448.7 1233.2s10.2 40.6-7.2 73.5c-17.5 33-31.2 46.2-31.2 46.2l-15.7 185.2s14.6 48.7 9.4 100.2c-5.1 51.5-18.7 119.8-18.7 119.8s3.7 10.9-39.3 11.1c-43.1.3-30.1-14.6-30.1-14.6s-1.4-151.9-11.4-215.6c-10-63.7 2.2-326 2.2-326l142 20.2z"/><linearGradient id="G" x1="1227.307" x2="1369.308" y1="1785.954" y2="1785.954" gradientUnits="userSpaceOnUse"><stop offset="0" stop-color="#3951a2"/><stop offset="1" stop-color="#1a2652"/></linearGradient><path fill="url(#G)" d="M1369 1778.7s-24.5 13.8-36.1 10.2c-11.5-3.6-31.3-15.9-25.4-20.2 5.9-4.3 9.4-8.7 9.4-8.7s-56.9-10.1-64.1-8.7c-7.2 1.4-37.5 17.1-20.2 27.3s101 42 103.2 42c2.2 0 32.5-4.3 33.2-8.7.7-4.2 0-33.2 0-33.2z"/><linearGradient id="H" x1="1261.687" x2="1527.384" y1="1107.985" y2="1107.985" gradientUnits="userSpaceOnUse"><stop offset="0" stop-color="#fff"/><stop offset=".995" stop-color="#e6e5e0"/></linearGradient><path fill="url(#H)" d="M1500.7 865.1c-9.1-3-178.5 63.5-185.6 80.7-7.1 17.1-19.2 198.7-20.2 214.8-1 16.1-33.3 171.5-33.3 171.5s0 13.1 18.2 17.1c18.2 4 22.2 0 22.2 0l33.4-122.5s50.7 25.2 105.2 9.1 75.5-55.2 75.5-55.2 13.9-268.1 10.9-289.3c-3.1-21.2-26.3-26.2-26.3-26.2z"/><linearGradient id="I" x1="1337.595" x2="1453.526" y1="837.495" y2="837.495" gradientUnits="userSpaceOnUse"><stop offset="0" stop-color="#fbd8d8"/><stop offset="1" stop-color="#f48e8f"/></linearGradient><path fill="url(#I)" d="M1345.5 768.5s-13.9 70.2-4.9 86.9c9 16.7 40.5 13.7 41.8 23.1 1.4 9.3 4.6 34.5 4.6 34.5s67.3-26.9 66.4-33c-.9-6.1-3.6-35.2-3.4-57.2.2-22-18.4-57.3-26.1-60.2-7.5-2.9-78.4 5.9-78.4 5.9z"/><linearGradient id="J" x1="1332.624" x2="1477.801" y1="792.327" y2="792.327" gradientUnits="userSpaceOnUse"><stop offset="0" stop-color="#3951a2"/><stop offset="1" stop-color="#1a2652"/></linearGradient><path fill="url(#J)" d="M1340.4 740.4c-7.1 7.9-15.4 30.3 5.6 38.9 21 8.5 24.7 17.2 24.5 32.7-.2 15.5-.3 15.6 3.3 16.6 3.6 1 4.7-22.5 15.2-20.9 10.4 1.6 6.4 18.6 4.4 28.6-2.1 10 2.2 24.7 16.3 23.9 14.1-.8 44.9 6.1 54.1-14 9.2-20.1 29.1-77-5.7-104.4-34.9-27.4-101.7-19.3-117.7-1.4z"/><path fill="#e9e7df" d="m1364.6 916.5-37.4-25.9s-18.8-4.1-27.7 12.9c-9 17 15.7 42.2 15.7 42.2l49.4-29.2z"/><linearGradient id="K" x1="1276.528" x2="1321.205" y1="854.007" y2="854.007" gradientUnits="userSpaceOnUse"><stop offset="0" stop-color="#fbd8d8"/><stop offset="1" stop-color="#f48e8f"/></linearGradient><path fill="url(#K)" d="M1321.2 890.2s-7.1-45.5-10.9-47.7c-3.8-2.2-27.6-44-27.6-44s-10 5.8-4.6 18 16.8 26.4 13.8 27.9-13.8 28.1-13.8 34.6 19.4 30.7 19.4 30.7 17-17.5 23.7-19.5z"/><linearGradient id="L" x1="1261.687" x2="1304.378" y1="1373.984" y2="1373.984" gradientUnits="userSpaceOnUse"><stop offset="0" stop-color="#fbd8d8"/><stop offset="1" stop-color="#f48e8f"/></linearGradient><path fill="url(#L)" d="M1297.2 1350.8s2.8 4 4.4 15.5c1.6 11.5 2.8 23.8 2.8 23.8s-1.2 7.1-7.1-4l-5.9-11.1s-5.2 18.6 0 28.2c5.2 9.5-8.3 10.3-18.2 0-9.9-10.3-11.4-65.9-11.4-65.9s13.6 14.6 35.4 13.5z"/><path fill="#e9e7df" d="M1335.4 1226.8s22.3-128.5 22.3-151v-63.2s8.4 34.3 6.9 83.5c-1.5 49.1-14.5 136.4-14.5 136.4l-14.7-5.7z"/><linearGradient id="M" x1="1783.417" x2="1829.919" y1="1537.643" y2="1537.643" gradientUnits="userSpaceOnUse"><stop offset="0" stop-color="#fbd8d8"/><stop offset="1" stop-color="#f48e8f"/></linearGradient><path fill="url(#M)" d="M1829.9 1515.9v32.1s-13.4 15.6-25.1 10.4c-11.7-5.2-23.3-20.2-21.1-26.7 2.2-6.6 5.1-15.7 5.1-15.7h41.1z"/><linearGradient id="N" x1="1720.77" x2="1836.721" y1="1544.294" y2="1544.294" gradientUnits="userSpaceOnUse"><stop offset="0" stop-color="#3951a2"/><stop offset="1" stop-color="#1a2652"/></linearGradient><path fill="url(#N)" d="M1836.4 1537.9s-18.8 5.3-20.2 8.9c-1.3 3.6-10.7 6.6-21.7 0s-13.3-17.5-8.7-21.8c4.6-4.3-38.7-13.9-43.6-12.9-5 1-29.4 11.1-18.8 19.3 10.6 8.2 71.7 46.1 80.6 45.1 8.9-1 31.7-5.6 32.4-12.2.7-6.6 0-26.4 0-26.4z"/><linearGradient id="O" x1="1889.662" x2="1936.421" y1="1486.815" y2="1486.815" gradientUnits="userSpaceOnUse"><stop offset="0" stop-color="#fbd8d8"/><stop offset="1" stop-color="#f48e8f"/></linearGradient><path fill="url(#O)" d="m1936.4 1462.3-2.6 41.2s-10 9.9-20.8 7.3c-10.8-2.6-26.6-15.2-22.8-22.1 3.7-6.9 12.8-19.9 12.8-21.7.1-1.6 33.4-4.7 33.4-4.7z"/><linearGradient id="P" x1="1845.334" x2="1938.904" y1="1497.058" y2="1497.058" gradientUnits="userSpaceOnUse"><stop offset="0" stop-color="#3951a2"/><stop offset="1" stop-color="#1a2652"/></linearGradient><path fill="url(#P)" d="M1938.7 1491.9s-15.2 4.3-16.3 7.2c-1.1 2.9-8.7 5.3-17.5 0-8.9-5.3-10.7-14.1-7-17.6 3.7-3.5-31.2-11.2-35.2-10.4-4 .8-23.7 9-15.2 15.6s57.9 37.2 65.1 36.4c7.2-.8 25.6-4.5 26.1-9.8.5-5.4 0-21.4 0-21.4z"/><linearGradient id="Q" x1="1808.147" x2="1629.807" y1="808.213" y2="681.89" gradientUnits="userSpaceOnUse"><stop offset="0" stop-color="#f87d0b"/><stop offset="1" stop-color="#f7cb14"/></linearGradient><path fill="url(#Q)" d="m1873.8 852.4-256.2 119.3c-10.3 4.8-22.2-2.7-22.2-14.1V680.4c0-6.1 3.5-11.6 9-14.1L1860.6 547c10.3-4.8 22.2 2.7 22.2 14.1v277.2c0 6-3.5 11.5-9 14.1z"/><path fill="#fff" d="m1749.7 665.2 100.5-46.4c1.8-.8 3.2-3 3.2-4.7 0-1.8-1.5-2.6-3.2-1.7l-100.5 46.4c-1.8.8-3.2 3-3.2 4.7-.1 1.7 1.4 2.5 3.2 1.7zM1783.3 676.2l67-30.9c1.8-.8 3.2-3 3.2-4.7 0-1.8-1.5-2.6-3.2-1.7l-67 30.9c-1.8.8-3.2 3-3.2 4.7-.1 1.8 1.4 2.6 3.2 1.7zM1700 714.6l67-30.9c1.8-.8 3.2-3 3.2-4.7 0-1.8-1.5-2.6-3.2-1.7l-67 30.9c-1.8.8-3.2 3-3.2 4.7 0 1.8 1.4 2.5 3.2 1.7zM1616.8 753l67-30.9c1.8-.8 3.2-3 3.2-4.7 0-1.8-1.5-2.6-3.2-1.7l-67 30.9c-1.8.8-3.2 3-3.2 4.7-.1 1.8 1.4 2.5 3.2 1.7zM1808.6 685.1l41.6-19.2c1.8-.8 3.2-3 3.2-4.7 0-1.8-1.5-2.6-3.2-1.7l-41.6 19.2c-1.8.8-3.2 3-3.2 4.7 0 1.7 1.4 2.5 3.2 1.7zM1733.5 719.7l58.8-27.1c1.8-.8 3.2-3 3.2-4.7 0-1.8-1.5-2.6-3.2-1.7l-58.8 27.1c-1.8.8-3.2 3-3.2 4.7-.1 1.8 1.4 2.6 3.2 1.7zM1673.6 747.3l43.6-20.1c1.8-.8 3.2-3 3.2-4.7 0-1.8-1.5-2.6-3.2-1.7l-43.6 20.1c-1.8.8-3.2 3-3.2 4.7 0 1.8 1.4 2.6 3.2 1.7zM1783.3 719.9l67-30.9c1.8-.8 3.2-3 3.2-4.7 0-1.8-1.5-2.6-3.2-1.7l-67 30.9c-1.8.8-3.2 3-3.2 4.7-.1 1.8 1.4 2.6 3.2 1.7zM1808.6 728.8l41.6-19.2c1.8-.8 3.2-3 3.2-4.7 0-1.8-1.5-2.6-3.2-1.7l-41.6 19.2c-1.8.8-3.2 3-3.2 4.7 0 1.7 1.4 2.5 3.2 1.7zM1733.5 763.5l58.8-27.1c1.8-.8 3.2-3 3.2-4.7 0-1.8-1.5-2.6-3.2-1.7l-58.8 27.1c-1.8.8-3.2 3-3.2 4.7-.1 1.7 1.4 2.5 3.2 1.7zM1673.6 791.1l43.6-20.1c1.8-.8 3.2-3 3.2-4.7 0-1.8-1.5-2.6-3.2-1.7l-43.6 20.1c-1.8.8-3.2 3-3.2 4.7 0 1.7 1.4 2.5 3.2 1.7zM1783.3 773l67-30.9c1.8-.8 3.2-3 3.2-4.7 0-1.8-1.5-2.6-3.2-1.7l-67 30.9c-1.8.8-3.2 3-3.2 4.7-.1 1.8 1.4 2.5 3.2 1.7zM1700 811.4l67-30.9c1.8-.8 3.2-3 3.2-4.7 0-1.8-1.5-2.6-3.2-1.7l-67 30.9c-1.8.8-3.2 3-3.2 4.7 0 1.8 1.4 2.5 3.2 1.7zM1616.8 849.8l67-30.9c1.8-.8 3.2-3 3.2-4.7 0-1.8-1.5-2.6-3.2-1.7l-67 30.9c-1.8.8-3.2 3-3.2 4.7-.1 1.7 1.4 2.5 3.2 1.7zM1808.6 781.9l41.6-19.2c1.8-.8 3.2-3 3.2-4.7 0-1.8-1.5-2.6-3.2-1.7l-41.6 19.2c-1.8.8-3.2 3-3.2 4.7 0 1.7 1.4 2.5 3.2 1.7zM1733.5 816.5l58.8-27.1c1.8-.8 3.2-3 3.2-4.7 0-1.8-1.5-2.6-3.2-1.7l-58.8 27.1c-1.8.8-3.2 3-3.2 4.7-.1 1.8 1.4 2.6 3.2 1.7zM1673.6 844.1l43.6-20.1c1.8-.8 3.2-3 3.2-4.7 0-1.8-1.5-2.6-3.2-1.7l-43.6 20.1c-1.8.8-3.2 3-3.2 4.7 0 1.8 1.4 2.6 3.2 1.7zM1783.3 816.7l67-30.9c1.8-.8 3.2-3 3.2-4.7 0-1.8-1.5-2.6-3.2-1.7l-67 30.9c-1.8.8-3.2 3-3.2 4.7-.1 1.8 1.4 2.6 3.2 1.7zM1808.6 825.6l41.6-19.2c1.8-.8 3.2-3 3.2-4.7 0-1.8-1.5-2.6-3.2-1.7l-41.6 19.2c-1.8.8-3.2 3-3.2 4.7 0 1.7 1.4 2.5 3.2 1.7zM1733.5 860.2l58.8-27.1c1.8-.8 3.2-3 3.2-4.7 0-1.8-1.5-2.6-3.2-1.7l-58.8 27.1c-1.8.8-3.2 3-3.2 4.7-.1 1.8 1.4 2.6 3.2 1.7zM1673.6 887.8l43.6-20.1c1.8-.8 3.2-3 3.2-4.7 0-1.8-1.5-2.6-3.2-1.7l-43.6 20.1c-1.8.8-3.2 3-3.2 4.7 0 1.8 1.4 2.6 3.2 1.7z" opacity=".43"/><linearGradient id="R" x1="1962.968" x2="1844.989" y1="1255.57" y2="1269.957" gradientUnits="userSpaceOnUse"><stop offset="0" stop-color="#3951a2"/><stop offset="1" stop-color="#1a2652"/></linearGradient><path fill="url(#R)" d="M1946.3 1034.9s9.3 24.9 9.5 58.8c.2 33.9-11.9 51.3-11.9 51.3l-12.1 162.5s14.3 25.1 14.5 62.5c.3 37.4-7.6 101.8-7.6 101.8s-1 9.9-22.6 12.2c-21.6 2.3-29.4-5.5-29.4-5.5s-7.4-129.3-22.1-170.4c-14.7-41.1-15.8-215.2-15.8-215.2l97.5-58z"/><linearGradient id="S" x1="1864.848" x2="1767.011" y1="1293.941" y2="1296.819" gradientUnits="userSpaceOnUse"><stop offset="0" stop-color="#3951a2"/><stop offset="1" stop-color="#1a2652"/></linearGradient><path fill="url(#S)" d="M1889.6 1079.1s8.6 34.1-6.1 61.9-26.3 38.9-26.3 38.9l-13.2 155.8s12.3 41 7.9 84.4c-4.3 43.3-15.8 100.8-15.8 100.8s3.2 9.1-33.1 9.3c-36.3.2-25.3-12.3-25.3-12.3s-1.2-127.8-9.6-181.4c-8.4-53.6 1.8-274.4 1.8-274.4l119.7 17z"/><linearGradient id="T" x1="1784.151" x2="1873.749" y1="733.652" y2="733.652" gradientUnits="userSpaceOnUse"><stop offset="0" stop-color="#fbd8d8"/><stop offset="1" stop-color="#f48e8f"/></linearGradient><path fill="url(#T)" d="M1786.1 682.1s-5.8 66.3 2.5 78.3 24.6 5.5 28.1 8.4c3.5 2.9 5.4 26.8 5.4 26.8s50.8-20.5 51.1-20.8c.3-.4-4.8-22.7-1.8-36.3 3-13.6 6.8-53.5-14.7-63.6-21.6-10.1-70.6 7.2-70.6 7.2z"/><path fill="#fefefe" d="M1904.5 759.3s-87.1 25.5-90.2 33.1c-3.1 7.5-1.8 20.8-6.6 22.6-4.9 1.8-35.7 19.9-40.2 25.2-4.4 5.3-49 93.6-49 93.6s.4 14 21.2 24.4c20.7 10.4 30.5 4.3 30.5 4.3l-5.3 115.3s61 23.3 117.9 15.2c56.9-8.1 66.5-48.4 66.5-48.4s-9.2-117.4-3.9-118.8c5.3-1.3 26.5-3.1 28.7-20.7 2.2-17.7-6.3-129.5-21.3-133-15.1-3.7-35-.1-48.3-12.8z"/><linearGradient id="U" x1="1580.982" x2="1770.161" y1="912.895" y2="912.895" gradientUnits="userSpaceOnUse"><stop offset="0" stop-color="#fbd8d8"/><stop offset="1" stop-color="#f48e8f"/></linearGradient><path fill="url(#U)" d="M1718.5 938s-87.9-54.7-93.8-66.8c-5.8-12.2-5.3-32.3-12.7-30.2-7.4 2.1-2.6 12.9-5.8 13.1-3.2.2-12.7-18.4-15.4-18.4-2.6 0-18 29-4.2 44.9 13.8 16 127.6 105.4 145.1 109.1s38.4-27.4 38.4-27.4-29.3 6.6-51.6-24.3z"/><linearGradient id="V" x1="1770.539" x2="1975.082" y1="758.322" y2="758.322" gradientUnits="userSpaceOnUse"><stop offset="0" stop-color="#3951a2"/><stop offset="1" stop-color="#1a2652"/></linearGradient><path fill="url(#V)" d="M1789.3 660.1c16.2-9.6 84.4-23.6 107.7 28 10 19.9 8.2 47.6 18.7 66.1 14.5 25.7 56.9-1.6 59.4 61.2 2.5 62.8-109.7 62.7-137.5 23.2-27.8-39.5 9.1-58.7-8.6-69.9-16.4-10.4-18.2-34.7-20.4-35-1.8-.2-33.9-26.2-37-42.7-2.4-12.1-1.9-19.3 17.7-30.9z"/></svg>