<svg xmlns="http://www.w3.org/2000/svg" viewBox="0 0 800 800"><defs><linearGradient id="a" x1="112.34" x2="263.66" y1="399.94" y2="399.94" gradientUnits="userSpaceOnUse"><stop offset="0" stop-color="#fff"/><stop offset="1" stop-color="#dde2f8"/></linearGradient><linearGradient id="b" x1="112.34" x2="331.58" y1="231.02" y2="231.02" gradientUnits="userSpaceOnUse"><stop offset="0" stop-color="#fff"/><stop offset=".42" stop-color="#fbfcfd"/><stop offset=".87" stop-color="#eef1f9"/><stop offset="1" stop-color="#e9edf7"/></linearGradient></defs><g data-name="Secondary shapes"><path fill="#e9edf7" d="M599.29,280.73c12.06-2.14,25.74-17.29,25.08-29.32S612.53,236.93,614,230.32,627.62,216,625.56,207c-3.67-16-28.54-5.36-32.45-16.87s10.32-16.55,8.35-27.87-22-1.36-29.54-13.17-28.17-33.95-39.52-20.52c-9,10.61,7.9,15.68,7.58,21.67-.37,6.84-9.09,7.42-7.84,15,1.76,10.76,16.19,11.56,16.18,20.63s-11.76,11.45-5.31,21.53c8,12.48,27.06-1.07,28.91,18.31s-22,11.49-22.51,23.61c-.6,13.24,23.28,11.74,20.77,20.41C566.76,281.51,580.57,284.05,599.29,280.73Z"/><path fill="none" stroke="#dde2f8" stroke-linecap="round" stroke-linejoin="round" stroke-width="2" d="M602.44,279.89c-.11-3.28,3.77-11.17.46-16.36s-8.75-9-11-15.44c-4.95-14.29,4-24.06,1.38-32.84-1.92-6.53-8.69-3.76-13.36-11.06s1.3-8.74-4.39-17.63c-5-7.87-9.9-4.06-15.5-12-8.41-11.87-3-21.53-5.94-25.66-2.59-3.63-6-2.92-6-2.92"/><path fill="none" stroke="#e9edf7" stroke-linecap="round" stroke-linejoin="round" stroke-width="2" d="M728.27,424.42c-7.2,20.84,3.27,27.12,10.05,26.38,2.38,8.14,14,12.94,26.53,3.67"/><path fill="none" stroke="#e9edf7" stroke-linecap="round" stroke-linejoin="round" stroke-width="2" d="M736.8,421.92c-9.57,12.23-6.63,25,2.07,28.12,3.66,5.52,16,9.17,28.08-3.17"/><path fill="none" stroke="#e9edf7" stroke-linecap="round" stroke-linejoin="round" stroke-width="2" d="M748.91,422.12c-4.5,2-20,19-9.25,26.79,3.4,5.58,19.52,2.14,28.05-9"/><path fill="none" stroke="#e9edf7" stroke-linecap="round" stroke-linejoin="round" stroke-width="2" d="M760.6,442.64c-2.55,2.06-13.72,5.86-20.94,6.27.36-6.47,6.29-17,9.47-19.52"/><path fill="none" stroke="#e9edf7" stroke-linecap="round" stroke-linejoin="round" stroke-width="2" d="M739.66,448.91c6.54-2.44,13.66-5.18,21.88-12.94"/><path fill="none" stroke="#e9edf7" stroke-linecap="round" stroke-linejoin="round" stroke-width="2" d="M761,429.11c-5.35,1.85-17.16,13.33-19.76,19.2"/><path fill="none" stroke="#e9edf7" stroke-linecap="round" stroke-linejoin="round" stroke-width="2" d="M738.32,450.8c-4.46,3.47-26.52,30.76-33.56,43.39"/><path fill="#e9edf7" d="M50.56,426.05c-1.4-11.38-11.92-13.89-18.27-14.85C33,414.65,36.59,428.44,50.56,426.05Z"/><path fill="none" stroke="#dde2f8" stroke-linecap="round" stroke-linejoin="round" stroke-width="2" d="M139.89,472.93c-23.36-4.86-59.55-20.39-90.75-47.93"/><path fill="#e9edf7" d="M123.3,473.77C100.56,478.11,99.82,495.1,98.74,508,105.6,506.18,130,501.59,123.3,473.77Z"/><path fill="#e9edf7" d="M102.27,466.71c-18.55-1.16-22.52,11.9-25.94,21.74C82,488.38,101.92,489.68,102.27,466.71Z"/><path fill="#e9edf7" d="M81.35,454.64c-15.26-4.7-21.21,5.41-26,12.95C60.08,468.67,76.44,473.76,81.35,454.64Z"/><path fill="#e9edf7" d="M62.13,441.37c-8.29-5.45-13.59-.44-17.79,3.22C47,446.06,55.89,451.93,62.13,441.37Z"/><path fill="#e9edf7" d="M125.15,461.83c-15.77-13-9.15-26.45-4.52-36.92C125.16,429.24,142.11,443.12,125.15,461.83Z"/><path fill="#e9edf7" d="M102.43,453.73c-15.18-8.94-11.36-21.31-8.81-30.86C98.05,426,114.36,435.51,102.43,453.73Z"/><path fill="#e9edf7" d="M77.12,440.16c-8.27-8.74-3.43-16.14,0-21.93C79.5,421.1,88.4,430.45,77.12,440.16Z"/><path fill="#e9edf7" d="M60.72,429.81C55,425.69,57,420.94,58.4,417.25,60,418.65,66.14,423.05,60.72,429.81Z"/><path fill="#dde2f8" d="M125.1,355.72C117,385.59,89,392.94,55.47,378.64,68.15,353.13,99.23,333.91,125.1,355.72Z"/><path fill="#e9edf7" d="M131.3,355.28c-37.88,13.83-66.74-10.48-76.69-56.92C91.29,292.71,135.1,311.36,131.3,355.28Z"/><path fill="none" stroke="#fff" stroke-linecap="round" stroke-linejoin="round" stroke-width="2" d="M131.3,355.28c-13-10.87-47.74-33-67.63-49.51"/><path fill="#423eaf" d="M635.77,249.58c25,6.61,43.1-9.63,48.31-38.46C660.08,209.45,632.11,223,635.77,249.58Z"/><path fill="#9f9cff" d="M627.85,251.86c33.54-16.31,35.28-49.12,9.88-82.7C610.54,189.49,595.42,228.62,627.85,251.86Z"/><path fill="none" stroke="#807dfb" stroke-linecap="round" stroke-linejoin="round" stroke-width="2" d="M627.85,251.86c.85-14.74,7.78-50.09,9.18-72.52"/><path fill="none" stroke="#9f9cff" stroke-linecap="round" stroke-linejoin="round" stroke-width="2" d="M168.66,227.71c-5.3-16-33-69.35-53-96.39"/><path fill="none" stroke="#9f9cff" stroke-linecap="round" stroke-linejoin="round" stroke-width="2" d="M117.22,129.41a3.9,3.9,0,1,0-5,2.25A3.91,3.91,0,0,0,117.22,129.41Z"/><path fill="none" stroke="#9f9cff" stroke-linecap="round" stroke-linejoin="round" stroke-width="2" d="M147.78,146.8a3.79,3.79,0,1,0-4.89,2.18A3.8,3.8,0,0,0,147.78,146.8Z"/><path fill="none" stroke="#9f9cff" stroke-linecap="round" stroke-linejoin="round" stroke-width="2" d="M134.75,183.49a4.29,4.29,0,1,0-5.54,2.47A4.29,4.29,0,0,0,134.75,183.49Z"/><path fill="none" stroke="#9f9cff" stroke-linecap="round" stroke-linejoin="round" stroke-width="2" d="M167.41,185.76a5,5,0,1,0-6.41,2.86A5,5,0,0,0,167.41,185.76Z"/><path fill="none" stroke="#9f9cff" stroke-linecap="round" stroke-linejoin="round" stroke-width="2" d="M111.39,141.44a3.24,3.24,0,1,0-4.18,1.87A3.24,3.24,0,0,0,111.39,141.44Z"/><path fill="none" stroke="#9f9cff" stroke-linecap="round" stroke-linejoin="round" stroke-width="2" d="M111.52,141c2.81.89,12,3.33,14.54,5.57"/><path fill="none" stroke="#9f9cff" stroke-linecap="round" stroke-linejoin="round" stroke-width="2" d="M142.89,149c-.93,2.43-4,12.05-3.83,19.16"/><path fill="none" stroke="#9f9cff" stroke-linecap="round" stroke-linejoin="round" stroke-width="2" d="M134.75,183.49c2.41-.08,12.82,2.83,15.66,5.28"/><path fill="none" stroke="#9f9cff" stroke-linecap="round" stroke-linejoin="round" stroke-width="2" d="M162.64,189c-.51,2.77-2.72,16.16-2.6,18.83"/><path fill="#e9edf7" d="M78.45,646.59c0-5.56,51.75-10.07,115.58-10.07S309.62,641,309.62,646.59,257.87,656.66,194,656.66,78.45,652.15,78.45,646.59Z"/><polygon fill="url(#a)" points="263.66 562.19 112.34 551.61 112.34 237.69 263.66 248.27 263.66 562.19"/><path fill="#ced3f8" d="M331.58,538.27c-22.58,8.13-45.26,16-67.92,23.92V248.27q33.87-12.22,67.92-23.92Z"/><polygon fill="url(#b)" points="263.66 248.27 112.34 237.69 180.26 213.76 331.58 224.35 263.66 248.27"/><polygon fill="#6b67e9" points="453.99 575.5 302.67 564.92 302.67 251 453.99 261.58 453.99 575.5"/><path fill="#362e94" d="M333.35,278.69l90,6.29a5.58,5.58,0,0,1,5.13,5.49v90a4.72,4.72,0,0,1-5.13,4.78l-90-6.29a5.6,5.6,0,0,1-5.14-5.5v-90A4.73,4.73,0,0,1,333.35,278.69Z"/><polygon fill="#5652cc" points="440.43 416.94 316.23 408.26 316.23 400.41 440.43 409.09 440.43 416.94"/><polygon fill="#fcba06" points="338.49 409.81 334.63 409.54 334.63 401.69 338.49 401.96 338.49 409.81"/><polygon fill="#9f9cff" points="395.12 413.77 391.26 413.5 391.26 405.66 395.12 405.93 395.12 413.77"/><polygon fill="#fcba06" points="402.33 414.28 398.47 414.01 398.47 406.16 402.33 406.43 402.33 414.28"/><polygon fill="#362e94" points="409.54 414.78 405.68 414.51 405.68 406.66 409.54 406.93 409.54 414.78"/><polygon fill="#9f9cff" points="416.75 415.29 412.89 415.01 412.89 407.17 416.75 407.44 416.75 415.29"/><polygon fill="#9f9cff" points="423.96 415.79 420.09 415.52 420.09 407.67 423.96 407.94 423.96 415.79"/><polygon fill="#5652cc" points="440.43 434.96 316.23 426.28 316.23 418.43 440.43 427.11 440.43 434.96"/><polygon fill="#362e94" points="328.06 427.1 324.2 426.83 324.2 418.99 328.06 419.26 328.06 427.1"/><polygon fill="#362e94" points="335.4 427.62 331.54 427.35 331.54 419.5 335.4 419.77 335.4 427.62"/><polygon fill="#362e94" points="342.74 428.13 338.88 427.86 338.88 420.01 342.74 420.28 342.74 428.13"/><polygon fill="#362e94" points="350.07 428.64 346.21 428.37 346.21 420.53 350.07 420.8 350.07 428.64"/><polygon fill="#362e94" points="376.66 430.5 372.8 430.23 372.8 422.38 376.66 422.65 376.66 430.5"/><polygon fill="#fcba06" points="383.86 431.01 380 430.74 380 422.89 383.86 423.16 383.86 431.01"/><polygon fill="#9f9cff" points="409.54 432.8 405.68 432.53 405.68 424.68 409.54 424.95 409.54 432.8"/><polygon fill="#362e94" points="416.75 433.31 412.89 433.04 412.89 425.19 416.75 425.46 416.75 433.31"/><polygon fill="#9f9cff" points="433.1 434.45 429.23 434.18 429.23 426.33 433.1 426.6 433.1 434.45"/><polygon fill="#5652cc" points="440.43 452.98 316.23 444.3 316.23 436.45 440.43 445.13 440.43 452.98"/><polygon fill="#362e94" points="338.49 445.85 334.63 445.58 334.63 437.74 338.49 438.01 338.49 445.85"/><polygon fill="#fcba06" points="366.03 447.78 362.17 447.51 362.17 439.66 366.03 439.93 366.03 447.78"/><polygon fill="#362e94" points="395.12 449.81 391.26 449.54 391.26 441.7 395.12 441.97 395.12 449.81"/><polygon fill="#fcba06" points="402.33 450.32 398.47 450.05 398.47 442.2 402.33 442.47 402.33 450.32"/><polygon fill="#9f9cff" points="409.54 450.82 405.68 450.55 405.68 442.7 409.54 442.97 409.54 450.82"/><polygon fill="#9f9cff" points="416.75 451.33 412.89 451.06 412.89 443.21 416.75 443.48 416.75 451.33"/><polygon fill="#9f9cff" points="433.1 452.47 429.23 452.2 429.23 444.35 433.1 444.62 433.1 452.47"/><polygon fill="#5652cc" points="440.43 471 316.23 462.32 316.23 454.47 440.43 463.15 440.43 471"/><polygon fill="#fcba06" points="338.49 463.87 334.63 463.6 334.63 455.76 338.49 456.03 338.49 463.87"/><polygon fill="#9f9cff" points="395.12 467.83 391.26 467.56 391.26 459.72 395.12 459.99 395.12 467.83"/><polygon fill="#362e94" points="366.03 465.8 362.17 465.53 362.17 457.68 366.03 457.95 366.03 465.8"/><polygon fill="#362e94" points="373.5 466.32 369.64 466.05 369.64 458.2 373.5 458.47 373.5 466.32"/><polygon fill="#fcba06" points="402.33 468.34 398.47 468.07 398.47 460.22 402.33 460.49 402.33 468.34"/><polygon fill="#9f9cff" points="409.54 468.84 405.68 468.57 405.68 460.72 409.54 460.99 409.54 468.84"/><polygon fill="#9f9cff" points="416.75 469.35 412.89 469.08 412.89 461.23 416.75 461.5 416.75 469.35"/><polygon fill="#362e94" points="423.96 469.85 420.09 469.58 420.09 461.73 423.96 462 423.96 469.85"/><polygon fill="#5652cc" points="316.23 480.34 440.43 489.02 440.43 481.18 316.23 472.49 316.23 480.34"/><polygon fill="#fcba06" points="418.17 487.47 422.03 487.74 422.03 479.89 418.17 479.62 418.17 487.47"/><polygon fill="#20196f" points="361.54 483.5 365.4 483.77 365.4 475.93 361.54 475.66 361.54 483.5"/><polygon fill="#fcba06" points="354.33 483 358.19 483.27 358.19 475.42 354.33 475.15 354.33 483"/><polygon fill="#9f9cff" points="347.12 482.5 350.98 482.77 350.98 474.92 347.12 474.65 347.12 482.5"/><polygon fill="#20196f" points="339.91 481.99 343.77 482.26 343.77 474.42 339.91 474.15 339.91 481.99"/><polygon fill="#9f9cff" points="332.7 481.49 336.56 481.76 336.56 473.91 332.7 473.64 332.7 481.49"/><polygon fill="#5652cc" points="316.23 498.36 440.43 507.04 440.43 499.19 316.23 490.51 316.23 498.36"/><polygon fill="#20196f" points="410.83 504.97 414.69 505.24 414.69 497.39 410.83 497.13 410.83 504.97"/><polygon fill="#20196f" points="390.3 503.54 394.17 503.81 394.17 495.96 390.3 495.69 390.3 503.54"/><polygon fill="#fcba06" points="383.1 503.03 386.96 503.3 386.96 495.46 383.1 495.19 383.1 503.03"/><polygon fill="#9f9cff" points="375.89 502.53 379.75 502.8 379.75 494.95 375.89 494.68 375.89 502.53"/><polygon fill="#9f9cff" points="339.91 500.01 343.77 500.28 343.77 492.44 339.91 492.17 339.91 500.01"/><polygon fill="#9f9cff" points="354.01 501 357.87 501.27 357.87 493.42 354.01 493.15 354.01 501"/><polygon fill="#9f9cff" points="332.7 499.51 336.56 499.78 336.56 491.93 332.7 491.66 332.7 499.51"/><polygon fill="#5652cc" points="316.23 516.38 440.43 525.06 440.43 517.22 316.23 508.53 316.23 516.38"/><polygon fill="#362e94" points="418.17 523.51 422.03 523.78 422.03 515.93 418.17 515.66 418.17 523.51"/><polygon fill="#362e94" points="361.54 519.55 365.4 519.82 365.4 511.97 361.54 511.7 361.54 519.55"/><polygon fill="#fcba06" points="354.33 519.04 358.19 519.31 358.19 511.46 354.33 511.19 354.33 519.04"/><polygon fill="#362e94" points="347.12 518.54 350.98 518.81 350.98 510.96 347.12 510.69 347.12 518.54"/><polygon fill="#9f9cff" points="339.91 518.03 343.77 518.3 343.77 510.46 339.91 510.19 339.91 518.03"/><polygon fill="#9f9cff" points="332.7 517.53 336.56 517.8 336.56 509.95 332.7 509.68 332.7 517.53"/><polygon fill="#5652cc" points="440.43 543.08 316.23 534.4 316.23 526.55 440.43 535.24 440.43 543.08"/><polygon fill="#fcba06" points="338.49 535.95 334.63 535.68 334.63 527.84 338.49 528.11 338.49 535.95"/><polygon fill="#362e94" points="395.12 539.91 391.26 539.64 391.26 531.8 395.12 532.07 395.12 539.91"/><polygon fill="#362e94" points="402.33 540.42 398.47 540.15 398.47 532.3 402.33 532.57 402.33 540.42"/><polygon fill="#362e94" points="409.54 540.92 405.68 540.65 405.68 532.8 409.54 533.08 409.54 540.92"/><polygon fill="#fcba06" points="416.75 541.43 412.89 541.16 412.89 533.31 416.75 533.58 416.75 541.43"/><polygon fill="#9f9cff" points="423.96 541.93 420.09 541.66 420.09 533.81 423.96 534.08 423.96 541.93"/><g style="mix-blend-mode:screen"><path fill="#fcba06" d="M382.9,362.24l-5.8-.41A23,23,0,0,1,356,339.27V321.74l48,3.36v17.52A19.41,19.41,0,0,1,382.9,362.24Z"/><path fill="#dc8b00" d="M399.8,324.8l-6.18-.43v-4.05A14.86,14.86,0,0,0,380,305.75a12.55,12.55,0,0,0-13.62,12.67v4.05l-6.17-.44v-4A18.24,18.24,0,0,1,380,299.57a21.6,21.6,0,0,1,19.8,21.19Z"/><path fill="#fff89f" d="M361,328.75a2.11,2.11,0,0,1,2.3-2.13,2.49,2.49,0,0,1,2.29,2.45,2.11,2.11,0,0,1-2.29,2.14A2.51,2.51,0,0,1,361,328.75Z"/><path fill="#fff89f" d="M394.37,331.09a2.12,2.12,0,0,1,2.3-2.14,2.5,2.5,0,0,1,2.29,2.46,2.11,2.11,0,0,1-2.29,2.13A2.5,2.5,0,0,1,394.37,331.09Z"/><path fill="#fff89f" d="M384.05,340.35a4.4,4.4,0,0,0-4.31-4.34,3.73,3.73,0,0,0-3.77,3.44,4.37,4.37,0,0,0,2.17,4.08l-.79,7a.52.52,0,0,0,.48.57l4.34.31a.46.46,0,0,0,.49-.51l-.79-7.07A3.7,3.7,0,0,0,384.05,340.35Z"/></g><path fill="#5652cc" d="M521.91,551.58c-22.59,8.13-45.26,16-67.92,23.92V261.58q33.87-12.22,67.92-23.92Z"/><path fill="#423eaf" d="M468.85,281.78q20.4-7.25,40.84-14.36c1.18-.41,2.11,1.57,2.11,4.41q-.15,45.06-.28,90.1c0,2.84-1,5.48-2.18,5.91Q489,375,468.62,382.15c-1.34.47-2.43-1.44-2.43-4.28l.18-90.06C466.38,285,467.49,282.27,468.85,281.78Z"/><path fill="#fcba06" d="M474.1,358.73c-1.32.47-1.85-1.32-1.19-4q8-31.83,15.85-63.69c.65-2.64,1.69-3,2.31-.81q7.47,26.46,14.56,53c.59,2.2.1,4.35-1.11,4.77Q489.31,353.36,474.1,358.73Z"/><path fill="#362e94" d="M489.87,332.73l-.47.16q-.06-2.64-.46-6.3c-.21-2-.32-2.95-.53-4.91a61.06,61.06,0,0,1-.48-6.41,8.49,8.49,0,0,1,.5-3.08,2.5,2.5,0,0,1,1.29-1.56c.51-.18.94.05,1.27.67a5.8,5.8,0,0,1,.49,2.65c0,1.19-.19,3.47-.56,6.84-.23,2.13-.35,3.19-.58,5.31Q490,328.92,489.87,332.73Zm-.22,3.43c.48-.16.89.07,1.22.69a5.36,5.36,0,0,1,.5,2.54,8,8,0,0,1-.52,2.87,2.52,2.52,0,0,1-1.23,1.55q-.72.26-1.23-.69a5.25,5.25,0,0,1-.5-2.51,8.06,8.06,0,0,1,.52-2.88A2.49,2.49,0,0,1,489.65,336.16Z"/><polygon fill="#807dfb" points="453.99 261.58 302.67 251 370.59 227.07 521.91 237.66 453.99 261.58"/><polygon fill="#5652cc" points="332.1 248.26 325.23 247.78 374.87 230.29 381.74 230.78 332.1 248.26"/><polygon fill="#5652cc" points="345.3 249.18 338.43 248.7 388.07 231.22 394.94 231.7 345.3 249.18"/><polygon fill="#5652cc" points="358.5 250.1 351.63 249.62 401.27 232.14 408.14 232.62 358.5 250.1"/><polygon fill="#5652cc" points="371.7 251.03 364.83 250.55 414.47 233.06 421.34 233.54 371.7 251.03"/><polygon fill="#6b67e9" points="644.75 588.84 493.43 578.26 493.43 264.33 644.75 274.92 644.75 588.84"/><path fill="#362e94" d="M524.11,292l89.95,6.3a5.58,5.58,0,0,1,5.14,5.49v90a4.73,4.73,0,0,1-5.14,4.78l-89.95-6.29a5.6,5.6,0,0,1-5.14-5.5v-90A4.74,4.74,0,0,1,524.11,292Z"/><polygon fill="#5652cc" points="506.98 539.89 631.19 548.58 631.19 556.42 506.98 547.74 506.98 539.89"/><polygon fill="#fcba06" points="608.93 547.02 612.79 547.29 612.79 555.13 608.93 554.87 608.93 547.02"/><polygon fill="#9f9cff" points="552.29 543.06 556.15 543.33 556.15 551.17 552.29 550.9 552.29 543.06"/><polygon fill="#fcba06" points="545.08 542.55 548.95 542.82 548.95 550.67 545.08 550.4 545.08 542.55"/><polygon fill="#362e94" points="537.88 542.05 541.74 542.32 541.74 550.17 537.88 549.9 537.88 542.05"/><polygon fill="#9f9cff" points="530.67 541.54 534.53 541.82 534.53 549.66 530.67 549.39 530.67 541.54"/><polygon fill="#9f9cff" points="523.46 541.04 527.32 541.31 527.32 549.16 523.46 548.89 523.46 541.04"/><polygon fill="#5652cc" points="506.98 521.87 631.19 530.55 631.19 538.4 506.98 529.72 506.98 521.87"/><polygon fill="#362e94" points="619.35 529.73 623.22 530 623.22 537.84 619.35 537.57 619.35 529.73"/><polygon fill="#362e94" points="612.02 529.21 615.88 529.48 615.88 537.33 612.02 537.06 612.02 529.21"/><polygon fill="#362e94" points="604.68 528.7 608.54 528.97 608.54 536.82 604.68 536.55 604.68 528.7"/><polygon fill="#362e94" points="597.34 528.19 601.2 528.46 601.2 536.3 597.34 536.03 597.34 528.19"/><polygon fill="#362e94" points="570.76 526.33 574.62 526.6 574.62 534.45 570.76 534.18 570.76 526.33"/><polygon fill="#fcba06" points="563.55 525.83 567.41 526.1 567.41 533.94 563.55 533.67 563.55 525.83"/><polygon fill="#9f9cff" points="537.88 524.03 541.74 524.3 541.74 532.15 537.88 531.88 537.88 524.03"/><polygon fill="#362e94" points="530.67 523.52 534.53 523.79 534.53 531.64 530.67 531.37 530.67 523.52"/><polygon fill="#9f9cff" points="514.32 522.38 518.18 522.65 518.18 530.5 514.32 530.23 514.32 522.38"/><polygon fill="#5652cc" points="506.98 503.85 631.19 512.53 631.19 520.38 506.98 511.7 506.98 503.85"/><polygon fill="#362e94" points="608.93 510.98 612.79 511.25 612.79 519.1 608.93 518.83 608.93 510.98"/><polygon fill="#fcba06" points="581.38 509.05 585.24 509.32 585.24 517.17 581.38 516.9 581.38 509.05"/><polygon fill="#362e94" points="552.29 507.02 556.15 507.29 556.15 515.13 552.29 514.87 552.29 507.02"/><polygon fill="#fcba06" points="545.08 506.51 548.95 506.78 548.95 514.63 545.08 514.36 545.08 506.51"/><polygon fill="#9f9cff" points="537.88 506.01 541.74 506.28 541.74 514.13 537.88 513.86 537.88 506.01"/><polygon fill="#9f9cff" points="530.67 505.5 534.53 505.77 534.53 513.62 530.67 513.35 530.67 505.5"/><polygon fill="#9f9cff" points="514.32 504.36 518.18 504.63 518.18 512.48 514.32 512.21 514.32 504.36"/><polygon fill="#5652cc" points="506.98 485.83 631.19 494.51 631.19 502.36 506.98 493.68 506.98 485.83"/><polygon fill="#fcba06" points="608.93 492.96 612.79 493.23 612.79 501.07 608.93 500.81 608.93 492.96"/><polygon fill="#9f9cff" points="552.29 489 556.15 489.27 556.15 497.11 552.29 496.84 552.29 489"/><polygon fill="#362e94" points="581.38 491.03 585.24 491.3 585.24 499.15 581.38 498.88 581.38 491.03"/><polygon fill="#362e94" points="573.92 490.51 577.78 490.78 577.78 498.63 573.92 498.36 573.92 490.51"/><polygon fill="#fcba06" points="545.08 488.49 548.95 488.76 548.95 496.61 545.08 496.34 545.08 488.49"/><polygon fill="#9f9cff" points="537.88 487.99 541.74 488.26 541.74 496.11 537.88 495.84 537.88 487.99"/><polygon fill="#9f9cff" points="530.67 487.49 534.53 487.75 534.53 495.6 530.67 495.33 530.67 487.49"/><polygon fill="#362e94" points="523.46 486.98 527.32 487.25 527.32 495.1 523.46 494.83 523.46 486.98"/><polygon fill="#5652cc" points="631.19 476.49 506.98 467.81 506.98 475.66 631.19 484.34 631.19 476.49"/><polygon fill="#fcba06" points="529.25 469.37 525.38 469.1 525.38 476.94 529.25 477.21 529.25 469.37"/><polygon fill="#20196f" points="585.88 473.32 582.02 473.06 582.02 480.9 585.88 481.17 585.88 473.32"/><polygon fill="#fcba06" points="593.09 473.83 589.23 473.56 589.23 481.41 593.09 481.68 593.09 473.83"/><polygon fill="#9f9cff" points="600.3 474.33 596.43 474.06 596.43 481.91 600.3 482.18 600.3 474.33"/><polygon fill="#20196f" points="607.5 474.84 603.64 474.57 603.64 482.42 607.5 482.69 607.5 474.84"/><polygon fill="#9f9cff" points="614.71 475.34 610.85 475.07 610.85 482.92 614.71 483.19 614.71 475.34"/><polygon fill="#5652cc" points="631.19 458.47 506.98 449.79 506.98 457.64 631.19 466.32 631.19 458.47"/><polygon fill="#20196f" points="536.58 451.86 532.72 451.59 532.72 459.44 536.58 459.7 536.58 451.86"/><polygon fill="#20196f" points="557.11 453.29 553.25 453.02 553.25 460.87 557.11 461.14 557.11 453.29"/><polygon fill="#fcba06" points="564.32 453.8 560.46 453.53 560.46 461.38 564.32 461.64 564.32 453.8"/><polygon fill="#9f9cff" points="571.53 454.3 567.67 454.03 567.67 461.88 571.53 462.15 571.53 454.3"/><polygon fill="#9f9cff" points="607.5 456.82 603.64 456.55 603.64 464.39 607.5 464.67 607.5 456.82"/><polygon fill="#9f9cff" points="593.4 455.83 589.54 455.56 589.54 463.41 593.4 463.68 593.4 455.83"/><polygon fill="#9f9cff" points="614.71 457.32 610.85 457.05 610.85 464.9 614.71 465.17 614.71 457.32"/><polygon fill="#5652cc" points="631.19 440.45 506.98 431.77 506.98 439.62 631.19 448.3 631.19 440.45"/><polygon fill="#362e94" points="529.25 433.32 525.38 433.06 525.38 440.9 529.25 441.17 529.25 433.32"/><polygon fill="#362e94" points="585.88 437.29 582.02 437.01 582.02 444.86 585.88 445.13 585.88 437.29"/><polygon fill="#fcba06" points="593.09 437.79 589.23 437.52 589.23 445.37 593.09 445.64 593.09 437.79"/><polygon fill="#362e94" points="600.3 438.29 596.43 438.02 596.43 445.87 600.3 446.14 600.3 438.29"/><polygon fill="#9f9cff" points="607.5 438.8 603.64 438.53 603.64 446.37 607.5 446.64 607.5 438.8"/><polygon fill="#9f9cff" points="614.71 439.3 610.85 439.03 610.85 446.88 614.71 447.15 614.71 439.3"/><polygon fill="#5652cc" points="506.98 413.75 631.19 422.43 631.19 430.28 506.98 421.6 506.98 413.75"/><polygon fill="#fcba06" points="608.93 420.88 612.79 421.15 612.79 428.99 608.93 428.72 608.93 420.88"/><polygon fill="#362e94" points="552.29 416.92 556.15 417.19 556.15 425.03 552.29 424.76 552.29 416.92"/><polygon fill="#362e94" points="545.08 416.41 548.95 416.68 548.95 424.53 545.08 424.26 545.08 416.41"/><polygon fill="#362e94" points="537.88 415.91 541.74 416.18 541.74 424.02 537.88 423.75 537.88 415.91"/><polygon fill="#fcba06" points="530.67 415.4 534.53 415.67 534.53 423.52 530.67 423.25 530.67 415.4"/><polygon fill="#9f9cff" points="523.46 414.9 527.32 415.17 527.32 423.02 523.46 422.75 523.46 414.9"/><g style="mix-blend-mode:screen"><path fill="#ffd03e" d="M528.35,310.46l-2.32-.17v-5.61a5,5,0,0,1,5.46-5.08l5.62.4v2.31l-5.62-.39a2.89,2.89,0,0,0-3.14,2.92Z"/><path fill="#ffd03e" d="M612.14,316.32l-2.32-.17v-5.62a3.42,3.42,0,0,0-3.13-3.35l-5.62-.39v-2.32l5.62.39a6,6,0,0,1,5.45,5.84Z"/><path fill="#ffd03e" d="M606.69,391l-5.62-.4v-2.31l5.62.39a2.89,2.89,0,0,0,3.13-2.92v-5.61l2.32.16v5.62A5,5,0,0,1,606.69,391Z"/><path fill="#ffd03e" d="M537.11,386.1l-5.62-.39a6,6,0,0,1-5.46-5.84v-5.61l2.32.16V380a3.42,3.42,0,0,0,3.14,3.35l5.62.39Z"/><path fill="#e19100" d="M559.18,344.6a9.11,9.11,0,0,1,9.91-9.21A10.79,10.79,0,0,1,579,346a9.13,9.13,0,0,1-9.91,9.22A10.8,10.8,0,0,1,559.18,344.6Z"/><path fill="#fff89f" d="M564,344.94a4.65,4.65,0,0,1,5.05-4.69,5.5,5.5,0,0,1,5,5.4,4.64,4.64,0,0,1-5,4.69A5.49,5.49,0,0,1,564,344.94Z"/><path fill="#ffd03e" d="M569.08,362.18c-13.57-.95-23.37-11.53-28.63-17.22l-1.72-1.84,1.72-1.61c5.26-4.95,15.06-14.16,28.63-13.21s23.37,11.53,28.63,17.22l1.71,1.84-1.71,1.6C592.44,353.91,582.64,363.13,569.08,362.18ZM542,343.34l.1.11c5,5.43,14.38,15.53,27,16.41s21.95-7.91,27-12.64l.09-.09-.09-.1c-5-5.43-14.38-15.54-27-16.42s-22,7.92-27,12.65Z"/></g><path fill="#5652cc" d="M712.67,564.92c-22.59,8.13-45.26,16-67.92,23.92V274.92q33.87-12.23,67.92-23.93Z"/><path fill="#423eaf" d="M659.61,295.12q20.39-7.25,40.83-14.36c1.18-.41,2.12,1.57,2.11,4.41l-.27,90.1c0,2.84-1,5.48-2.18,5.9q-20.37,7.14-40.72,14.32c-1.35.47-2.43-1.44-2.43-4.28l.18-90.06C657.13,298.31,658.25,295.61,659.61,295.12Z"/><path fill="#fcba06" d="M664.85,372.07c-1.31.46-1.84-1.32-1.18-4q8-31.83,15.85-63.69c.65-2.64,1.69-3,2.31-.81q7.45,26.46,14.56,53c.59,2.2.09,4.35-1.11,4.77Q680.06,366.71,664.85,372.07Z"/><path fill="#362e94" d="M680.63,346.06l-.47.17c0-1.77-.2-3.86-.46-6.3-.22-2-.32-2.95-.54-4.91a63.16,63.16,0,0,1-.47-6.42,8.47,8.47,0,0,1,.5-3.07,2.42,2.42,0,0,1,1.29-1.56c.51-.18.93,0,1.26.67a5.63,5.63,0,0,1,.5,2.65q0,1.79-.56,6.84c-.24,2.13-.35,3.19-.59,5.31C680.89,341.32,680.73,343.53,680.63,346.06Zm-.22,3.44c.48-.16.88.06,1.22.69a5.37,5.37,0,0,1,.49,2.54,7.76,7.76,0,0,1-.52,2.87,2.46,2.46,0,0,1-1.23,1.55c-.48.17-.88-.06-1.22-.69a5.14,5.14,0,0,1-.5-2.51,7.85,7.85,0,0,1,.52-2.88A2.46,2.46,0,0,1,680.41,349.5Z"/><polygon fill="#807dfb" points="644.75 274.92 493.43 264.33 561.34 240.41 712.66 251 644.75 274.92"/><polygon fill="#5652cc" points="522.86 261.6 515.99 261.12 565.63 243.63 572.5 244.11 522.86 261.6"/><polygon fill="#5652cc" points="536.06 262.52 529.19 262.04 578.83 244.56 585.7 245.04 536.06 262.52"/><polygon fill="#5652cc" points="549.26 263.44 542.39 262.96 592.02 245.48 598.9 245.96 549.26 263.44"/><polygon fill="#5652cc" points="562.46 264.37 555.59 263.88 605.23 246.4 612.1 246.88 562.46 264.37"/><path fill="#ed9f00" d="M187.07,402.37c9.43-1,30.28-3.86,33.25-4,0,0,.65,6.88,1,10-19.69,6.37-23.29,7.77-32.66,9.82-8.1,1.77-22.55,3.91-24.55-.38C160.39,410.23,166.92,404.47,187.07,402.37Z"/><path fill="#e19100" d="M154.63,363.86c-16.37,18-17.2,52.72-17.2,56.14,0,8.06,38-2.13,38-2.13Z"/><path fill="#20196f" d="M144.94,459.16c.56,45.2,8.39,52.46,11.09,96.26,2.21,35.72-10.07,63-11.61,75.06h8.21c6-16,44.53-74.43,33.19-171.32Z"/><path fill="#ffd3c9" d="M142.51,633.48a32.61,32.61,0,0,0,1.91-3h8.21c-.8,2.32-1.28,4.3-1,5.46C149.52,636.76,146.4,634.65,142.51,633.48Z"/><path fill="#20196f" d="M142.51,633.48c3.89,1.17,7,3.28,9.15,2.46,1.13.82,17.78,6.81,19.48,8s1.47,3-.36,3c-2.68,0-24.79-1-24.79-1-.45.49-.81,1-.81,1h-5.05C138.62,644.33,139,636.49,142.51,633.48Z"/><path fill="#362e94" d="M144.94,459.16c0,41.2,26.89,43.06,45,83.05,12.41,27.45,14.87,81,15.43,88.27h8.21C218,611,231,536.39,205.33,459.16Z"/><path fill="#ffd3c9" d="M205.35,633.48c0-1.36,0-3,0-3h8.21c-.31,2.32.65,4.3,1,5.46C212.37,636.76,209.24,634.65,205.35,633.48Z"/><path fill="#20196f" d="M205.35,633.48c3.89,1.17,7,3.28,9.15,2.46,1.13.82,17.78,6.81,19.48,8s1.48,3-.36,3c-2.68,0-24.79-1-24.79-1-.45.49-.81,1-.81,1H203C201.46,644.33,201.87,636.49,205.35,633.48Z"/><path fill="#fcba06" d="M186.07,358.21c-8.72-.85-22.11.28-22.11.28-11.8,4.19-14.44,9.54-17.55,31.25s-1.47,69.42-1.47,69.42h60.39c2.07-12.64.6-50.72-3.46-71.67C200.44,376.74,196.78,359.27,186.07,358.21Z"/><path fill="#ffd3c9" d="M185.41,324c.76,5,4.59,19.84,1.74,25.28-2.33,4.46-7.3,5.31-15.38,2.75s-8.71-17.14-9.86-21.32C160.11,324.08,183.83,313.43,185.41,324Z"/><path fill="#ffd3c9" d="M179.34,351.66c.45,2.57,1.57,6.33,1.57,6.33-1.1,1.49-17.44,3.39-15.84.72.57-4.7.19-15.61.19-15.61Z"/><path fill="#20196f" d="M164,319.08c8.2-3.9,18.87-12.1,20.08-11.09.22.18-.29.76,0,1,.42.36,4.11-5.48,7.5-3.26S193.2,319,185.41,324s-.28,10.09-3.75,12.9-3,12.64-8.89,12.86-9.24,3.88-9.14.19-3.4-11-3.17-17.25S159.47,321.25,164,319.08Z"/><path fill="#f7d3c9" d="M179.72,335c-.1-1.48.59-2.73,1.54-2.79s1.8,1.08,1.9,2.56-.59,2.73-1.54,2.79S179.82,336.44,179.72,335Z"/><path fill="#f7d3c9" d="M248.76,423.4a28,28,0,0,1,11.44-.59c9.2,1.21,13.66,1.21,16.38-7.87,1.57-5.26-6.22,2.1-10.18,1.49-10-1.52-1.57-7.63-2.09-8.73s-7.26,5.49-10.77,5.61c-5.08.17-4.87,2.26-7,2.71C246.75,416.71,248.76,423.4,248.76,423.4Z"/><path fill="#ffd03e" d="M198.12,372.94c.8,13.56,1.47,36.29,1.91,44.84l-11.1,13.93c-8.57-1.89-12.81-44.81-13.89-56.07C175.05,361.68,196,352.3,198.12,372.94Z"/><path fill="#ffd03e" d="M246.59,414.79a73.2,73.2,0,0,1,4.34,9.66c-12.54,4.74-56.22,12-62,7.26L200,417.78C208,418.72,246.59,414.79,246.59,414.79Z"/><path fill="#dde2f8" d="M309,364.1l-23.56,45.58.61.31a3,3,0,0,0,4-1.27l20.84-40.31a3,3,0,0,0-1.27-4Z"/><path fill="#bbc0e6" d="M252.31,411.74l-42.52,2.65.06.89a2.75,2.75,0,0,0,2.92,2.58l42.52-2.65,6.82-.42a2.75,2.75,0,0,0,2.57-2.92l-.05-.9Z"/><path fill="#ced3f8" d="M289.15,409.44l-36.84,2.3.06.9a2.75,2.75,0,0,0,2.92,2.57l31.34-1.95a2.75,2.75,0,0,0,2.58-2.92Z"/><rect width="3.47" height="1.03" x="278.93" y="411.1" fill="#a0a9d0" transform="rotate(176.43 280.647 411.627)"/><rect width="3.47" height="1.03" x="274.23" y="411.39" fill="#a0a9d0" transform="rotate(176.44 275.978 411.896)"/><polygon fill="#e9edf7" points="235.54 412.78 285.42 409.68 308.98 364.1 259.11 367.21 235.54 412.78"/><polygon fill="#fff" points="240.54 409.47 283.63 406.79 303.98 367.42 260.89 370.1 240.54 409.47"/><polygon fill="#ffd03e" points="259.59 377.7 266.58 377.27 267.57 375.34 260.58 375.78 259.59 377.7"/><polygon fill="#807dfb" points="270.19 377.04 296.85 375.38 297.84 373.46 271.18 375.12 270.19 377.04"/><polygon fill="#ffd03e" points="257.13 382.46 267.56 381.81 268.55 379.89 258.12 380.54 257.13 382.46"/><polygon fill="#807dfb" points="271.17 381.59 294.39 380.14 295.38 378.22 272.16 379.66 271.17 381.59"/><polygon fill="#ffd03e" points="254.67 387.22 260.41 386.86 261.4 384.94 255.66 385.3 254.67 387.22"/><polygon fill="#807dfb" points="264.02 386.64 291.93 384.9 292.92 382.97 265.01 384.71 264.02 386.64"/><polygon fill="#ffd03e" points="252.21 391.98 261.94 391.37 262.94 389.45 253.2 390.05 252.21 391.98"/><polygon fill="#807dfb" points="265.55 391.15 289.46 389.66 290.46 387.73 266.55 389.22 265.55 391.15"/><polygon fill="#ffd03e" points="249.75 396.74 258.37 396.2 259.37 394.27 250.74 394.81 249.75 396.74"/><polygon fill="#807dfb" points="261.98 395.98 287 394.42 288 392.49 262.98 394.05 261.98 395.98"/><polygon fill="#ffd03e" points="247.29 401.5 254.27 401.06 255.27 399.13 248.28 399.57 247.29 401.5"/><polygon fill="#807dfb" points="257.88 400.83 284.55 399.18 285.54 397.25 258.88 398.91 257.88 400.83"/><path fill="#f0ccc0" d="M221.06,405.94c-.29-2.89-.63-6.19-.63-6.19,3,.06,11.7.92,13.13,1.55,3.06,1.48,7.74,6.25,7.24,7.22-.2.37-1.53-.25-3.09-1.16,1.51,2.83,2.6,5.56,1.59,5.42-1.18-.17-2.93-2.25-4.48-4.07.51,1.51.81,2.82-.26,2.94-.71.09-3.08-3.21-3.83-5.27C229.07,407.11,227.56,408.82,221.06,405.94Z"/><path fill="#807dfb" d="M537.92,676.15l-11.62,2.36a2.5,2.5,0,0,0-1.88,1.66l-3.77,11.25a2.47,2.47,0,0,0,.5,2.45l7.86,8.9a2.48,2.48,0,0,0,2.37.79L543,701.2a2.5,2.5,0,0,0,1.87-1.66l3.77-11.25a2.49,2.49,0,0,0-.49-2.45L540.3,677A2.51,2.51,0,0,0,537.92,676.15Z"/><path fill="#ffd03e" d="M455.8,97.51,445.52,113a2.5,2.5,0,0,0,1.93,3.88L466,118a2.51,2.51,0,0,0,2.4-3.62l-8.27-16.64A2.49,2.49,0,0,0,455.8,97.51Z"/><path fill="#807dfb" d="M62.67,253.25l-.81,18.31a2.57,2.57,0,0,0,3.76,2.4l16.26-8.45a2.58,2.58,0,0,0,.2-4.46l-15.45-9.86A2.57,2.57,0,0,0,62.67,253.25Z"/></g></svg>