<svg xmlns="http://www.w3.org/2000/svg" data-name="Layer 1" viewBox="0 0 255 250"><path fill="#ffacac" d="M164.19,40.57c-.5.22-2,2-3.72.69-1.51-1.12-3-1.94-3.11-1.38s2.6,2.87,3.95,3.8,1.69,1,1.29,1.24-2.53-.35-2.7-.09c-.84,1.25,3.53,1.56,5.17,1.56,4.11,0,8.78,14.29,13,14.29,1.4,0,4.88-3,4-4.1C179,52.44,171.43,46.46,169.45,44.2,168.69,43.33,166,39.76,164.19,40.57Z"/><path fill="#ebebeb" d="M192.56,54.63a62,62,0,0,1-11.16.3c-1.68,0-6.07,5.7-3.6,7,6.28,3.3,12.83,2.87,17.5,2.2,5.53-.8,9.29-2.22,8.45-6.09C203,54.61,199.19,53.81,192.56,54.63Z"/><path fill="#ffde91" d="M189.92,154.15c-.53,1.15.45,3,1.4,3.82s7.35,6.36,11.44,4.79a3.44,3.44,0,0,0,1.35-.81c.61-.68-.26-4.38-.94-5C202.28,156,190.36,153.21,189.92,154.15Z"/><path fill="#ff5a77" d="M197.23,153.63c-2.9-1.12-6.71-1-7.14-.06-.53,1.15,1.07,3.1,2,3.93,2.73,2.39,8.22,4.94,10.21,4.28a5.25,5.25,0,0,0,1.79-.92c.61-.68,0-3.05-.68-3.76A36,36,0,0,0,197.23,153.63Z"/><path fill="#ffde91" d="M198.57,158.7a.77.77,0,1,0,.58.75A.68.68,0,0,0,198.57,158.7Z"/><path fill="#ffde91" d="M202.54,156.33l-1.15,1.51.3.54c.57.82.47,3.5.47,3.5a2.23,2.23,0,0,0,1.78-.87c.34-2.64-.73-3.66-.73-3.66Z"/><path fill="#ffacac" d="M196,154.82c-.24.52.21,2,2.74,3.06a5.56,5.56,0,0,0,3,.5,1,1,0,0,1,.4-1.08,1.1,1.1,0,0,1,1.12,0,19.93,19.93,0,0,1-.42-2C202.08,155.43,196.72,153.18,196,154.82Z"/><path fill="#002e47" d="M194.49,124.38c.16,7.11,1.95,30.1,1.95,30.1s2.66,2.48,7.71.53c0,0,1.36-16.37,1.81-21.38a27.87,27.87,0,0,0-.79-10.3C204,120.79,194.31,117.29,194.49,124.38Z"/><path fill="#002e47" d="M203.48,84.31c-1.2-.91-4.92-1.45-8.66,1.81-6.73,5.85-.26,35.7-.26,40.37s9.7,4.35,10.82-2.1c.76-4.34,2.58-21.58,2.82-24.3C208.45,97.12,208.48,88.09,203.48,84.31Z"/><path fill="#ffde91" d="M178.86,159.58c-.53,1.15.45,3,1.4,3.81s7.35,6.37,11.44,4.8a3.4,3.4,0,0,0,1.34-.81c.62-.68-.25-4.38-.93-5C191.21,161.46,179.29,158.64,178.86,159.58Z"/><path fill="#ff5a77" d="M186.16,159.06c-2.89-1.12-6.7-1-7.13-.06-.53,1.14,1.07,3.09,2,3.93,2.73,2.39,8.22,4.94,10.2,4.27a4.76,4.76,0,0,0,1.79-.92c.62-.67.05-3.05-.68-3.75A34.6,34.6,0,0,0,186.16,159.06Z"/><path fill="#ffde91" d="M187.5,164.13a.77.77,0,1,0,.58.75A.68.68,0,0,0,187.5,164.13Z"/><path fill="#ffde91" d="M191.47,161.75l-1.14,1.51.29.55c.57.82.48,3.5.48,3.5a2.23,2.23,0,0,0,1.78-.87c.34-2.65-.73-3.66-.73-3.66Z"/><path fill="#ffacac" d="M184.92,160.25c-.24.52.21,2,2.74,3.06a5.64,5.64,0,0,0,3,.5,1,1,0,0,1,.41-1.09,1.1,1.1,0,0,1,1.12.06,20.12,20.12,0,0,1-.42-2.05C191,160.86,185.66,158.61,184.92,160.25Z"/><path fill="#00537a" d="M183.71,130.24c.17,7.1,1.92,29.64,1.92,29.64a6.35,6.35,0,0,0,7.68,1.84s1.43-17.22,1.88-22.24.16-10.15-.26-11.08C193.8,125.85,183.54,123.14,183.71,130.24Z"/><path fill="#00537a" d="M194.48,90.47c-1.2-.92-5.81-3.54-9.64-.39-5.16,4.25-1.05,37.6-1.05,42.26,0,4.81,9.7,4.35,10.82-2.1.75-4.34,3.61-25.31,3.84-28C198.71,99.25,199.48,94.24,194.48,90.47Z"/><path fill="#002e47" d="M198.16,104.62c.15-1.12.26-2,.29-2.4.26-3,1-8-4-11.75-1.2-.92-5.81-3.54-9.64-.39C183.43,91.24,187,100.18,198.16,104.62Z"/><path fill="#ff5978" d="M206.67,70.58c1.09-7.37.75-17.46-7.18-17.46-3.92,0-16.81,3.24-16.81,11.57,0,7.3,1.25,23.57-.78,32.31,0,0,21,4.57,26.82-2.17C208.72,94.83,205.57,78,206.67,70.58Z"/><path fill="#fff" d="M195.83,99a74.88,74.88,0,0,1-14-1.53.5.5,0,0,1-.32-.22.53.53,0,0,1-.07-.39c1.53-6.57,1.18-17.55.93-25.57-.08-2.6-.16-4.85-.16-6.62,0-8.92,13.78-12.07,17.31-12.07A6.87,6.87,0,0,1,205,55c3.36,3.9,2.82,11.49,2.2,15.67h0c-1.07,7.21,2,23.92,2.05,24.09a.5.5,0,0,1-.11.42C206.5,98.16,201.12,99,195.83,99ZM182.5,96.61c3.14.62,20.4,3.7,25.68-1.93-.4-2.18-3.05-17.2-2-24.17.48-3.23,1.25-11.15-2-14.88a6,6,0,0,0-4.72-2c-3.32,0-16.31,2.89-16.31,11.07,0,1.75.08,4,.16,6.59C183.59,79.15,183.93,89.87,182.5,96.61Z"/><path fill="#ffacac" d="M194,39.81c-.77-.49-7.37-.43-7.46.54s.85,2.34.5,3.25a3.66,3.66,0,0,0,0,2.84c1.71,2.84,2.88,5.24,4.73,4.7.47,1.94-1.33,4.18-1.09,4.15a32.24,32.24,0,0,0,6.51-2.21c-.66-4.34.42-7.63-1.88-11.74A4.24,4.24,0,0,0,194,39.81Z"/><path fill="#002e47" d="M196.11,35.09c0-3.35-6.07-2.63-6-.09-2.68-1.53-6.39,2.06-4,6.73,0,0,.49-1.49,1.54-1,0,2.43,1.65,1.06,2.22,3.84.35,1.71.89,3.5,2.41,4.52,1.31.87,4.64,0,4.64,0,0-2.35,4.33-6.15,3-8.65A3.72,3.72,0,0,0,196.11,35.09Z"/><path fill="#ebebeb" d="M196.81,51.14c-1.48.08-2.78.34-5.94,1.94a3.71,3.71,0,0,0-1.68,3.09l9.67-3.08L198,51.73A1.32,1.32,0,0,0,196.81,51.14Z"/><path fill="#ffacac" d="M171.85,91.84a24.81,24.81,0,0,1-4.72,0c-1.47-.27-3.29-.09-3,.49.13.29,1.87.54,2.63.91s.8.45,0,1a22.13,22.13,0,0,0-3.4,4.23c-.32.57,1.62-.38,2.72-1.9,1.36-1.86,0,1,.37,1.48s2.71,1.27,3.19,1.54,2.09-2,2.9-2.84c2.11-2.15,17.63-8.53,18.6-12.72.31-1.35-2.61-3.17-4-3.34C183.47,80.19,175.16,90.6,171.85,91.84Z"/><path fill="#ebebeb" d="M187.26,58.57c-3.42.84-4.12,4.65-3.13,11.27A64,64,0,0,1,184.71,81c0,1.68,5.85,5.92,7.09,3.41,3.13-6.36,2.54-12.89,1.76-17.54C192.62,61.35,191.1,57.62,187.26,58.57Z"/><path fill="#c1c2c8" d="M47.64,109.41c23.88-12.59,62.72-12.56,86.49,0,14,7.44,19.74,17.64,17.1,27.32-1.77-6.64-7.47-13.07-17.1-18.18-23.77-12.59-62.61-12.61-86.49,0a34.52,34.52,0,0,0-17,20.94C27.93,129.72,33.42,116.88,47.64,109.41Z"/><path fill="#c0ccda" d="M157.65,135.83l0,9.54c0,5.43-1.79,11.7-3.56,14.56-2,3.29-4.59,6.18-10.85,10.9l-1.42-10.12S156,144.11,157.65,135.83Z"/><path fill="#c0ccda" d="M133.34,162.47c-7.92,3.11-10.76,4.05-13.65,4.9a100.58,100.58,0,0,1-17.25,3.37,110.42,110.42,0,0,1-30.75-1c-9.9-1.77-19.8-4.92-28.53-10.19-13-7.84-19.47-22.7-19.47-22.7l0,7.19c0,10.3,6.51,20.58,19.47,28.43a73.62,73.62,0,0,0,15.62,7A98.44,98.44,0,0,0,73.75,183a99.53,99.53,0,0,0,15.51,1.26c10.67,0,30.43-1.35,44.08-8.51Z"/><polygon fill="#c0ccda" points="133.35 175.79 185.87 206.4 185.84 197.24 133.35 166.65 133.35 175.79"/><path fill="#fff" d="M142.83,161.22c12.23-7.05,14.68-17.77,14.81-25.28v-.48c0-.07,0-.14,0-.22a18.55,18.55,0,0,0-.17-2.56,5.7,5.7,0,0,0-.13-.91c-.1-.6-.23-1.2-.38-1.79,0-.19-.42-1.53-.59-2-.07-.23-.17-.46-.24-.68-.17-.44-.34-.86-.52-1.28l-.36-.8c-.15-.31-.32-.64-.48-1-.26-.49-1.08-1.9-1.22-2.12s-.45-.71-.7-1c0,0-2.69-3.41-2.93-3.68-.47-.51-.95-1-1.47-1.52s-1.1-1.09-1.7-1.61a50.06,50.06,0,0,0-5.26-4c-.65-.44-1.34-.88-2-1.31l-1.2-.71c-26.06-15.14-68.57-15.14-94.8,0L42.2,109c-.79.48-1.55,1-2.3,1.47l-1.09.76c-.73.51-1.42,1-2.09,1.56A45.84,45.84,0,0,0,33,116c-.55.55-1.11,1.12-1.61,1.69s-1,1.12-1.46,1.69a29.35,29.35,0,0,0-2.45,3.52,24.62,24.62,0,0,0-3.81,13.61c.29,9.67,6.75,19.28,19.44,26.65,23,13.35,55.37,16.93,90.22,3.55l55.09,32,9.47-5.48Zm-17.18.52A107.88,107.88,0,0,1,90.39,168c-16.77,0-32.39-3.71-44-10.46-10.21-5.92-16-13.47-16.19-21.22a18.2,18.2,0,0,1,2.91-10.11A24.66,24.66,0,0,1,35,123.49c.4-.5.82-1,1.25-1.45s.91-1,1.35-1.4a36.53,36.53,0,0,1,3.14-2.77c.58-.46,1.19-.91,1.82-1.35l.93-.65c.69-.46,1.4-.92,2.06-1.33l1.15-.68c11.71-6.74,27.41-10.47,44.22-10.47s32.44,3.71,44,10.41l.52.32a7.26,7.26,0,0,1,.67.4c.61.37,1.2.74,1.81,1.15a41.46,41.46,0,0,1,4.6,3.53c.47.4.9.82,1.42,1.34s.76.78,1.14,1.18,2.11,2.65,2.57,3.23c.14.21.29.42.41.64s.77,1.29,1,1.67.25.5.35.69.2.44.29.63l.39,1c.06.17.13.34.17.48.12.38.39,1.31.44,1.49.11.43.2.87.27,1.3,0,.1,0,.29.08.39a1.73,1.73,0,0,0,0,.32,11.61,11.61,0,0,1,.11,1.69v.58c-.09,5.8-3.32,11.54-9.32,16.64C140.45,153.62,131.46,159.72,125.65,161.74Z"/><g style="isolation:isolate"><path fill="#002e47" d="M220.89,204.33c5.57-3.39,10.25-.88,10.42,5.61s-4.21,14.54-9.78,17.93-10.24.9-10.42-5.6S215.3,207.75,220.89,204.33Z"/><path fill="#00537a" d="M156.58,175.6c2.53-2.92,7.26-6.92,11.42-4.79l60.16,32.64a4.84,4.84,0,0,0-1.51-.53,8.68,8.68,0,0,0-6.2,1.7,19.55,19.55,0,0,0-4.83,4.73c-2.69,3.64-4.64,8.33-4.51,12.92.09,3.23,1.28,5.48,3.15,6.5l-60-32.55c-1.87-1-3.06-3.27-3.15-6.5a14.59,14.59,0,0,1,.13-2.29A22.88,22.88,0,0,1,156.58,175.6Z"/><path fill="#fff" d="M214.26,229.77a.93.93,0,0,1-.48-.12l-60-32.55c-2.27-1.24-3.58-3.85-3.67-7.35a16.65,16.65,0,0,1,.13-2.44A23.79,23.79,0,0,1,155.82,175c1.62-1.87,7.32-7.75,12.63-5l60.19,32.65h0a1,1,0,0,1,.4,1.35,1,1,0,0,1-1.35.41h0a4,4,0,0,0-1.22-.43c-2.11-.41-4.33.79-5.46,1.55a18.69,18.69,0,0,0-4.59,4.49,20.51,20.51,0,0,0-4.31,12.3c.07,2.76,1,4.76,2.63,5.66a1,1,0,0,1-.48,1.87ZM165.5,171.21c-3.47,0-7,3.72-8.17,5h0a22,22,0,0,0-5.08,11.3,14,14,0,0,0-.12,2.14c.07,2.75,1,4.76,2.63,5.65l55.91,30.34a11.47,11.47,0,0,1-.56-3.4,22.55,22.55,0,0,1,4.7-13.54,20.93,20.93,0,0,1,5.09-5,12.42,12.42,0,0,1,3.66-1.69l-56-30.4A4.36,4.36,0,0,0,165.5,171.21Z"/></g><polygon fill="#ffb642" points="85.64 113.34 138.41 141.1 138.41 69.36 83.87 42.62 83.87 52.49 84.62 52.46 85.64 113.34"/><polygon fill="#fff" points="133.65 128.66 86.03 101.16 86.03 47.31 133.65 74.8 133.65 128.66"/><polygon fill="#ffb642" points="76.69 118.5 125.93 148.31 129.59 135.01 129.59 80.73 125.93 76.56 76.69 46.76 76.69 118.5"/><polygon fill="#ffa044" points="138.41 141.1 125.93 148.31 125.93 76.56 138.41 69.36 138.41 141.1"/><polygon fill="#fff" points="137.37 110.47 126.97 116.47 126.97 85.69 137.37 79.68 137.37 110.47"/><polygon fill="#002e47" points="137.37 79.68 126.97 85.69 126.97 82.73 137.37 76.72 137.37 79.68"/><path fill="#002e47" d="M135.15,123.47a5.82,5.82,0,0,1-2.62,4.54c-1.45.83-2.62.16-2.62-1.52a5.76,5.76,0,0,1,2.62-4.53C134,121.12,135.15,121.8,135.15,123.47Z"/><path fill="#ffa044" d="M135.11,123.49a5.71,5.71,0,0,1-2.58,4.47,1.66,1.66,0,0,1-2.08,0,2,2,0,0,0,1.53-.3,5.71,5.71,0,0,0,2.59-4.47,2.06,2.06,0,0,0-.5-1.48C134.7,121.88,135.11,122.51,135.11,123.49Z"/><polygon fill="#4b6dff" points="93.92 83.33 127.23 132.79 161.23 69.62 125.88 20.23 121.2 28.91 121.88 29.24 93.92 83.33"/><polygon fill="#fff" points="128.94 119.58 100.04 72.8 125.56 25.37 154.46 72.15 128.94 119.58"/><polygon fill="#4b6dff" points="83.6 83.64 112.83 133.22 122.35 123.25 148.08 75.45 146.83 70.05 117.6 20.47 83.6 83.64"/><polygon fill="#2c51cb" points="127.23 132.79 112.83 133.22 146.83 70.05 161.23 69.62 127.23 132.79"/><polygon fill="#fff" points="140.84 105.32 128.84 105.68 143.43 78.57 155.43 78.21 140.84 105.32"/><polygon fill="#002e47" points="155.43 78.21 143.43 78.57 144.83 75.97 156.83 75.61 155.43 78.21"/><path fill="#002e47" d="M132.72,115.72a5.79,5.79,0,0,1-4.46,2.75c-1.67,0-2.38-1.1-1.59-2.57a5.8,5.8,0,0,1,4.46-2.76C132.8,113.09,133.51,114.25,132.72,115.72Z"/><path fill="#4b6dff" d="M132.68,115.72a5.73,5.73,0,0,1-4.4,2.71c-1,0-1.63-.36-1.82-1a2,2,0,0,0,1.49.46,5.71,5.71,0,0,0,4.4-2.71,2.1,2.1,0,0,0,.26-1.54A1.67,1.67,0,0,1,132.68,115.72Z"/><polygon fill="#ff5978" points="52.35 129.28 105.12 157.04 105.12 85.3 50.58 58.56 50.58 68.42 51.33 68.39 52.35 129.28"/><polygon fill="#fff" points="100.36 144.59 52.74 117.1 52.74 63.24 100.36 90.74 100.36 144.59"/><polygon fill="#ff5978" points="92.64 92.5 95.06 95.26 95.06 155.43 92.64 164.24 43.4 134.44 43.4 62.7 92.64 92.5"/><polygon fill="#ff2657" points="105.12 157.04 92.64 164.24 92.64 92.5 105.12 85.3 105.12 157.04"/><polygon fill="#fff" points="104.08 126.41 93.68 132.41 93.68 101.62 104.08 95.62 104.08 126.41"/><polygon fill="#002e47" points="104.08 95.62 93.68 101.62 93.68 98.66 104.08 92.66 104.08 95.62"/><path fill="#002e47" d="M101.86,139.41a5.79,5.79,0,0,1-2.62,4.53c-1.45.84-2.62.16-2.62-1.51a5.8,5.8,0,0,1,2.62-4.54C100.68,137.06,101.86,137.73,101.86,139.41Z"/><path fill="#ff5978" d="M101.82,139.43a5.72,5.72,0,0,1-2.58,4.47,1.66,1.66,0,0,1-2.08,0,1.93,1.93,0,0,0,1.53-.3,5.69,5.69,0,0,0,2.59-4.47,2,2,0,0,0-.5-1.47C101.41,137.82,101.82,138.45,101.82,139.43Z"/><polygon fill="#eff6f9" points="77.65 99.06 77.65 122.13 51.31 106.19 51.31 83.12 77.65 99.06"/></svg>