<svg xmlns="http://www.w3.org/2000/svg" enable-background="new 0 0 3000 3000" viewBox="0 0 3000 3000"><rect width="1344.28" height="1511.24" x="1138.09" y="357.2" fill="#f2f2f2"/><path fill="#ffb902" d="M2762.98,2400.85h-1657.7c-54.75,0-100.46-41.34-105.92-95.62l-92.35-1192.9
					c-2.81-27.76,19.03-51.94,46.96-51.94h931.73c7.33,0,14.19-3.28,18.72-9.05l46.02-58.18c6.24-7.96,15.91-12.64,26.05-12.64
					h527.87c25.58,0,47.11,18.71,50.85,43.99l146.32,1280.72l1.09,7.95L2762.98,2400.85z"/><path fill="#f9ae06" d="M2762.98,2400.85h-1657.7c-54.75,0-100.46-41.34-105.92-95.62h1702.17l1.09,7.95L2762.98,2400.85z"/><path fill="#f2a807" d="M2565.01,1091.46H2950l-86.92,1218.21c-4.8,51.67-48.15,91.2-100.05,91.2l0,0
					c-50.05,0-92.48-36.84-99.49-86.4L2565.01,1091.46z"/><g><path fill="#293241" d="M1817.64,774.05c107.29,0,202.55,68.2,237.02,169.7c2.52,7.41-1.45,15.46-8.86,17.98
								c-7.41,2.52-15.46-1.45-17.97-8.86c-30.57-90-115.04-150.47-210.19-150.47c-95.13,0-179.6,60.47-210.19,150.47
								c-2.52,7.41-10.56,11.38-17.98,8.86c-7.41-2.52-11.37-10.57-8.86-17.98C1615.11,842.24,1710.36,774.05,1817.64,774.05z"/><ellipse cx="1616.18" cy="614.06" fill="#293241" rx="51.15" ry="74.36"/><ellipse cx="1996.93" cy="614.06" fill="#293241" rx="51.15" ry="74.36"/></g><g><rect width="66.69" height="549.47" x="1794.41" y="1425.83" fill="#ff3f36" transform="rotate(-45.001 1827.743 1700.593)"/><rect width="549.47" height="66.69" x="1553.05" y="1667.24" fill="#ff3f36" transform="rotate(-45.001 1827.775 1700.614)"/><g><rect width="57.58" height="127.62" x="2139.98" y="1987.9" fill="#1f2733" transform="rotate(-44.145 2168.699 2051.647)"/><path fill="#3d5a80" d="M2721.58,2621.49L2721.58,2621.49c-30.45,29.56-79.28,28.2-108.05-2.99l-464.78-503.99l83.2-80.75
							l489.87,479.64C2752.14,2543.08,2752.04,2591.93,2721.58,2621.49z"/><path fill="#385575" d="M2721.81,2513.4c30.32,29.68,30.23,78.53-0.22,108.09c-17.21,16.7-40.28,23.53-62.28,20.69
							c9.38-3.54,18.22-9.03,25.89-16.47c30.45-29.56,30.56-78.39,0.24-108.08l-473.91-464.03l20.43-19.83L2721.81,2513.4z"/><path fill="#3d5a80" d="M2158.9,1379.16c-177.45-182.88-469.61-187.21-652.49-9.76c-182.88,177.51-187.27,469.67-9.76,652.55
							c177.51,182.88,469.61,187.21,652.49,9.76C2332.03,1854.2,2336.42,1562.04,2158.9,1379.16z M2089.02,1969.69
							c-148.67,144.28-386.13,140.74-530.35-7.93c-144.28-148.61-140.74-386.13,7.87-530.35
							c148.67-144.28,386.13-140.74,530.41,7.93C2241.17,1588.02,2237.63,1825.41,2089.02,1969.69z"/><path fill="#fff" d="M2089.02,1969.69c-148.67,144.28-386.13,140.74-530.35-7.93c-144.28-148.61-140.74-386.13,7.87-530.35
							c148.67-144.28,386.13-140.74,530.41,7.93C2241.17,1588.02,2237.63,1825.41,2089.02,1969.69z" enable-background="new" opacity=".3"/><path fill="#385575" d="M2158.93,1379.18c177.49,182.88,173.11,475.02-9.77,652.5c-32.34,31.39-68.1,57.08-106.03,77.11
							c23.01-15.35,44.95-33.01,65.51-52.96c182.86-177.48,187.24-469.62,9.75-652.49c-146.11-150.55-369.91-180.14-546.49-86.89
							C1753.51,1195.15,2001.38,1216.85,2158.93,1379.18z"/></g></g><g><polygon fill="#385575" points="1008.23 2095.67 346.77 2095.67 394.94 2213.48 960.05 2213.48"/><path fill="#2896e8" d="M978.92,2258.47c-253.76,17.26-405.96-4.09-651.93-28.42c0,0,108.05-102.11,87.91-410.3
					c-1.53-22.88-2.01-45.84-1.45-68.8l-14.77-220.04c22.56-16.86,48.57-28.58,76.02-34.36l84.37-17.66l25.77-5.46
					c8.19-1.36,16.37-2.48,24.64-3.45c44.96-5.46,90.39-4.82,135.19,1.76c13.73,2.09,27.45,4.58,40.94,7.71l0.64,0.24
					c56.27,5.69,107.97,15.26,153.43,30.1l17.72,221.57C957.01,1743.32,999.07,2117.98,978.92,2258.47z"/><path fill="#222824" d="M583.92,1343.13c0,0,1.13,32.33,12.59,48.91l3.62-39.65l-10.27-20.55L583.92,1343.13z"/><path fill="#feb582" d="M596.45,1305.36c0,0-14.72,60.55,8.77,112.72c14.41,32.02,46.05,51.81,81.13,53.48
						c72.79,3.46,116.6-58.59,109.85-222.57l-117.81-72.27l-88.95,39.03L596.45,1305.36z"/><path fill="#feb582" d="M607.28,1410.88l3.4,80.34c1.52,35.88,30.86,64.3,66.77,64.67l0,0c39.78,0.41,71.29-33.47,68.01-73.11
						l-4.7-56.69L607.28,1410.88z"/><path fill="#222824" d="M594.78,1312.06c0,0,16.32-9.82,13.44-35.44c28.03-9.62,42.56-30.22,31.18-71.88
						c0,0,116.78,81.55,181.41,56.34c0,0,30.69-14.67,13.56-46.92c0.96-36.75-7.96-63.42-36.72-69.85l-37.16,2.91
						c0,0-45.95-46.06-91.83-33.27c0,0-63.97,11.14-77.43,40.67c0,0-47.94-2.38-41.23,55.36l19.97,81.68l1.45,22.23L594.78,1312.06z
						"/><path fill="#feb582" d="M607.04,1317.24c1.32,16.83-7.86,31.28-20.5,32.27s-23.96-11.86-25.27-28.69
						c-1.32-16.83,7.86-31.28,20.51-32.27C594.41,1287.56,605.73,1300.41,607.04,1317.24z"/><path fill="#1d8bce" d="M786.23,1479.65l-50.43,79.4l-41.35-6.39l50.08-80.97c13.74,2.04,27.52,4.62,41.1,7.77L786.23,1479.65z"/><path fill="#1d8bce" d="M663.38,1554.86L623.34,1567l-64.31-88.17l25.82-5.41c8.17-1.39,16.78-2.55,24.98-3.54L663.38,1554.86z"/><polygon fill="#fff" points="710.18 1548.58 683.15 1573.04 652.94 1552.63 679.97 1528.17"/><path fill="#fff" d="M660.4,1554.53c0,0,6.65,315.85-47.06,437.69l56.68,88.83l68.49-81.77c0,0-30.99-431.11-36.9-446.45
						L660.4,1554.53z"/><g><path fill="#293241" d="M1276.88,2040.15c-32.91,82.7-99.23,154.03-208.76,224.53c-106.67,68.61-220.45,111.42-338.24,127.2
						l-5.19,0.72l-130.56-83.13l416.04-296.32l103.23-81.27c15.2-11.95,31.44-20.39,48.26-25.07c2-0.57,4.04-1.07,6.08-1.57
						c9.66-2.18,19.03-3.29,27.97-3.29c30.58,0,56.34,13.13,72.54,37.02C1287.26,1966.97,1290.58,2005.74,1276.88,2040.15z"/><path fill="#1f2733" d="M471.27,2284.1l138.68,17.06c-7.11,50.31,16.95,100.07,16.95,100.07s-97.19-0.24-162.8-0.24
						c-32.39,0-58.65-26.26-58.65-58.66l0,0C405.45,2307.08,436.3,2279.8,471.27,2284.1z"/><path fill="#feb582" d="M719.78,2301.16l83.66,12.58l-38.82,83.66c0,0-55.23,2.73-89.68-13.67
						C640.5,2367.32,719.78,2301.16,719.78,2301.16z"/><path fill="#1f2733" d="M903.85,2284.1l-138.68,17.06c7.11,50.31-16.95,100.07-16.95,100.07s97.19-0.24,162.81-0.24
						c32.39,0,58.65-26.26,58.65-58.66l0,0C969.67,2307.08,938.83,2279.8,903.85,2284.1z"/><path fill="#293241" d="M749.2,2277.13l-1.68,9.12c-6.97,37.74-27.76,78.23-63.49,123.8l-4.94,6.26l-7.9-0.86
						c-79.66-8.87-284.02-100.51-362.1-150.77c-109.53-70.5-175.88-141.83-208.75-224.53c-13.7-34.41-10.41-73.19,8.59-101.2
						c16.2-23.89,41.96-37.02,72.58-37.02c8.91,0,18.31,1.11,27.94,3.29c13.27,3.04,26.83,8.37,40.28,15.81l1,0.54l116.21,91.5
						L749.2,2277.13z"/></g><path fill="#feb582" d="M487.74,2167.12c-2.34,4.34-6.59,6.56-10.92,6.56c-2.69,0-5.37-0.85-7.63-2.62l-17.02-13.36l17.94,14.16
					c6.04,4.7,7.08,13.43,2.32,19.47c-2.69,3.48-6.77,5.31-10.86,5.31c-2.99,0-6.04-0.98-8.61-2.99l-6.35-5
					c5.98,4.7,7.02,13.36,2.26,19.41c-2.75,3.48-6.77,5.31-10.86,5.31c-3.05,0-6.04-0.98-8.6-2.99l-3.6-2.81
					c5.67,4.46,6.71,12.69,2.2,18.43c-2.56,3.3-6.41,5-10.32,5c-2.81,0-5.67-0.92-8.11-2.81l-50.41-39.71
					c-4.5-3.54-8.62-7.56-12.27-11.96l-24.52-29.56l63.65-73.29c17.33,8.97,62,11.96,77.56,11.41c9.03,0.06,17.45-0.55,21.6,5.01
					c1.34,1.89,2.26,3.9,2.75,6.04c1.83,8.24-4.27,16.29-12.57,17.94l-35.4,2.62l44.06,34.63
					C488.79,2155.06,490.62,2161.77,487.74,2167.12z"/><path fill="#2896e8" d="M274,1858.69l120.65,209.15l-82.45,95.04l-146.94-197.45l-62.31-92.97
					c-24.07-35.98-16.96-84.38,16.49-111.85l279.25-229.71l31.37,114.74l-16.59,105.29L274,1858.69z"/><path fill="#feb582" d="M877.84,2141.56c2.34,4.34,6.59,6.56,10.92,6.56c2.69,0,5.37-0.85,7.63-2.62l17.03-13.36l-17.94,14.16
					c-6.04,4.7-7.08,13.43-2.32,19.47c2.69,3.48,6.77,5.31,10.86,5.31c2.99,0,6.04-0.98,8.6-2.99l6.35-5
					c-5.98,4.7-7.02,13.36-2.26,19.41c2.75,3.48,6.78,5.31,10.86,5.31c3.05,0,6.04-0.98,8.6-2.99l3.6-2.81
					c-5.67,4.46-6.71,12.69-2.2,18.43c2.56,3.3,6.41,5,10.32,5c2.81,0,5.67-0.92,8.11-2.81l50.41-39.71
					c4.5-3.54,8.62-7.55,12.27-11.96l24.52-29.56l-63.65-73.3c-17.33,8.97-62,11.96-77.57,11.41c-9.03,0.06-17.45-0.55-21.6,5.01
					c-1.34,1.89-2.26,3.9-2.75,6.04c-1.83,8.24,4.27,16.29,12.57,17.94l35.4,2.62l-44.06,34.63
					C876.79,2129.5,874.95,2136.21,877.84,2141.56z"/><path fill="#2896e8" d="M1079.16,1833.13l-120.65,209.15l82.45,95.04l146.94-197.45l62.31-92.97
					c24.07-35.98,16.96-84.38-16.49-111.85L939.69,1509.8v215.56L1079.16,1833.13z"/><rect width="561.43" height="339.31" x="394.94" y="1872.93" fill="#3d5a80"/><path fill="#fff" d="M704.49,2031.09c0,14.91-12.09,27-27,27s-27-12.09-27-27s12.09-27,27-27
					C692.41,2004.09,704.49,2016.18,704.49,2031.09z"/></g><g><path fill="#f2f2f2" d="M382.84,991.79c4.43,6.56,7.01,14.2,7.01,22.44c0,24.09-21.87,43.63-48.9,43.63c-7.52,0-14.62-1.59-21-4.29
				c-1.02,2.07-2.16,4.11-3.57,6.02c-14.26,19.45-43.45,22.26-65.23,6.29c-5.6-4.11-10.16-9.05-13.6-14.47
				c-0.3,0.42-0.54,0.9-0.87,1.32c-13.9,19-42.1,22.05-63.7,7.31c-7.97,9.89-19.48,16.12-32.3,16.12
				c-21.33,0-39.07-17.2-42.85-39.88c-0.27,0-0.51,0.03-0.78,0.03c-24.09,0-43.63-21.87-43.63-48.9c0-6.98,1.35-13.6,3.72-19.63
				c-4.49-7.7-7.13-16.87-7.13-26.76c0-27,19.54-48.87,43.63-48.87c2.55,0,5.06,0.3,7.49,0.75c-0.75-3.12-1.2-6.35-1.2-9.68
				c0-22.53,18.25-40.78,40.75-40.78c13.9,0,26.16,6.98,33.53,17.59c12.53-13.78,32.87-22.77,55.91-22.77
				c31.22,0,57.59,16.54,66.07,39.19c5.81-2.4,12.29-3.78,19.12-3.78c25.26,0,45.7,18.25,45.7,40.75c0,1.65-0.12,3.24-0.33,4.79
				c23.07,2.07,41.11,19.45,41.11,40.57C401.78,972.37,394.29,984.39,382.84,991.79z"/><path fill="#eaeaea" d="M382.83,991.77c4.46,6.59,7.03,14.22,7.03,22.44c0,24.12-21.89,43.64-48.89,43.64
				c-7.53,0-14.66-1.58-21-4.26c-1.04,2.03-2.18,4.06-3.57,5.99c-14.27,19.47-43.44,22.29-65.24,6.29
				c-5.6-4.11-10.15-9.07-13.62-14.46c-0.3,0.4-0.54,0.89-0.84,1.34c-13.92,18.97-42.11,22.04-63.7,7.28
				c-7.98,9.91-19.52,16.15-32.3,16.15c-16.69,0-31.16-10.5-38.44-25.91c7.83,8.67,18.58,13.97,30.46,13.97
				c12.83,0,24.32-6.24,32.3-16.15c21.6,14.76,49.78,11.69,63.7-7.28c0.35-0.45,0.59-0.89,0.89-1.34
				c3.42,5.45,7.98,10.4,13.57,14.46c21.8,16,50.97,13.18,65.24-6.29c1.44-1.88,2.58-3.91,3.57-5.99c6.39,2.68,13.47,4.26,21,4.26
				c27.05,0,48.89-19.52,48.89-43.59c0-8.27-2.58-15.9-6.98-22.49c11.44-7.38,18.92-19.37,18.92-32.94c0-5.15-1.04-10.06-2.97-14.56
				c6.84,7.13,10.95,16.4,10.95,26.45C401.8,972.36,394.27,984.39,382.83,991.77z"/></g><g><path fill="#ff3f36" d="M252.55,901.95c-0.03-0.03-0.06-0.05-0.09-0.08c-4.75-4.25-10.53-7.04-17.36-8.36c-0.01,0-0.02,0-0.03,0
			c-3.21-0.62-6.66-0.91-10.33-0.88c-7.54,0.06-14.16,1.57-19.83,4.55s-10,7.13-13,12.45c-1.17,2.07-2.11,4.25-2.81,6.53
			c-0.27,0.89-0.4,1.78-0.4,2.65c0.04,4.64,3.82,8.69,8.72,8.85c0.13,0.01,0.26,0.01,0.39,0.01c4.11-0.03,7.46-2.92,8.66-6.85
			c0.83-2.74,2.25-5.05,4.24-6.96c3.47-3.29,8.25-4.97,14.33-5.02c2.12-0.02,4.08,0.17,5.88,0.57c3.37,0.74,6.19,2.2,8.45,4.39
			c0.29,0.28,0.56,0.56,0.82,0.86c2.92,3.28,4.4,7.66,4.45,13.14c0.01,1.73-0.1,3.34-0.35,4.84c-0.91,5.63-3.66,9.62-8.22,11.97
			c-2.88,1.49-6.43,2.62-10.61,3.38c-4.18,0.76-9.01,1.17-14.47,1.21c-3.05,0.03-5.48,2.57-5.36,5.63l0.69,24.22
			c0.13,4.56,3.8,8.2,8.33,8.32c0.1,0.01,0.2,0.01,0.31,0.01c2.32-0.02,4.43-0.96,5.96-2.48c1.53-1.52,2.5-3.61,2.54-5.93
			l0.32-16.68c8.38-0.07,15.58-1.54,21.61-4.41c2.57-1.22,4.92-2.7,7.06-4.43c7.17-5.81,10.71-14.41,10.62-25.79
			C262.99,916.77,259.48,908.2,252.55,901.95z"/><path fill="#ff3f36" d="M225.56,1003.19c0.02,2.92-0.95,5.37-2.91,7.37c-1.97,1.99-4.36,3-7.18,3.02c-2.93,0.02-5.37-0.95-7.37-2.91
			c-2-1.97-3-4.41-3.03-7.32c-0.02-2.92,0.94-5.37,2.91-7.37s4.4-3,7.32-3.03c2.83-0.02,5.23,0.94,7.23,2.91
			C224.53,997.84,225.54,1000.28,225.56,1003.19z"/></g><g><circle cx="363.78" cy="1100.49" r="19.43" fill="#f2f2f2"/><circle cx="422.8" cy="1159.52" r="15.1" fill="#f2f2f2"/><circle cx="472.63" cy="1209.35" r="10.52" fill="#f2f2f2"/></g></svg>