<svg xmlns="http://www.w3.org/2000/svg" enable-background="new 0 0 3000 2500" viewBox="0 0 3000 2500"><rect width="2918.6" height="2432.2" x="40.7" y="33.9" fill="none"/><g opacity=".17"><ellipse cx="1962.5" cy="1766.6" fill="#4c0000" opacity="0" rx="353.8" ry="155.4"/><ellipse cx="1962.5" cy="1766.6" fill="#4a0101" opacity=".038" rx="345.2" ry="151.6"/><ellipse cx="1962.5" cy="1766.6" fill="#480202" opacity=".077" rx="336.7" ry="147.9"/><ellipse cx="1962.5" cy="1766.6" fill="#460303" opacity=".115" rx="328.1" ry="144.1"/><ellipse cx="1962.5" cy="1766.6" fill="#440404" opacity=".154" rx="319.5" ry="140.4"/><ellipse cx="1962.5" cy="1766.6" fill="#420505" opacity=".192" rx="311" ry="136.6"/><ellipse cx="1962.5" cy="1766.6" fill="#400606" opacity=".231" rx="302.4" ry="132.8"/><ellipse cx="1962.5" cy="1766.6" fill="#3e0606" opacity=".269" rx="293.9" ry="129.1"/><ellipse cx="1962.5" cy="1766.6" fill="#3c0707" opacity=".308" rx="285.3" ry="125.3"/><ellipse cx="1962.5" cy="1766.6" fill="#3a0808" opacity=".346" rx="276.7" ry="121.6"/><ellipse cx="1962.5" cy="1766.6" fill="#380909" opacity=".385" rx="268.2" ry="117.8"/><ellipse cx="1962.5" cy="1766.6" fill="#360a0a" opacity=".423" rx="259.6" ry="114"/><ellipse cx="1962.5" cy="1766.6" fill="#340b0b" opacity=".462" rx="251" ry="110.3"/><ellipse cx="1962.5" cy="1766.6" fill="#330c0c" opacity=".5" rx="242.5" ry="106.5"/><ellipse cx="1962.5" cy="1766.6" fill="#310d0d" opacity=".538" rx="233.9" ry="102.8"/><ellipse cx="1962.5" cy="1766.6" fill="#2f0e0e" opacity=".577" rx="225.4" ry="99"/><ellipse cx="1962.5" cy="1766.6" fill="#2d0f0f" opacity=".615" rx="216.8" ry="95.2"/><ellipse cx="1962.5" cy="1766.6" fill="#2b1010" opacity=".654" rx="208.2" ry="91.5"/><ellipse cx="1962.5" cy="1766.6" fill="#291111" opacity=".692" rx="199.7" ry="87.7"/><ellipse cx="1962.5" cy="1766.6" fill="#271212" opacity=".731" rx="191.1" ry="83.9"/><ellipse cx="1962.5" cy="1766.6" fill="#251212" opacity=".769" rx="182.5" ry="80.2"/><ellipse cx="1962.5" cy="1766.6" fill="#231313" opacity=".808" rx="174" ry="76.4"/><ellipse cx="1962.5" cy="1766.6" fill="#211414" opacity=".846" rx="165.4" ry="72.7"/><ellipse cx="1962.5" cy="1766.6" fill="#1f1515" opacity=".885" rx="156.9" ry="68.9"/><ellipse cx="1962.5" cy="1766.6" fill="#1d1616" opacity=".923" rx="148.3" ry="65.1"/><ellipse cx="1962.5" cy="1766.6" fill="#1b1717" opacity=".962" rx="139.7" ry="61.4"/><ellipse cx="1962.5" cy="1766.6" fill="#191818" rx="131.2" ry="57.6"/></g><g opacity=".17"><ellipse cx="1894.2" cy="1708.7" fill="#4c0000" opacity="0" rx="353.8" ry="155.4"/><ellipse cx="1894.2" cy="1708.7" fill="#4a0101" opacity=".038" rx="345.2" ry="151.6"/><ellipse cx="1894.2" cy="1708.7" fill="#480202" opacity=".077" rx="336.7" ry="147.9"/><ellipse cx="1894.2" cy="1708.7" fill="#460303" opacity=".115" rx="328.1" ry="144.1"/><ellipse cx="1894.2" cy="1708.7" fill="#440404" opacity=".154" rx="319.5" ry="140.4"/><ellipse cx="1894.2" cy="1708.7" fill="#420505" opacity=".192" rx="311" ry="136.6"/><ellipse cx="1894.2" cy="1708.7" fill="#400606" opacity=".231" rx="302.4" ry="132.8"/><ellipse cx="1894.2" cy="1708.7" fill="#3e0606" opacity=".269" rx="293.9" ry="129.1"/><ellipse cx="1894.2" cy="1708.7" fill="#3c0707" opacity=".308" rx="285.3" ry="125.3"/><ellipse cx="1894.2" cy="1708.7" fill="#3a0808" opacity=".346" rx="276.7" ry="121.6"/><ellipse cx="1894.2" cy="1708.7" fill="#380909" opacity=".385" rx="268.2" ry="117.8"/><ellipse cx="1894.2" cy="1708.7" fill="#360a0a" opacity=".423" rx="259.6" ry="114"/><ellipse cx="1894.2" cy="1708.7" fill="#340b0b" opacity=".462" rx="251" ry="110.3"/><ellipse cx="1894.2" cy="1708.7" fill="#330c0c" opacity=".5" rx="242.5" ry="106.5"/><ellipse cx="1894.2" cy="1708.7" fill="#310d0d" opacity=".538" rx="233.9" ry="102.8"/><ellipse cx="1894.2" cy="1708.7" fill="#2f0e0e" opacity=".577" rx="225.4" ry="99"/><ellipse cx="1894.2" cy="1708.7" fill="#2d0f0f" opacity=".615" rx="216.8" ry="95.2"/><ellipse cx="1894.2" cy="1708.7" fill="#2b1010" opacity=".654" rx="208.2" ry="91.5"/><ellipse cx="1894.2" cy="1708.7" fill="#291111" opacity=".692" rx="199.7" ry="87.7"/><ellipse cx="1894.2" cy="1708.7" fill="#271212" opacity=".731" rx="191.1" ry="83.9"/><ellipse cx="1894.2" cy="1708.7" fill="#251212" opacity=".769" rx="182.5" ry="80.2"/><ellipse cx="1894.2" cy="1708.7" fill="#231313" opacity=".808" rx="174" ry="76.4"/><ellipse cx="1894.2" cy="1708.7" fill="#211414" opacity=".846" rx="165.4" ry="72.7"/><ellipse cx="1894.2" cy="1708.7" fill="#1f1515" opacity=".885" rx="156.9" ry="68.9"/><ellipse cx="1894.2" cy="1708.7" fill="#1d1616" opacity=".923" rx="148.3" ry="65.1"/><ellipse cx="1894.2" cy="1708.7" fill="#1b1717" opacity=".962" rx="139.7" ry="61.4"/><ellipse cx="1894.2" cy="1708.7" fill="#191818" rx="131.2" ry="57.6"/></g><g opacity=".17"><ellipse cx="1489.6" cy="1951.7" fill="#4c0000" opacity="0" rx="353.8" ry="155.4"/><ellipse cx="1489.6" cy="1951.7" fill="#4a0101" opacity=".038" rx="345.2" ry="151.6"/><ellipse cx="1489.6" cy="1951.7" fill="#480202" opacity=".077" rx="336.7" ry="147.9"/><ellipse cx="1489.6" cy="1951.7" fill="#460303" opacity=".115" rx="328.1" ry="144.1"/><ellipse cx="1489.6" cy="1951.7" fill="#440404" opacity=".154" rx="319.5" ry="140.4"/><ellipse cx="1489.6" cy="1951.7" fill="#420505" opacity=".192" rx="311" ry="136.6"/><ellipse cx="1489.6" cy="1951.7" fill="#400606" opacity=".231" rx="302.4" ry="132.8"/><ellipse cx="1489.6" cy="1951.7" fill="#3e0606" opacity=".269" rx="293.9" ry="129.1"/><ellipse cx="1489.6" cy="1951.7" fill="#3c0707" opacity=".308" rx="285.3" ry="125.3"/><ellipse cx="1489.6" cy="1951.7" fill="#3a0808" opacity=".346" rx="276.7" ry="121.6"/><ellipse cx="1489.6" cy="1951.7" fill="#380909" opacity=".385" rx="268.2" ry="117.8"/><ellipse cx="1489.6" cy="1951.7" fill="#360a0a" opacity=".423" rx="259.6" ry="114"/><ellipse cx="1489.6" cy="1951.7" fill="#340b0b" opacity=".462" rx="251" ry="110.3"/><ellipse cx="1489.6" cy="1951.7" fill="#330c0c" opacity=".5" rx="242.5" ry="106.5"/><ellipse cx="1489.6" cy="1951.7" fill="#310d0d" opacity=".538" rx="233.9" ry="102.8"/><ellipse cx="1489.6" cy="1951.7" fill="#2f0e0e" opacity=".577" rx="225.4" ry="99"/><ellipse cx="1489.6" cy="1951.7" fill="#2d0f0f" opacity=".615" rx="216.8" ry="95.2"/><ellipse cx="1489.6" cy="1951.7" fill="#2b1010" opacity=".654" rx="208.2" ry="91.5"/><ellipse cx="1489.6" cy="1951.7" fill="#291111" opacity=".692" rx="199.7" ry="87.7"/><ellipse cx="1489.6" cy="1951.7" fill="#271212" opacity=".731" rx="191.1" ry="83.9"/><ellipse cx="1489.6" cy="1951.7" fill="#251212" opacity=".769" rx="182.5" ry="80.2"/><ellipse cx="1489.6" cy="1951.7" fill="#231313" opacity=".808" rx="174" ry="76.4"/><ellipse cx="1489.6" cy="1951.7" fill="#211414" opacity=".846" rx="165.4" ry="72.7"/><ellipse cx="1489.6" cy="1951.7" fill="#1f1515" opacity=".885" rx="156.9" ry="68.9"/><ellipse cx="1489.6" cy="1951.7" fill="#1d1616" opacity=".923" rx="148.3" ry="65.1"/><ellipse cx="1489.6" cy="1951.7" fill="#1b1717" opacity=".962" rx="139.7" ry="61.4"/><ellipse cx="1489.6" cy="1951.7" fill="#191818" rx="131.2" ry="57.6"/></g><g opacity=".17"><ellipse cx="842.8" cy="1623.6" fill="#4c0000" opacity="0" rx="353.8" ry="155.4"/><ellipse cx="842.8" cy="1623.6" fill="#4a0101" opacity=".038" rx="345.2" ry="151.6"/><ellipse cx="842.8" cy="1623.6" fill="#480202" opacity=".077" rx="336.7" ry="147.9"/><ellipse cx="842.8" cy="1623.6" fill="#460303" opacity=".115" rx="328.1" ry="144.1"/><ellipse cx="842.8" cy="1623.6" fill="#440404" opacity=".154" rx="319.5" ry="140.4"/><ellipse cx="842.8" cy="1623.6" fill="#420505" opacity=".192" rx="311" ry="136.6"/><ellipse cx="842.8" cy="1623.6" fill="#400606" opacity=".231" rx="302.4" ry="132.8"/><ellipse cx="842.8" cy="1623.6" fill="#3e0606" opacity=".269" rx="293.9" ry="129.1"/><ellipse cx="842.8" cy="1623.6" fill="#3c0707" opacity=".308" rx="285.3" ry="125.3"/><ellipse cx="842.8" cy="1623.6" fill="#3a0808" opacity=".346" rx="276.7" ry="121.6"/><ellipse cx="842.8" cy="1623.6" fill="#380909" opacity=".385" rx="268.2" ry="117.8"/><ellipse cx="842.8" cy="1623.6" fill="#360a0a" opacity=".423" rx="259.6" ry="114"/><ellipse cx="842.8" cy="1623.6" fill="#340b0b" opacity=".462" rx="251" ry="110.3"/><ellipse cx="842.8" cy="1623.6" fill="#330c0c" opacity=".5" rx="242.5" ry="106.5"/><ellipse cx="842.8" cy="1623.6" fill="#310d0d" opacity=".538" rx="233.9" ry="102.8"/><ellipse cx="842.8" cy="1623.6" fill="#2f0e0e" opacity=".577" rx="225.4" ry="99"/><ellipse cx="842.8" cy="1623.6" fill="#2d0f0f" opacity=".615" rx="216.8" ry="95.2"/><ellipse cx="842.8" cy="1623.6" fill="#2b1010" opacity=".654" rx="208.2" ry="91.5"/><ellipse cx="842.8" cy="1623.6" fill="#291111" opacity=".692" rx="199.7" ry="87.7"/><ellipse cx="842.8" cy="1623.6" fill="#271212" opacity=".731" rx="191.1" ry="83.9"/><ellipse cx="842.8" cy="1623.6" fill="#251212" opacity=".769" rx="182.5" ry="80.2"/><ellipse cx="842.8" cy="1623.6" fill="#231313" opacity=".808" rx="174" ry="76.4"/><ellipse cx="842.8" cy="1623.6" fill="#211414" opacity=".846" rx="165.4" ry="72.7"/><ellipse cx="842.8" cy="1623.6" fill="#1f1515" opacity=".885" rx="156.9" ry="68.9"/><ellipse cx="842.8" cy="1623.6" fill="#1d1616" opacity=".923" rx="148.3" ry="65.1"/><ellipse cx="842.8" cy="1623.6" fill="#1b1717" opacity=".962" rx="139.7" ry="61.4"/><ellipse cx="842.8" cy="1623.6" fill="#191818" rx="131.2" ry="57.6"/></g><linearGradient id="a" x1="2344.689" x2="2589.512" y1="640.264" y2="1162.772" gradientTransform="translate(-513.062)" gradientUnits="userSpaceOnUse"><stop offset="0" stop-color="#ffb255"/><stop offset="1" stop-color="#d88d35"/></linearGradient><path fill="url(#a)" d="M2473.2,1801.8c0.1,11.5-6.4,20.7-15.3,25.4c-0.3,0.2-0.7,0.4-1,0.5l-13.3-41.4l-110.7-65.9     c-0.5-146.4-0.9-320.2,0.4-367l-45.4,21.1c-1.1,41.7-0.9,184.5-0.4,318.7l-492.6-293.4c-20.9-12.4-33.7-35-33.7-59.3l0-615.9     l-31.3-17.6c0.1-0.1,0.1-0.1,0.2-0.1l7.2-3.3c0.1-0.1,0.1-0.1,0.1-0.1l35.6-16.2c8.7-6.7,21-8.7,32.2-2.9l236.7,122.4l56.1,192.3     l409.6,226.9c6.7,3.7,10.7,10.7,10.5,18.3l-45.3,21.2C2471,1333.9,2472.6,1672.4,2473.2,1801.8z"/><linearGradient id="b" x1="2658.984" x2="2496.484" y1="1057.943" y2="1719.834" gradientTransform="translate(-513.062)" gradientUnits="userSpaceOnUse"><stop offset="0" stop-color="#ffb255"/><stop offset="1" stop-color="#d88d35"/></linearGradient><path fill="url(#b)" d="M2473.2,1801.8c0.1,11.5-6.4,20.7-15.3,25.4c-0.3,0.2-0.7,0.4-1,0.5c-8,3.9-18,4-26.8-1.2l-97-57.8     c-0.1-15.6-0.1-31.8-0.2-48.3c-0.5-146.4-0.9-320.2,0.4-367l-45.4,21.1c-1.1,41.7-0.9,184.5-0.4,318.7     c0.1,16.3,0.1,32.5,0.1,48.3l-538-320.5c-20.9-12.4-33.7-35-33.7-59.3l0-629.3c0-11.1,5.8-20.2,14-25.4c0.1-0.1,0.1-0.1,0.2-0.1     c2.3-1.4,4.6-2.6,7.2-3.3c0.1-0.1,0.1-0.1,0.1-0.1c7-2.2,15-1.7,22.4,2.1l236.7,122.4l56.1,192.3l409.6,226.9     c6.7,3.7,10.7,10.7,10.5,18.3C2471,1333.9,2472.6,1672.4,2473.2,1801.8z"/><linearGradient id="c" x1="2845.894" x2="2986.164" y1="1775.965" y2="1775.965" gradientTransform="translate(-513.062)" gradientUnits="userSpaceOnUse"><stop offset="0" stop-color="#ffb255"/><stop offset="1" stop-color="#d88d35"/></linearGradient><polygon fill="url(#c)" points="2473.1 1775 2332.8 1694.6 2332.8 1857.3"/><linearGradient id="d" x1="2628.654" x2="2361.28" y1="1274.959" y2="713.136" gradientTransform="translate(-513.062)" gradientUnits="userSpaceOnUse"><stop offset="0" stop-color="#fbfbfb"/><stop offset="1" stop-color="#e5e5e5"/></linearGradient><polygon fill="url(#d)" points="1704.2 392.8 2275.6 723.8 2419.9 980.1 2419.9 1760.1 1704.2 1344.9"/><linearGradient id="e" x1="2335.402" x2="2910.267" y1="1625.498" y2="97.775" gradientTransform="translate(-513.062)" gradientUnits="userSpaceOnUse"><stop offset="0" stop-color="#fbfbfb"/><stop offset="1" stop-color="#e5e5e5"/></linearGradient><polygon fill="url(#e)" points="1660.8 420.3 2232.1 751.3 2376.5 1007.6 2376.5 1787.5 1660.8 1372.4"/><linearGradient id="f" x1="2348.559" x2="2884.886" y1="1590.516" y2="165.21" gradientTransform="translate(-513.062)" gradientUnits="userSpaceOnUse"><stop offset="0" stop-color="#fbfbfb"/><stop offset="1" stop-color="#e5e5e5"/></linearGradient><polygon fill="url(#f)" points="1687.8 1356.8 1687.8 467.3 2212.2 771 2349.4 1014.7 2349.4 1740.5"/><linearGradient id="g" x1="2452.675" x2="2536.34" y1="647.97" y2="425.627" gradientTransform="translate(-513.062)" gradientUnits="userSpaceOnUse"><stop offset="0" stop-color="#fbfbfb"/><stop offset="1" stop-color="#e5e5e5"/></linearGradient><polygon fill="url(#g)" points="2275.6 723.8 2232.1 751.3 1660.8 420.3 1704.2 392.8"/><polygon fill="#c4c2c2" points="2419.9 980.1 2376.5 1007.6 2376.5 1787.5 2419.9 1760.1"/><polygon fill="#c4c2c2" points="2212.2 771 2212.2 947.8 2349.4 1014.7"/><polygon fill="#fff" points="2018.7 933.4 2298.2 1079.4 2298.3 1259.2 2018.6 1108.4"/><linearGradient id="h" x1="1129.32" x2="1476.693" y1="1698.476" y2="1698.476" gradientTransform="matrix(.7558 .04742 .429 .8597 446.004 -425.868)" gradientUnits="userSpaceOnUse"><stop offset="0" stop-color="#3abaf9"/><stop offset="1" stop-color="#267ebd"/></linearGradient><polygon fill="url(#h)" points="2035.5 1102.5 2035.6 957.1 2281.3 1085.5 2281.4 1235.1"/><linearGradient id="i" x1="1129.32" x2="1249.725" y1="1722.121" y2="1722.121" gradientTransform="matrix(.7558 .04742 .429 .8597 446.004 -425.868)" gradientUnits="userSpaceOnUse"><stop offset="0" stop-color="#fe7f0a"/><stop offset="1" stop-color="#ffb538"/></linearGradient><polygon fill="url(#i)" points="2035.5 1102.5 2102.6 1060.4 2156 1167.5"/><linearGradient id="j" x1="1203.267" x2="1377.206" y1="1754.096" y2="1754.096" gradientTransform="matrix(.7558 .04742 .429 .8597 446.004 -425.868)" gradientUnits="userSpaceOnUse"><stop offset="0" stop-color="#fe7f0a"/><stop offset="1" stop-color="#ffb538"/></linearGradient><polygon fill="url(#j)" points="2281.4 1235.1 2195.6 1059.8 2109.5 1142.4"/><linearGradient id="k" x1="1243.166" x2="1282.782" y1="1613.572" y2="1613.572" gradientTransform="matrix(.7558 .04742 .429 .8597 446.004 -425.868)" gradientUnits="userSpaceOnUse"><stop offset="0" stop-color="#fbfbfb"/><stop offset="1" stop-color="#e5e5e5"/></linearGradient><path fill="url(#k)" d="M2107.7,1022.2c4.7,9.4,1.8,16.6-6.5,16.1c-8.3-0.5-18.8-8.6-23.5-18s-1.8-16.6,6.5-16.1       C2092.5,1004.8,2103,1012.8,2107.7,1022.2z"/><line x1="1742.5" x2="1991.3" y1="830" y2="965.8" fill="none" stroke="#ccc" stroke-linecap="round" stroke-linejoin="round" stroke-miterlimit="10" stroke-width="14.56"/><line x1="1742.5" x2="1991.3" y1="745" y2="880.9" fill="none" stroke="#ccc" stroke-linecap="round" stroke-linejoin="round" stroke-miterlimit="10" stroke-width="14.56"/><line x1="1894.2" x2="2143" y1="643.6" y2="779.4" fill="none" stroke="#ccc" stroke-linecap="round" stroke-linejoin="round" stroke-miterlimit="10" stroke-width="14.56"/><line x1="1742.5" x2="1991.3" y1="881.8" y2="1017.7" fill="none" stroke="#ccc" stroke-linecap="round" stroke-linejoin="round" stroke-miterlimit="10" stroke-width="14.56"/><line x1="1742.5" x2="1991.3" y1="933.7" y2="1069.6" fill="none" stroke="#ccc" stroke-linecap="round" stroke-linejoin="round" stroke-miterlimit="10" stroke-width="14.56"/><line x1="1742.5" x2="1991.3" y1="985.6" y2="1121.4" fill="none" stroke="#ccc" stroke-linecap="round" stroke-linejoin="round" stroke-miterlimit="10" stroke-width="14.56"/><line x1="1742.5" x2="2280.8" y1="1037.4" y2="1324.5" fill="none" stroke="#ccc" stroke-linecap="round" stroke-linejoin="round" stroke-miterlimit="10" stroke-width="14.56"/><line x1="1742.5" x2="2280.8" y1="1088.6" y2="1375.7" fill="none" stroke="#ccc" stroke-linecap="round" stroke-linejoin="round" stroke-miterlimit="10" stroke-width="14.56"/><line x1="1742.5" x2="2280.8" y1="1139.8" y2="1426.9" fill="none" stroke="#ccc" stroke-linecap="round" stroke-linejoin="round" stroke-miterlimit="10" stroke-width="14.56"/><line x1="1742.5" x2="2280.8" y1="1190.9" y2="1472.2" fill="none" stroke="#ccc" stroke-linecap="round" stroke-linejoin="round" stroke-miterlimit="10" stroke-width="14.56"/><line x1="1742.5" x2="2280.8" y1="1242.1" y2="1529.2" fill="none" stroke="#ccc" stroke-linecap="round" stroke-linejoin="round" stroke-miterlimit="10" stroke-width="14.56"/><line x1="1742.5" x2="2203.5" y1="1293.3" y2="1540" fill="none" stroke="#ccc" stroke-linecap="round" stroke-linejoin="round" stroke-miterlimit="10" stroke-width="14.56"/><linearGradient id="l" x1="2200.892" x2="2725.219" y1="828.359" y2="828.359" gradientTransform="matrix(1 -.01465 0 1 -513.062 -39.858)" gradientUnits="userSpaceOnUse"><stop offset="0" stop-color="#fe7f0a"/><stop offset="1" stop-color="#ffb538"/></linearGradient><polygon fill="url(#l)" points="1687.8 575.3 2212.2 871.4 2212.2 929.5 1687.8 633.5"/><g><path fill="#c17529" d="M2518.1,1244.5l-45.3,21.2c-1.6,63.9-0.4,365.2,0.3,509.3l-139.5,82.3c-0.1-25.7-0.3-55.9-0.4-88.7     c-0.1-15.6-0.1-31.8-0.2-48.3c-0.5-146.4-0.9-320.2,0.4-367l-45.4,21.1c-1.1,41.7-0.9,184.5-0.4,318.7     c0.1,16.3,0.1,32.5,0.1,48.3c0.3,67.1,0.6,128.4,0.8,169.1c0.1,11.5-6.4,20.7-15.3,25.4l42.8-20c0.6-0.2,1.1-0.5,1.7-0.8     c2.5-1.2,4.8-2.8,6.8-4.6l171.9-101.3l4.4-2.1c0.6-0.2,1.1-0.5,1.7-0.8c9.3-4.5,16.2-13.9,16.2-25.6v-0.2     C2517.9,1651.2,2516.3,1312.7,2518.1,1244.5z"/><linearGradient id="m" x1="-4081.248" x2="-4712.984" y1="979.441" y2="1527.106" gradientTransform="matrix(-1 0 0 1 -2617.067 0)" gradientUnits="userSpaceOnUse"><stop offset="0" stop-color="#ffb255"/><stop offset="1" stop-color="#ffe7b6"/></linearGradient><path fill="url(#m)" d="M2287.6,1741.5c0.3,67.1,0.6,128.4,0.8,169.1c0.1,11.5-6.4,20.7-15.3,25.4c-0.3,0.2-0.7,0.4-1,0.5     l-13.3-41.4l-648.7-386.5c-20.9-12.4-33.7-35-33.7-59.3l0-615.9l-31.4-17.5l7.7-3.5l35.3-16.1c8.7-6.7,21-8.7,32.2-2.9l95.7,49.5     l45.3,23.4l95.8,49.5l56.1,192.3l409.6,226.9c6.7,3.7,10.7,10.7,10.5,18.3l-45.4,21.1c-1.1,41.7-0.9,184.5-0.4,318.7     C2287.6,1709.5,2287.6,1725.7,2287.6,1741.5z"/><linearGradient id="n" x1="-4430.174" x2="-4570.074" y1="1731.174" y2="1216.832" gradientTransform="matrix(-1 0 0 1 -2617.067 0)" gradientUnits="userSpaceOnUse"><stop offset="0" stop-color="#ffb255"/><stop offset="1" stop-color="#ffca85"/></linearGradient><path fill="url(#n)" d="M2288.4,1910.6c0.1,11.5-6.4,20.7-15.3,25.4c-0.3,0.2-0.7,0.4-1,0.5c-8,3.9-17.9,4-26.7-1.2l-680.6-405.4     c-20.9-12.4-33.7-35-33.7-59.3l0-629.3c0-11.1,5.7-20.2,14-25.4c2.4-1.5,5-2.7,7.7-3.5c7-2.1,14.9-1.6,22.2,2.1l141,72.9     l45.3,23.4l50.5,26.1l56.1,192.3l409.6,226.9c6.6,3.7,10.6,10.7,10.5,18.3c-1.1,41.7-0.9,184.5-0.4,318.7     c0.1,16.3,0.1,32.5,0.1,48.3C2287.9,1808.6,2288.2,1869.9,2288.4,1910.6z"/><polygon fill="#c17529" points="1857 915.8 1811.7 937 1867.8 1129.3 1913.1 1108.1"/><linearGradient id="o" x1="-4437.59" x2="-4576.571" y1="1727.588" y2="1216.628" gradientTransform="matrix(-1 0 0 1 -2617.067 0)" gradientUnits="userSpaceOnUse"><stop offset="0" stop-color="#fff"/><stop offset="1" stop-color="#ffe7b6"/></linearGradient><path fill="url(#o)" d="M2285.6,1911.8c-0.2-40.7-0.5-102-0.8-169.1c0-15.8-0.1-32-0.1-48.3c-0.5-134.2-0.7-277,0.4-318.7     c0.2-7.6-3.9-14.6-10.5-18.3L1865,1130.5l-56.1-192.3l-50.5-26.1l-45.3-23.4l-141-72.9c-7.2-3.7-14.9-4.2-21.8-2.2     c0.8-0.3,1.5-0.8,2.4-1.1c7-2.1,14.9-1.6,22.2,2.1l141,72.9l45.3,23.4l50.5,26.1l56.1,192.3l409.6,226.9     c6.6,3.7,10.6,10.7,10.5,18.3c-1.1,41.7-0.9,184.5-0.4,318.7c0.1,16.3,0.1,32.5,0.1,48.3c0.3,67.1,0.6,128.4,0.8,169.1     c0.1,11.5-6.4,20.7-15.3,25.4c-0.3,0.2-0.7,0.4-1,0.5c-0.5,0.2-1,0.3-1.5,0.5C2279.3,1932.4,2285.7,1923.2,2285.6,1911.8z"/></g><g><linearGradient id="p" x1="1675.216" x2="1337.295" y1="1655.829" y2="1349.805" gradientUnits="userSpaceOnUse"><stop offset="0" stop-color="#fe7f0a"/><stop offset="1" stop-color="#ffb538"/></linearGradient><polygon fill="url(#p)" points="1344.8 1790 1344.8 1055.6 1746.4 1286.9 1859.6 1501.7 1859.6 2086.4 1847.1 2097.4"/><linearGradient id="q" x1="1589.722" x2="1589.722" y1="1191.764" y2="1952.761" gradientUnits="userSpaceOnUse"><stop offset="0" stop-color="#fe7f0a"/><stop offset="1" stop-color="#ffb538"/></linearGradient><polygon fill="url(#q)" points="1332.3 1800.9 1332.3 1066.6 1733.9 1297.9 1847.1 1512.6 1847.1 2097.4"/><linearGradient id="r" x1="1610.483" x2="1549.347" y1="1331.607" y2="2068.939" gradientUnits="userSpaceOnUse"><stop offset="0" stop-color="#fbfbfb"/><stop offset="1" stop-color="#e5e5e5"/></linearGradient><polygon fill="url(#r)" points="1350.3 1790.5 1829.2 2066.4 1829.2 1517.1 1720.4 1310.8 1350.3 1097.6"/><linearGradient id="s" x1="1720.431" x2="1829.171" y1="1413.955" y2="1413.955" gradientUnits="userSpaceOnUse"><stop offset="0" stop-color="#a8a7a7"/><stop offset="1" stop-color="#e5e5e5"/></linearGradient><polygon fill="url(#s)" points="1720.4 1310.8 1720.4 1469.2 1829.2 1517.1"/><linearGradient id="t" x1="1574.211" x2="1431.057" y1="1208.322" y2="1078.682" gradientUnits="userSpaceOnUse"><stop offset="0" stop-color="#fe7f0a"/><stop offset="1" stop-color="#ffb538"/></linearGradient><polygon fill="url(#t)" points="1344.8 1055.6 1332.3 1066.6 1733.9 1297.9 1746.4 1286.9"/><line x1="1383.5" x2="1627.4" y1="1267.9" y2="1408.4" fill="none" stroke="#ccc" stroke-linecap="round" stroke-linejoin="round" stroke-miterlimit="10" stroke-width="7.854"/><line x1="1383.5" x2="1627.4" y1="1309.7" y2="1450.2" fill="none" stroke="#ccc" stroke-linecap="round" stroke-linejoin="round" stroke-miterlimit="10" stroke-width="7.854"/><line x1="1383.5" x2="1786.4" y1="1351.6" y2="1583.2" fill="none" stroke="#ccc" stroke-linecap="round" stroke-linejoin="round" stroke-miterlimit="10" stroke-width="7.854"/><line x1="1383.5" x2="1786.4" y1="1393.4" y2="1625.1" fill="none" stroke="#ccc" stroke-linecap="round" stroke-linejoin="round" stroke-miterlimit="10" stroke-width="7.854"/><line x1="1383.5" x2="1786.4" y1="1435.2" y2="1666.9" fill="none" stroke="#ccc" stroke-linecap="round" stroke-linejoin="round" stroke-miterlimit="10" stroke-width="7.854"/><line x1="1383.5" x2="1595.7" y1="1762.1" y2="1884.1" fill="none" stroke="#ccc" stroke-linecap="round" stroke-linejoin="round" stroke-miterlimit="10" stroke-width="7.854"/><line x1="1383.5" x2="1786.4" y1="1477.1" y2="1708.7" fill="none" stroke="#ccc" stroke-linecap="round" stroke-linejoin="round" stroke-miterlimit="10" stroke-width="7.854"/><line x1="1383.5" x2="1786.4" y1="1592.9" y2="1824.6" fill="none" stroke="#ccc" stroke-linecap="round" stroke-linejoin="round" stroke-miterlimit="10" stroke-width="5.981"/><polygon fill="none" stroke="#ccc" stroke-linecap="round" stroke-linejoin="round" stroke-miterlimit="10" stroke-width="5.981" points="1383.5 1712 1786.4 1943.6 1786.4 1779.3 1383.5 1547.7"/><polygon fill="none" stroke="#ccc" stroke-linecap="round" stroke-linejoin="round" stroke-miterlimit="10" stroke-width="5.981" points="1383.5 1224.4 1617 1358.6 1617 1302.5 1383.5 1168.2"/><line x1="1484.5" x2="1484.5" y1="1605.8" y2="1770" fill="none" stroke="#ccc" stroke-linecap="round" stroke-linejoin="round" stroke-miterlimit="10" stroke-width="5.981"/><line x1="1636.7" x2="1636.7" y1="1694.7" y2="1859" fill="none" stroke="#ccc" stroke-linecap="round" stroke-linejoin="round" stroke-miterlimit="10" stroke-width="5.981"/><linearGradient id="u" x1="1023.489" x2="685.568" y1="1299.956" y2="993.933" gradientUnits="userSpaceOnUse"><stop offset="0" stop-color="#3abaf9"/><stop offset="1" stop-color="#267ebd"/></linearGradient><polygon fill="url(#u)" points="693.1 1434.1 693.1 699.8 1094.6 931 1207.9 1145.8 1207.9 1730.6 1195.4 1741.5"/><linearGradient id="v" x1="937.995" x2="937.995" y1="835.891" y2="1596.889" gradientUnits="userSpaceOnUse"><stop offset="0" stop-color="#3abaf9"/><stop offset="1" stop-color="#267ebd"/></linearGradient><polygon fill="url(#v)" points="680.6 1445 680.6 710.7 1082.2 942 1195.4 1156.8 1195.4 1741.5"/><linearGradient id="w" x1="958.755" x2="897.62" y1="975.735" y2="1713.067" gradientUnits="userSpaceOnUse"><stop offset="0" stop-color="#fbfbfb"/><stop offset="1" stop-color="#e5e5e5"/></linearGradient><polygon fill="url(#w)" points="698.5 1434.7 1177.4 1710.5 1177.4 1161.2 1068.7 954.9 698.5 741.8"/><linearGradient id="x" x1="1068.704" x2="1177.444" y1="1058.083" y2="1058.083" gradientUnits="userSpaceOnUse"><stop offset="0" stop-color="#a8a7a7"/><stop offset="1" stop-color="#e5e5e5"/></linearGradient><polygon fill="url(#x)" points="1068.7 954.9 1068.7 1113.3 1177.4 1161.2"/><linearGradient id="y" x1="922.483" x2="779.33" y1="852.45" y2="722.81" gradientUnits="userSpaceOnUse"><stop offset="0" stop-color="#3abaf9"/><stop offset="1" stop-color="#267ebd"/></linearGradient><polygon fill="url(#y)" points="693.1 699.8 680.6 710.7 1082.2 942 1094.6 931"/><line x1="731.7" x2="975.6" y1="912" y2="1052.5" fill="none" stroke="#ccc" stroke-linecap="round" stroke-linejoin="round" stroke-miterlimit="10" stroke-width="7.854"/><line x1="731.7" x2="975.6" y1="953.8" y2="1094.3" fill="none" stroke="#ccc" stroke-linecap="round" stroke-linejoin="round" stroke-miterlimit="10" stroke-width="7.854"/><line x1="731.7" x2="1134.7" y1="995.7" y2="1227.3" fill="none" stroke="#ccc" stroke-linecap="round" stroke-linejoin="round" stroke-miterlimit="10" stroke-width="7.854"/><line x1="731.7" x2="1134.7" y1="1037.5" y2="1269.2" fill="none" stroke="#ccc" stroke-linecap="round" stroke-linejoin="round" stroke-miterlimit="10" stroke-width="7.854"/><line x1="731.7" x2="1134.7" y1="1079.4" y2="1311" fill="none" stroke="#ccc" stroke-linecap="round" stroke-linejoin="round" stroke-miterlimit="10" stroke-width="7.854"/><line x1="731.7" x2="944" y1="1406.2" y2="1528.2" fill="none" stroke="#ccc" stroke-linecap="round" stroke-linejoin="round" stroke-miterlimit="10" stroke-width="7.854"/><line x1="731.7" x2="1134.7" y1="1121.2" y2="1352.9" fill="none" stroke="#ccc" stroke-linecap="round" stroke-linejoin="round" stroke-miterlimit="10" stroke-width="7.854"/><line x1="731.7" x2="1134.7" y1="1237" y2="1468.7" fill="none" stroke="#ccc" stroke-linecap="round" stroke-linejoin="round" stroke-miterlimit="10" stroke-width="5.981"/><polygon fill="none" stroke="#ccc" stroke-linecap="round" stroke-linejoin="round" stroke-miterlimit="10" stroke-width="5.981" points="731.7 1356.1 1134.7 1587.7 1134.7 1423.5 731.7 1191.8"/><polygon fill="none" stroke="#ccc" stroke-linecap="round" stroke-linejoin="round" stroke-miterlimit="10" stroke-width="5.981" points="731.7 868.5 965.2 1002.8 965.2 946.6 731.7 812.4"/><line x1="832.7" x2="832.7" y1="1249.9" y2="1414.2" fill="none" stroke="#ccc" stroke-linecap="round" stroke-linejoin="round" stroke-miterlimit="10" stroke-width="5.981"/><line x1="985" x2="985" y1="1338.8" y2="1503.1" fill="none" stroke="#ccc" stroke-linecap="round" stroke-linejoin="round" stroke-miterlimit="10" stroke-width="5.981"/></g><g><linearGradient id="z" x1="-3439.346" x2="-3516.453" y1="-11454.845" y2="-11567.935" gradientTransform="matrix(-1.0591 -.1289 .129 -1.0592 -1501.832 -10824.532)" gradientUnits="userSpaceOnUse"><stop offset="0" stop-color="#7f7f7f"/><stop offset="1" stop-color="#444"/></linearGradient><path fill="url(#z)" d="M481.7,1845.4c-0.1,0.9-0.1,1.7-0.2,2.6c0,0.4,0,0.8,0,1.2c0,0.2,0,0.3,0,0.5c0,0.3,0,0.6,0,0.9     c0,0.9,0,1.8,0,2.6c0,0.9,0,1.8,0.1,2.7c0,0,0,0.1,0,0.1c0,0,0,0.1,0,0.1c0,0.9,0.1,1.7,0.1,2.6c0.1,0.9,0.1,1.9,0.2,2.8     c0,0.3,0.1,0.7,0.1,1c0,0.2,0,0.4,0.1,0.6c0,0.4,0.1,0.8,0.1,1.3c0.1,1,0.3,1.9,0.4,2.9c0.1,0.7,0.2,1.4,0.4,2.1     c0,0.1,0,0.3,0.1,0.4c0,0.1,0,0.3,0.1,0.4c0.2,1,0.4,1.9,0.5,2.9c0.2,0.9,0.4,1.9,0.6,2.8c0,0.2,0.1,0.3,0.1,0.5     c0,0.1,0.1,0.3,0.1,0.4c0.1,0.6,0.3,1.2,0.4,1.8c0.2,0.9,0.5,1.8,0.7,2.7c0.2,0.6,0.4,1.3,0.6,1.9c0,0.1,0.1,0.2,0.1,0.3     c0,0.1,0.1,0.3,0.1,0.4c0.3,0.9,0.6,1.8,0.9,2.7c0.3,1,0.7,2,1,3c0.1,0.2,0.1,0.3,0.2,0.4c0.1,0.2,0.1,0.4,0.2,0.6     c0.3,0.8,0.6,1.6,0.9,2.4c0.4,1,0.8,1.9,1.2,2.9c0.2,0.5,0.4,1,0.6,1.5c0.1,0.2,0.2,0.4,0.2,0.6c0.4,0.8,0.8,1.7,1.2,2.5     c0.6,1.2,1.1,2.5,1.7,3.7c0.1,0.2,0.2,0.4,0.3,0.6c0.9,1.8,1.8,3.5,2.8,5.2c0,0,0,0,0,0l0,0c0.6,1.1,1.3,2.3,2,3.4     c0.6,0.9,1.1,1.8,1.7,2.7c0,0,0,0,0,0.1c0,0,0,0,0,0c0.6,0.9,1.2,1.8,1.8,2.7c0.6,0.9,1.2,1.7,1.8,2.5c0.1,0.1,0.2,0.3,0.3,0.4     c0.1,0.1,0.2,0.3,0.3,0.4c0.4,0.6,0.8,1.2,1.3,1.7c0.6,0.8,1.3,1.7,2,2.5c0.2,0.3,0.4,0.5,0.6,0.7c0.2,0.2,0.3,0.4,0.5,0.6     c0.3,0.4,0.6,0.8,1,1.2c0.7,0.8,1.4,1.6,2.1,2.4c0.3,0.3,0.6,0.7,0.9,1c0.2,0.2,0.3,0.3,0.5,0.5c0.2,0.2,0.5,0.5,0.7,0.7     c0.7,0.7,1.4,1.4,2.1,2.1c0.5,0.5,1,1,1.6,1.4c0.1,0.1,0.2,0.2,0.3,0.3c0.1,0.1,0.2,0.2,0.3,0.2c0.7,0.6,1.4,1.2,2.1,1.8     c0.7,0.6,1.4,1.1,2.1,1.7c0.2,0.1,0.3,0.2,0.5,0.4c0.5,0.4,1.1,0.8,1.6,1.2c0.7,0.5,1.4,0.9,2,1.4c0.4,0.3,0.9,0.6,1.3,0.8     c0.1,0.1,0.2,0.1,0.3,0.2c0.1,0.1,0.3,0.2,0.4,0.2c0.7,0.4,1.3,0.8,2,1.2c0.7,0.4,1.4,0.7,2,1.1c0.1,0.1,0.2,0.1,0.4,0.2     c0.1,0,0.2,0.1,0.3,0.1c0.5,0.2,0.9,0.4,1.4,0.6c0.7,0.3,1.4,0.6,2.1,0.9c0.3,0.1,0.7,0.2,1,0.4c0.1,0.1,0.3,0.1,0.4,0.2     c0.2,0.1,0.4,0.2,0.7,0.2c0.8,0.2,1.5,0.5,2.3,0.7c0.5,0.1,0.9,0.2,1.4,0.3c0.2,0,0.3,0.1,0.5,0.1c0.2,0,0.3,0.1,0.5,0.1     c0.8,0.2,1.7,0.3,2.5,0.4c0.4,0,0.7,0,1.1,0.1c0.3,0,0.6,0,0.8,0.1c0.3,0,0.6,0.1,0.9,0.1c1.1,0,2.1,0,3.1-0.1c0,0,0,0,0.1,0     c0.2,0,0.5-0.1,0.7-0.1c1-0.1,2.1-0.2,3.1-0.5c0.1,0,0.2-0.1,0.2-0.1c1.5-0.3,2.9-0.8,4.3-1.4l361-155c-1.4,0.6-2.8,1-4.3,1.4     c-1.1,0.3-2.2,0.4-3.3,0.5c-0.2,0-0.4,0.1-0.7,0.1c-1.3,0.1-2.7,0.1-4,0c-0.3,0-0.6,0-0.8-0.1c-1.3-0.1-2.7-0.3-4-0.6     c-0.2,0-0.3-0.1-0.5-0.1c-1.4-0.3-2.9-0.7-4.3-1.2c-0.1,0-0.3-0.1-0.4-0.2c-1.5-0.5-3-1.2-4.5-1.9c-0.1,0-0.2-0.1-0.3-0.1     c-1.6-0.8-3.2-1.6-4.8-2.6c-0.1-0.1-0.2-0.1-0.3-0.2c-1.6-1-3.3-2.1-4.9-3.4c-1.7-1.3-3.3-2.6-4.9-4c-0.1-0.1-0.2-0.2-0.3-0.3     c-1.5-1.3-3-2.8-4.4-4.2c-0.2-0.2-0.3-0.3-0.5-0.5c-1.4-1.4-2.7-2.9-4-4.5c-0.2-0.2-0.3-0.4-0.5-0.6c-1.3-1.6-2.6-3.3-3.9-5     c-0.1-0.1-0.2-0.3-0.3-0.4c-1.3-1.8-2.6-3.7-3.9-5.6c0,0,0,0,0-0.1c-1.3-2-2.5-4-3.7-6.1c0,0,0,0,0,0c-1.1-1.9-2.1-3.8-3-5.8     c-0.6-1.2-1.2-2.5-1.7-3.7c-0.5-1-1-2-1.4-3.1c-0.2-0.5-0.4-1-0.6-1.5c-0.7-1.7-1.4-3.5-2.1-5.3c-0.1-0.2-0.1-0.4-0.2-0.6     c-0.8-2.2-1.5-4.3-2.1-6.5c0-0.1-0.1-0.2-0.1-0.4c-0.6-2.1-1.2-4.3-1.7-6.4c0-0.1-0.1-0.3-0.1-0.4c-0.5-2.2-1-4.4-1.4-6.6     c0-0.1,0-0.3-0.1-0.4c-0.4-2.1-0.7-4.2-0.9-6.3c0-0.2,0-0.4-0.1-0.6c-0.2-2.2-0.4-4.3-0.5-6.4c0,0,0-0.1,0-0.1     c-0.1-2.1-0.1-4.3,0-6.3c0-0.2,0-0.3,0-0.5c0.1-2.1,0.3-4.2,0.5-6.2c0.3-2,0.6-3.9,1-5.8c0-0.2,0.1-0.3,0.1-0.5     c0.4-1.7,0.8-3.3,1.3-4.9c0.1-0.2,0.1-0.4,0.2-0.6c0.5-1.5,1.1-2.9,1.7-4.3c0.1-0.3,0.2-0.5,0.4-0.8c0.6-1.3,1.2-2.5,1.9-3.6     c0.1-0.1,0.1-0.3,0.2-0.4c0.8-1.3,1.7-2.5,2.6-3.6c0.1-0.1,0.3-0.3,0.4-0.4c0.8-0.9,1.6-1.7,2.4-2.5c0.3-0.3,0.6-0.5,0.9-0.8     c0.7-0.6,1.5-1.2,2.2-1.7c0.3-0.2,0.6-0.4,1-0.6c1.1-0.7,2.2-1.3,3.3-1.8l0,0l0,0l0,0l-361,155c-1.2,0.5-2.3,1.1-3.3,1.8     c-0.3,0.2-0.6,0.4-0.9,0.6c-0.8,0.5-1.5,1.1-2.2,1.7c-0.3,0.3-0.6,0.5-0.9,0.8c-0.8,0.8-1.6,1.6-2.4,2.5     c-0.1,0.1-0.3,0.3-0.4,0.4c0,0-0.1,0.1-0.1,0.1c-0.9,1.1-1.7,2.2-2.4,3.4c0,0,0,0.1-0.1,0.1c-0.1,0.1-0.1,0.3-0.2,0.4     c-0.5,0.8-0.9,1.5-1.4,2.4c-0.2,0.4-0.4,0.8-0.6,1.3c-0.1,0.3-0.2,0.5-0.4,0.8c-0.1,0.2-0.2,0.4-0.3,0.7c-0.4,0.8-0.7,1.7-1,2.6     c-0.1,0.3-0.2,0.6-0.3,1c-0.1,0.2-0.1,0.4-0.2,0.6c-0.1,0.3-0.2,0.6-0.3,0.9c-0.2,0.8-0.5,1.6-0.7,2.5c-0.1,0.5-0.2,1-0.3,1.4     c0,0.2-0.1,0.3-0.1,0.5c0,0.2-0.1,0.4-0.1,0.6c-0.2,0.8-0.3,1.6-0.5,2.5c-0.1,0.8-0.3,1.7-0.4,2.6c0,0.1,0,0.1,0,0.2     C481.9,1843.8,481.8,1844.6,481.7,1845.4z"/><linearGradient id="A" x1="-3643.468" x2="-3536.336" y1="-11802.252" y2="-11802.252" gradientTransform="rotate(-173.056 -938.566 -5174.421)" gradientUnits="userSpaceOnUse"><stop offset="0" stop-color="#7f7f7f"/><stop offset="1" stop-color="#444"/></linearGradient><path fill="url(#A)" d="M884.9,1786.3c-27.3-20.5-46-64.5-41.8-98.3c4.2-33.7,29.7-44.4,57.1-23.9c27.3,20.5,46,64.5,41.8,98.2      C937.7,1796.1,912.1,1806.9,884.9,1786.3z"/><linearGradient id="B" x1="-3637.214" x2="-3684.664" y1="-11738.289" y2="-11807.883" gradientTransform="rotate(-173.056 -938.566 -5174.421)" gradientUnits="userSpaceOnUse"><stop offset="0" stop-color="#fbfbfb"/><stop offset="1" stop-color="#e5e5e5"/></linearGradient><path fill="url(#B)" d="M873.5,1706.3c0,0.5-0.1,1-0.1,1.6c0,0.2,0,0.5,0,0.7c0,0.1,0,0.2,0,0.3c0,0.2,0,0.4,0,0.6     c0,0.5,0,1.1,0,1.6c0,0.5,0,1.1,0,1.7c0,0,0,0,0,0c0,0,0,0,0,0.1c0,0.5,0,1,0.1,1.6c0,0.6,0.1,1.2,0.1,1.7c0,0.2,0,0.4,0.1,0.6     c0,0.1,0,0.2,0,0.4c0,0.3,0.1,0.5,0.1,0.8c0.1,0.6,0.2,1.2,0.2,1.8c0.1,0.4,0.1,0.9,0.2,1.3c0,0.1,0,0.2,0,0.2c0,0.1,0,0.2,0,0.2     c0.1,0.6,0.2,1.2,0.3,1.7c0.1,0.6,0.2,1.1,0.4,1.7c0,0.1,0.1,0.2,0.1,0.3c0,0.1,0,0.2,0.1,0.3c0.1,0.4,0.2,0.7,0.3,1.1     c0.1,0.6,0.3,1.1,0.4,1.7c0.1,0.4,0.2,0.8,0.3,1.2c0,0.1,0,0.1,0.1,0.2c0,0.1,0,0.2,0.1,0.2c0.2,0.6,0.3,1.1,0.5,1.7     c0.2,0.6,0.4,1.2,0.6,1.8c0,0.1,0.1,0.2,0.1,0.3c0,0.1,0.1,0.2,0.1,0.3c0.2,0.5,0.4,1,0.5,1.4c0.2,0.6,0.5,1.2,0.7,1.8     c0.1,0.3,0.2,0.6,0.4,0.9c0.1,0.1,0.1,0.2,0.1,0.4c0.2,0.5,0.5,1,0.7,1.5c0.3,0.8,0.7,1.5,1.1,2.2c0.1,0.1,0.1,0.2,0.2,0.4     c0.5,1.1,1.1,2.1,1.7,3.2l0,0l0,0c0.4,0.7,0.8,1.4,1.2,2.1c0.3,0.6,0.7,1.1,1,1.6c0,0,0,0,0,0c0,0,0,0,0,0     c0.4,0.5,0.7,1.1,1.1,1.6c0.4,0.5,0.7,1,1.1,1.6c0.1,0.1,0.1,0.2,0.2,0.2c0.1,0.1,0.1,0.2,0.2,0.3c0.3,0.4,0.5,0.7,0.8,1     c0.4,0.5,0.8,1,1.2,1.5c0.1,0.2,0.3,0.3,0.4,0.5c0.1,0.1,0.2,0.2,0.3,0.3c0.2,0.2,0.4,0.5,0.6,0.7c0.4,0.5,0.9,1,1.3,1.4     c0.2,0.2,0.4,0.4,0.6,0.6c0.1,0.1,0.2,0.2,0.3,0.3c0.1,0.1,0.3,0.3,0.4,0.4c0.4,0.4,0.9,0.9,1.3,1.3c0.3,0.3,0.6,0.6,1,0.9     c0.1,0.1,0.1,0.1,0.2,0.2c0.1,0,0.1,0.1,0.2,0.1c0.4,0.4,0.8,0.7,1.3,1.1c0.4,0.3,0.8,0.7,1.3,1c0.1,0.1,0.2,0.1,0.3,0.2     c0.3,0.2,0.6,0.5,1,0.7c0.4,0.3,0.8,0.6,1.2,0.8c0.3,0.2,0.5,0.3,0.8,0.5c0.1,0,0.1,0.1,0.2,0.1c0.1,0,0.2,0.1,0.2,0.1     c0.4,0.2,0.8,0.5,1.2,0.7c0.4,0.2,0.8,0.4,1.2,0.7c0.1,0,0.1,0.1,0.2,0.1c0.1,0,0.1,0.1,0.2,0.1c0.3,0.1,0.6,0.3,0.8,0.4     c0.4,0.2,0.9,0.4,1.3,0.5c0.2,0.1,0.4,0.1,0.6,0.2c0.1,0,0.2,0.1,0.3,0.1c0.1,0,0.3,0.1,0.4,0.1c0.5,0.2,0.9,0.3,1.4,0.4     c0.3,0.1,0.6,0.1,0.8,0.2c0.1,0,0.2,0,0.3,0.1c0.1,0,0.2,0,0.3,0.1c0.5,0.1,1,0.2,1.5,0.2c0.2,0,0.4,0,0.7,0c0.2,0,0.3,0,0.5,0     c0.2,0,0.4,0,0.5,0c0.6,0,1.3,0,1.9,0c0,0,0,0,0,0c0.1,0,0.3,0,0.4-0.1c0.6-0.1,1.3-0.1,1.9-0.3c0.1,0,0.1,0,0.1,0     c0.9-0.2,1.8-0.5,2.6-0.8l143.5-61.6c-0.8,0.4-1.7,0.6-2.6,0.8c-0.7,0.2-1.3,0.3-2,0.3c-0.1,0-0.3,0.1-0.4,0.1     c-0.8,0.1-1.6,0.1-2.5,0c-0.2,0-0.3,0-0.5,0c-0.8-0.1-1.6-0.2-2.5-0.3c-0.1,0-0.2,0-0.3-0.1c-0.9-0.2-1.7-0.4-2.6-0.7     c-0.1,0-0.2-0.1-0.3-0.1c-0.9-0.3-1.8-0.7-2.8-1.1c-0.1,0-0.1-0.1-0.2-0.1c-1-0.5-1.9-1-2.9-1.6c-0.1,0-0.1-0.1-0.2-0.1     c-1-0.6-2-1.3-3-2.1c-1-0.8-2-1.6-3-2.5c-0.1-0.1-0.1-0.1-0.2-0.2c-0.9-0.8-1.8-1.7-2.7-2.6c-0.1-0.1-0.2-0.2-0.3-0.3     c-0.8-0.9-1.7-1.8-2.5-2.8c-0.1-0.1-0.2-0.2-0.3-0.3c-0.8-1-1.6-2-2.4-3c-0.1-0.1-0.1-0.2-0.2-0.3c-0.8-1.1-1.6-2.3-2.4-3.4     c0,0,0,0,0,0c-0.8-1.2-1.5-2.4-2.2-3.7l0,0c-0.7-1.2-1.3-2.3-1.9-3.5c-0.4-0.7-0.7-1.5-1.1-2.2c-0.3-0.6-0.6-1.2-0.9-1.9     c-0.1-0.3-0.2-0.6-0.4-0.9c-0.4-1.1-0.9-2.1-1.3-3.2c0-0.1-0.1-0.2-0.1-0.4c-0.5-1.3-0.9-2.6-1.3-4c0-0.1,0-0.1-0.1-0.2     c-0.4-1.3-0.7-2.6-1.1-3.9c0-0.1,0-0.2-0.1-0.3c-0.3-1.3-0.6-2.7-0.8-4c0-0.1,0-0.2,0-0.2c-0.2-1.3-0.4-2.6-0.5-3.8     c0-0.1,0-0.2,0-0.4c-0.1-1.3-0.2-2.6-0.3-3.9c0,0,0,0,0-0.1c0-1.3,0-2.6,0-3.9c0-0.1,0-0.2,0-0.3c0.1-1.3,0.2-2.5,0.3-3.8     c0.2-1.2,0.4-2.4,0.6-3.5c0-0.1,0-0.2,0.1-0.3c0.2-1,0.5-2,0.8-3c0-0.1,0.1-0.3,0.1-0.4c0.3-0.9,0.7-1.8,1-2.6     c0.1-0.2,0.1-0.3,0.2-0.5c0.4-0.8,0.8-1.5,1.2-2.2c0-0.1,0.1-0.2,0.1-0.2c0.5-0.8,1-1.5,1.6-2.2c0.1-0.1,0.2-0.2,0.2-0.3     c0.5-0.5,0.9-1,1.5-1.5c0.2-0.2,0.4-0.3,0.6-0.5c0.4-0.4,0.9-0.7,1.4-1c0.2-0.1,0.4-0.3,0.6-0.4c0.7-0.4,1.3-0.8,2-1.1l0,0l0,0     l0,0l-143.5,61.6c-0.7,0.3-1.4,0.7-2,1.1c-0.2,0.1-0.4,0.3-0.6,0.4c-0.5,0.3-0.9,0.7-1.4,1c-0.2,0.2-0.4,0.3-0.6,0.5     c-0.5,0.5-1,1-1.5,1.5c-0.1,0.1-0.2,0.2-0.2,0.3c0,0,0,0-0.1,0.1c-0.5,0.6-1,1.3-1.5,2.1c0,0,0,0.1,0,0.1c0,0.1-0.1,0.2-0.1,0.2     c-0.3,0.5-0.6,0.9-0.8,1.4c-0.1,0.2-0.2,0.5-0.4,0.8c-0.1,0.2-0.1,0.3-0.2,0.5c-0.1,0.1-0.1,0.3-0.2,0.4     c-0.2,0.5-0.4,1.1-0.6,1.6c-0.1,0.2-0.1,0.4-0.2,0.6c0,0.1-0.1,0.3-0.1,0.4c-0.1,0.2-0.1,0.4-0.2,0.6c-0.1,0.5-0.3,1-0.4,1.5     c-0.1,0.3-0.1,0.6-0.2,0.9c0,0.1,0,0.2-0.1,0.3c0,0.1-0.1,0.2-0.1,0.4c-0.1,0.5-0.2,1-0.3,1.5c-0.1,0.5-0.2,1-0.2,1.6     c0,0,0,0.1,0,0.1C873.6,1705.3,873.5,1705.8,873.5,1706.3z"/><path fill="#898989" d="M1042.6,1703.2c-16.7-12.5-28.1-39.4-25.5-60c2.6-20.6,18.1-27.1,34.8-14.6c16.6,12.5,28.1,39.4,25.5,59.9      C1074.9,1709.2,1059.3,1715.7,1042.6,1703.2z"/></g><g><linearGradient id="C" x1="1010.463" x2="1423.353" y1="1594.655" y2="1594.655" gradientUnits="userSpaceOnUse"><stop offset="0" stop-color="#7f7f7f"/><stop offset="1" stop-color="#444"/></linearGradient><path fill="url(#C)" d="M1393.9,1826.1c-0.8,0.4-1.7,0.7-2.5,1.1c-0.2,0.1-0.5,0.2-0.7,0.3l32.6-19c-2.4,1.4-4.9,2.7-7.4,3.9     c-0.8,0.4-1.7,0.7-2.5,1.1c-1.7,0.7-3.5,1.5-5.3,2.1c-0.7,0.2-1.3,0.4-2,0.7c-4.1,1.4-8.3,2.6-12.6,3.5c-0.3,0.1-0.6,0.1-0.9,0.1     c-3.1,0.6-6.2,1-9.4,1.4c-1.1,0.1-2.2,0.2-3.2,0.3c-2.1,0.2-4.2,0.2-6.3,0.3c-1.2,0-2.4,0.1-3.6,0.1c-1.7,0-3.4-0.1-5.1-0.2     c-1.4-0.1-2.7-0.1-4.1-0.2c-1.4-0.1-2.9-0.3-4.3-0.4c-1.6-0.2-3.1-0.3-4.7-0.6c-1.3-0.2-2.7-0.4-4-0.7c-1.7-0.3-3.4-0.6-5.1-0.9     c-1.2-0.2-2.3-0.5-3.5-0.8c-1.8-0.4-3.7-0.9-5.5-1.4c-1.2-0.3-2.3-0.6-3.5-1c-2-0.6-4-1.2-6.1-1.9c-1-0.3-1.9-0.6-2.9-0.9     c-3-1-6-2.1-9-3.3c0,0,0,0,0,0c0,0-0.1,0-0.1,0c-3-1.2-6-2.5-9-3.9c-1-0.4-1.9-0.9-2.9-1.4c-2.2-1-4.3-2.1-6.5-3.2     c-1.1-0.6-2.2-1.1-3.2-1.7c-2.9-1.5-5.8-3.1-8.7-4.8c-3.3-1.9-6.5-3.9-9.7-5.9c-0.2-0.1-0.4-0.2-0.6-0.3c-3.1-2-6.3-4.1-9.4-6.2     c-1-0.7-2.1-1.5-3.1-2.2c-2.1-1.5-4.2-3-6.2-4.5c-1.2-0.9-2.5-1.9-3.7-2.8c-1.9-1.4-3.7-2.9-5.6-4.3c-1.3-1.1-2.7-2.2-4-3.3     c-1.8-1.5-3.5-2.9-5.2-4.4c-1.4-1.2-2.7-2.4-4.1-3.6c-1.7-1.5-3.4-3-5.1-4.6c-1.4-1.3-2.7-2.5-4.1-3.8c-1.7-1.6-3.4-3.2-5.1-4.9     c-1.3-1.2-2.5-2.5-3.8-3.7c-1.7-1.8-3.5-3.5-5.2-5.3c-1.1-1.2-2.3-2.4-3.4-3.6c-2-2.1-3.9-4.3-5.9-6.5c-0.8-0.9-1.6-1.8-2.4-2.7     c-2.7-3.1-5.5-6.3-8.1-9.5c-0.4-0.5-0.8-1-1.3-1.5c-2.3-2.7-4.5-5.5-6.7-8.3c-2.9-3.7-5.7-7.4-8.5-11.1     c-3.9-5.3-7.6-10.6-11.3-16.1c-0.7-1-1.3-2-2-3c-4.5-6.9-8.9-13.8-13.1-20.9c-0.5-0.9-1.1-1.8-1.6-2.7c-3-5.1-5.8-10.2-8.6-15.3     c-1-1.9-2-3.8-3-5.7c-1-2-2.1-4-3.1-6c-1.5-2.9-2.9-5.8-4.3-8.7c-0.4-0.8-0.8-1.6-1.2-2.5c-1.7-3.7-3.4-7.4-5-11     c-0.4-1-0.9-2-1.3-3.1c-1.2-2.7-2.3-5.4-3.4-8.2c-0.5-1.3-1-2.5-1.5-3.8c-1.1-2.6-2.1-5.3-3.1-7.9c-0.4-1.2-0.9-2.3-1.3-3.5     c-1.3-3.5-2.5-7-3.7-10.5c-0.1-0.3-0.2-0.6-0.3-0.9c-1.3-3.8-2.5-7.6-3.6-11.4c-0.4-1.3-0.7-2.5-1.1-3.8     c-0.8-2.6-1.5-5.2-2.2-7.8c-0.4-1.5-0.8-2.9-1.2-4.4c-0.6-2.5-1.2-4.9-1.8-7.4c-0.3-1.5-0.7-2.9-1-4.4c-0.6-2.5-1.1-5-1.6-7.5     c-0.3-1.3-0.6-2.7-0.8-4c-0.6-3.3-1.2-6.6-1.8-9.9c-0.1-0.5-0.2-1-0.3-1.5c-0.6-3.8-1.1-7.5-1.6-11.3c-0.1-1.1-0.2-2.1-0.4-3.2     c-0.3-2.7-0.6-5.3-0.8-8c-0.1-1.3-0.2-2.6-0.3-3.9c-0.2-2.5-0.3-5-0.5-7.5c-0.1-1.2-0.1-2.4-0.2-3.7c-0.1-3.6-0.2-7.1-0.2-10.7     c0-3.7,0.1-7.3,0.3-10.9c0-1,0.1-2,0.2-3.1c0.1-2.4,0.3-4.9,0.5-7.2c0.1-1.4,0.3-2.8,0.4-4.1c0.2-2,0.5-4,0.7-6     c0.2-1.5,0.4-2.9,0.6-4.3c0.3-1.8,0.6-3.6,0.9-5.4c0.3-1.6,0.6-3.2,1-4.8c0.3-1.6,0.7-3.2,1.1-4.7c0.4-1.8,0.9-3.7,1.4-5.4     c0.4-1.4,0.8-2.8,1.2-4.2c0.7-2.1,1.4-4.2,2.1-6.3c0.4-1.1,0.8-2.2,1.2-3.3c1.3-3.5,2.7-6.9,4.3-10.1c0.2-0.3,0.3-0.7,0.5-1     c2.1-4.3,4.3-8.4,6.8-12.3c0.2-0.3,0.4-0.6,0.6-0.9c2-3.2,4.2-6.1,6.5-9c0.5-0.7,1.1-1.4,1.7-2c2.2-2.6,4.5-5.2,6.9-7.5     c0.2-0.2,0.3-0.4,0.5-0.6c2.5-2.5,5.2-4.7,8-6.9c0.7-0.5,1.3-1,2-1.5c2.8-2.1,5.7-4.1,8.7-5.8h0l-51.2,29.8     c-3,1.8-5.9,3.7-8.7,5.8c-0.4,0.3-0.8,0.6-1.2,0.9l-12.1,7c-3,1.8-5.9,3.7-8.7,5.8c-0.7,0.5-1.4,1-2,1.5c-2.8,2.2-5.4,4.4-8,6.9     c-0.2,0.2-0.3,0.4-0.5,0.5c-2.4,2.4-4.7,4.9-6.9,7.5c-0.6,0.7-1.1,1.3-1.7,2c-2.3,2.9-4.4,5.8-6.5,9c-0.1,0.1-0.1,0.2-0.2,0.3     c-0.1,0.2-0.2,0.5-0.4,0.7c-2.4,3.9-4.7,8-6.8,12.3c-0.1,0.2-0.3,0.4-0.4,0.7c-0.1,0.1-0.1,0.2-0.1,0.3     c-1.5,3.2-2.9,6.6-4.3,10.1c-0.1,0.3-0.3,0.6-0.4,0.9c-0.3,0.8-0.5,1.7-0.8,2.5c-0.7,2.1-1.4,4.2-2.1,6.3     c-0.2,0.6-0.4,1.1-0.6,1.7c-0.2,0.8-0.4,1.7-0.6,2.5c-0.5,1.8-1,3.6-1.4,5.4c-0.2,0.8-0.4,1.5-0.6,2.2c-0.2,0.8-0.3,1.7-0.5,2.5     c-0.3,1.6-0.7,3.2-1,4.8c-0.2,0.8-0.3,1.6-0.5,2.4c-0.2,1-0.3,2-0.4,3c-0.2,1.4-0.4,2.9-0.6,4.3c-0.1,0.7-0.2,1.5-0.3,2.2     c-0.2,1.2-0.3,2.5-0.4,3.8c-0.1,1.4-0.3,2.7-0.4,4.1c-0.1,0.6-0.1,1.1-0.2,1.6c-0.2,1.8-0.2,3.7-0.3,5.6c-0.1,1-0.1,2-0.2,3.1     c0,0.2,0,0.5,0,0.7c-0.1,3.2-0.2,6.4-0.2,9.6c0,0.2,0,0.4,0,0.6c0,3,0,6,0.1,9c0,0.6,0.1,1.1,0.1,1.7c0,1.2,0.1,2.4,0.2,3.7     c0.1,1.4,0.1,2.8,0.2,4.3c0.1,1.1,0.2,2.2,0.3,3.3c0.1,1.3,0.2,2.6,0.3,3.9c0.1,0.8,0.1,1.7,0.2,2.5c0.2,1.8,0.4,3.7,0.6,5.5     c0.1,1.1,0.2,2.1,0.4,3.2c0,0.4,0.1,0.7,0.1,1.1c0.4,3.3,0.9,6.7,1.4,10c0,0.1,0,0.1,0,0.2c0.1,0.5,0.2,1,0.2,1.4     c0.5,2.8,0.9,5.6,1.5,8.4c0.1,0.5,0.2,1,0.3,1.5c0.3,1.3,0.5,2.7,0.8,4c0.3,1.6,0.6,3.2,1,4.9c0.2,0.9,0.4,1.8,0.6,2.7     c0.3,1.5,0.7,2.9,1,4.4c0.3,1.1,0.5,2.2,0.8,3.3c0.3,1.3,0.7,2.7,1.1,4c0.4,1.5,0.8,2.9,1.1,4.4c0.2,0.7,0.4,1.4,0.6,2.2     c0.5,1.9,1.1,3.8,1.7,5.7c0.4,1.3,0.7,2.5,1.1,3.8c0.1,0.4,0.2,0.7,0.3,1c1.1,3.4,2.1,6.9,3.3,10.3c0,0,0,0.1,0,0.1     c0.1,0.3,0.2,0.6,0.3,0.8c1,3.1,2.1,6.1,3.2,9.2c0.2,0.5,0.4,0.9,0.5,1.4c0.4,1.2,0.9,2.3,1.3,3.5c0.6,1.6,1.2,3.3,1.8,4.9     c0.4,1,0.8,2.1,1.2,3.1c0.5,1.3,1,2.6,1.5,3.8c0.4,0.9,0.7,1.8,1.1,2.8c0.7,1.8,1.5,3.6,2.3,5.4c0.4,1,0.9,2,1.3,3.1     c0.2,0.4,0.3,0.7,0.5,1.1c1.4,3.2,2.9,6.4,4.4,9.6c0.1,0.1,0.1,0.2,0.2,0.4c0.4,0.8,0.8,1.7,1.2,2.5c1.2,2.5,2.4,5.1,3.7,7.6     c0.2,0.4,0.4,0.8,0.6,1.1c1,2,2,3.9,3,5.9c0.8,1.6,1.7,3.3,2.5,4.9c0.2,0.3,0.3,0.6,0.5,0.9c2.8,5.2,5.6,10.2,8.6,15.3     c0.3,0.4,0.5,0.9,0.7,1.3c0.3,0.5,0.6,1,0.9,1.4c4.2,7.1,8.6,14.1,13.1,20.9c0.2,0.4,0.5,0.8,0.7,1.1c0.4,0.6,0.9,1.2,1.3,1.9     c3.7,5.4,7.4,10.8,11.3,16.1l0,0c0,0,0.1,0.1,0.1,0.1c2.7,3.7,5.5,7.4,8.4,11c0.1,0.2,0.3,0.3,0.4,0.5c2.1,2.7,4.3,5.4,6.5,8     c0.4,0.5,0.7,0.9,1.1,1.4c0,0,0.1,0.1,0.1,0.1c2.5,3,5.1,6,7.7,9c0.1,0.1,0.3,0.3,0.4,0.4c0.8,0.9,1.6,1.8,2.5,2.7     c1.6,1.8,3.2,3.6,4.9,5.4c0.3,0.3,0.6,0.7,1,1c1.1,1.2,2.3,2.4,3.4,3.6c1.3,1.3,2.5,2.6,3.7,3.9c0.5,0.5,1,0.9,1.4,1.4     c1.2,1.3,2.5,2.5,3.8,3.7c1.1,1,2.1,2.1,3.2,3.2c0.6,0.6,1.2,1.1,1.9,1.7c1.4,1.3,2.7,2.5,4.1,3.8c0.9,0.9,1.9,1.8,2.8,2.6     c0.7,0.7,1.5,1.3,2.3,2c1.4,1.2,2.7,2.4,4.1,3.6c0.8,0.7,1.7,1.5,2.5,2.2c0.9,0.8,1.8,1.5,2.7,2.2c1.3,1.1,2.7,2.2,4,3.3     c0.7,0.6,1.4,1.1,2.1,1.7c1.1,0.9,2.3,1.8,3.5,2.6c1.2,1,2.5,1.9,3.7,2.8c0.5,0.4,1,0.8,1.5,1.2c1.6,1.1,3.1,2.2,4.7,3.3     c1,0.7,2.1,1.5,3.1,2.2c0.3,0.2,0.5,0.4,0.8,0.6c2.8,1.9,5.6,3.8,8.4,5.6c0,0,0.1,0,0.1,0c0.2,0.1,0.4,0.2,0.6,0.4     c2.6,1.6,5.2,3.2,7.8,4.8c0.7,0.4,1.3,0.8,2,1.1c2.1,1.2,4.2,2.4,6.3,3.5c0.8,0.4,1.6,0.8,2.4,1.2c1.1,0.6,2.2,1.1,3.2,1.7     c0.8,0.4,1.7,0.9,2.5,1.3c1.3,0.7,2.7,1.3,4,1.9c0.9,0.4,1.9,0.9,2.8,1.3c0.4,0.2,0.8,0.4,1.2,0.6c2.7,1.2,5.3,2.3,8,3.4     c2.7,1.1,5.4,2.1,8,3c0.3,0.1,0.7,0.2,1,0.3c0.9,0.3,1.9,0.6,2.8,0.9c1.4,0.5,2.8,0.9,4.1,1.3c0.7,0.2,1.3,0.4,2,0.6     c1.2,0.3,2.3,0.6,3.5,1c0.9,0.2,1.8,0.5,2.7,0.8c0.9,0.2,1.9,0.4,2.8,0.6c1.2,0.3,2.3,0.5,3.5,0.8c0.6,0.1,1.2,0.3,1.9,0.4     c1.1,0.2,2.2,0.3,3.2,0.5c1.3,0.2,2.7,0.5,4,0.7c0.5,0.1,1,0.2,1.4,0.2c1.1,0.1,2.2,0.2,3.3,0.3c1.4,0.2,2.9,0.3,4.3,0.4     c0.4,0,0.8,0.1,1.3,0.1c1,0.1,1.9,0.1,2.9,0.1c1.7,0.1,3.4,0.2,5,0.2c0.5,0,1,0,1.4,0c0.7,0,1.4-0.1,2.2-0.1     c2.1,0,4.2-0.1,6.2-0.3c0.6,0,1.3,0,1.9-0.1c0.5,0,0.9-0.2,1.4-0.2c3.2-0.3,6.3-0.8,9.3-1.4c0.3,0,0.5-0.1,0.8-0.1     c0,0,0.1,0,0.1,0c4.3-0.9,8.5-2.1,12.6-3.5c0.4-0.1,0.8-0.2,1.1-0.3c0.3-0.1,0.6-0.2,0.9-0.4c1.8-0.7,3.5-1.4,5.3-2.1     c0.8-0.4,1.7-0.7,2.5-1.1c2.5-1.2,5-2.5,7.4-3.9l51.2-29.8C1398.9,1823.7,1396.5,1824.9,1393.9,1826.1z"/><linearGradient id="D" x1="1026.358" x2="1540.758" y1="1579.258" y2="1579.258" gradientUnits="userSpaceOnUse"><stop offset="0" stop-color="#7f7f7f"/><stop offset="1" stop-color="#444"/></linearGradient><path fill="url(#D)" d="M1540.6,1703.6c0-0.7-0.1-1.5-0.1-2.2c-0.1-1.6-0.1-3.1-0.2-4.7c-0.1-1.9-0.1-3.7-0.3-5.6     c-0.1-1.4-0.2-2.9-0.3-4.3c-0.1-1.7-0.3-3.3-0.4-5c-0.1-1.1-0.2-2.2-0.3-3.3c-0.2-2.4-0.5-4.8-0.8-7.2c-0.2-1.4-0.3-2.7-0.5-4.1     c-0.1-0.5-0.1-0.9-0.2-1.4c-0.5-4.3-1.2-8.6-1.8-13c0-0.1,0-0.2-0.1-0.3c-0.1-0.6-0.2-1.2-0.3-1.8c-0.6-3.6-1.2-7.3-1.9-10.9     c-0.1-0.7-0.3-1.3-0.4-2c-0.3-1.7-0.7-3.4-1-5.2c-0.4-2.1-0.8-4.2-1.3-6.3c-0.3-1.2-0.6-2.4-0.8-3.5c-0.4-1.9-0.9-3.8-1.3-5.7     c-0.3-1.4-0.7-2.9-1-4.3c-0.4-1.7-0.9-3.5-1.4-5.2c-0.5-1.9-1-3.8-1.5-5.7c-0.3-0.9-0.5-1.9-0.7-2.8c-0.7-2.5-1.5-5-2.2-7.5     c-0.5-1.6-0.9-3.2-1.4-4.7c-0.1-0.5-0.3-0.9-0.4-1.4c-1.4-4.5-2.8-8.9-4.3-13.3c0-0.1,0-0.1-0.1-0.2c-0.1-0.4-0.3-0.9-0.5-1.3     c-1.3-3.9-2.7-7.8-4.1-11.7c-0.2-0.6-0.5-1.3-0.7-1.9c-0.5-1.5-1.1-2.9-1.7-4.4c-0.8-2.1-1.6-4.2-2.4-6.3     c-0.5-1.4-1.1-2.7-1.6-4.1c-0.6-1.6-1.3-3.3-2-4.9c-0.5-1.2-0.9-2.4-1.4-3.6c-1-2.4-2.1-4.8-3.1-7.2c-0.5-1.3-1.1-2.5-1.6-3.8     c-0.2-0.4-0.4-0.9-0.6-1.3c-1.8-4.2-3.7-8.3-5.7-12.5c-0.1-0.2-0.2-0.4-0.3-0.5c-0.6-1.2-1.2-2.4-1.8-3.7c-1.5-3.2-3-6.3-4.6-9.4     c-0.3-0.5-0.5-1-0.8-1.5c-1.3-2.6-2.7-5.2-4-7.7c-1.1-2.1-2.1-4.2-3.2-6.3c-0.2-0.4-0.4-0.8-0.6-1.1c-3.6-6.7-7.3-13.3-11.1-19.9     c-0.3-0.6-0.6-1.1-0.9-1.7c-0.4-0.6-0.8-1.2-1.2-1.9c-5.5-9.2-11.2-18.3-17.1-27.2c-0.3-0.5-0.6-1-0.9-1.5     c-0.6-0.8-1.1-1.6-1.7-2.4c-4.8-7.1-9.6-14-14.6-20.9h0c0,0,0-0.1-0.1-0.1c-3.6-4.8-7.2-9.6-10.9-14.3c-0.2-0.2-0.3-0.4-0.5-0.6     c-2.8-3.5-5.6-7-8.4-10.4c-0.5-0.6-0.9-1.2-1.4-1.8c0,0-0.1-0.1-0.1-0.1c-3.3-3.9-6.6-7.8-10-11.7c-0.2-0.2-0.3-0.4-0.5-0.6     c-1-1.2-2.1-2.3-3.1-3.5c-2.1-2.4-4.2-4.8-6.4-7.1c-0.4-0.4-0.8-0.9-1.3-1.3c-1.5-1.6-2.9-3.1-4.4-4.6c-1.6-1.7-3.3-3.5-4.9-5.1     c-0.6-0.6-1.3-1.2-1.9-1.9c-1.6-1.6-3.2-3.2-4.8-4.8c-1.4-1.4-2.8-2.8-4.2-4.1c-0.8-0.8-1.6-1.5-2.4-2.3     c-1.7-1.7-3.5-3.3-5.3-4.9c-1.2-1.1-2.4-2.3-3.7-3.4c-1-0.9-2-1.7-2.9-2.6c-1.8-1.6-3.5-3.1-5.3-4.6c-1.1-0.9-2.1-1.9-3.2-2.8     c-1.2-1-2.4-1.9-3.6-2.9c-1.7-1.4-3.5-2.9-5.2-4.3c-0.9-0.7-1.8-1.5-2.7-2.2c-1.5-1.2-3-2.3-4.5-3.4c-1.6-1.2-3.2-2.5-4.9-3.7     c-0.7-0.5-1.3-1-2-1.5c-2-1.5-4.1-2.9-6.1-4.3c-1.4-1-2.7-2-4.1-2.9c-0.4-0.2-0.7-0.5-1.1-0.8c-3.6-2.5-7.3-4.9-11-7.3     c0,0-0.1,0-0.1-0.1c-0.3-0.2-0.5-0.3-0.8-0.5c-3.3-2.1-6.7-4.2-10.1-6.2c-0.8-0.5-1.7-1-2.5-1.5c-2.7-1.6-5.5-3.1-8.2-4.6     c-1-0.6-2.1-1.1-3.1-1.6c-1.4-0.7-2.8-1.5-4.2-2.2c-1.1-0.6-2.2-1.2-3.3-1.7c-1.7-0.9-3.5-1.6-5.2-2.5c-1.2-0.6-2.5-1.2-3.7-1.7     c-0.5-0.2-1-0.5-1.5-0.7c-3.5-1.5-6.9-3-10.3-4.4c-3.5-1.4-7-2.7-10.4-3.9c-0.5-0.2-0.9-0.3-1.3-0.4c-1.2-0.4-2.4-0.8-3.7-1.2     c-1.8-0.6-3.6-1.2-5.3-1.7c-0.9-0.3-1.7-0.5-2.6-0.7c-1.5-0.4-3-0.8-4.5-1.2c-1.2-0.3-2.4-0.7-3.5-1c-1.2-0.3-2.4-0.5-3.6-0.8     c-1.5-0.4-3-0.7-4.5-1c-0.8-0.2-1.6-0.4-2.4-0.5c-1.4-0.3-2.8-0.5-4.2-0.7c-1.7-0.3-3.5-0.6-5.2-0.9c-0.6-0.1-1.2-0.2-1.9-0.3     c-1.4-0.2-2.9-0.3-4.3-0.4c-1.9-0.2-3.7-0.4-5.6-0.6c-0.5,0-1.1-0.1-1.6-0.2c-1.3-0.1-2.5-0.1-3.7-0.1c-2.2-0.1-4.4-0.2-6.5-0.2     c-0.6,0-1.2-0.1-1.9-0.1c-1,0-1.9,0.1-2.8,0.1c-2.7,0.1-5.4,0.2-8.1,0.4c-0.8,0.1-1.7,0-2.5,0.1c-0.6,0.1-1.2,0.2-1.8,0.3     c-4.1,0.4-8.1,1-12.1,1.8c-0.3,0.1-0.7,0.1-1,0.1c-0.1,0-0.2,0-0.3,0.1c-0.8,0.2-1.6,0.4-2.3,0.6c-2.5,0.6-4.9,1.1-7.4,1.8     c-1.2,0.3-2.3,0.7-3.5,1.1c-1.5,0.5-3.1,0.9-4.6,1.4c-0.4,0.1-0.7,0.3-1.1,0.5c-2.3,0.8-4.6,1.8-6.8,2.8     c-1.1,0.5-2.2,0.9-3.3,1.4c-3.3,1.5-6.5,3.2-9.7,5l-51.2,29.8c3.1-1.8,6.4-3.5,9.7-5c0.8-0.4,1.6-0.7,2.4-1l-34.1,19.8     c3.1-1.8,6.4-3.5,9.7-5c1.1-0.5,2.2-0.9,3.3-1.4c2.2-1,4.5-1.9,6.8-2.8c1.9-0.7,3.8-1.3,5.7-1.9c1.2-0.4,2.3-0.8,3.5-1.1     c2.4-0.7,4.9-1.3,7.4-1.8c0.8-0.2,1.6-0.4,2.3-0.6c0.4-0.1,0.9-0.1,1.3-0.2c4-0.8,8-1.3,12.1-1.8c1.4-0.1,2.8-0.3,4.2-0.4     c2.7-0.2,5.4-0.3,8.1-0.4c1.5,0,3.1-0.1,4.7-0.1c2.2,0,4.4,0.1,6.6,0.2c1.8,0.1,3.6,0.1,5.4,0.3c1.8,0.1,3.7,0.4,5.6,0.6     c2,0.2,4.1,0.4,6.1,0.7c1.7,0.3,3.5,0.6,5.2,0.9c2.2,0.4,4.4,0.8,6.6,1.2c1.5,0.3,3,0.7,4.5,1c2.4,0.5,4.8,1.1,7.2,1.8     c1.5,0.4,3,0.8,4.6,1.3c2.6,0.8,5.2,1.6,7.9,2.4c1.2,0.4,2.5,0.8,3.7,1.2c7.8,2.7,15.6,5.8,23.6,9.5c1.2,0.6,2.5,1.2,3.8,1.8     c2.8,1.3,5.6,2.7,8.4,4.1c1.4,0.7,2.8,1.4,4.2,2.2c3.8,2,7.5,4,11.3,6.2c4.2,2.4,8.4,5,12.6,7.6c0.3,0.2,0.5,0.3,0.8,0.5     c4.1,2.6,8.1,5.3,12.1,8.1c1.4,1,2.7,2,4.1,2.9c2.7,1.9,5.4,3.8,8,5.8c1.6,1.2,3.3,2.5,4.9,3.7c2.4,1.8,4.8,3.7,7.2,5.6     c1.8,1.4,3.5,2.8,5.2,4.3c2.3,1.9,4.5,3.8,6.8,5.7c1.8,1.5,3.6,3.1,5.4,4.7c2.2,1.9,4.4,3.9,6.5,5.9c1.8,1.6,3.5,3.3,5.3,4.9     c2.2,2.1,4.4,4.2,6.6,6.4c1.6,1.6,3.2,3.2,4.8,4.8c2.3,2.3,4.5,4.6,6.8,7c1.5,1.5,2.9,3.1,4.4,4.6c2.6,2.8,5.1,5.6,7.7,8.4     c1,1.2,2.1,2.3,3.1,3.5c3.6,4.1,7.1,8.2,10.6,12.4c0.5,0.6,1,1.2,1.4,1.8c3,3.6,6,7.3,8.9,11c3.7,4.7,7.4,9.5,10.9,14.4     c0,0,0,0.1,0.1,0.1c5,6.8,9.9,13.8,14.7,20.9c0.9,1.3,1.8,2.6,2.6,3.9c5.9,8.9,11.6,18,17.1,27.2c0.7,1.2,1.4,2.3,2.1,3.5     c3.8,6.6,7.6,13.2,11.1,19.9c1.3,2.4,2.6,4.9,3.9,7.4c1.3,2.6,2.7,5.2,4,7.8c1.8,3.6,3.6,7.3,5.3,10.9c0.6,1.2,1.2,2.4,1.8,3.7     c2.2,4.8,4.4,9.5,6.5,14.3c0.5,1.3,1.1,2.5,1.6,3.8c1.5,3.6,3.1,7.2,4.5,10.8c0.7,1.6,1.3,3.3,2,4.9c1.4,3.5,2.7,6.9,4,10.4     c0.6,1.5,1.1,2.9,1.7,4.4c1.7,4.5,3.3,9.1,4.8,13.6c0.1,0.4,0.3,0.9,0.4,1.3c1.7,5,3.2,9.9,4.7,14.9c0.5,1.6,0.9,3.2,1.4,4.7     c1,3.4,2,6.9,2.9,10.3c0.5,1.9,1,3.8,1.5,5.7c0.8,3.2,1.6,6.4,2.4,9.6c0.4,1.9,0.9,3.8,1.3,5.6c0.7,3.3,1.4,6.6,2.1,9.9     c0.4,1.7,0.7,3.4,1,5.2c0.8,4.3,1.6,8.6,2.3,12.9c0.1,0.6,0.2,1.2,0.3,1.8c0.8,4.9,1.5,9.8,2.1,14.6c0.2,1.4,0.3,2.7,0.5,4.1     c0.4,3.5,0.8,7,1.1,10.5c0.1,1.7,0.3,3.3,0.4,5c0.2,3.3,0.4,6.6,0.6,9.9c0.1,1.6,0.2,3.1,0.2,4.7c0.2,4.6,0.3,9.3,0.3,13.9     c0,4.8-0.1,9.5-0.4,14.2c-0.1,1.3-0.2,2.6-0.2,3.9c-0.2,3.2-0.4,6.4-0.7,9.5c-0.2,1.8-0.4,3.6-0.6,5.4c-0.3,2.6-0.6,5.2-0.9,7.8     c-0.3,1.9-0.5,3.8-0.8,5.6c-0.4,2.4-0.8,4.7-1.2,7c-0.4,2.1-0.8,4.1-1.2,6.2c-0.4,2.1-0.9,4.1-1.4,6.2c-0.6,2.4-1.2,4.7-1.8,7.1     c-0.5,1.8-1,3.6-1.6,5.4c-0.9,2.8-1.8,5.5-2.7,8.2c-0.5,1.5-1,2.9-1.5,4.4c-1.7,4.5-3.5,8.9-5.5,13.1c-1.5,3.2-3.1,6.4-4.8,9.4     c0,0,0,0.1-0.1,0.1c-1.7,3.1-3.5,6-5.3,8.9c-2.6,4.1-5.5,8-8.4,11.7c-0.7,0.9-1.4,1.8-2.2,2.6c-2.8,3.4-5.8,6.7-8.9,9.8     c-0.2,0.2-0.4,0.5-0.7,0.7c-3.3,3.2-6.8,6.2-10.4,9c-0.9,0.7-1.7,1.3-2.6,2c-3.7,2.7-7.4,5.3-11.3,7.6l51.2-29.8     c3.8-2.2,7.5-4.8,11.1-7.4l10.9-6.3c3.9-2.3,7.7-4.9,11.3-7.6c0.9-0.7,1.8-1.3,2.6-2c3.6-2.8,7.1-5.7,10.4-9     c0.2-0.2,0.4-0.5,0.7-0.7c3.1-3.1,6-6.3,8.9-9.8c0.7-0.9,1.5-1.8,2.2-2.6c2.9-3.7,5.8-7.6,8.4-11.7c0.1-0.1,0.2-0.2,0.2-0.3     c1.8-2.8,3.5-5.6,5.1-8.6c0,0,0-0.1,0.1-0.1c1.6-2.9,3.1-5.9,4.6-9c0.1-0.1,0.1-0.3,0.2-0.4c2-4.2,3.8-8.6,5.5-13.1     c0.1-0.4,0.3-0.7,0.5-1.1c0.4-1,0.7-2.2,1.1-3.2c0.9-2.7,1.9-5.4,2.7-8.2c0.2-0.7,0.5-1.4,0.7-2.2c0.3-1,0.5-2.2,0.8-3.2     c0.6-2.3,1.3-4.7,1.8-7.1c0.2-1,0.5-1.9,0.8-2.9c0.2-1.1,0.4-2.2,0.7-3.3c0.4-2,0.8-4.1,1.2-6.2c0.2-1.1,0.4-2.1,0.6-3.2     c0.2-1.3,0.4-2.6,0.6-3.9c0.3-1.9,0.6-3.7,0.8-5.6c0.1-1,0.3-1.9,0.4-2.9c0.2-1.6,0.3-3.3,0.5-5c0.2-1.8,0.4-3.5,0.6-5.4     c0.1-0.7,0.2-1.4,0.2-2.1c0.2-2.4,0.3-4.9,0.5-7.3c0.1-1.3,0.2-2.6,0.2-3.9c0-0.3,0-0.6,0.1-1c0.2-4.1,0.3-8.3,0.3-12.5     c0-0.2,0-0.5,0-0.7C1540.8,1711.4,1540.7,1707.5,1540.6,1703.6z"/><linearGradient id="E" x1="951.052" x2="1467.529" y1="1609.731" y2="1609.731" gradientUnits="userSpaceOnUse"><stop offset="0" stop-color="#fbfbfb"/><stop offset="1" stop-color="#e5e5e5"/></linearGradient><path fill="url(#E)" d="M1210.1,1313c142.6,82.3,257.9,281.9,257.4,445.8c-0.5,163.9-116.5,230-259.1,147.6     c-142.6-82.3-257.9-281.9-257.4-445.8C951.5,1296.7,1067.5,1230.7,1210.1,1313z M1208.6,1838.2     c109.8,63.4,199.1,12.5,199.5-113.7c0.4-126.1-88.4-279.8-198.2-343.3c-109.8-63.4-199.1-12.5-199.5,113.7     C1010.1,1621.1,1098.8,1774.8,1208.6,1838.2"/></g></svg>