<svg xmlns="http://www.w3.org/2000/svg" enable-background="new 0 0 3000 2500" viewBox="0 0 3000 2500"><rect width="2937.9" height="2424" x="31.1" y="38" fill="none"/><linearGradient id="a" x1="637.139" x2="2340.905" y1="1751.954" y2="1751.954" gradientUnits="userSpaceOnUse"><stop offset="0" stop-color="#606060"/><stop offset="1" stop-color="#666"/></linearGradient><ellipse cx="1489" cy="1752" fill="url(#a)" rx="851.9" ry="378.8"/><linearGradient id="b" x1="2117.374" x2="861.338" y1="1747.491" y2="1747.491" gradientUnits="userSpaceOnUse"><stop offset="0" stop-color="#efefef"/><stop offset="1" stop-color="#fdfdfd"/></linearGradient><ellipse cx="1489" cy="1747.5" fill="url(#b)" rx="851.9" ry="378.8"/><linearGradient id="c" x1="637.139" x2="2340.905" y1="1689.358" y2="1689.358" gradientUnits="userSpaceOnUse"><stop offset="0" stop-color="#efefef"/><stop offset="1" stop-color="#fdfdfd"/></linearGradient><ellipse cx="1489" cy="1689.4" fill="url(#c)" rx="851.9" ry="378.8"/><path fill="#fff" d="M1489,2056.3c-466,0-844.6-166.4-851.7-372.8c-0.1,2-0.2,3.9-0.2,5.9c0,209.2,381.4,378.8,851.9,378.8
			c470.5,0,851.9-169.6,851.9-378.8c0-2-0.1-3.9-0.2-5.9C2333.6,1889.9,1955.1,2056.3,1489,2056.3z"/><g opacity=".16"><linearGradient id="d" x1="898.468" x2="1451.044" y1="1607.176" y2="1607.176" gradientTransform="matrix(1.5465 0 -.00018 1.9023 -177.774 -1211.576)" gradientUnits="userSpaceOnUse"><stop offset="0" stop-color="#161616"/><stop offset="1" stop-color="#313031"/></linearGradient><ellipse cx="1638.8" cy="1845.8" fill="url(#d)" opacity="0" rx="427.3" ry="79.5"/><linearGradient id="e" x1="908.335" x2="1449.557" y1="1606.833" y2="1606.833" gradientTransform="matrix(1.5465 0 -.00018 1.9023 -177.774 -1211.576)" gradientUnits="userSpaceOnUse"><stop offset="0" stop-color="#161616"/><stop offset="1" stop-color="#313031"/></linearGradient><ellipse cx="1645.2" cy="1845.1" fill="url(#e)" opacity=".036" rx="418.5" ry="77.9"/><linearGradient id="f" x1="918.203" x2="1448.07" y1="1606.491" y2="1606.491" gradientTransform="matrix(1.5465 0 -.00018 1.9023 -177.774 -1211.576)" gradientUnits="userSpaceOnUse"><stop offset="0" stop-color="#161616"/><stop offset="1" stop-color="#313031"/></linearGradient><ellipse cx="1651.7" cy="1844.5" fill="url(#f)" opacity=".071" rx="409.7" ry="76.2"/><linearGradient id="g" x1="928.07" x2="1446.583" y1="1606.149" y2="1606.149" gradientTransform="matrix(1.5465 0 -.00018 1.9023 -177.774 -1211.576)" gradientUnits="userSpaceOnUse"><stop offset="0" stop-color="#161616"/><stop offset="1" stop-color="#313031"/></linearGradient><ellipse cx="1658.2" cy="1843.8" fill="url(#g)" opacity=".107" rx="401" ry="74.6"/><linearGradient id="h" x1="937.938" x2="1445.096" y1="1605.806" y2="1605.806" gradientTransform="matrix(1.5465 0 -.00018 1.9023 -177.774 -1211.576)" gradientUnits="userSpaceOnUse"><stop offset="0" stop-color="#161616"/><stop offset="1" stop-color="#313031"/></linearGradient><ellipse cx="1664.7" cy="1843.1" fill="url(#h)" opacity=".143" rx="392.2" ry="73"/><linearGradient id="i" x1="947.805" x2="1443.609" y1="1605.464" y2="1605.464" gradientTransform="matrix(1.5465 0 -.00018 1.9023 -177.774 -1211.576)" gradientUnits="userSpaceOnUse"><stop offset="0" stop-color="#161616"/><stop offset="1" stop-color="#313031"/></linearGradient><ellipse cx="1671.2" cy="1842.5" fill="url(#i)" opacity=".179" rx="383.4" ry="71.3"/><linearGradient id="j" x1="957.673" x2="1442.122" y1="1605.122" y2="1605.122" gradientTransform="matrix(1.5465 0 -.00018 1.9023 -177.774 -1211.576)" gradientUnits="userSpaceOnUse"><stop offset="0" stop-color="#161616"/><stop offset="1" stop-color="#313031"/></linearGradient><ellipse cx="1677.6" cy="1841.8" fill="url(#j)" opacity=".214" rx="374.6" ry="69.7"/><linearGradient id="k" x1="967.54" x2="1440.635" y1="1604.78" y2="1604.78" gradientTransform="matrix(1.5465 0 -.00018 1.9023 -177.774 -1211.576)" gradientUnits="userSpaceOnUse"><stop offset="0" stop-color="#161616"/><stop offset="1" stop-color="#313031"/></linearGradient><ellipse cx="1684.1" cy="1841.2" fill="url(#k)" opacity=".25" rx="365.8" ry="68.1"/><linearGradient id="l" x1="977.408" x2="1439.148" y1="1604.437" y2="1604.437" gradientTransform="matrix(1.5465 0 -.00018 1.9023 -177.774 -1211.576)" gradientUnits="userSpaceOnUse"><stop offset="0" stop-color="#161616"/><stop offset="1" stop-color="#313031"/></linearGradient><ellipse cx="1690.6" cy="1840.5" fill="url(#l)" opacity=".286" rx="357.1" ry="66.4"/><linearGradient id="m" x1="987.275" x2="1437.66" y1="1604.095" y2="1604.095" gradientTransform="matrix(1.5465 0 -.00018 1.9023 -177.774 -1211.576)" gradientUnits="userSpaceOnUse"><stop offset="0" stop-color="#161616"/><stop offset="1" stop-color="#313031"/></linearGradient><ellipse cx="1697.1" cy="1839.9" fill="url(#m)" opacity=".321" rx="348.3" ry="64.8"/><linearGradient id="n" x1="997.143" x2="1436.173" y1="1603.753" y2="1603.753" gradientTransform="matrix(1.5465 0 -.00018 1.9023 -177.774 -1211.576)" gradientUnits="userSpaceOnUse"><stop offset="0" stop-color="#161616"/><stop offset="1" stop-color="#313031"/></linearGradient><ellipse cx="1703.6" cy="1839.2" fill="url(#n)" opacity=".357" rx="339.5" ry="63.2"/><linearGradient id="o" x1="1007.01" x2="1434.686" y1="1603.41" y2="1603.41" gradientTransform="matrix(1.5465 0 -.00018 1.9023 -177.774 -1211.576)" gradientUnits="userSpaceOnUse"><stop offset="0" stop-color="#161616"/><stop offset="1" stop-color="#313031"/></linearGradient><ellipse cx="1710" cy="1838.6" fill="url(#o)" opacity=".393" rx="330.7" ry="61.5"/><linearGradient id="p" x1="1016.878" x2="1433.199" y1="1603.068" y2="1603.068" gradientTransform="matrix(1.5465 0 -.00018 1.9023 -177.774 -1211.576)" gradientUnits="userSpaceOnUse"><stop offset="0" stop-color="#161616"/><stop offset="1" stop-color="#313031"/></linearGradient><ellipse cx="1716.5" cy="1837.9" fill="url(#p)" opacity=".429" rx="321.9" ry="59.9"/><linearGradient id="q" x1="1026.745" x2="1431.712" y1="1602.726" y2="1602.726" gradientTransform="matrix(1.5465 0 -.00018 1.9023 -177.774 -1211.576)" gradientUnits="userSpaceOnUse"><stop offset="0" stop-color="#161616"/><stop offset="1" stop-color="#313031"/></linearGradient><ellipse cx="1723" cy="1837.3" fill="url(#q)" opacity=".464" rx="313.2" ry="58.3"/><linearGradient id="r" x1="1036.612" x2="1430.225" y1="1602.384" y2="1602.384" gradientTransform="matrix(1.5465 0 -.00018 1.9023 -177.774 -1211.576)" gradientUnits="userSpaceOnUse"><stop offset="0" stop-color="#161616"/><stop offset="1" stop-color="#313031"/></linearGradient><ellipse cx="1729.5" cy="1836.6" fill="url(#r)" opacity=".5" rx="304.4" ry="56.6"/><linearGradient id="s" x1="1046.48" x2="1428.738" y1="1602.041" y2="1602.041" gradientTransform="matrix(1.5465 0 -.00018 1.9023 -177.774 -1211.576)" gradientUnits="userSpaceOnUse"><stop offset="0" stop-color="#161616"/><stop offset="1" stop-color="#313031"/></linearGradient><ellipse cx="1736" cy="1836" fill="url(#s)" opacity=".536" rx="295.6" ry="55"/><linearGradient id="t" x1="1056.347" x2="1427.251" y1="1601.699" y2="1601.699" gradientTransform="matrix(1.5465 0 -.00018 1.9023 -177.774 -1211.576)" gradientUnits="userSpaceOnUse"><stop offset="0" stop-color="#161616"/><stop offset="1" stop-color="#313031"/></linearGradient><ellipse cx="1742.4" cy="1835.3" fill="url(#t)" opacity=".571" rx="286.8" ry="53.4"/><linearGradient id="u" x1="1066.215" x2="1425.764" y1="1601.357" y2="1601.357" gradientTransform="matrix(1.5465 0 -.00018 1.9023 -177.774 -1211.576)" gradientUnits="userSpaceOnUse"><stop offset="0" stop-color="#161616"/><stop offset="1" stop-color="#313031"/></linearGradient><ellipse cx="1748.9" cy="1834.7" fill="url(#u)" opacity=".607" rx="278" ry="51.7"/><linearGradient id="v" x1="1076.082" x2="1424.276" y1="1601.014" y2="1601.014" gradientTransform="matrix(1.5465 0 -.00018 1.9023 -177.774 -1211.576)" gradientUnits="userSpaceOnUse"><stop offset="0" stop-color="#161616"/><stop offset="1" stop-color="#313031"/></linearGradient><ellipse cx="1755.4" cy="1834" fill="url(#v)" opacity=".643" rx="269.2" ry="50.1"/><linearGradient id="w" x1="1085.95" x2="1422.789" y1="1600.672" y2="1600.672" gradientTransform="matrix(1.5465 0 -.00018 1.9023 -177.774 -1211.576)" gradientUnits="userSpaceOnUse"><stop offset="0" stop-color="#161616"/><stop offset="1" stop-color="#313031"/></linearGradient><ellipse cx="1761.9" cy="1833.4" fill="url(#w)" opacity=".679" rx="260.5" ry="48.5"/><linearGradient id="x" x1="1095.817" x2="1421.302" y1="1600.33" y2="1600.33" gradientTransform="matrix(1.5465 0 -.00018 1.9023 -177.774 -1211.576)" gradientUnits="userSpaceOnUse"><stop offset="0" stop-color="#161616"/><stop offset="1" stop-color="#313031"/></linearGradient><ellipse cx="1768.4" cy="1832.7" fill="url(#x)" opacity=".714" rx="251.7" ry="46.8"/><linearGradient id="y" x1="1105.685" x2="1419.815" y1="1599.987" y2="1599.987" gradientTransform="matrix(1.5465 0 -.00018 1.9023 -177.774 -1211.576)" gradientUnits="userSpaceOnUse"><stop offset="0" stop-color="#161616"/><stop offset="1" stop-color="#313031"/></linearGradient><ellipse cx="1774.8" cy="1832.1" fill="url(#y)" opacity=".75" rx="242.9" ry="45.2"/><linearGradient id="z" x1="1115.552" x2="1418.328" y1="1599.645" y2="1599.645" gradientTransform="matrix(1.5465 0 -.00018 1.9023 -177.774 -1211.576)" gradientUnits="userSpaceOnUse"><stop offset="0" stop-color="#161616"/><stop offset="1" stop-color="#313031"/></linearGradient><ellipse cx="1781.3" cy="1831.4" fill="url(#z)" opacity=".786" rx="234.1" ry="43.6"/><linearGradient id="A" x1="1125.42" x2="1416.841" y1="1599.303" y2="1599.303" gradientTransform="matrix(1.5465 0 -.00018 1.9023 -177.774 -1211.576)" gradientUnits="userSpaceOnUse"><stop offset="0" stop-color="#161616"/><stop offset="1" stop-color="#313031"/></linearGradient><ellipse cx="1787.8" cy="1830.8" fill="url(#A)" opacity=".821" rx="225.3" ry="41.9"/><linearGradient id="B" x1="1135.287" x2="1415.354" y1="1598.961" y2="1598.961" gradientTransform="matrix(1.5465 0 -.00018 1.9023 -177.774 -1211.576)" gradientUnits="userSpaceOnUse"><stop offset="0" stop-color="#161616"/><stop offset="1" stop-color="#313031"/></linearGradient><ellipse cx="1794.3" cy="1830.1" fill="url(#B)" opacity=".857" rx="216.6" ry="40.3"/><linearGradient id="C" x1="1145.154" x2="1413.867" y1="1598.618" y2="1598.618" gradientTransform="matrix(1.5465 0 -.00018 1.9023 -177.774 -1211.576)" gradientUnits="userSpaceOnUse"><stop offset="0" stop-color="#161616"/><stop offset="1" stop-color="#313031"/></linearGradient><ellipse cx="1800.8" cy="1829.5" fill="url(#C)" opacity=".893" rx="207.8" ry="38.7"/><linearGradient id="D" x1="1155.022" x2="1412.38" y1="1598.276" y2="1598.276" gradientTransform="matrix(1.5465 0 -.00018 1.9023 -177.774 -1211.576)" gradientUnits="userSpaceOnUse"><stop offset="0" stop-color="#161616"/><stop offset="1" stop-color="#313031"/></linearGradient><ellipse cx="1807.2" cy="1828.8" fill="url(#D)" opacity=".929" rx="199" ry="37"/><linearGradient id="E" x1="1164.889" x2="1410.893" y1="1597.934" y2="1597.934" gradientTransform="matrix(1.5465 0 -.00018 1.9023 -177.774 -1211.576)" gradientUnits="userSpaceOnUse"><stop offset="0" stop-color="#161616"/><stop offset="1" stop-color="#313031"/></linearGradient><ellipse cx="1813.7" cy="1828.2" fill="url(#E)" opacity=".964" rx="190.2" ry="35.4"/><linearGradient id="F" x1="1174.757" x2="1409.406" y1="1597.592" y2="1597.592" gradientTransform="matrix(1.5465 0 -.00018 1.9023 -177.774 -1211.576)" gradientUnits="userSpaceOnUse"><stop offset="0" stop-color="#161616"/><stop offset="1" stop-color="#313031"/></linearGradient><ellipse cx="1820.2" cy="1827.5" fill="url(#F)" rx="181.4" ry="33.8"/></g><linearGradient id="G" x1="1422.989" x2="1652.453" y1="408.649" y2="1158.961" gradientUnits="userSpaceOnUse"><stop offset="0" stop-color="#094eb2"/><stop offset="1" stop-color="#40b7f0"/></linearGradient><path fill="url(#G)" d="M1306.8,1505.4l622.1,358.4c32.6,18.8,73.4-4.8,73.4-42.4v-1085c0-41.7-22.3-80.2-58.4-101l-609.3-351
				c-38.2-22-86,5.6-86,49.7v1070.7C1248.6,1446.2,1270.7,1484.6,1306.8,1505.4z"/><linearGradient id="H" x1="1417.781" x2="1768.76" y1="1623.167" y2="646.118" gradientUnits="userSpaceOnUse"><stop offset="0" stop-color="#094eb2"/><stop offset="1" stop-color="#40b7f0"/></linearGradient><path fill="url(#H)" d="M1292.2,1514.3l622.1,358.4c32.6,18.8,73.4-4.8,73.4-42.4v-1085c0-41.7-22.3-80.2-58.4-101l-609.3-351
				c-38.2-22-86,5.6-86,49.7v1070.7C1234,1455.1,1256.2,1493.5,1292.2,1514.3z"/><linearGradient id="I" x1="1516.567" x2="1618.551" y1="734.774" y2="1707.266" gradientUnits="userSpaceOnUse"><stop offset="0" stop-color="#094eb2"/><stop offset="1" stop-color="#40b7f0"/></linearGradient><path fill="url(#I)" d="M1952.7,1836.6c-0.7,1.7-1.8,3.2-3.2,4.6c-3,2.8-7,4.5-10.9,4.5c-2.6,0-5.2-0.8-7.7-2.1l-622.1-358.4
				c-25.4-14.7-41.3-42.1-41.3-71.6V342.9c0-12.9,9.2-21.4,19.3-23.3c-3,3.8-4.7,8.6-4.7,14.3v1070.7c0,29.5,15.9,56.9,41.4,71.6
				l622.1,358.4C1948,1835.8,1950.3,1836.5,1952.7,1836.6z"/><linearGradient id="J" x1="1377.267" x2="1863.855" y1="1529.392" y2="623.331" gradientUnits="userSpaceOnUse"><stop offset="0" stop-color="#efefef"/><stop offset="1" stop-color="#fdfdfd"/></linearGradient><path fill="url(#J)" d="M1954,745.2v1085c0,2.4-0.5,4.5-1.3,6.4c-2.5-0.1-4.7-0.8-7.1-2l-622.1-358.4
				c-25.6-14.7-41.4-42.1-41.4-71.6V333.9c0-5.7,1.8-10.5,4.7-14.3c1.4-0.5,3-0.6,4.5-0.6c4.1,0,8,1.1,11.8,3.3l609.3,351
				C1938.2,688.1,1954,715.6,1954,745.2z"/><linearGradient id="K" x1="1523.949" x2="1752.807" y1="488.734" y2="480.235" gradientUnits="userSpaceOnUse"><stop offset="0" stop-color="#ff8500"/><stop offset="1" stop-color="#fff200"/></linearGradient><path fill="url(#K)" d="M1708.7,479.9l-26.2-15.1c-1.7-24.2-20.8-54.1-44.4-68.5c-24.6-15-44.5-7.3-44.7,17.1l-14.5-8.4
					c-20.7-11.9-46.5,3-46.5,26.8v25c0,6.9,3.7,13.2,9.6,16.6l179,103.2c6.1,3.5,13.7-0.9,13.7-7.9v-44
					C1734.6,506.3,1724.7,489.2,1708.7,479.9z M1638.1,463.8c-12.6-7.6-22.7-24-22.7-36.6s10.2-16.5,22.7-8.9
					c12.5,7.6,22.7,24,22.7,36.6C1660.8,467.5,1650.6,471.4,1638.1,463.8z"/><linearGradient id="L" x1="1734.257" x2="1545.354" y1="520.812" y2="425.888" gradientUnits="userSpaceOnUse"><stop offset="0" stop-color="#ff8500"/><stop offset="1" stop-color="#fff200"/></linearGradient><path fill="url(#L)" d="M1700.6,482.8l-26.2-15.1c-1.7-24.2-20.8-54.1-44.4-68.5c-24.6-15-44.5-7.3-44.7,17.1l-14.5-8.4
					c-20.7-11.9-46.5,3-46.5,26.8v25c0,6.9,3.7,13.2,9.6,16.6l179,103.2c6.1,3.5,13.7-0.9,13.7-7.9v-44
					C1726.5,509.1,1716.6,492,1700.6,482.8z M1630,466.6c-12.6-7.6-22.7-24-22.7-36.6s10.2-16.5,22.7-8.9
					c12.5,7.6,22.7,24,22.7,36.6C1652.7,470.3,1642.5,474.3,1630,466.6z"/><line x1="1480.5" x2="1666" y1="655.4" y2="762.5" fill="none" stroke="#cecece" stroke-linecap="round" stroke-linejoin="round" stroke-miterlimit="10" stroke-width="11.837"/><polygon fill="none" stroke="#70b7f2" stroke-linecap="round" stroke-linejoin="round" stroke-miterlimit="10" stroke-width="8.878" points="1734.6 788.7 1920.1 895.8 1920.1 1210.9 1734.6 1103.8"/><linearGradient id="M" x1="1822.428" x2="1837.304" y1="1063.493" y2="871.343" gradientUnits="userSpaceOnUse"><stop offset="0" stop-color="#ff8500"/><stop offset="1" stop-color="#fff200"/></linearGradient><polygon fill="url(#M)" points="1751.4 1094.1 1751.4 817.8 1903.3 905.5 1903.3 1181.9"/><polygon fill="#d7d7d7" points="1330.5 1366 1330.5 993.2 1559.5 1125.5 1559.5 1498.3"/><line x1="1346" x2="1531.5" y1="443.9" y2="551" fill="none" stroke="#70b7f2" stroke-linecap="round" stroke-linejoin="round" stroke-miterlimit="10" stroke-width="11.837"/><line x1="1346" x2="1615.3" y1="486.1" y2="641.7" fill="none" stroke="#cecece" stroke-linecap="round" stroke-linejoin="round" stroke-miterlimit="10" stroke-width="11.837"/><line x1="1480.5" x2="1666" y1="701.5" y2="808.7" fill="none" stroke="#cecece" stroke-linecap="round" stroke-linejoin="round" stroke-miterlimit="10" stroke-width="11.837"/><line x1="1480.5" x2="1666" y1="747.7" y2="854.8" fill="none" stroke="#cecece" stroke-linecap="round" stroke-linejoin="round" stroke-miterlimit="10" stroke-width="11.837"/><line x1="1346" x2="1666" y1="716.4" y2="900.9" fill="none" stroke="#cecece" stroke-linecap="round" stroke-linejoin="round" stroke-miterlimit="10" stroke-width="11.837"/><line x1="1346" x2="1666" y1="762.5" y2="947.1" fill="none" stroke="#cecece" stroke-linecap="round" stroke-linejoin="round" stroke-miterlimit="10" stroke-width="11.837"/><line x1="1346" x2="1666" y1="808.7" y2="993.2" fill="none" stroke="#cecece" stroke-linecap="round" stroke-linejoin="round" stroke-miterlimit="10" stroke-width="11.837"/><line x1="1346" x2="1666" y1="854.8" y2="1039.4" fill="none" stroke="#cecece" stroke-linecap="round" stroke-linejoin="round" stroke-miterlimit="10" stroke-width="11.837"/><line x1="1346" x2="1666" y1="900.9" y2="1085.5" fill="none" stroke="#cecece" stroke-linecap="round" stroke-linejoin="round" stroke-miterlimit="10" stroke-width="11.837"/><line x1="1600.2" x2="1920.1" y1="1165.5" y2="1350.1" fill="none" stroke="#cecece" stroke-linecap="round" stroke-linejoin="round" stroke-miterlimit="10" stroke-width="11.837"/><line x1="1600.2" x2="1920.1" y1="1211.7" y2="1396.2" fill="none" stroke="#cecece" stroke-linecap="round" stroke-linejoin="round" stroke-miterlimit="10" stroke-width="11.837"/><line x1="1600.2" x2="1920.1" y1="1257.8" y2="1442.4" fill="none" stroke="#cecece" stroke-linecap="round" stroke-linejoin="round" stroke-miterlimit="10" stroke-width="11.837"/><line x1="1600.2" x2="1920.1" y1="1303.9" y2="1488.5" fill="none" stroke="#cecece" stroke-linecap="round" stroke-linejoin="round" stroke-miterlimit="10" stroke-width="11.837"/><line x1="1600.2" x2="1920.1" y1="1350.1" y2="1534.7" fill="none" stroke="#cecece" stroke-linecap="round" stroke-linejoin="round" stroke-miterlimit="10" stroke-width="11.837"/><line x1="1600.2" x2="1920.1" y1="1456.3" y2="1640.9" fill="none" stroke="#cecece" stroke-linecap="round" stroke-linejoin="round" stroke-miterlimit="10" stroke-width="11.837"/><line x1="1600.2" x2="1920.1" y1="1502.4" y2="1687" fill="none" stroke="#cecece" stroke-linecap="round" stroke-linejoin="round" stroke-miterlimit="10" stroke-width="11.837"/><path fill="#cecece" d="M1461.9,649.6l-22.8,80.5l-11.9-7.4l-20.7-86.3l-19.2,61.5l-12.2-7.6l-24-109.6l12.3,7.7l19,88.5
					l20.1-64.2l9.7,6l21.7,90.2l17.7-65.7L1461.9,649.6z"/><linearGradient id="N" x1="1833.084" x2="1770.482" y1="1080.505" y2="1072.158" gradientUnits="userSpaceOnUse"><stop offset="0" stop-color="#094eb2"/><stop offset="1" stop-color="#40b7f0"/></linearGradient><polygon fill="url(#N)" points="1751.4 1094.1 1808 1010.3 1846.8 1149.2"/><linearGradient id="O" x1="1906.151" x2="1838.54" y1="1077.526" y2="1054.572" gradientUnits="userSpaceOnUse"><stop offset="0" stop-color="#094eb2"/><stop offset="1" stop-color="#40b7f0"/></linearGradient><polygon fill="url(#O)" points="1903.3 1181.9 1869 959.6 1811.7 1128.9"/><linearGradient id="P" x1="1780.344" x2="1827.358" y1="3064.789" y2="3064.789" gradientTransform="matrix(1 .5 0 1 0 -3033.36)" gradientUnits="userSpaceOnUse"><stop offset="0" stop-color="#094eb2"/><stop offset="1" stop-color="#40b7f0"/></linearGradient><path fill="url(#P)" d="M1827.4,945.1c0,13-10.5,18.2-23.5,11.8c-13-6.5-23.5-22.3-23.5-35.3c0-13,10.5-18.2,23.5-11.8
				C1816.8,916.3,1827.4,932.1,1827.4,945.1z"/><g opacity=".16"><linearGradient id="Q" x1="-1352.185" x2="-799.609" y1="1486.095" y2="1486.095" gradientTransform="matrix(.9949 0 -.00015 1.2238 2027.336 -245.11)" gradientUnits="userSpaceOnUse"><stop offset="0" stop-color="#161616"/><stop offset="1" stop-color="#313031"/></linearGradient><ellipse cx="956.7" cy="1573.6" fill="url(#Q)" opacity="0" rx="274.9" ry="51.1"/><linearGradient id="R" x1="-1342.318" x2="-801.096" y1="1485.753" y2="1485.753" gradientTransform="matrix(.9949 0 -.00015 1.2238 2027.336 -245.11)" gradientUnits="userSpaceOnUse"><stop offset="0" stop-color="#161616"/><stop offset="1" stop-color="#313031"/></linearGradient><ellipse cx="960.8" cy="1573.2" fill="url(#R)" opacity=".036" rx="269.2" ry="50.1"/><linearGradient id="S" x1="-1332.45" x2="-802.583" y1="1485.41" y2="1485.41" gradientTransform="matrix(.9949 0 -.00015 1.2238 2027.336 -245.11)" gradientUnits="userSpaceOnUse"><stop offset="0" stop-color="#161616"/><stop offset="1" stop-color="#313031"/></linearGradient><ellipse cx="965" cy="1572.8" fill="url(#S)" opacity=".071" rx="263.6" ry="49"/><linearGradient id="T" x1="-1322.583" x2="-804.07" y1="1485.068" y2="1485.068" gradientTransform="matrix(.9949 0 -.00015 1.2238 2027.336 -245.11)" gradientUnits="userSpaceOnUse"><stop offset="0" stop-color="#161616"/><stop offset="1" stop-color="#313031"/></linearGradient><ellipse cx="969.2" cy="1572.4" fill="url(#T)" opacity=".107" rx="257.9" ry="48"/><linearGradient id="U" x1="-1312.716" x2="-805.557" y1="1484.726" y2="1484.726" gradientTransform="matrix(.9949 0 -.00015 1.2238 2027.336 -245.11)" gradientUnits="userSpaceOnUse"><stop offset="0" stop-color="#161616"/><stop offset="1" stop-color="#313031"/></linearGradient><ellipse cx="973.3" cy="1571.9" fill="url(#U)" opacity=".143" rx="252.3" ry="46.9"/><linearGradient id="V" x1="-1302.848" x2="-807.044" y1="1484.383" y2="1484.383" gradientTransform="matrix(.9949 0 -.00015 1.2238 2027.336 -245.11)" gradientUnits="userSpaceOnUse"><stop offset="0" stop-color="#161616"/><stop offset="1" stop-color="#313031"/></linearGradient><ellipse cx="977.5" cy="1571.5" fill="url(#V)" opacity=".179" rx="246.6" ry="45.9"/><linearGradient id="W" x1="-1292.98" x2="-808.532" y1="1484.041" y2="1484.041" gradientTransform="matrix(.9949 0 -.00015 1.2238 2027.336 -245.11)" gradientUnits="userSpaceOnUse"><stop offset="0" stop-color="#161616"/><stop offset="1" stop-color="#313031"/></linearGradient><ellipse cx="981.7" cy="1571.1" fill="url(#W)" opacity=".214" rx="241" ry="44.8"/><linearGradient id="X" x1="-1283.113" x2="-810.019" y1="1483.699" y2="1483.699" gradientTransform="matrix(.9949 0 -.00015 1.2238 2027.336 -245.11)" gradientUnits="userSpaceOnUse"><stop offset="0" stop-color="#161616"/><stop offset="1" stop-color="#313031"/></linearGradient><ellipse cx="985.8" cy="1570.7" fill="url(#X)" opacity=".25" rx="235.4" ry="43.8"/><linearGradient id="Y" x1="-1273.246" x2="-811.506" y1="1483.357" y2="1483.357" gradientTransform="matrix(.9949 0 -.00015 1.2238 2027.336 -245.11)" gradientUnits="userSpaceOnUse"><stop offset="0" stop-color="#161616"/><stop offset="1" stop-color="#313031"/></linearGradient><ellipse cx="990" cy="1570.3" fill="url(#Y)" opacity=".286" rx="229.7" ry="42.7"/><linearGradient id="Z" x1="-1263.378" x2="-812.993" y1="1483.014" y2="1483.014" gradientTransform="matrix(.9949 0 -.00015 1.2238 2027.336 -245.11)" gradientUnits="userSpaceOnUse"><stop offset="0" stop-color="#161616"/><stop offset="1" stop-color="#313031"/></linearGradient><ellipse cx="994.2" cy="1569.8" fill="url(#Z)" opacity=".321" rx="224.1" ry="41.7"/><linearGradient id="aa" x1="-1253.511" x2="-814.48" y1="1482.672" y2="1482.672" gradientTransform="matrix(.9949 0 -.00015 1.2238 2027.336 -245.11)" gradientUnits="userSpaceOnUse"><stop offset="0" stop-color="#161616"/><stop offset="1" stop-color="#313031"/></linearGradient><ellipse cx="998.3" cy="1569.4" fill="url(#aa)" opacity=".357" rx="218.4" ry="40.6"/><linearGradient id="ab" x1="-1243.643" x2="-815.967" y1="1482.33" y2="1482.33" gradientTransform="matrix(.9949 0 -.00015 1.2238 2027.336 -245.11)" gradientUnits="userSpaceOnUse"><stop offset="0" stop-color="#161616"/><stop offset="1" stop-color="#313031"/></linearGradient><ellipse cx="1002.5" cy="1569" fill="url(#ab)" opacity=".393" rx="212.8" ry="39.6"/><linearGradient id="ac" x1="-1233.776" x2="-817.454" y1="1481.987" y2="1481.987" gradientTransform="matrix(.9949 0 -.00015 1.2238 2027.336 -245.11)" gradientUnits="userSpaceOnUse"><stop offset="0" stop-color="#161616"/><stop offset="1" stop-color="#313031"/></linearGradient><ellipse cx="1006.7" cy="1568.6" fill="url(#ac)" opacity=".429" rx="207.1" ry="38.5"/><linearGradient id="ad" x1="-1223.908" x2="-818.941" y1="1481.645" y2="1481.645" gradientTransform="matrix(.9949 0 -.00015 1.2238 2027.336 -245.11)" gradientUnits="userSpaceOnUse"><stop offset="0" stop-color="#161616"/><stop offset="1" stop-color="#313031"/></linearGradient><ellipse cx="1010.9" cy="1568.2" fill="url(#ad)" opacity=".464" rx="201.5" ry="37.5"/><linearGradient id="ae" x1="-1214.041" x2="-820.428" y1="1481.303" y2="1481.303" gradientTransform="matrix(.9949 0 -.00015 1.2238 2027.336 -245.11)" gradientUnits="userSpaceOnUse"><stop offset="0" stop-color="#161616"/><stop offset="1" stop-color="#313031"/></linearGradient><ellipse cx="1015" cy="1567.7" fill="url(#ae)" opacity=".5" rx="195.8" ry="36.4"/><linearGradient id="af" x1="-1204.173" x2="-821.915" y1="1480.96" y2="1480.96" gradientTransform="matrix(.9949 0 -.00015 1.2238 2027.336 -245.11)" gradientUnits="userSpaceOnUse"><stop offset="0" stop-color="#161616"/><stop offset="1" stop-color="#313031"/></linearGradient><ellipse cx="1019.2" cy="1567.3" fill="url(#af)" opacity=".536" rx="190.2" ry="35.4"/><linearGradient id="ag" x1="-1194.306" x2="-823.403" y1="1480.618" y2="1480.618" gradientTransform="matrix(.9949 0 -.00015 1.2238 2027.336 -245.11)" gradientUnits="userSpaceOnUse"><stop offset="0" stop-color="#161616"/><stop offset="1" stop-color="#313031"/></linearGradient><ellipse cx="1023.4" cy="1566.9" fill="url(#ag)" opacity=".571" rx="184.5" ry="34.3"/><linearGradient id="ah" x1="-1184.438" x2="-824.89" y1="1480.276" y2="1480.276" gradientTransform="matrix(.9949 0 -.00015 1.2238 2027.336 -245.11)" gradientUnits="userSpaceOnUse"><stop offset="0" stop-color="#161616"/><stop offset="1" stop-color="#313031"/></linearGradient><ellipse cx="1027.5" cy="1566.5" fill="url(#ah)" opacity=".607" rx="178.9" ry="33.3"/><linearGradient id="ai" x1="-1174.571" x2="-826.377" y1="1479.934" y2="1479.934" gradientTransform="matrix(.9949 0 -.00015 1.2238 2027.336 -245.11)" gradientUnits="userSpaceOnUse"><stop offset="0" stop-color="#161616"/><stop offset="1" stop-color="#313031"/></linearGradient><ellipse cx="1031.7" cy="1566.1" fill="url(#ai)" opacity=".643" rx="173.2" ry="32.2"/><linearGradient id="aj" x1="-1164.704" x2="-827.864" y1="1479.591" y2="1479.591" gradientTransform="matrix(.9949 0 -.00015 1.2238 2027.336 -245.11)" gradientUnits="userSpaceOnUse"><stop offset="0" stop-color="#161616"/><stop offset="1" stop-color="#313031"/></linearGradient><ellipse cx="1035.9" cy="1565.7" fill="url(#aj)" opacity=".679" rx="167.6" ry="31.2"/><linearGradient id="ak" x1="-1154.836" x2="-829.351" y1="1479.249" y2="1479.249" gradientTransform="matrix(.9949 0 -.00015 1.2238 2027.336 -245.11)" gradientUnits="userSpaceOnUse"><stop offset="0" stop-color="#161616"/><stop offset="1" stop-color="#313031"/></linearGradient><ellipse cx="1040" cy="1565.2" fill="url(#ak)" opacity=".714" rx="161.9" ry="30.1"/><linearGradient id="al" x1="-1144.968" x2="-830.838" y1="1478.907" y2="1478.907" gradientTransform="matrix(.9949 0 -.00015 1.2238 2027.336 -245.11)" gradientUnits="userSpaceOnUse"><stop offset="0" stop-color="#161616"/><stop offset="1" stop-color="#313031"/></linearGradient><ellipse cx="1044.2" cy="1564.8" fill="url(#al)" opacity=".75" rx="156.3" ry="29.1"/><linearGradient id="am" x1="-1135.101" x2="-832.325" y1="1478.564" y2="1478.564" gradientTransform="matrix(.9949 0 -.00015 1.2238 2027.336 -245.11)" gradientUnits="userSpaceOnUse"><stop offset="0" stop-color="#161616"/><stop offset="1" stop-color="#313031"/></linearGradient><ellipse cx="1048.4" cy="1564.4" fill="url(#am)" opacity=".786" rx="150.6" ry="28"/><linearGradient id="an" x1="-1125.234" x2="-833.812" y1="1478.222" y2="1478.222" gradientTransform="matrix(.9949 0 -.00015 1.2238 2027.336 -245.11)" gradientUnits="userSpaceOnUse"><stop offset="0" stop-color="#161616"/><stop offset="1" stop-color="#313031"/></linearGradient><ellipse cx="1052.5" cy="1564" fill="url(#an)" opacity=".821" rx="145" ry="27"/><linearGradient id="ao" x1="-1115.366" x2="-835.299" y1="1477.88" y2="1477.88" gradientTransform="matrix(.9949 0 -.00015 1.2238 2027.336 -245.11)" gradientUnits="userSpaceOnUse"><stop offset="0" stop-color="#161616"/><stop offset="1" stop-color="#313031"/></linearGradient><ellipse cx="1056.7" cy="1563.6" fill="url(#ao)" opacity=".857" rx="139.3" ry="25.9"/><linearGradient id="ap" x1="-1105.499" x2="-836.786" y1="1477.537" y2="1477.537" gradientTransform="matrix(.9949 0 -.00015 1.2238 2027.336 -245.11)" gradientUnits="userSpaceOnUse"><stop offset="0" stop-color="#161616"/><stop offset="1" stop-color="#313031"/></linearGradient><ellipse cx="1060.9" cy="1563.1" fill="url(#ap)" opacity=".893" rx="133.7" ry="24.9"/><linearGradient id="aq" x1="-1095.631" x2="-838.273" y1="1477.195" y2="1477.195" gradientTransform="matrix(.9949 0 -.00015 1.2238 2027.336 -245.11)" gradientUnits="userSpaceOnUse"><stop offset="0" stop-color="#161616"/><stop offset="1" stop-color="#313031"/></linearGradient><ellipse cx="1065" cy="1562.7" fill="url(#aq)" opacity=".929" rx="128" ry="23.8"/><linearGradient id="ar" x1="-1085.764" x2="-839.761" y1="1476.853" y2="1476.853" gradientTransform="matrix(.9949 0 -.00015 1.2238 2027.336 -245.11)" gradientUnits="userSpaceOnUse"><stop offset="0" stop-color="#161616"/><stop offset="1" stop-color="#313031"/></linearGradient><ellipse cx="1069.2" cy="1562.3" fill="url(#ar)" opacity=".964" rx="122.4" ry="22.8"/><linearGradient id="as" x1="-1075.896" x2="-841.248" y1="1476.511" y2="1476.511" gradientTransform="matrix(.9949 0 -.00015 1.2238 2027.336 -245.11)" gradientUnits="userSpaceOnUse"><stop offset="0" stop-color="#161616"/><stop offset="1" stop-color="#313031"/></linearGradient><ellipse cx="1073.4" cy="1561.9" fill="url(#as)" rx="116.7" ry="21.7"/></g><linearGradient id="at" x1="11075.697" x2="10927.877" y1="1360.91" y2="1360.91" gradientTransform="matrix(-1 0 0 1 12107.696 0)" gradientUnits="userSpaceOnUse"><stop offset="0" stop-color="#efefef"/><stop offset="1" stop-color="#b7b6b6"/></linearGradient><path fill="url(#at)" d="M1019.8,1139c0.1,0.8,0.1,1.5,0.3,2.3c0.1,0.6,0.3,1.2,0.5,1.9c0.2,0.7,0.4,1.4,0.6,2.2
									c0.2,0.6,0.5,1.2,0.7,1.8c0.3,0.8,0.7,1.5,1.1,2.3c0.3,0.5,0.6,1.1,1,1.6c0.5,0.9,1.1,1.7,1.7,2.5c0.4,0.5,0.8,1,1.2,1.5
									c0.9,1.1,2,2.2,3.1,3.3c0.4,0.4,0.8,0.8,1.2,1.2c0.7,0.6,1.5,1.2,2.2,1.8c0.7,0.5,1.3,1.1,2,1.6c0.8,0.6,1.7,1.2,2.6,1.7
									c0.9,0.6,1.8,1.2,2.8,1.8c2.2,1.3,4.5,2.4,6.8,3.5c0.7,0.3,1.4,0.6,2.1,0.9c1.9,0.8,3.8,1.5,5.7,2.2
									c0.7,0.2,1.4,0.5,2.1,0.7c1.2,0.4,2.5,0.7,3.7,1.1c1,0.3,1.9,0.5,2.9,0.8c1.3,0.3,2.6,0.6,4,0.8c0.9,0.2,1.8,0.4,2.8,0.6
									c2.7,0.5,5.5,0.9,8.2,1.1c0.9,0.1,1.7,0.1,2.6,0.2c1.6,0.1,3.3,0.3,4.9,0.3c1.1,0,2.1,0.1,3.2,0.1c1.3,0,2.6,0,4,0
									c1.1,0,2.2,0,3.3-0.1c1.2,0,2.4-0.1,3.7-0.2c1.1-0.1,2.2-0.2,3.4-0.3c1.2-0.1,2.4-0.3,3.6-0.4c1.1-0.1,2.2-0.3,3.3-0.5
									c1.3-0.2,2.6-0.4,3.8-0.7c1-0.2,2-0.4,3-0.6c1.5-0.3,3-0.7,4.5-1.1c0.8-0.2,1.7-0.4,2.5-0.7c2.7-0.8,5.3-1.6,7.8-2.6
									c1.3-0.5,2.5-1,3.7-1.6c0.6-0.3,1.3-0.5,1.9-0.8c1.8-0.9,3.6-1.8,5.3-2.8c14.3-8.2,21.4-19.1,21.4-29.9l0,406.7
									c0,10.8-7.1,21.7-21.4,29.9c-1.7,1-3.5,1.9-5.3,2.8c-0.6,0.3-1.2,0.5-1.9,0.8c-1.1,0.5-2.2,1-3.3,1.4
									c-0.1,0.1-0.3,0.1-0.4,0.1c-2.5,1-5.1,1.8-7.8,2.6c-0.2,0.1-0.4,0.2-0.6,0.2c-0.6,0.2-1.3,0.3-1.9,0.5
									c-1.5,0.4-3,0.8-4.5,1.1c-0.4,0.1-0.8,0.2-1.2,0.3c-0.6,0.1-1.2,0.2-1.8,0.3c-1.3,0.2-2.5,0.5-3.8,0.7
									c-0.5,0.1-1,0.2-1.6,0.3c-0.6,0.1-1.1,0.1-1.7,0.2c-1.2,0.2-2.4,0.3-3.6,0.4c-0.6,0.1-1.2,0.1-1.7,0.2c-0.5,0-1.1,0-1.6,0.1
									c-1.2,0.1-2.4,0.1-3.7,0.2c-0.6,0-1.2,0.1-1.9,0.1c-0.5,0-1,0-1.5,0c-1.3,0-2.6,0-4,0c-0.7,0-1.3,0-2,0
									c-0.4,0-0.8-0.1-1.2-0.1c-1.6-0.1-3.3-0.2-4.9-0.3c-0.7-0.1-1.3-0.1-2-0.1c-0.2,0-0.4-0.1-0.6-0.1c-2.8-0.3-5.5-0.7-8.2-1.1
									c-0.1,0-0.3,0-0.4-0.1c-0.8-0.1-1.6-0.3-2.4-0.5c-1.3-0.3-2.7-0.5-4-0.8c-1-0.2-1.9-0.5-2.9-0.8c-1.3-0.3-2.5-0.7-3.7-1.1
									c-0.3-0.1-0.5-0.1-0.8-0.2c-0.4-0.1-0.8-0.3-1.3-0.5c-1.9-0.7-3.8-1.4-5.7-2.2c-0.7-0.3-1.4-0.6-2.1-0.9
									c-2.4-1.1-4.7-2.2-6.8-3.5c-0.3-0.2-0.6-0.3-0.9-0.5c-0.7-0.4-1.2-0.8-1.9-1.2c-0.9-0.6-1.8-1.1-2.6-1.7
									c-0.7-0.5-1.4-1.1-2-1.6c-0.8-0.6-1.5-1.2-2.2-1.8c-0.1-0.1-0.3-0.2-0.4-0.4c-0.3-0.3-0.5-0.5-0.7-0.8
									c-1.1-1.1-2.1-2.2-3.1-3.3c-0.2-0.2-0.5-0.5-0.7-0.7c-0.2-0.2-0.3-0.5-0.5-0.7c-0.6-0.8-1.2-1.7-1.7-2.5
									c-0.2-0.4-0.5-0.7-0.7-1.1c-0.1-0.2-0.2-0.4-0.3-0.5c-0.4-0.7-0.7-1.5-1.1-2.3c-0.2-0.4-0.4-0.9-0.6-1.3
									c-0.1-0.1-0.1-0.3-0.1-0.5c-0.3-0.7-0.4-1.4-0.6-2.2c-0.1-0.5-0.3-1-0.4-1.5c0-0.1,0-0.3,0-0.4c-0.1-0.8-0.2-1.5-0.3-2.3
									c0-0.5-0.2-1-0.2-1.5c0-0.2,0-0.4,0-0.6l0-406.7C1019.6,1137.6,1019.7,1138.3,1019.8,1139z"/><linearGradient id="au" x1="10943.044" x2="11088.127" y1="1136.668" y2="1136.668" gradientTransform="matrix(-1 0 0 1 12107.696 0)" gradientUnits="userSpaceOnUse"><stop offset="0" stop-color="#efefef"/><stop offset="1" stop-color="#b7b6b6"/></linearGradient><path fill="url(#au)" d="M1041,1106.9c-28.4,16.4-28.6,43-0.3,59.4c28.2,16.4,74.2,16.4,102.6,0c28.4-16.4,28.5-43,0.3-59.4
								C1115.3,1090.5,1069.4,1090.5,1041,1106.9z"/><linearGradient id="av" x1="10976.255" x2="11054.917" y1="1033.748" y2="1033.748" gradientTransform="matrix(-1 0 0 1 12107.696 0)" gradientUnits="userSpaceOnUse"><stop offset="0" stop-color="#efefef"/><stop offset="1" stop-color="#fdfdfd"/></linearGradient><path fill="url(#av)" d="M1052.9,920.8c0,0.4,0.1,0.8,0.1,1.2c0.1,0.3,0.2,0.7,0.3,1c0.1,0.4,0.2,0.8,0.3,1.2
									c0.1,0.3,0.3,0.6,0.4,1c0.2,0.4,0.4,0.8,0.6,1.2c0.2,0.3,0.3,0.6,0.5,0.9c0.3,0.5,0.6,0.9,0.9,1.4c0.2,0.3,0.4,0.5,0.6,0.8
									c0.5,0.6,1.1,1.2,1.7,1.8c0.2,0.2,0.4,0.4,0.7,0.6c0.4,0.3,0.8,0.7,1.2,1c0.4,0.3,0.7,0.6,1.1,0.9c0.4,0.3,0.9,0.6,1.4,0.9
									c0.5,0.3,1,0.7,1.5,1c1.2,0.7,2.4,1.3,3.7,1.9c0.4,0.2,0.7,0.3,1.1,0.5c1,0.4,2,0.8,3.1,1.2c0.4,0.1,0.7,0.3,1.1,0.4
									c0.7,0.2,1.3,0.4,2,0.6c0.5,0.1,1,0.3,1.6,0.4c0.7,0.2,1.4,0.3,2.2,0.5c0.5,0.1,1,0.2,1.5,0.3c1.5,0.3,3,0.5,4.5,0.6
									c0.5,0,0.9,0.1,1.4,0.1c0.9,0.1,1.8,0.1,2.6,0.2c0.6,0,1.1,0,1.7,0c0.7,0,1.4,0,2.1,0c0.6,0,1.2,0,1.8-0.1
									c0.7,0,1.3-0.1,2-0.1c0.6,0,1.2-0.1,1.8-0.2c0.7-0.1,1.3-0.1,2-0.2c0.6-0.1,1.2-0.2,1.8-0.3c0.7-0.1,1.4-0.2,2.1-0.4
									c0.5-0.1,1.1-0.2,1.6-0.3c0.8-0.2,1.6-0.4,2.4-0.6c0.5-0.1,0.9-0.2,1.4-0.4c1.4-0.4,2.9-0.9,4.2-1.4c0.7-0.3,1.3-0.6,2-0.8
									c0.3-0.1,0.7-0.3,1-0.4c1-0.5,2-1,2.9-1.5c7.7-4.5,11.6-10.3,11.6-16.2l0,205.8c0,5.9-3.9,11.7-11.6,16.2
									c-0.9,0.5-1.9,1-2.9,1.5c-0.3,0.2-0.7,0.3-1,0.4c-0.6,0.3-1.2,0.5-1.8,0.8c-0.1,0-0.1,0-0.2,0.1c-1.4,0.5-2.8,1-4.2,1.4
									c-0.1,0-0.2,0.1-0.3,0.1c-0.3,0.1-0.7,0.2-1,0.2c-0.8,0.2-1.6,0.4-2.4,0.6c-0.2,0-0.4,0.1-0.7,0.2c-0.3,0.1-0.7,0.1-1,0.2
									c-0.7,0.1-1.4,0.3-2.1,0.4c-0.3,0-0.6,0.1-0.8,0.1c-0.3,0-0.6,0.1-0.9,0.1c-0.7,0.1-1.3,0.2-2,0.2c-0.3,0-0.6,0.1-0.9,0.1
									c-0.3,0-0.6,0-0.9,0c-0.7,0-1.3,0.1-2,0.1c-0.3,0-0.7,0-1,0.1c-0.3,0-0.5,0-0.8,0c-0.7,0-1.4,0-2.1,0c-0.4,0-0.7,0-1.1,0
									c-0.2,0-0.4,0-0.6,0c-0.9,0-1.8-0.1-2.6-0.2c-0.4,0-0.7,0-1.1-0.1c-0.1,0-0.2,0-0.3,0c-1.5-0.2-3-0.4-4.5-0.6
									c-0.1,0-0.1,0-0.2,0c-0.4-0.1-0.9-0.2-1.3-0.3c-0.7-0.1-1.4-0.3-2.2-0.5c-0.5-0.1-1-0.3-1.6-0.4c-0.7-0.2-1.4-0.4-2-0.6
									c-0.1,0-0.3-0.1-0.4-0.1c-0.2-0.1-0.5-0.2-0.7-0.3c-1.1-0.4-2.1-0.7-3.1-1.2c-0.4-0.2-0.8-0.3-1.1-0.5
									c-1.3-0.6-2.5-1.2-3.7-1.9c-0.2-0.1-0.3-0.2-0.5-0.3c-0.4-0.2-0.7-0.5-1-0.7c-0.5-0.3-1-0.6-1.4-0.9
									c-0.4-0.3-0.7-0.6-1.1-0.9c-0.4-0.3-0.8-0.7-1.2-1c-0.1-0.1-0.2-0.1-0.2-0.2c-0.2-0.1-0.3-0.3-0.4-0.4
									c-0.6-0.6-1.2-1.2-1.7-1.8c-0.1-0.1-0.3-0.3-0.4-0.4c-0.1-0.1-0.2-0.3-0.3-0.4c-0.3-0.5-0.6-0.9-0.9-1.4
									c-0.1-0.2-0.3-0.4-0.4-0.6c-0.1-0.1-0.1-0.2-0.1-0.3c-0.2-0.4-0.4-0.8-0.6-1.2c-0.1-0.2-0.2-0.5-0.3-0.7
									c0-0.1,0-0.2-0.1-0.2c-0.1-0.4-0.2-0.8-0.3-1.2c-0.1-0.3-0.2-0.5-0.2-0.8c0-0.1,0-0.1,0-0.2c-0.1-0.4-0.1-0.8-0.1-1.2
									c0-0.3-0.1-0.5-0.1-0.8c0-0.1,0-0.2,0-0.3l0-205.8C1052.8,920,1052.8,920.4,1052.9,920.8z"/><linearGradient id="aw" x1="10976.255" x2="11054.916" y1="919.497" y2="919.497" gradientTransform="matrix(-1 0 0 1 12107.696 0)" gradientUnits="userSpaceOnUse"><stop offset="0" stop-color="#efefef"/><stop offset="1" stop-color="#b7b6b6"/></linearGradient><path fill="url(#aw)" d="M1064.4,903.4c-15.4,8.9-15.5,23.3-0.2,32.2c15.3,8.9,40.2,8.9,55.6,0c15.4-8.9,15.5-23.3,0.2-32.2
								C1104.7,894.5,1079.8,894.5,1064.4,903.4z"/><g><linearGradient id="ax" x1="11202.592" x2="11047.981" y1="384.263" y2="788.628" gradientTransform="matrix(-1 0 0 1 12107.696 0)" gradientUnits="userSpaceOnUse"><stop offset="0" stop-color="#efefef"/><stop offset="1" stop-color="#b7b6b6"/></linearGradient><path fill="url(#ax)" d="M868,623.3c-0.4-3-0.6-5.9-0.9-8.9c-0.2-2.1-0.5-4.2-0.6-6.3c-0.5-6.7-0.8-13.3-0.8-19.8
								c0.2-56.4,20.1-96.1,52.2-114.8l59.6-34.6c-32.1,18.7-52,58.4-52.2,114.8c0,6.5,0.3,13.1,0.8,19.8c0.2,2.1,0.4,4.2,0.6,6.3
								c0.5,5.2,1.1,10.4,1.9,15.6c0.2,1,0.3,2.1,0.5,3.1c1,6.1,2.2,12.1,3.6,18.2c0.7,3.1,1.5,6.1,2.2,9.2
								c1.1,4.2,2.2,8.5,3.4,12.7c0.7,2.5,1.5,4.9,2.3,7.4c1.5,4.8,3.1,9.5,4.8,14.3c0.7,2,1.4,3.9,2.1,5.9
								c2.5,6.6,5.1,13.1,7.9,19.6c0.3,0.8,0.7,1.5,1,2.3c2.6,5.8,5.3,11.6,8.2,17.3c0.9,1.8,1.8,3.6,2.7,5.4
								c2.8,5.4,5.7,10.8,8.7,16.1c0.6,1,1.2,2.1,1.8,3.1c3.6,6.2,7.4,12.3,11.3,18.3c1.1,1.7,2.3,3.5,3.5,5.2
								c2.9,4.3,5.8,8.6,8.9,12.8c1.6,2.3,3.3,4.5,5,6.8c2.6,3.5,5.3,6.9,8.1,10.3c2.3,2.9,4.6,5.7,7,8.5c4.2,4.9,8.3,9.7,12.7,14.4
								c0.1,0.1,0.1,0.1,0.2,0.2c4.4,4.7,8.9,9.1,13.4,13.4c2,1.9,4,3.8,6.1,5.6c3.3,3,6.7,6,10.1,8.8c2,1.7,4.1,3.4,6.1,5.1
								c3.7,3,7.5,5.7,11.2,8.5c1.8,1.3,3.6,2.7,5.4,3.9c5.6,3.9,11.3,7.5,17.1,10.8c3.8,2.2,7.6,4.2,11.3,6.1
								c1.1,0.5,2.2,1.1,3.2,1.6c2.9,1.4,5.7,2.7,8.5,3.9c1,0.4,2,0.9,3,1.3c2.7,1.1,5.3,2.1,7.9,3c0.7,0.2,1.3,0.5,2,0.7
								c3.2,1.1,6.5,2.1,9.7,3c1.9,0.5,3.7,0.9,5.6,1.4c0.9,0.2,1.8,0.4,2.6,0.6c2.7,0.6,5.4,1.1,8.1,1.5c4.1,0.6,8,1,12,1.2
								c0.8,0,1.6,0.1,2.4,0.1c3.5,0.1,7,0.1,10.4-0.1c0.6,0,1.2-0.1,1.7-0.2c2.7-0.2,5.4-0.5,8.1-0.9c0.8-0.1,1.7-0.3,2.5-0.4
								c3-0.6,6-1.2,8.9-2.1c0.1,0,0.2-0.1,0.4-0.1c2.8-0.8,5.5-1.8,8.1-2.9c0.8-0.3,1.5-0.6,2.3-1c2.3-1,4.5-2.1,6.6-3.2
								c0.7-0.4,1.4-0.7,2.1-1.1c0,0,0,0,0,0l0,0c0,0,0,0,0,0l-59.6,34.6c-0.3,0.2-0.7,0.4-1,0.6c-0.4,0.2-0.8,0.4-1.2,0.6
								c-2.1,1.2-4.3,2.2-6.6,3.2c-0.4,0.2-0.8,0.4-1.2,0.6c-0.3,0.1-0.7,0.2-1.1,0.4c-2.6,1.1-5.3,2-8.1,2.9
								c-0.1,0-0.2,0.1-0.3,0.1c0,0,0,0-0.1,0c-2.9,0.8-5.9,1.5-8.9,2.1c-0.4,0.1-0.7,0.2-1,0.2c-0.5,0.1-1,0.1-1.4,0.2
								c-2.6,0.4-5.3,0.7-8.1,0.9c-0.4,0-0.9,0.1-1.3,0.2c-0.2,0-0.3,0-0.5,0c-3.4,0.2-6.9,0.2-10.4,0.1c-0.3,0-0.7,0-1,0
								c-0.4,0-0.9-0.1-1.4-0.1c-3.9-0.2-7.9-0.6-12-1.2c0,0,0,0,0,0c-2.7-0.4-5.3-0.9-8.1-1.5c-0.9-0.2-1.7-0.4-2.6-0.6
								c-1.7-0.4-3.4-0.8-5.1-1.2c-0.2,0-0.3-0.1-0.5-0.2c-3.2-0.9-6.4-1.9-9.7-3c-0.6-0.2-1.3-0.5-2-0.7c-2.6-0.9-5.3-1.9-7.9-3
								c-0.4-0.1-0.7-0.3-1-0.4c-0.6-0.3-1.3-0.6-1.9-0.9c-2.8-1.2-5.7-2.5-8.6-3.9c-1.1-0.5-2.1-1-3.2-1.6
								c-3.8-1.9-7.5-3.9-11.3-6.1c-5.8-3.3-11.4-7-17.1-10.8c-1.8-1.3-3.6-2.6-5.4-3.9c-3.8-2.7-7.5-5.5-11.2-8.5
								c-2.1-1.6-4.1-3.4-6.1-5.1c-3.4-2.9-6.8-5.8-10.1-8.8c-2-1.9-4.1-3.7-6.1-5.7c-1.3-1.2-2.5-2.3-3.8-3.5
								c-3.3-3.2-6.5-6.5-9.7-9.9c-0.1-0.1-0.1-0.1-0.2-0.2c-3.3-3.5-6.5-7.1-9.7-10.7c-1-1.2-2-2.5-3-3.6c-2.4-2.8-4.7-5.6-7-8.5
								c-1.5-1.9-3.1-3.6-4.5-5.5c-1.2-1.5-2.3-3.2-3.5-4.7c-1.7-2.2-3.3-4.5-5-6.8c-1.1-1.6-2.3-3.1-3.4-4.6
								c-1.9-2.7-3.6-5.4-5.4-8.1c-1.2-1.7-2.3-3.4-3.5-5.2c-0.5-0.7-1-1.4-1.4-2.2c-3.2-5-6.3-10-9.2-15.1c-0.2-0.3-0.4-0.7-0.6-1
								c-0.6-1-1.1-2.1-1.7-3.1c-2.1-3.6-4.1-7.3-6.1-10.9c-0.9-1.7-1.7-3.4-2.6-5.2c-0.9-1.8-1.8-3.6-2.7-5.4
								c-0.8-1.6-1.6-3.1-2.4-4.7c-2-4.2-3.9-8.4-5.8-12.6c-0.3-0.8-0.7-1.5-1-2.3c-0.1-0.2-0.2-0.4-0.3-0.6
								c-2.3-5.3-4.5-10.7-6.6-16.1c-0.4-1-0.7-2-1.1-3c-0.7-2-1.4-3.9-2.1-5.9c-1-2.7-2-5.3-2.9-8c-0.7-2.1-1.3-4.2-1.9-6.3
								c-0.8-2.5-1.5-4.9-2.3-7.4c-0.4-1.5-1-3-1.4-4.5c-0.8-2.7-1.3-5.5-2-8.2c-0.8-3.1-1.6-6.1-2.2-9.2c-0.2-1.1-0.6-2.1-0.8-3.2
								c-1.1-5-2-10.1-2.8-15.1c-0.2-1-0.3-2.1-0.5-3.1C868.7,627.7,868.3,625.5,868,623.3z"/><linearGradient id="ay" x1="11088.939" x2="10934.329" y1="340.808" y2="745.172" gradientTransform="matrix(-1 0 0 1 12107.696 0)" gradientUnits="userSpaceOnUse"><stop offset="0" stop-color="#efefef"/><stop offset="1" stop-color="#b7b6b6"/></linearGradient><path fill="url(#ay)" d="M1264,818.2c0-6.3-0.2-12.7-0.6-19.1c-0.1-1.3-0.1-2.6-0.2-4c-0.4-6.2-1-12.5-1.8-18.8
								c-0.2-1.7-0.5-3.5-0.7-5.3c-0.4-2.9-0.8-5.9-1.3-8.8c-0.3-2-0.7-4-1.1-6c-0.5-2.8-1.1-5.7-1.6-8.6c-0.3-1.6-0.7-3.2-1-4.8
								c-1.6-7.3-3.4-14.6-5.4-21.9c-0.3-1.2-0.7-2.4-1-3.7c-1.8-6.3-3.7-12.6-5.8-18.9c-0.2-0.5-0.3-0.9-0.5-1.4
								c-2-6.1-4.3-12.2-6.6-18.3c-0.6-1.5-1.2-3.1-1.8-4.6c-2-5.1-4.1-10.3-6.3-15.4c-0.3-0.8-0.6-1.6-1-2.3
								c-2.5-5.6-5-11.3-7.7-16.8c-0.7-1.5-1.4-2.9-2.2-4.4c-2.2-4.4-4.4-8.8-6.7-13.2c-0.7-1.3-1.4-2.7-2.1-4
								c-2.9-5.5-6-10.9-9.1-16.3c-0.6-1-1.2-2-1.8-3.1c-2.8-4.7-5.6-9.3-8.5-13.9c-0.8-1.3-1.7-2.7-2.5-4
								c-3.6-5.6-7.3-11.1-11.1-16.6c-0.6-0.8-1.2-1.6-1.8-2.5c-4-5.6-8-11.1-12.2-16.5c-0.6-0.7-1.1-1.4-1.6-2.2
								c-5.2-6.7-10.6-13.3-16.1-19.6c-0.7-0.8-1.4-1.7-2.2-2.5c-3.4-3.9-6.9-7.7-10.4-11.5c-0.2-0.2-0.3-0.4-0.5-0.5
								c-3.7-3.9-7.4-7.7-11.2-11.5c-0.8-0.8-1.6-1.6-2.5-2.4c-4.9-4.8-9.9-9.5-14.9-13.9c-0.5-0.4-0.9-0.8-1.4-1.2
								c-5.2-4.6-10.6-9-16-13.2c-1-0.8-2.1-1.6-3.1-2.4c-5.3-4.1-10.7-8-16.1-11.7c-1-0.7-2-1.3-2.9-1.9
								c-5.7-3.8-11.4-7.5-17.3-10.8c-4.7-2.7-9.3-5.1-13.9-7.5c-1.3-0.7-2.7-1.3-4-2c-3.5-1.7-7-3.3-10.4-4.8
								c-1.2-0.5-2.5-1.1-3.7-1.6c-3.3-1.3-6.5-2.6-9.7-3.7c-0.8-0.3-1.6-0.6-2.3-0.9c-4-1.4-7.9-2.6-11.8-3.7
								c-2.3-0.6-4.6-1.2-6.8-1.7c-1.1-0.2-2.1-0.5-3.2-0.8c-3.3-0.7-6.6-1.3-9.9-1.8c-5-0.8-9.8-1.2-14.7-1.5
								c-1-0.1-1.9-0.1-2.9-0.2c-4.3-0.2-8.6-0.1-12.7,0.1c-0.7,0-1.4,0.1-2.2,0.2c-3.4,0.3-6.7,0.6-9.9,1.2c-1,0.2-2,0.3-3,0.5
								c-3.7,0.7-7.4,1.5-11,2.5c-0.2,0-0.3,0.1-0.5,0.2c-3.4,1-6.7,2.2-9.9,3.5c-0.9,0.4-1.9,0.8-2.8,1.2c-2.8,1.2-5.5,2.5-8.1,4
								c-0.9,0.5-1.8,0.9-2.6,1.4l59.6-34.6c0.4-0.2,0.8-0.5,1.2-0.7c0.5-0.3,0.9-0.4,1.4-0.7c2.6-1.4,5.3-2.8,8.1-4
								c0.5-0.2,1-0.5,1.5-0.7c0.4-0.2,0.9-0.3,1.3-0.5c3.2-1.3,6.5-2.5,9.9-3.5c0.1,0,0.3-0.1,0.4-0.1c0,0,0.1,0,0.1,0
								c3.6-1,7.2-1.8,11-2.5c0.4-0.1,0.8-0.2,1.3-0.3c0.6-0.1,1.2-0.1,1.8-0.2c3.2-0.5,6.5-0.9,9.9-1.2c0.5,0,1-0.2,1.6-0.2
								c0.2,0,0.4,0,0.6,0c4.2-0.2,8.4-0.3,12.7-0.1c0.4,0,0.8,0,1.2,0c0.5,0,1.1,0.1,1.7,0.2c4.8,0.3,9.7,0.7,14.7,1.5c0,0,0,0,0,0
								c3.3,0.5,6.6,1.1,9.9,1.8c1.1,0.2,2.1,0.5,3.2,0.8c2.1,0.5,4.1,0.9,6.2,1.5c0.2,0.1,0.4,0.1,0.6,0.2
								c3.9,1.1,7.9,2.3,11.8,3.7c0.8,0.3,1.6,0.6,2.3,0.9c3.2,1.1,6.5,2.4,9.7,3.7c0.4,0.2,0.9,0.3,1.3,0.5
								c0.8,0.3,1.6,0.8,2.4,1.1c3.5,1.5,6.9,3.1,10.4,4.8c1.3,0.6,2.6,1.3,4,1.9c4.6,2.3,9.2,4.8,13.9,7.5
								c5.8,3.4,11.6,7,17.3,10.8c1,0.7,2,1.3,2.9,1.9c5.4,3.7,10.8,7.6,16.1,11.7c1,0.8,2.1,1.6,3.1,2.4c5.4,4.2,10.7,8.6,16,13.2
								c0.5,0.4,0.9,0.8,1.4,1.2c5.1,4.5,10,9.1,15,13.9c0.5,0.5,1,0.9,1.5,1.4c0.3,0.3,0.6,0.6,0.9,1c3.8,3.7,7.5,7.5,11.2,11.5
								c0.2,0.2,0.3,0.4,0.5,0.5c3.5,3.7,7,7.6,10.4,11.5c0.3,0.4,0.7,0.7,1,1.1c0.4,0.5,0.8,1,1.2,1.5c5.5,6.4,10.9,12.9,16.1,19.6
								c0.1,0.2,0.3,0.4,0.5,0.6c0.4,0.5,0.8,1.1,1.2,1.6c4.2,5.4,8.2,10.9,12.2,16.5c0.4,0.6,0.8,1.1,1.2,1.7
								c0.2,0.3,0.4,0.6,0.5,0.8c3.8,5.4,7.5,11,11.1,16.6c0.3,0.5,0.7,1,1.1,1.6c0.5,0.8,1,1.6,1.5,2.4c2.9,4.6,5.7,9.2,8.5,13.9
								c0.4,0.8,0.9,1.5,1.4,2.2c0.2,0.3,0.3,0.6,0.5,0.9c3.1,5.4,6.1,10.8,9.1,16.3c0.2,0.4,0.5,0.9,0.7,1.3
								c0.5,0.9,0.9,1.8,1.4,2.7c2.3,4.4,4.5,8.8,6.7,13.2c0.5,0.9,0.9,1.8,1.4,2.7c0.3,0.6,0.5,1.1,0.8,1.7
								c2.7,5.6,5.3,11.2,7.7,16.9c0.1,0.2,0.2,0.3,0.2,0.5c0.3,0.6,0.5,1.2,0.7,1.8c2.2,5.1,4.3,10.3,6.3,15.4
								c0.3,0.8,0.7,1.6,1,2.5c0.3,0.7,0.5,1.4,0.8,2.1c2.3,6.1,4.5,12.2,6.6,18.3c0,0.1,0.1,0.2,0.1,0.3c0.1,0.4,0.2,0.7,0.3,1.1
								c2.1,6.3,4,12.6,5.8,18.9c0.2,0.8,0.5,1.6,0.7,2.4c0.1,0.4,0.2,0.9,0.3,1.3c2,7.3,3.8,14.6,5.4,21.9c0.1,0.6,0.3,1.3,0.5,1.9
								c0.2,1,0.4,1.9,0.5,2.9c0.6,2.9,1.1,5.7,1.6,8.6c0.4,2,0.7,4,1.1,6c0.5,2.9,0.9,5.9,1.3,8.8c0.2,1.4,0.5,2.8,0.6,4.2
								c0,0.4,0.1,0.7,0.1,1.1c0.8,6.3,1.4,12.6,1.8,18.8c0.1,1.3,0.2,2.7,0.2,4c0.4,6.4,0.6,12.8,0.6,19
								c-0.2,69.2-24.6,117.8-64,140.7l-59.6,34.6C1239.4,936,1263.8,887.3,1264,818.2z"/><linearGradient id="az" x1="10843.706" x2="11282.271" y1="691.564" y2="691.564" gradientTransform="matrix(-1 0 0 1 12107.696 0)" gradientUnits="userSpaceOnUse"><stop offset="0" stop-color="#efefef"/><stop offset="1" stop-color="#fdfdfd"/></linearGradient><path fill="url(#az)" d="M825.4,564.9C825,704.1,922.9,873.6,1044,943.6c121.1,70,219.6,13.7,219.9-125.4
								c0.1-44.4-9.7-91.9-27.2-138.2c-20.7-55.2-52.2-108.8-90.3-153.6c-30.1-35.6-64.6-65.7-101-86.8
								C924.3,369.6,825.8,425.7,825.4,564.9z M865.7,588.2c0.2-64.6,26.4-107.2,67-121.5c30.8-10.9,70-5.4,112.6,19.2
								c98.8,57.1,178.7,195.4,178.4,309c-0.1,47-14,82.4-37.3,103.7c-32.8,30.1-84.4,32-142.2-1.4
								C945.3,840.2,865.4,701.8,865.7,588.2z"/></g><linearGradient id="aA" x1="10884.009" x2="11212.11" y1="682.672" y2="682.672" gradientTransform="matrix(-1 0 0 1 12107.696 0)" gradientUnits="userSpaceOnUse"><stop offset="0" stop-color="#094eb2"/><stop offset="1" stop-color="#40b7f0"/></linearGradient><path fill="url(#aA)" d="M895.6,570.3c-0.3,113.6,79.5,252,178.4,309c42.5,24.5,81.7,30.1,112.4,19.3
					c23.3-21.3,37.1-56.7,37.3-103.7c0.3-113.5-79.6-251.9-178.4-309c-42.6-24.6-81.8-30.1-112.6-19.2
					C909.5,488,895.7,523.4,895.6,570.3z" opacity=".64"/><g><linearGradient id="aB" x1="2232.874" x2="2481.628" y1="914.167" y2="1418.523" gradientUnits="userSpaceOnUse"><stop offset="0" stop-color="#ff8500"/><stop offset="1" stop-color="#fff200"/></linearGradient><path fill="url(#aB)" d="M2516.9,998.4l-375-215.2c-32-18.4-96.5,5.4-96.5,42.4l24.5,221.4c0,32.3,17.3,62.2,45.3,78.3l67.7,38.9
				l15.2,200.6l32.5-15.4l84.6-109.2l165.6,120.4c25.9,14.9,73.8-20.2,73.8-50.1v-246.4C2554.8,1036.8,2540.4,1011.8,2516.9,998.4z"/><linearGradient id="aC" x1="2240.265" x2="2304.067" y1="1329.971" y2="931.845" gradientUnits="userSpaceOnUse"><stop offset="0" stop-color="#ff8500"/><stop offset="1" stop-color="#fff200"/></linearGradient><path fill="url(#aC)" d="M2484.4,1013.8l-375-215.2c-32-18.4-72,4.7-72,41.7v222c0,32.3,17.3,62.2,45.3,78.3l67.7,38.9l47.7,185.2
				l84.6-109.2l181.3,104c25.9,14.9,58.2-3.8,58.2-33.7v-246.4C2522.3,1052.2,2507.9,1027.3,2484.4,1013.8z"/><path fill="#fff" d="M2272,1121.4l-20.5-11.2c0.1-14.8,0.3-23.9,0.6-27.3c0.3-3.5,1.4-6.6,3.1-9.3c1.7-2.7,3.6-4.5,5.8-5.4
					c2.1-0.9,7.2-1.4,15.2-1.5c8.6-0.1,14.6-0.6,17.9-1.6c3.3-0.9,6.1-3.1,8.5-6.6c2.4-3.5,3.6-8.1,3.6-13.8
					c0-10.8-3.9-21.5-11.8-31.9c-7.8-10.5-17.1-18.6-27.7-24.4c-21.3-11.6-35.2-8.4-41.9,9.8c-1.6,4.4-7.1,4.4-12.5,0.3h0
					c-6.3-4.8-10-13.4-8.1-18.5c9.3-25.4,30.5-29,63.7-10.9c19,10.4,34.3,24,46,40.7c11.7,16.8,17.5,33.3,17.5,49.5
					c0,21.2-12.2,31.4-36.5,30.8c-10.6-0.2-17.1,0.6-19.5,2.5c-2.4,1.9-3.6,6.2-3.6,12.9L2272,1121.4z M2276.9,1155.3v6.3
					c0,6-4.9,8.2-10.9,4.9l-7-3.8c-6-3.3-10.9-10.8-10.9-16.8v-6.3c0-6,4.9-8.2,10.9-4.9l7,3.8
					C2272,1141.8,2276.9,1149.3,2276.9,1155.3z"/></g></svg>