<svg xmlns="http://www.w3.org/2000/svg" xmlns:xlink="http://www.w3.org/1999/xlink" viewBox="0 0 850 650"><defs><linearGradient id="n" x1="425.34" x2="677.98" y1="299.63" y2="299.63" gradientUnits="userSpaceOnUse"><stop offset="0" stop-color="#ffc9a1"/><stop offset="1" stop-color="#ffaf6d"/></linearGradient><linearGradient id="a" x1="553.74" x2="742.7" y1="425.17" y2="425.17" gradientUnits="userSpaceOnUse"><stop offset="0" stop-color="#807dfb"/><stop offset=".27" stop-color="#6f6be3"/><stop offset=".84" stop-color="#433ca6"/><stop offset="1" stop-color="#362e94"/></linearGradient><linearGradient id="o" x1="239.48" x2="428.45" y1="243.73" y2="243.73" xlink:href="#a"/><linearGradient id="p" x1="531.27" x2="606.7" y1="38.14" y2="168.8" gradientUnits="userSpaceOnUse"><stop offset=".57" stop-color="#ffc16b"/><stop offset=".6" stop-color="#fab362"/><stop offset=".7" stop-color="#e57139"/></linearGradient><linearGradient id="b" x1="727.93" x2="780.87" y1="291.17" y2="291.17" gradientUnits="userSpaceOnUse"><stop offset="0" stop-color="#cfd5f1"/><stop offset=".28" stop-color="#e1e5f6"/><stop offset=".72" stop-color="#f7f8fd"/><stop offset="1" stop-color="#fff"/></linearGradient><linearGradient id="q" x1="772.59" x2="800.69" y1="314.46" y2="314.46" xlink:href="#b"/><linearGradient id="r" x1="286.96" x2="328.11" y1="541" y2="541" xlink:href="#b"/><linearGradient id="s" x1="342.14" x2="368.44" y1="600.45" y2="600.45" xlink:href="#b"/><linearGradient id="c" x1="107.65" x2="168.71" y1="457.43" y2="457.43" gradientUnits="userSpaceOnUse"><stop offset="0" stop-color="#c6cbe7"/><stop offset=".26" stop-color="#cfd3eb"/><stop offset=".68" stop-color="#e8eaf5"/><stop offset="1" stop-color="#fff"/></linearGradient><linearGradient id="t" x1="49.96" x2="111.02" y1="457.43" y2="457.43" xlink:href="#c"/><linearGradient id="u" x1="49.32" x2="158.47" y1="467.24" y2="467.24" gradientUnits="userSpaceOnUse"><stop offset="0" stop-color="#6b67e9"/><stop offset=".23" stop-color="#5651c6"/><stop offset=".58" stop-color="#393397"/><stop offset=".85" stop-color="#27207a"/><stop offset="1" stop-color="#20196f"/></linearGradient><linearGradient id="v" x1="170.32" x2="180.83" y1="501.81" y2="483.61" gradientUnits="userSpaceOnUse"><stop offset="0" stop-color="#e57139"/><stop offset=".24" stop-color="#e97a41"/><stop offset=".64" stop-color="#f39356"/><stop offset="1" stop-color="#ffaf6d"/></linearGradient><linearGradient id="d" x1="149.52" x2="160.03" y1="489.8" y2="471.59" gradientUnits="userSpaceOnUse"><stop offset="0" stop-color="#c85a2b"/><stop offset=".19" stop-color="#ce6332"/><stop offset=".51" stop-color="#de7c46"/><stop offset=".91" stop-color="#f8a565"/><stop offset="1" stop-color="#ffaf6d"/></linearGradient><linearGradient id="w" x1="196.85" x2="214.26" y1="515.48" y2="505.43" xlink:href="#d"/><linearGradient id="x" x1="141.89" x2="189.87" y1="439.94" y2="439.94" gradientTransform="translate(50.3)" gradientUnits="userSpaceOnUse"><stop offset="0" stop-color="#c4cae9"/><stop offset=".09" stop-color="#ced3ed"/><stop offset=".41" stop-color="#e9ebf7"/><stop offset=".69" stop-color="#f9fafd"/><stop offset=".9" stop-color="#fff"/></linearGradient><linearGradient id="e" x1="888.66" x2="898.85" y1="520.94" y2="515.48" gradientTransform="matrix(.99 -.16 .16 .99 -764.25 69.85)" gradientUnits="userSpaceOnUse"><stop offset="0" stop-color="#423eaf"/><stop offset=".49" stop-color="#302b8e"/><stop offset="1" stop-color="#20196f"/></linearGradient><linearGradient id="y" x1="879.43" x2="889.62" y1="524.42" y2="518.96" xlink:href="#e"/><linearGradient id="z" x1="464.39" x2="497.16" y1="363.84" y2="363.84" gradientTransform="matrix(-1 0 0 1 673.37 0)" gradientUnits="userSpaceOnUse"><stop offset="0" stop-color="#362e94"/><stop offset="1" stop-color="#6b67e9"/></linearGradient><linearGradient id="f" x1="545.03" x2="590.17" y1="497.74" y2="497.74" gradientTransform="translate(-228.07)" gradientUnits="userSpaceOnUse"><stop offset="0" stop-color="#c4cae8"/><stop offset=".09" stop-color="#ced3ec"/><stop offset=".41" stop-color="#e9ebf6"/><stop offset=".69" stop-color="#f9fafd"/><stop offset=".9" stop-color="#fff"/></linearGradient><linearGradient id="A" x1="482.4" x2="527.53" y1="485.77" y2="485.77" gradientTransform="translate(-186.01)" xlink:href="#f"/><linearGradient id="g" x1="-901.81" x2="-885.17" y1="484.17" y2="484.17" gradientTransform="matrix(-1 0 0 1 -593.55 0)" gradientUnits="userSpaceOnUse"><stop offset="0" stop-color="#423eaf"/><stop offset=".3" stop-color="#3a35a0"/><stop offset=".89" stop-color="#241e77"/><stop offset="1" stop-color="#1f196f"/></linearGradient><linearGradient id="B" x1="-922.38" x2="-905.74" y1="496.15" y2="496.15" xlink:href="#g"/><linearGradient id="h" x1="-915.15" x2="-886.55" y1="456.39" y2="456.39" gradientTransform="matrix(-1 0 0 1 -593.55 0)" gradientUnits="userSpaceOnUse"><stop offset="0" stop-color="#423eaf"/><stop offset=".3" stop-color="#353097"/><stop offset=".75" stop-color="#251f7a"/><stop offset="1" stop-color="#1f196f"/></linearGradient><linearGradient id="C" x1="-916.26" x2="-886.38" y1="405.06" y2="405.06" gradientTransform="matrix(-1 0 0 1 -593.55 0)" gradientUnits="userSpaceOnUse"><stop offset="0" stop-color="#e57139"/><stop offset="0" stop-color="#db6f43"/><stop offset=".01" stop-color="#c0695f"/><stop offset=".02" stop-color="#945f8c"/><stop offset=".03" stop-color="#5852ca"/><stop offset=".03" stop-color="#5652cc"/><stop offset="1" stop-color="#807dfb"/></linearGradient><linearGradient id="D" x1="2219.07" x2="2192.54" y1="415.65" y2="406.32" gradientTransform="translate(-1883.4)" gradientUnits="userSpaceOnUse"><stop offset="0" stop-color="#5652cc"/><stop offset="1" stop-color="#807dfb"/></linearGradient><linearGradient id="E" x1="474.68" x2="519.82" y1="482.36" y2="482.36" xlink:href="#f"/><linearGradient id="F" x1="412.25" x2="457.39" y1="475.1" y2="475.1" gradientTransform="translate(-186.01)" xlink:href="#f"/><linearGradient id="G" x1="-831.66" x2="-815.02" y1="473.51" y2="473.51" xlink:href="#g"/><linearGradient id="H" x1="-852.03" x2="-835.39" y1="480.77" y2="480.77" xlink:href="#g"/><linearGradient id="I" x1="-844.8" x2="-816.2" y1="441.02" y2="441.02" xlink:href="#h"/><linearGradient id="i" x1="216.48" x2="230.9" y1="384.83" y2="384.83" gradientUnits="userSpaceOnUse"><stop offset="0" stop-color="#ced3f8"/><stop offset="1" stop-color="#bbc0e6"/></linearGradient><linearGradient id="J" x1="222.29" x2="278.55" y1="385.9" y2="385.9" gradientUnits="userSpaceOnUse"><stop offset="0" stop-color="#f6f6fb"/><stop offset=".29" stop-color="#e1e3f3"/><stop offset=".74" stop-color="#c5c9ea"/><stop offset="1" stop-color="#bbc0e6"/></linearGradient><linearGradient id="K" x1="231.37" x2="244.26" y1="366.35" y2="366.35" xlink:href="#i"/><linearGradient id="L" x1="423.75" x2="679.57" y1="260.16" y2="260.16" gradientUnits="userSpaceOnUse"><stop offset=".42" stop-color="#dae0f5"/><stop offset=".58" stop-color="#f6f6fb"/></linearGradient><linearGradient id="j" x1="552.55" x2="743.89" y1="395.64" y2="395.64" gradientUnits="userSpaceOnUse"><stop offset=".42" stop-color="#bbc0e6"/><stop offset=".58" stop-color="#dae0f5"/></linearGradient><linearGradient id="O" x1="238.3" x2="429.63" y1="214.21" y2="214.21" xlink:href="#j"/><linearGradient id="k" x1="-151.14" x2="-119.67" y1="243.32" y2="243.32" gradientTransform="translate(475.17)" gradientUnits="userSpaceOnUse"><stop offset=".43" stop-color="#c4c9e4"/><stop offset=".58" stop-color="#d7daed"/><stop offset=".85" stop-color="#f4f5fa"/><stop offset="1" stop-color="#fff"/></linearGradient><linearGradient id="l" x1="-157.59" x2="-127.84" y1="244.65" y2="244.65" gradientTransform="translate(475.17)" gradientUnits="userSpaceOnUse"><stop offset="0" stop-color="#ced3f8"/><stop offset="1" stop-color="#a9a9ff"/></linearGradient><linearGradient id="Q" x1="165.36" x2="196.83" y1="422.45" y2="422.45" xlink:href="#k"/><linearGradient id="R" x1="158.91" x2="188.66" y1="423.78" y2="423.78" xlink:href="#l"/><linearGradient id="S" x1="317.13" x2="326.11" y1="-20.9" y2="-36.45" gradientTransform="rotate(-120 467.213 7.968)" gradientUnits="userSpaceOnUse"><stop offset="0" stop-color="#6a6ae0"/><stop offset=".15" stop-color="#6464d7"/><stop offset=".4" stop-color="#5454bf"/><stop offset=".7" stop-color="#3b3a98"/><stop offset="1" stop-color="#1e1c6b"/></linearGradient><linearGradient id="T" x1="268.71" x2="270.8" y1="-68.58" y2="-72.2" gradientTransform="rotate(-120 467.213 7.968)" gradientUnits="userSpaceOnUse"><stop offset="0" stop-color="#6a6ae0"/><stop offset=".44" stop-color="#7170e9"/><stop offset="1" stop-color="#807dfb"/></linearGradient><linearGradient id="V" x1="218.84" x2="263.04" y1="560.02" y2="560.02" gradientUnits="userSpaceOnUse"><stop offset="0" stop-color="#dae0f5"/><stop offset=".33" stop-color="#dee3f6"/><stop offset=".66" stop-color="#eaeef9"/><stop offset="1" stop-color="#fff"/><stop offset="1" stop-color="#fff"/></linearGradient><linearGradient id="W" x1="223.73" x2="241.06" y1="553.44" y2="553.44" gradientUnits="userSpaceOnUse"><stop offset="0" stop-color="#a3a9d0"/><stop offset="1" stop-color="#dee2f9"/></linearGradient><linearGradient id="X" x1="218.84" x2="229.89" y1="566.2" y2="566.2" gradientUnits="userSpaceOnUse"><stop offset="0" stop-color="#a3a9d0"/><stop offset="1" stop-color="#d0d4f6"/></linearGradient><linearGradient id="Y" x1="796.46" x2="801.9" y1="910.2" y2="919.32" gradientTransform="rotate(120 620.195 579.056)" gradientUnits="userSpaceOnUse"><stop offset="0" stop-color="#d0d4f6"/><stop offset=".57" stop-color="#b8bde2"/><stop offset="1" stop-color="#a3a9d0"/></linearGradient><linearGradient id="Z" x1="246.37" x2="253.91" y1="557.6" y2="557.6" gradientUnits="userSpaceOnUse"><stop offset=".4" stop-color="#a3a9d0"/><stop offset=".69" stop-color="#b6bbe0"/><stop offset="1" stop-color="#d0d4f6"/></linearGradient><linearGradient id="aa" x1="678.4" x2="759.29" y1="345.1" y2="345.1" gradientUnits="userSpaceOnUse"><stop offset="0" stop-color="#d1d6f0"/><stop offset=".29" stop-color="#d5daf1"/><stop offset=".59" stop-color="#e2e5f5"/><stop offset=".9" stop-color="#f6f7fc"/><stop offset="1" stop-color="#fff"/></linearGradient><linearGradient id="m" x1="698.09" x2="726.83" y1="333.76" y2="333.76" gradientUnits="userSpaceOnUse"><stop offset="0" stop-color="#bbbfe2"/><stop offset="1" stop-color="#ced2f4"/></linearGradient><linearGradient id="ab" x1="738.68" x2="746.72" y1="349.48" y2="349.48" gradientUnits="userSpaceOnUse"><stop offset="0" stop-color="#a5acd4"/><stop offset=".63" stop-color="#bec3e7"/><stop offset="1" stop-color="#ced2f4"/></linearGradient><linearGradient id="ac" x1="678.4" x2="686.48" y1="349.49" y2="349.49" xlink:href="#m"/><linearGradient id="ad" x1="725.24" x2="735.57" y1="356.94" y2="356.94" gradientUnits="userSpaceOnUse"><stop offset="0" stop-color="#a5acd4"/><stop offset=".52" stop-color="#bcc2e6"/><stop offset="1" stop-color="#ced2f4"/></linearGradient><linearGradient id="ae" x1="689.65" x2="700" y1="356.95" y2="356.95" xlink:href="#m"/><linearGradient id="af" x1="707.03" x2="718.24" y1="359.97" y2="359.97" xlink:href="#m"/><linearGradient id="ag" x1="692.09" x2="732.83" y1="329.85" y2="329.85" xlink:href="#m"/><linearGradient id="ah" x1="448.92" x2="571.35" y1="479.21" y2="479.21" gradientUnits="userSpaceOnUse"><stop offset="0" stop-color="#c4cae8"/><stop offset=".32" stop-color="#d3d7ee"/><stop offset=".92" stop-color="#fafafd"/><stop offset="1" stop-color="#fff"/></linearGradient><linearGradient id="ai" x1="481.01" x2="481.02" y1="524.73" y2="524.73" gradientUnits="userSpaceOnUse"><stop offset="0" stop-color="#6b67e9"/><stop offset=".06" stop-color="#6763e3"/><stop offset=".47" stop-color="#4c48bd"/><stop offset=".68" stop-color="#423eaf"/></linearGradient><clipPath id="M"><path fill="url(#n)" d="m431.07 304.81 102.81 59.35c9.78 5.65 25.78 5.65 35.56 0l102.81-59.35a16.43 16.43 0 0 0 5.73-5.18 16.53 16.53 0 0 0-5.73-5.18L569.44 235.1c-9.78-5.65-25.78-5.65-35.56 0l-102.81 59.35a16.34 16.34 0 0 0-5.73 5.18 16.34 16.34 0 0 0 5.73 5.18Z"/></clipPath><clipPath id="N"><path fill="url(#a)" d="m558 429 76.9 44.4c7.31 4.22 19.29 4.22 26.6 0l76.9-44.4a12.27 12.27 0 0 0 4.28-3.87 12.29 12.29 0 0 0-4.28-3.88l-76.9-44.39c-7.31-4.22-19.29-4.22-26.6 0L558 421.29a12.29 12.29 0 0 0-4.28 3.88A12.27 12.27 0 0 0 558 429Z"/></clipPath><clipPath id="P"><path fill="url(#o)" d="m243.77 247.61 76.9 44.39c7.31 4.23 19.28 4.23 26.6 0l76.89-44.39a12.24 12.24 0 0 0 4.29-3.88 12.31 12.31 0 0 0-4.29-3.87l-76.89-44.39c-7.32-4.23-19.29-4.23-26.6 0l-76.9 44.39a12.31 12.31 0 0 0-4.29 3.87 12.24 12.24 0 0 0 4.29 3.88Z"/></clipPath><clipPath id="U"><path fill="none" d="M679.57 43.65H423.73v250.89a9.38 9.38 0 0 0 1.58 5.09 16.34 16.34 0 0 0 5.73 5.18l102.81 59.35c9.78 5.65 25.78 5.65 35.56 0l102.81-59.35a16.43 16.43 0 0 0 5.73-5.18 9.38 9.38 0 0 0 1.58-5.09Z"/></clipPath></defs><g data-name="Book 1"><path fill="#e57139" d="m547.9 151.56-4.08 2.36 5.87-8.42 4.08-2.35-5.87 8.41z"/><path fill="#fb944b" d="m510.84 53.62 84.35 48.69c4.26 2.47 7.75 8.5 7.75 13.43v51.55c0 4.92-3.49 6.94-7.75 4.47l-45.5-26.26-5.87 8.42L538.4 139l-27.56-15.91a17.2 17.2 0 0 1-7.75-13.42V58.09c0-4.92 3.49-6.93 7.75-4.47Z"/><path fill="#eb975a" d="M600.61 172.32Z"/><path fill="url(#p)" d="m599.26 100-84.34-48.73c-2.27-1.31-4.31-1.34-5.73-.36l-3.75 2.15c1.39-.76 3.3-.64 5.39.57l84.35 48.69c4.26 2.47 7.75 8.5 7.75 13.43v51.55c0 2.45-.87 4.18-2.26 5l4-2.33c1.36-.82 2.2-2.53 2.2-4.95v-51.64a17.17 17.17 0 0 0-7.61-13.38Z"/><path fill="#e8ecf7" d="M551.13 97.44c0-1.21.84-1.7 1.89-1.1a4.2 4.2 0 0 1 1.89 3.28c0 1.2-.85 1.69-1.89 1.09a4.16 4.16 0 0 1-1.89-3.27ZM540.94 91.55c0-1.2.85-1.69 1.89-1.09a4.2 4.2 0 0 1 1.89 3.28c0 1.2-.85 1.69-1.89 1.09a4.19 4.19 0 0 1-1.89-3.28ZM565.09 105.5a4.18 4.18 0 0 0-1.89-3.28c-1-.6-1.89-.11-1.89 1.1a4.19 4.19 0 0 0 1.89 3.27c1.05.6 1.89.11 1.89-1.09ZM533.67 99.51l55.04 31.77v3.41l-55.04-31.77v-3.41zM533.67 109.08l55.04 31.78v3.4l-55.04-31.77v-3.41zM533.67 118.66l43.49 25.1v3.41l-43.49-25.11v-3.4z"/><path fill="#c85a2b" d="M525.16 87a8.58 8.58 0 0 0-3.88-6.68c-2.13-1.24-3.86-.24-3.85 2.22a8.55 8.55 0 0 0 3.88 6.68c2.13 1.22 3.85.23 3.85-2.22Zm1.24 27.3-2.18-1.3V99.09l2.18 1.26v-3.64l-10.22-5.9v3.64l2.19 1.26v13.94l-2.19-1.26V112l10.22 5.9Z"/><path style="mix-blend-mode:multiply" fill="url(#b)" d="M760.32 279.3h-32.39l20.24 12.05-20.24 11.69h32.39l20.55-11.86-20.55-11.88z"/><path fill="#b9bee4" d="m727.93 303.04 20.24-11.69v-23.74l-20.24 11.69v23.74z"/><path fill="#ccd1f6" d="m727.93 303.04-20.26-11.69v-23.74l20.26 11.69v23.74z"/><path fill="#f4f4f9" d="m727.93 279.3-20.26-11.69 20.26-11.69 20.24 11.69-20.24 11.69z"/><path style="mix-blend-mode:multiply" fill="url(#q)" d="M789.78 308.16h-17.19l10.75 6.4-10.75 6.2h17.19l10.91-6.3-10.91-6.3z"/><path fill="#b9bee4" d="m772.59 320.76 10.75-6.2v-12.6l-10.75 6.2v12.6z"/><path fill="#ccd1f6" d="m772.59 320.76-10.75-6.2v-12.6l10.75 6.2v12.6z"/><path fill="#f4f4f9" d="m772.59 308.16-10.75-6.2 10.75-6.2 10.75 6.2-10.75 6.2z"/><path style="mix-blend-mode:multiply" fill="url(#r)" d="M312.13 531.78h-25.17l15.73 9.36-15.73 9.09h25.17l15.98-9.22-15.98-9.23z"/><path fill="#b9bee4" d="m286.96 550.23 15.73-9.09v-18.45l-15.73 9.09v18.45z"/><path fill="#ccd1f6" d="m286.96 550.23-15.74-9.09v-18.45l15.74 9.09v18.45z"/><path fill="#f4f4f9" d="m286.96 531.78-15.74-9.09 15.74-9.08 15.73 9.08-15.73 9.09z"/><path style="mix-blend-mode:multiply" fill="url(#s)" d="M358.23 594.56h-16.09l10.06 5.98-10.06 5.81h16.09l10.21-5.89-10.21-5.9z"/><path fill="#b9bee4" d="m342.14 606.35 10.06-5.81v-11.79l-10.06 5.81v11.79z"/><path fill="#ccd1f6" d="m342.14 606.35-10.06-5.81v-11.79l10.06 5.81v11.79z"/><path fill="#f4f4f9" d="m342.14 594.56-10.06-5.81 10.06-5.8 10.06 5.8-10.06 5.81z"/><path d="M152.8 435.26c-12.32-7.12-29.09-10.09-45.15-8.94 11.58.83 22.79 3.8 31.68 8.94 21.21 12.24 21.21 32.1 0 44.35-8.89 5.13-20.1 8.1-31.68 8.93 16 1.16 32.83-1.82 45.15-8.93 21.2-12.25 21.2-32.11 0-44.35Z" style="mix-blend-mode:multiply" fill="url(#c)"/><path d="M79.35 435.26c8.89-5.14 20.09-8.11 31.67-8.94-16-1.15-32.82 1.82-45.15 8.94-21.21 12.24-21.21 32.1 0 44.35C78.2 486.72 95 489.7 111 488.54c-11.58-.83-22.78-3.8-31.67-8.93-21.19-12.25-21.19-32.11.02-44.35Z" style="mix-blend-mode:multiply" fill="url(#t)"/><path fill="#a59ba5" d="M142.5 435.31c-21.32-12.31-55.88-12.31-77.2 0s-21.32 32.26 0 44.57 55.88 12.31 77.2 0 21.32-32.26 0-44.57Zm-6.37 40.9c-17.8 10.27-46.66 10.27-64.46 0s-17.8-26.94 0-37.22 46.66-10.28 64.46 0 17.8 26.94 0 37.22Z"/><path fill="#34318f" d="M71.67 426.45c17.8-10.28 46.66-10.28 64.46 0 11.68 6.75 15.7 16.24 12 24.88-1.91-4.52-5.92-8.81-12-12.34-17.8-10.28-46.66-10.28-64.46 0-6.12 3.53-10.13 7.82-12.05 12.34-3.62-8.64.38-18.13 12.05-24.88Z"/><path d="M136.22 430.36c-17.79-10.28-46.65-10.28-64.45 0s-17.79 26.94 0 37.21 46.66 10.28 64.45 0 17.78-26.94 0-37.21Z" style="mix-blend-mode:screen" fill="#686a6d"/><path d="M76.35 432.2a16 16 0 0 1 14.41-.63c4.07 2.13 4.23 5.85.36 8.32a15.92 15.92 0 0 1-14.41.62c-4.07-2.12-4.24-5.84-.36-8.31ZM95.9 427.67a6.59 6.59 0 0 1 6-.25c1.69.87 1.75 2.42.15 3.44a6.6 6.6 0 0 1-6 .26c-1.69-.88-1.76-2.42-.15-3.45Z" style="mix-blend-mode:screen" fill="#a59ba5"/><path fill="#f7f7fc" d="M136.22 432.22c-17.79-10.27-46.65-10.27-64.45 0-8.49 4.9-12.91 11.26-13.31 17.68-.42-7 4-14.17 13.31-19.54 17.8-10.28 46.66-10.28 64.45 0 9.32 5.37 13.75 12.49 13.32 19.54-.4-6.42-4.83-12.78-13.32-17.68Z"/><path fill="#807dfb" d="M142.5 422.77c-21.32-12.31-55.88-12.31-77.2 0S44 455 65.3 467.34s55.88 12.31 77.2 0 21.32-32.26 0-44.57Zm-6.37 40.9c-17.8 10.27-46.66 10.27-64.46 0s-17.8-26.94 0-37.22 46.66-10.28 64.46 0 17.8 26.94 0 37.22Z"/><path fill="url(#u)" d="M65.3 467.34c21.32 12.31 55.88 12.31 77.2 0 10.52-6.07 15.84-14 16-22v11.92c.14 8.17-5.18 16.36-16 22.59-21.32 12.31-55.88 12.31-77.2 0-10.8-6.23-16.11-14.42-16-22.59v-11.83c.19 7.94 5.5 15.85 16 21.91Z"/><path fill="#f7f7fc" d="M142.5 469c1.34-.78 2.6-1.58 3.77-2.42l9.18 5.31-7.95 4.59-9.18-5.3c1.44-.66 2.84-1.39 4.18-2.18Z"/><path fill="#d0d4f6" d="m147.5 485.69-9.18-5.31v-9.18l9.18 5.3v9.19z"/><path fill="url(#v)" d="M144 483.09a16.43 16.43 0 0 1 7.44-12.88c2.13-1.23 4.05-1.29 5.41-.41l52.92 30.56-10.07 18.36-52.93-30.56c-1.66-.61-2.77-2.39-2.77-5.07Z"/><path fill="url(#d)" d="m150.87 490.52 2.59 1.49a5.47 5.47 0 0 1-1.81-4.55 16.47 16.47 0 0 1 7.43-12.88c2.14-1.23 4.06-1.29 5.41-.41l-3.51-2c-1.35-.88-3.27-.82-5.41.42a16.41 16.41 0 0 0-7.43 12.87c0 2.67 1.06 4.44 2.73 5.06Z"/><path fill="url(#w)" d="M198.47 518a10.49 10.49 0 1 0 11-17.86c-1.32-.65-3.09-.51-5 .62a16.41 16.41 0 0 0-7.47 12.89 5.6 5.6 0 0 0 1.68 4.46Z"/><path d="M199.69 518.72h.01-.01z"/><path style="mix-blend-mode:multiply" fill="url(#x)" d="m240.17 432.79-42.43.03-5.55 9.35h6.79l-2.92 4.92 44.11-.03v-14.27z"/><path fill="#fcd1a9" d="M201.6 349.36c0 .87 3 12 3.67 13.13.93 1.61 2.55 3.29 2.94 4.32a17 17 0 0 1 .77 3.63c0 .54-.69 2.42-1.36 2.15s.31-1.25 0-1.57c-.13.3-.9 1.07-1.58.94s-.43-.38-.43-.38c-.35.13-.83.13-1-.14-.3.1-.81.36-.94-.4a9.53 9.53 0 0 0-.53-2.53c-1-1.57-.89-5.32-1.09-5.79s-3.89-9.72-4.2-11.72-.28-11.79 1.45-11.87 2.3 7.42 2.3 10.23Z"/><path fill="url(#e)" d="M196.06 432.31c-2.05.33-2.65 3.64-1.62 5.71a7.91 7.91 0 0 0 2.24 1.38s6.48 2.66 7.93 2.77 4.7-.42 5-2.91c-.25-1.52-1.52-1.94-3.09-2.87-2-1.21-3.8-3-5.44-3.78-1.4-.67-5.02-.3-5.02-.3Z"/><path fill="#fcd1a9" d="M200 430.2c-1 .16-4.21 1-4.21 1s-1.19 3.33.68 3.92c3.65 1.15 6.76-1.3 5.33-2.12-.98-.59-1.93-1.22-1.8-2.8Z"/><path fill="#131147" d="M204.57 441.51c-1.5-.12-8.17-2.85-8.17-2.85a8.7 8.7 0 0 1-2.23-1.36 4.44 4.44 0 0 0 .27.72 7.91 7.91 0 0 0 2.24 1.38s6.48 2.66 7.93 2.77 4.7-.42 5-2.91v-.15c-.76 2.05-3.67 2.51-5.04 2.4Z"/><path fill="#362e94" d="M202.4 433.45c-.27-.36-.9-1.32-2-.53a2.65 2.65 0 0 0-1.29 2.66c.13.82 2.53.21 2.62.09s.67-2.22.67-2.22Z"/><path fill="#fff" d="M203.51 434.48a4.86 4.86 0 0 0-2.18 2.12.65.65 0 0 1-.87.31.66.66 0 0 1-.32-.87 6.24 6.24 0 0 1 2.85-2.77.66.66 0 0 1 .52 1.21ZM205.53 435.78a4.82 4.82 0 0 0-2.17 2.11.66.66 0 0 1-.88.31.65.65 0 0 1-.31-.87 6.07 6.07 0 0 1 2.85-2.76.65.65 0 0 1 .86.35.67.67 0 0 1-.35.86Z"/><path fill="#fcd1a9" d="M199.43 364.78c1 12.19 2.61 23.8 2.61 33.59 0 11.19-1.94 23-2.06 32.37.11 2.88-3.16 5.13-4.54 2.59a31 31 0 0 0 .19-3.12c-.84-7.15-3.28-18.12-1.22-27.37-2.84-12.24-10.64-27.38-9.49-37 3.55-1.76 11.79-1.92 14.51-1.06ZM197.86 326.17c3.2 1.57 4.36 4 4.36 8.74-2.22-1.34-4.36-8.74-4.36-8.74Z"/><path fill="#423eaf" d="M196.15 369.43v2.04l-1.78-1.02 1.78-1.02z"/><path fill="url(#y)" d="M187.51 437.22c-2 .34-2.65 3.64-1.62 5.72a7.91 7.91 0 0 0 2.24 1.38s6.48 2.66 7.93 2.77 4.7-.43 5-2.92c-.25-1.51-1.52-1.93-3.09-2.86-2.05-1.22-3.8-3-5.44-3.79-1.4-.66-5.02-.3-5.02-.3Z"/><path fill="#fcd1a9" d="M191.44 435.12c-1 .16-4.21 1-4.21 1s-1.19 3.33.69 3.92c3.64 1.14 6.75-1.3 5.32-2.13-.97-.59-1.92-1.21-1.8-2.79Z"/><path fill="#131147" d="M196 446.43c-1.5-.12-8.16-2.86-8.16-2.86a8.4 8.4 0 0 1-2.24-1.36 4.22 4.22 0 0 0 .27.73 7.91 7.91 0 0 0 2.24 1.38s6.48 2.66 7.93 2.77 4.7-.43 5-2.92a.7.7 0 0 1 0-.14c-.74 2.04-3.65 2.51-5.04 2.4Z"/><path fill="#362e94" d="M193.85 438.37c-.27-.37-.9-1.33-2-.53a2.64 2.64 0 0 0-1.29 2.65c.14.83 2.53.22 2.62.09s.67-2.21.67-2.21Z"/><path fill="#fff" d="M195 439.4a4.91 4.91 0 0 0-2.18 2.12.66.66 0 0 1-.87.31.67.67 0 0 1-.32-.88 6.26 6.26 0 0 1 2.85-2.76.66.66 0 0 1 .52 1.21ZM197 440.69a4.85 4.85 0 0 0-2.17 2.12.66.66 0 0 1-1.19-.57 6.2 6.2 0 0 1 2.84-2.76.67.67 0 0 1 .87.35.66.66 0 0 1-.35.86Z"/><path fill="#fcd1a9" d="M192.72 370c0 11.21.12 23.74.12 33.53 0 11.2-1.29 22.71-1.41 32.1.11 2.88-3.16 5.13-4.54 2.59a31 31 0 0 0 .19-3.12c-.84-7.15-3.28-18.13-1.22-27.37-2.84-12.25-7.21-25.15-4.61-37.65 3.55-1.73 8.75-.92 11.47-.08Z"/><path fill="url(#z)" d="M184.29 355.61c.93-8.44-3.06-16.41-3.79-21.69-.46-3.33-.79-7.23 2.23-8.17s4.37-1.42 7.07-1.35c6.51.16 9.55 1.49 10.88 6 1.25 4.22 2.13 5.5 3.16 9.64.46 1.85-4.64 5.88-4.05 13.88 4.52 6.84 7.76 22.28 9.14 34.41.53 3.65-3.19 8.35-9.76 11.64-8.3 4.15-18 4.48-21.59.74a4.63 4.63 0 0 1-1.37-3.12c-.01-4.34 2.44-34.96 8.08-41.98Z"/><path fill="#fcd1a9" d="M187.49 316.48c.12-2 7 2 6.81 4.62-.12 2.15-.4 4.31.4 4.59.93.67 3.71 7.8 2 9.47-5.81-2.38-8.84-7.42-14-9.41 2.14-.43 4.42-2.75 4.79-9.27Z"/><path fill="#fcd1a9" d="m185.84 313.71 2.06-5.16H201v7.86c0 4.34-2.92 7.86-6.53 7.86s-6.33-3.31-6.5-7.47h-.91Z"/><path fill="#f2c39d" d="M189.06 320.82a6.3 6.3 0 0 0 5.1 3.43 2.17 2.17 0 0 0 .33 1.3 4.5 4.5 0 0 1-1-.1 6.26 6.26 0 0 1-4.43-4.63Z"/><path fill="#20196f" d="M193.57 303.07h.13c7.12.18 7.65 5.51 7.26 6.39-2.26.8-3.68-.73-5.1-.61-.69.06-3.47.43-4.62 1.91s-.84 4.11-2 4.05c-.5 0-.66-1.72-1.41-1.76a1.26 1.26 0 0 0-1.2 1.52c.1 1.31 1.33 2.11 1.15 2.74-.3 1-2.91-.83-2.86-4.54s2.51-9.95 8.65-9.7Z"/><path fill="#fcd1a9" d="m181 359.63-1.4 3.49c-4.88-2.55-7.75-9.2-8-14.56-.37-7.23 7.11-19.44 7.5-20 1.9-2.82 6.4-.32 4.91 3.3-.33.73-8 13.34-7.17 17.6.48 2.92 1.45 8.33 4.16 10.17Z"/><path fill="#20196f" d="M192.67 303.09c-7.57.54-8.48 8-11.49 10-1.79 1.21-5.8-1.07-8.15 3-2.71 4.67 1.67 6.37-1.2 8.35s-5.06 8-.29 11.73 10.75.45 10.07-5c-.48-3.91.68-5.93 4-4.66 2.46.94 3.4-1 2.29-3.5 5.47.54-.26-9.89 8-14.2-.35-2.08-3.23-5.72-3.23-5.72Z"/><path fill="#fcd1a9" d="M181 359.63c.57.37 3.71-.37 4.45-.37a15.62 15.62 0 0 1 4.5.55c1.7.55 2.87 1.18 1.7 1.45.63.13 2.12.74 1 1.08-.11.4-.54.94-1.82.9a11.62 11.62 0 0 1-4.34.81c-1 .29-6.06.18-6.84-.93a6.08 6.08 0 0 1 1.35-3.49Z"/><path style="mix-blend-mode:multiply" fill="url(#f)" d="M316.96 493.59h45.14v8.3h-45.14z"/><path style="mix-blend-mode:multiply" fill="url(#A)" d="M296.39 481.62h45.13v8.29h-45.13z"/><path fill="url(#g)" d="M291.62 487.36c0-6.52 4.13-6.71 4.13-6.71a17 17 0 0 0 5.87-1.51c3.59-1.49 8.64-.91 5.82 4.3a1.74 1.74 0 0 1-.1.19 2.41 2.41 0 0 1-.92.8l-9 5.3c-1.42.78-5.77-1.03-5.8-2.37Z"/><path fill="#121047" d="M291.65 486.77c.07 1.34 4.39 3.12 5.75 2.34l9-5.29a8.22 8.22 0 0 0 1.28-.93c-.09.18-.16.35-.26.55a1.74 1.74 0 0 1-.1.19 2.41 2.41 0 0 1-.92.8l-9 5.3c-1.29.73-5.2-.81-5.72-2.12a1.38 1.38 0 0 1 0-.26 3.75 3.75 0 0 1-.03-.58Z"/><path fill="#fff" d="M293.3 479.79a37.35 37.35 0 0 1 4.81 1 2 2 0 0 0 .34 1l.1.12c.74.52 1.49 1.33-.26 2.43a2.43 2.43 0 0 1-3.16-.23 2.74 2.74 0 0 0-1-1.15 2.55 2.55 0 0 0-1-.41.78.78 0 0 0 0-.09s-.27-2.67.17-2.67Z"/><path fill="#131147" d="m293.23 416.07 18.36.33c-1.51 12.26-4.57 23.4-6.61 35.29-2.19 11.54-4.66 19.65-6.81 29.26-.79 1.79-4.4 1.11-5.13-.61-.57-8.85-1.23-19.63 1.39-29.84-.43-11-1.43-23.32-1.2-34.43Z"/><path fill="url(#B)" d="M312.2 499.33c0-6.52 4.12-6.7 4.12-6.7a17.09 17.09 0 0 0 5.88-1.51c3.58-1.49 8.63-.92 5.81 4.29a1.86 1.86 0 0 1-.1.2 2.59 2.59 0 0 1-.92.8l-9 5.29c-1.39.79-5.76-1.03-5.79-2.37Z"/><path fill="#121047" d="M312.22 498.75c.08 1.33 4.39 3.12 5.75 2.33l9-5.28a8.94 8.94 0 0 0 1.28-.93c-.09.18-.16.35-.26.54a1.86 1.86 0 0 1-.1.2 2.59 2.59 0 0 1-.92.8l-9 5.29c-1.28.74-5.2-.81-5.72-2.11a1.51 1.51 0 0 1 0-.26 5.51 5.51 0 0 1-.03-.58Z"/><path fill="#fff" d="M313.88 491.77a37.84 37.84 0 0 1 4.8 1 2.18 2.18 0 0 0 .33 1l.11.13c.74.51 1.49 1.32-.26 2.42a2.44 2.44 0 0 1-3.16-.22 3 3 0 0 0-1-1.16 2.83 2.83 0 0 0-1-.41s0-.09 0-.09-.27-2.67.18-2.67Z"/><path fill="url(#h)" d="M306.18 445.24c-1.11-5.28-14-5.93-13.14-26.66 4-.6 24.41 9 28.44 8.36.51 12.35-.68 23.84-.76 35.89-.27 11.75-1.39 20.16-1.94 30-.49 1.89-4.16 1.81-5.16.24-2-8.64-4.42-19.17-3.5-29.67-1.2-5.83-2.63-11.99-3.94-18.16Z"/><path fill="#5652cc" d="M302.36 378.32C288 387.92 286.28 407 294 419.08c0 0-1.63-26.81 8.36-40.76Z"/><path fill="url(#C)" d="M301.7 430.33c8.74 4.91 17.89 4.92 21-1.12-1.16-11.23-2.26-20.37 0-31.14-.66-5.94-1.13-6.83-.37-10.3-.27-1.17-3.85-3.65-6.45-6-2.82-2.57-4.72-5-6.17-5.31C297.75 374 292 395.3 293 418a16.52 16.52 0 0 0 8.7 12.33Z"/><path fill="#fcd1a9" d="M303.08 377.79c2.59-1.88 2.39-5.75 2.17-8.33a12.64 12.64 0 0 1-.49-4.44c.39-5.67 4.33-10.32 8.73-9.72 8.88 1.21 7 5.8 6.59 11.47-.35 5.25-3 8.7-7 9-.06.87.29 3.49 1.38 4.58-2.92 1.74-7.18.92-8.87.16s-3.72-1.46-2.51-2.72Z"/><path fill="#20196f" d="M317 352.53c-.21-.71-1.57-1.17-6.18.6l-1.19.47c-8.53 3.69-6.47 13.53-5.2 16.15a5.26 5.26 0 0 1 .68 3.09c3.35-.13 4.41 1.75 6.56-.13 1.54-1.34 3.85-2.92 4.23-3.58a2.63 2.63 0 0 0 .32-1.63c0-4.72 2.18-1.84 2.11-.75.9-.44.84-2.33.78-4.44 7.28-5.41 3.39-9.13-2.11-9.78Z"/><path fill="#fcd1a9" d="M321.67 433.37a3 3 0 0 1-4.33.14c-1.41-1.49-.59-3.14-1.37-3.64-2.12-1.36-2.61-2.64-2.25-3.92 1.69 1.07 3.44 2.8 4.92 1.75s3.4-2.49 3.51-4c2.2.5 2.31 5.27 1.17 7.19a19.9 19.9 0 0 1-1.65 2.48Z"/><path fill="url(#D)" d="M318.7 429.62c-1.09 2.66-.33 4.3 2.35 4.6 6.67-3.41 10.55-13 10.67-18.26.19-8.79-4.08-19.81-9.49-28.46-1.26-1.86-5.32-1.15-7.32 1.49-2.7 3.56-1.55 8.76 0 10.87 3.93 6.26 8.3 10.93 8.73 15.95.36 4.66-1.53 10.79-4.94 13.81Z"/><path style="mix-blend-mode:multiply" fill="url(#E)" d="M246.61 478.21h45.14v8.3h-45.14z"/><path style="mix-blend-mode:multiply" fill="url(#F)" d="M226.24 470.96h45.13v8.29h-45.13z"/><path fill="url(#G)" d="M221.47 476.69c0-6.51 4.14-6.7 4.14-6.7a17.07 17.07 0 0 0 5.87-1.51c3.58-1.49 8.63-.92 5.81 4.29l-.1.2a2.63 2.63 0 0 1-.91.8l-9 5.29c-1.41.79-5.77-1.06-5.81-2.37Z"/><path fill="#121047" d="M221.5 476.11c.08 1.34 4.39 3.12 5.75 2.34l9-5.29a9.55 9.55 0 0 0 1.27-.93c-.08.18-.16.35-.26.54l-.1.2a2.63 2.63 0 0 1-.91.8l-9 5.29c-1.29.74-5.2-.81-5.72-2.11a1.51 1.51 0 0 1 0-.26 3.7 3.7 0 0 1-.03-.58Z"/><path fill="#fff" d="M223.15 469.13a37.69 37.69 0 0 1 4.81.95 2.12 2.12 0 0 0 .34 1 1.47 1.47 0 0 1 .1.13c.74.51 1.49 1.32-.26 2.42a2.44 2.44 0 0 1-3.16-.22 2.83 2.83 0 0 0-1-1.16 2.55 2.55 0 0 0-1-.41.78.78 0 0 0 0-.09s-.27-2.62.17-2.62Z"/><path fill="#131147" d="m223.09 405.4 18.36.33c-1.52 12.27-4.58 23.41-6.62 35.29-2.19 11.54-4.66 19.66-6.81 29.27-.79 1.78-4.4 1.11-5.13-.61-.57-8.85-1.23-19.63 1.39-29.84-.43-11-1.45-23.32-1.19-34.44Z"/><path fill="url(#H)" d="M241.84 484c0-6.51 4.13-6.7 4.13-6.7a17 17 0 0 0 5.87-1.51c3.59-1.49 8.64-.91 5.82 4.29a1.86 1.86 0 0 1-.1.2 2.49 2.49 0 0 1-.92.8l-9 5.3c-1.4.73-5.76-1.08-5.8-2.38Z"/><path fill="#121047" d="M241.87 483.37c.07 1.34 4.39 3.12 5.75 2.34l9-5.29a8.94 8.94 0 0 0 1.28-.93c-.09.18-.16.35-.26.54a1.86 1.86 0 0 1-.1.2 2.49 2.49 0 0 1-.92.8l-9 5.3c-1.29.73-5.2-.82-5.72-2.12a1.51 1.51 0 0 1 0-.26 3.75 3.75 0 0 1-.03-.58Z"/><path fill="#fff" d="M243.52 476.39a38.07 38.07 0 0 1 4.81.95 2.18 2.18 0 0 0 .33 1l.11.13c.74.51 1.49 1.32-.26 2.42a2.43 2.43 0 0 1-3.16-.22 2.81 2.81 0 0 0-1-1.15 2.62 2.62 0 0 0-1-.42s0-.08 0-.08-.27-2.63.17-2.63Z"/><path fill="url(#I)" d="M235.83 429.86c-1.12-5.27-14-5.93-13.14-26.66 4-.6 24.41 9 28.44 8.36.51 12.35-.69 23.84-.76 35.89-.28 11.75-1.39 20.16-1.94 30-.49 1.89-4.16 1.82-5.16.24-2-8.64-4.42-19.17-3.5-29.67-1.2-5.82-2.63-12.02-3.94-18.16Z"/><path fill="url(#i)" d="M230.9 365c-9.37 6.47-13.84 14.79-14.31 18.8-.73 6.33 2.18 10.57 6.54 20.85l.22-9.36c-.48-1.57-1.86-6.43-1.47-8.93.34-2.21 6.82-7.07 7.63-9.44 1.98-5.83-1.68-7.64 1.39-11.92Z"/><path fill="#fcd1a9" d="M277 353.53c.69-1.4 1.39-2.06 2.05-2l.86-.83c1.66-1.6 4.67-2.18 4.9-1.49.14.42-1.39.72-2.44 1.36a3.65 3.65 0 0 0-1.21 1.21s2.48 1.55 1.4 3.71c-.88 1.76-1.49.59-1.31.24-1.56 1.45-1.84 0-2.87 1.29l-2.19-2.65Z"/><path fill="url(#J)" d="M275.86 354.38c-.87.43-10 8.55-13.29 10.95-3.45 1.09-8.47 2.73-11.09 3.38-1.95.17-3 .15-6.57-1.73a31.11 31.11 0 0 0-8.77-2.71c-11.95-2.44-14.66 19.78-13.66 42.5 1.69 5.59 4.26 6.64 9.33 8.65 4.25 1.68 17.19 4.21 20.55-1.58-1.15-11.12-3.31-23.49-1.17-34.18 5.11-2.58 11.34-3.92 15.86-7.67 6.89-5.74 10.09-12.67 11.38-14.5.5-.71-.52-3.39-2.57-3.11Z"/><path fill="#bbc0e6" d="M267.05 372c-1.16.88-12.26 4.75-16.93 5.63s-2.38 2.09-2 4.71c.53 3.57 1.09 18.5 3.5 25-1.09-9.29-2.17-19-.44-27.68 5.12-2.58 11.35-3.92 15.87-7.66Z"/><path fill="#fcd1a9" d="M231.91 364.59c2.67-1.93 2.28-3.2 1.88-5.83a13.08 13.08 0 0 1-.81-4.54c0-5.86 3.73-10.92 8.3-10.61 9.22.63 7.58 5.48 7.58 11.34 0 5.43-2.46 9.17-6.58 9.8 0 .89.86 1.44 2 1.9-3 1.8-7.52 2.1-9.53 1.31s-4.1-2.07-2.84-3.37Z"/><path fill="#131147" d="M234.19 343.23c1.61-1.55 3.47-.06 4.41-.55l.5-.24c1.22-.73.63-1.27 1.76-1.94s2.2.26 2.93 0c1.72-.54 3.27-.76 3.95-.13a4.85 4.85 0 0 1 .88 1.16c.58 1 2.58-.28 2.46 1.82s-.86 2.62-1.17 5.63v.61a4.77 4.77 0 0 1-1.85 3.45c-1 1-.93.05-1-.33-.09-.71-.29-1.35-.72-1.32s-1.29.24-1.73 2.13c-.32 1.36.6 1.06.52 1.44-1.24 5.54-3.31 5.12-5.66 5.79a7.19 7.19 0 0 1-5.55-.56c-.57-2.12-.79-3.37-1.07-4.36a17.24 17.24 0 0 1 0-6c.65-2.6-.23-5.08 1.34-6.6Z"/><path fill="url(#K)" d="M244.26 366.65a1.12 1.12 0 0 0-1.54-.92c-3 1.38-6.87 1.37-9.31 0a1.48 1.48 0 0 1-.93-1.6 1 1 0 0 0-1 .73 1.85 1.85 0 0 0 .94 2.16c1.33.98 5.66 3.11 11.84-.37Z"/><path fill="url(#L)" d="m431.07 294.45 102.81-59.35c9.78-5.65 25.78-5.65 35.56 0l102.81 59.35a16.53 16.53 0 0 1 5.73 5.18c3.32-5.17 1.43-11.22-5.73-15.36l-102.81-59.35c-9.78-5.65-25.78-5.65-35.56 0l-102.81 59.35c-7.16 4.14-9.05 10.19-5.73 15.36a16.34 16.34 0 0 1 5.73-5.18Z"/><path fill="url(#n)" d="m431.07 304.81 102.81 59.35c9.78 5.65 25.78 5.65 35.56 0l102.81-59.35a16.43 16.43 0 0 0 5.73-5.18 16.53 16.53 0 0 0-5.73-5.18L569.44 235.1c-9.78-5.65-25.78-5.65-35.56 0l-102.81 59.35a16.34 16.34 0 0 0-5.73 5.18 16.34 16.34 0 0 0 5.73 5.18Z"/><path fill="url(#j)" d="m558 421.29 76.9-44.39c7.31-4.22 19.29-4.22 26.6 0l76.9 44.39a12.29 12.29 0 0 1 4.28 3.88c2.49-3.87 1.07-8.4-4.28-11.49l-76.9-44.39c-7.31-4.23-19.29-4.23-26.6 0L558 413.68c-5.35 3.09-6.77 7.62-4.28 11.49a12.29 12.29 0 0 1 4.28-3.88Z"/><path fill="url(#a)" d="m558 429 76.9 44.4c7.31 4.22 19.29 4.22 26.6 0l76.9-44.4a12.27 12.27 0 0 0 4.28-3.87 12.29 12.29 0 0 0-4.28-3.88l-76.9-44.39c-7.31-4.22-19.29-4.22-26.6 0L558 421.29a12.29 12.29 0 0 0-4.28 3.88A12.27 12.27 0 0 0 558 429Z"/><path fill="url(#O)" d="m243.77 239.86 76.9-44.39c7.31-4.23 19.28-4.23 26.6 0l76.89 44.39a12.31 12.31 0 0 1 4.29 3.87c2.48-3.86 1.07-8.39-4.29-11.48l-76.89-44.4c-7.32-4.22-19.29-4.22-26.6 0l-76.9 44.4c-5.35 3.09-6.77 7.62-4.29 11.48a12.31 12.31 0 0 1 4.29-3.87Z"/><path fill="url(#o)" d="m243.77 247.61 76.9 44.39c7.31 4.23 19.28 4.23 26.6 0l76.89-44.39a12.24 12.24 0 0 0 4.29-3.88 12.31 12.31 0 0 0-4.29-3.87l-76.89-44.39c-7.32-4.23-19.29-4.23-26.6 0l-76.9 44.39a12.31 12.31 0 0 0-4.29 3.87 12.24 12.24 0 0 0 4.29 3.88Z"/><path d="M351.11 237.23a21.83 21.83 0 0 0-11.3-2.5h-8.1v1a16.81 16.81 0 0 0-3.37 1.46c-5.78 3.36-5.75 8.81.07 12.18a17.21 17.21 0 0 0 3.3 1.43v1.09h9.37a21.34 21.34 0 0 0 10.1-2.52c5.82-3.37 5.76-8.78-.07-12.14Z" style="mix-blend-mode:multiply" fill="url(#k)"/><path fill="url(#l)" d="M322 249.4c-2.93-1.69-4.4-3.91-4.39-6.13v-5.89c0 2.22 1.46 4.44 4.39 6.14 5.83 3.36 15.24 3.36 21 0 2.87-1.67 4.31-3.86 4.32-6.05v5.89c0 2.19-1.44 4.37-4.32 6-5.79 3.41-15.21 3.41-21 .04Z"/><path fill="#f6f6fb" d="M322 243.52c-5.82-3.37-5.85-8.82-.07-12.18s15.2-3.36 21 0 5.85 8.81.07 12.18-15.19 3.36-21 0Z"/><path fill="#bbc0e6" d="m338.41 239.97-4.48-2.59 4.48-2.58-1.47-.85-4.48 2.58-4.48-2.58-1.47.85 4.48 2.58-4.48 2.59 1.47.85 4.48-2.59 4.48 2.59 1.47-.85z"/><path d="M667.61 416.36a21.83 21.83 0 0 0-11.3-2.5h-8.1v1a16.81 16.81 0 0 0-3.37 1.46c-5.78 3.36-5.75 8.81.07 12.18a17 17 0 0 0 3.3 1.43v1.08h9.37a21.24 21.24 0 0 0 10.1-2.51c5.78-3.33 5.75-8.78-.07-12.14Z" style="mix-blend-mode:multiply" fill="url(#Q)"/><path fill="url(#R)" d="M638.47 428.53c-2.93-1.69-4.4-3.91-4.39-6.13v-5.89c0 2.22 1.46 4.44 4.39 6.14 5.83 3.36 15.24 3.36 21 0 2.88-1.68 4.32-3.86 4.32-6v5.89c0 2.18-1.45 4.37-4.32 6-5.77 3.36-15.18 3.36-21-.01Z"/><path fill="#f6f6fb" d="M638.48 422.65c-5.82-3.37-5.86-8.82-.07-12.18s15.2-3.36 21 0 5.86 8.81.07 12.18-15.17 3.35-21 0Z"/><path fill="#bbc0e6" d="m654.91 419.1-4.48-2.59 4.48-2.58-1.47-.86-4.48 2.59-4.48-2.59-1.48.86 4.48 2.58-4.48 2.59 1.48.85 4.48-2.59 4.48 2.59 1.47-.85z"/><path fill="#6a6ae0" d="M518.5 271.5V149.72l77.18 44.56v121.78L518.5 271.5z"/><path fill="#f6f6fb" d="m502 164.33 72.61 41.92 16.47-9.5-72.58-41.92c-4.54-2.62-11.93-2.62-16.47 0s-4.53 6.88-.03 9.5Z"/><path fill="url(#S)" d="M499.5 157a8 8 0 0 1 2.53-2.2c4.54-2.62 11.93-2.62 16.47 0v-5.11c-4.54-2.62-11.93-2.62-16.47 0-3.41 2-4.25 4.91-2.53 7.31Z"/><path fill="#ced3f8" d="M574.64 317.82V206.25l16.47-9.5v111.56l-16.47 9.51z"/><path fill="#6a6ae0" d="M500.17 282.08V160.3l77.19 44.56v121.78l-77.19-44.56z"/><path fill="#5555c4" d="M500.17 276.98V165.41l72.76 42.01v111.56l-72.76-42z"/><path fill="#423eaf" d="M577.36 326.64V204.86l1.86-1.07v121.78l-1.86 1.07zM595.68 316.06V194.28l1.86-1.07v121.78l-1.86 1.07z"/><path fill="url(#T)" d="M496 154.25V276c-.09 2.19 1.29 4.39 4.17 6.05V160.27Z"/><path fill="#5652cc" d="M500.17 148.65c-5.57 3.22-5.57 8.43 0 11.65l77.19 44.56 1.86-1.07L502 159.23c-4.53-2.63-4.53-6.89 0-9.51s11.93-2.62 16.47 0l77.18 44.56 1.86-1.07-77.18-44.56c-5.55-3.22-14.58-3.22-20.16 0Z"/><path fill="#fff" d="M518.75 244.78v-22.45l35.61 20.56v22.45l-35.61-20.56zM518.75 217.65v-4.48l17.8 10.28v4.48l-17.8-10.28z"/><path d="M595.68 316.06V204.67l-4.57-7.92v111.56l-4.43 2.56 9 5.19z" style="mix-blend-mode:multiply" fill="#dae0f5"/><path fill="#fff" d="m522.38 253.14-2.71-1.57v-3.13l2.71 1.57v3.13zM527.43 256.05l-2.71-1.56v-3.13l2.71 1.56v3.13zM532.48 258.97l-2.71-1.57v-3.12l2.71 1.56v3.13zM537.54 261.89l-2.71-1.57v-3.13l2.71 1.57v3.13zM542.59 264.81l-2.71-1.57v-3.13l2.71 1.57v3.13zM547.64 267.72l-2.71-1.56v-3.13l2.71 1.56v3.13zM552.69 270.64l-2.71-1.57v-3.13l2.71 1.57v3.13z"/><path d="M454.19 282.44a6.64 6.64 0 1 1 6.64 6.64 6.63 6.63 0 0 1-6.64-6.64ZM606.18 305.52a9 9 0 1 1 9 9 9 9 0 0 1-9-9Z" style="mix-blend-mode:screen" fill="#c85a2b"/><path d="M604 209.84a5.3 5.3 0 1 1 5.29 5.3 5.3 5.3 0 0 1-5.29-5.3Z" style="mix-blend-mode:multiply" fill="#ffcb81"/><path d="M641.76 283a5.3 5.3 0 1 1 5.3 5.3 5.3 5.3 0 0 1-5.3-5.3Z" style="mix-blend-mode:screen" fill="#c85a2b"/><path d="M471.36 194a5.3 5.3 0 1 1 5.3 5.3 5.3 5.3 0 0 1-5.3-5.3Z" style="mix-blend-mode:multiply" fill="#ffcb81"/><path d="M494.88 316.06a5.3 5.3 0 1 1 5.29 5.3 5.29 5.29 0 0 1-5.29-5.3ZM537.52 332.81a5.3 5.3 0 1 1 5.3 5.3 5.3 5.3 0 0 1-5.3-5.3Z" style="mix-blend-mode:screen" fill="#c85a2b"/><path d="M623.29 172.82a3.56 3.56 0 1 1 3.56 3.55 3.56 3.56 0 0 1-3.56-3.55ZM668.18 230.32a2.64 2.64 0 1 1 2.63 2.63 2.63 2.63 0 0 1-2.63-2.63ZM642.89 196a2.63 2.63 0 1 1 2.63 2.63 2.63 2.63 0 0 1-2.63-2.63Z" style="mix-blend-mode:multiply" fill="#ffcb81"/><path d="M621.59 309.17a2.63 2.63 0 1 1 2.63 2.64 2.63 2.63 0 0 1-2.63-2.64ZM612.57 260.16a2.63 2.63 0 1 1 2.63 2.63 2.63 2.63 0 0 1-2.63-2.63Z" style="mix-blend-mode:screen" fill="#c85a2b"/><path d="M442.86 222.33a4.48 4.48 0 1 1 4.48 4.47 4.48 4.48 0 0 1-4.48-4.47Z" style="mix-blend-mode:multiply" fill="#ffcb81"/><path d="M631.67 243.41a2.64 2.64 0 1 1 2.64 2.63 2.64 2.64 0 0 1-2.64-2.63Z" style="mix-blend-mode:screen" fill="#c85a2b"/><path d="M454.35 152.35A2.63 2.63 0 1 1 457 155a2.63 2.63 0 0 1-2.65-2.65Z" style="mix-blend-mode:multiply" fill="#ffcb81"/><path d="M577.07 285.33a2.64 2.64 0 1 1 2.63 2.67 2.63 2.63 0 0 1-2.63-2.67ZM510.54 340.79a2.63 2.63 0 1 1 2.63 2.64 2.63 2.63 0 0 1-2.63-2.64ZM489.65 246a5.26 5.26 0 1 1 5.26 5.26 5.26 5.26 0 0 1-5.26-5.26Z" style="mix-blend-mode:screen" fill="#c85a2b"/><path d="M474 122.08a2.63 2.63 0 1 1 2.63 2.63 2.63 2.63 0 0 1-2.63-2.63Z" style="mix-blend-mode:multiply" fill="#ffcb81"/><path d="M487 290.49a2.63 2.63 0 1 1 2.63 2.63 2.63 2.63 0 0 1-2.63-2.63ZM564.63 347.4a2.63 2.63 0 1 1 2.63 2.62 2.64 2.64 0 0 1-2.63-2.62Z" style="mix-blend-mode:screen" fill="#c85a2b"/><path d="M639.13 140a2.63 2.63 0 1 1 2.64 2.63 2.63 2.63 0 0 1-2.64-2.63ZM660 164.75a2.63 2.63 0 1 1 2.63 2.63 2.62 2.62 0 0 1-2.63-2.63Z" style="mix-blend-mode:multiply" fill="#ffcb81"/><path d="M467 356.41c5.52-3.18 5.52-8.35 0-11.53s-14.44-3.18-20 0-5.51 8.34 0 11.53 14.45 3.18 20 0Zm-4.23 11.93-1-4.06c-13.77 1.12-26.48-4.41-28.42-12.28a8.4 8.4 0 0 1 .3-5l-7-.86a11 11 0 0 0-.37 6.48c2.51 10.06 18.85 17.16 36.45 15.72Zm2.36 9.52-1-4.07c-11 .9-22-.73-31-4.61s-14.69-9.51-16.25-15.9a14.08 14.08 0 0 1 .48-8.39l-7-.85a16.65 16.65 0 0 0-.57 9.82c1.83 7.46 8.59 14.08 19 18.6s23.37 6.45 36.3 5.4Zm2.37 9.51-1-4.07c-31.91 2.61-61.56-10.26-66.08-28.7a19.66 19.66 0 0 1 .68-11.72l-7-.86a22.26 22.26 0 0 0-.75 13.16c5.06 20.67 38.31 35.11 74.11 32.19Z" style="mix-blend-mode:multiply" fill="#dae0f5"/><path fill="url(#V)" d="M256.65 563a1.3 1.3 0 0 1 .59-.57c1.34-.78 4.42-1 5.79-1v-2.82c-1.78.07-5.8-.27-6.36-1.54a8.09 8.09 0 0 0-.83-1.17c-1.14-1.13 1.48-3 2.66-3.69l-3.44-2H248v1.35c-.43-.11-.86-.22-1.3-.31-2.18-.33-2.63-2.73-2.62-3.69h-4.89a4 4 0 0 1-1.67 3.35 2.89 2.89 0 0 1-1 .34c-.69.13-1.37.3-2 .49-2.25.48-5.19-.85-6.36-1.53l-3.47 2c1.18.68 3.77 2.56 2.62 3.69a8.26 8.26 0 0 0-.85 1.17 1.28 1.28 0 0 1-.58.57c-1.35.78-4.42 1-5.8 1v2.83c1.66 0 5.8.27 6.36 1.53l.13.2h-7.66v6.67H228a13.32 13.32 0 0 1 4.89-1.68v4.33h11c.08-.84.36-2.59 1.69-3.36l.23-.11v.82H255l3.46-2c-1.17-.68-3.77-2.57-2.62-3.69a9 9 0 0 0 .81-1.18Zm-21.26.6c-3.37-2-3.35-5.13 0-7.08s10.38 6.68 10.38 6.68v1.2a13.66 13.66 0 0 1-10.38-.84Z"/><path fill="#f7f7fc" d="M218.39 547c0-1.1-1.93-2.48-2.9-3v8.24c1 .57 2.9 2 2.91 3Z"/><path fill="#bdc1e4" d="M249.39 552.24V544c-1 .56-2.94 2-2.94 3v8.25c-.01-1.05 1.96-2.44 2.94-3.01Z"/><path fill="url(#W)" d="M226.31 556.51a13.52 13.52 0 0 1 12.23 0c1.67 1 2.51 2.25 2.52 3.52v-8.24c0-1.28-.84-2.55-2.51-3.52a13.47 13.47 0 0 0-12.24 0c-1.7 1-2.55 2.27-2.55 3.56v8.25c-.01-1.29.84-2.58 2.55-3.57Z"/><path fill="#d0d4f6" d="m218.84 561.62-3.44-2 .02 8.25 3.45 2-.03-8.25z"/><path fill="#a3a9d0" d="m249.3 567.87-.02-8.25-3.47 2 .03 8.25 3.46-2z"/><path fill="url(#X)" d="M225.25 568.34c.65.19 1.33.35 2 .48 2.15.33 2.62 2.67 2.62 3.66v-8.25c0-1-.47-3.33-2.62-3.65-.69-.14-1.37-.3-2-.49-1.94-.66-5.2.85-6.38 1.53v8.25c1.13-.69 4.44-2.19 6.38-1.53Z"/><path fill="url(#Y)" d="M236.46 569.16a2.84 2.84 0 0 1 1-.34c.69-.13 1.36-.29 2-.48 1.95-.66 5.19.84 6.37 1.53v-8.25c-1.17-.68-4.42-2.19-6.37-1.53-.66.19-1.33.35-2 .49a2.69 2.69 0 0 0-1 .33c-1.32.77-1.61 2.52-1.68 3.36v8.24c.07-.83.35-2.58 1.68-3.35Z"/><path fill="#eaeef9" d="M218.06 555.93c1.14 1.12-1.48 3-2.66 3.69l3.44 2c1.18-.68 4.44-2.19 6.38-1.53.66.19 1.34.35 2 .49 2.18.32 2.63 2.72 2.62 3.69h4.88c.07-.84.36-2.59 1.68-3.36a2.69 2.69 0 0 1 1-.33c.69-.14 1.36-.3 2-.49 1.95-.66 5.2.85 6.37 1.53l3.47-2c-1.18-.68-3.77-2.57-2.62-3.69a8.85 8.85 0 0 0 .84-1.18 1.36 1.36 0 0 1 .59-.57c1.35-.78 4.42-1 5.79-1v-2.83c-1.78.08-5.81-.26-6.36-1.53a7.46 7.46 0 0 0-.84-1.17c-1.13-1.13 1.48-3 2.66-3.69l-3.44-2c-1.18.68-4.44 2.19-6.38 1.53-.66-.19-1.34-.36-2-.49-2.18-.33-2.62-2.73-2.62-3.69H230a4 4 0 0 1-1.68 3.35 2.84 2.84 0 0 1-1 .34c-.69.13-1.37.3-2 .49-2.25.48-5.2-.85-6.37-1.53l-3.46 2c1.17.68 3.76 2.56 2.62 3.69a7.54 7.54 0 0 0-.85 1.17 1.36 1.36 0 0 1-.59.57c-1.34.78-4.42 1-5.8 1v2.83c1.67 0 5.81.27 6.37 1.53a7.94 7.94 0 0 0 .82 1.18Zm8.22-7.66a13.47 13.47 0 0 1 12.24 0c3.36 2 3.35 5.12 0 7.08a13.45 13.45 0 0 1-12.23 0c-3.41-1.96-3.39-5.13-.01-7.08Z"/><path fill="#ced3f8" d="M215.4 559.62c1.18-.68 3.8-2.57 2.66-3.69a7.94 7.94 0 0 1-.83-1.18c-.56-1.26-4.7-1.53-6.37-1.53v8.25a20.9 20.9 0 0 1 4.52.48Z"/><path fill="#bdc1e4" d="m234.77 572.51-.02-8.24h-4.88l.02 8.25 4.88-.01z"/><path fill="url(#Z)" d="M253.91 561.47v-8.25c-1.37 0-4.44.18-5.79 1a1.36 1.36 0 0 0-.59.57 8.85 8.85 0 0 1-.84 1.18c-1.15 1.12 1.44 3 2.62 3.69V562a20.2 20.2 0 0 1 4.6-.53Z"/><path d="M751.31 353.5a3.23 3.23 0 0 1 1.1-.72h4.86l2-4.44-1.82-.28a5.08 5.08 0 0 1-1.71-.57 1.74 1.74 0 0 1-1-1.51 11.48 11.48 0 0 0 0-1.76c0-1.27 1.52-1.89 2.69-2.08l1.84-.28-2.08-4.44h-4.85a3.25 3.25 0 0 1-.46-.22 3.19 3.19 0 0 1-.66-.5 18.49 18.49 0 0 0-1.53-1.54c-1.13-1.09-.32-2.08.54-2.58l1.33-.77-5.62-3.25-1.34.77a5.53 5.53 0 0 1-4.45.33c-.87-.33-1.75-.62-2.65-.89a4 4 0 0 1-.87-.38c-1.08-.62-1.14-1.45-.89-2l.49-1.06-7.67-1.19-.49 1.06c-.31.68-1.37 1.58-3.56 1.57h-3a5.08 5.08 0 0 1-2.61-.59 2.28 2.28 0 0 1-1-1l-.5-1.06-7.66 1.19.5 1.06c.32.68.18 1.77-1.72 2.39-.9.27-1.79.57-2.65.89a5.59 5.59 0 0 1-4.45-.32l-1.35-.78-5.59 3.25 1.34.77c.87.5 1.69 1.49.58 2.58a16.93 16.93 0 0 0-1.52 1.54 5 5 0 0 1-4.12 1l-1.84-.29-2 4.44 1.83.28a5.23 5.23 0 0 1 1.71.57 1.75 1.75 0 0 1 1 1.5 10.46 10.46 0 0 0 0 1.77 1.53 1.53 0 0 1-.5 1.15H678.4v5.65h15.42a2.77 2.77 0 0 1 .46.22 3.42 3.42 0 0 1 .65.5c.47.52 1 1 1.54 1.54a1.87 1.87 0 0 1 .44.6h-7.26v6h11v-.24l.91-.54a5.57 5.57 0 0 1 4.46-.32c.33.13.68.25 1 .36v5.17h10.58l.48-1.06a1.42 1.42 0 0 1 .14-.23v1.29h10.56l7.66-1.19-.5-1.06c-.28-.61-.19-1.55 1.19-2.18h9l5.59-3.25-1.34-.77c-.87-.51-1.69-1.49-.57-2.58a18.35 18.35 0 0 0 1.5-1.52Zm-18-2.5c-5.63 3.27-14.8 3.27-20.47 0s-5.7-8.59-.07-11.86 14.8-3.27 20.47 0 5.69 8.58.05 11.86Z" style="mix-blend-mode:multiply" fill="url(#aa)"/><path fill="url(#m)" d="M722.59 329.65c-5.63-3.26-14.73-3.26-20.33 0-5 2.89-5.49 7.38-1.58 10.63a13.26 13.26 0 0 1 1.58-1.1c5.6-3.25 14.7-3.25 20.33 0a11.93 11.93 0 0 1 1.65 1.14c3.94-3.25 3.39-7.77-1.65-10.67Z"/><path fill="#bbbfe2" d="M725.19 316.81a1.49 1.49 0 0 0-.12.57v9.57a1.33 1.33 0 0 1 .13-.57l.48-1.06v-9.57ZM699.66 316.81l-.5-1.06v9.57l.49 1.06a1.42 1.42 0 0 1 .14.59v-9.57a1.42 1.42 0 0 0-.13-.59ZM739.68 323a1.93 1.93 0 0 0-1.1 1.49v9.56a1.92 1.92 0 0 1 1.09-1.48l1.34-.77v-9.57Z"/><path fill="#ced2f4" d="m685.24 323-1.34-.77v9.57l1.35.77a2 2 0 0 1 1.11 1.5v-9.56a2 2 0 0 0-1.12-1.51Z"/><path fill="#bbbfe2" d="M746.88 332.57c-1.16.19-2.68.79-2.69 2v9.56c0-1.23 1.52-1.83 2.69-2l1.83-.28v-9.57Z"/><path fill="#242d3c" d="M744.23 335.6v10.38-9.56c-.01-.27 0-.55 0-.82Z"/><path fill="#ced2f4" d="M680.86 336.23v-1.58a1.76 1.76 0 0 0-1-1.51 5.23 5.23 0 0 0-1.71-.57l-1.83-.28v9.57l1.83.28a5.15 5.15 0 0 1 1.71.57 1.87 1.87 0 0 1 1 1.21v2.02-9.57c0-.02.01-.08 0-.14Z"/><path fill="#242d3c" d="M680.87 336.46v9.57-9.57Z"/><path fill="#bbbfe2" d="m748.75 338.77-.02 9.57-2.03 4.44.02-9.57 2.03-4.44z"/><path fill="#ced2f4" d="m678.42 343.21-.02 9.57-2.08-4.44.03-9.57 2.07 4.44z"/><path fill="url(#ab)" d="M744.89 342.92a5 5 0 0 0-4.12 1 18.35 18.35 0 0 1-1.52 1.54 1.49 1.49 0 0 0-.54 1.07v9.57a1.49 1.49 0 0 1 .54-1.07 18.35 18.35 0 0 0 1.52-1.54 5 5 0 0 1 4.12-1l1.84.29v-9.57Z"/><path fill="url(#ac)" d="M685.93 345.47a17.21 17.21 0 0 1-1.54-1.54 3.19 3.19 0 0 0-.66-.5 5.73 5.73 0 0 0-3.48-.51l-1.82.29v9.57l1.82-.29a5.69 5.69 0 0 1 3.49.51 2.89 2.89 0 0 1 .65.5c.47.52 1 1 1.54 1.54a1.51 1.51 0 0 1 .55 1.09v-9.57a1.54 1.54 0 0 0-.55-1.09Z"/><path fill="#bbbfe2" d="m741.16 348.82-.02 9.57-5.6 3.25.03-9.57 5.59-3.25z"/><path fill="#ced2f4" d="m689.68 352.07-.03 9.57-5.63-3.25.03-9.57 5.63 3.25z"/><path fill="url(#ad)" d="M734.22 351.29a5.54 5.54 0 0 0-4.45-.32c-.86.32-1.74.62-2.64.89-1.42.46-1.86 1.18-1.86 1.8v9.57c0-.62.45-1.34 1.86-1.8.9-.27 1.79-.57 2.65-.89a5.55 5.55 0 0 1 4.45.32l1.34.78v-9.57Z"/><path fill="url(#ae)" d="M699 352.24a4.44 4.44 0 0 0-.87-.38c-.91-.27-1.79-.57-2.65-.89a5.56 5.56 0 0 0-4.46.32l-1.33.78v9.57l1.34-.78a5.54 5.54 0 0 1 4.45-.32c.86.32 1.75.62 2.65.89a4.44 4.44 0 0 1 .87.38 1.68 1.68 0 0 1 1 1.44v-9.57a1.7 1.7 0 0 0-1-1.44Z"/><path fill="#bbbfe2" d="m725.9 355.31-.03 9.57-7.65 1.19.02-9.57 7.66-1.19z"/><path fill="url(#af)" d="M717.75 355.44a2.38 2.38 0 0 0-1-1 5.05 5.05 0 0 0-2.6-.58h-3c-2.19 0-3.25.89-3.57 1.57l-.48 1.06v9.57l.48-1.06c.32-.68 1.38-1.59 3.57-1.57h3a5.09 5.09 0 0 1 2.61.58 2.41 2.41 0 0 1 1 1l.5 1.06v-9.57Z"/><path fill="#f0f0f5" d="m739.82 348.05 1.34.77-5.59 3.25-1.35-.78a5.54 5.54 0 0 0-4.45-.32c-.86.32-1.74.62-2.64.89-1.91.62-2 1.71-1.73 2.39l.5 1.06-7.66 1.19-.49-1.06a2.38 2.38 0 0 0-1-1 5.05 5.05 0 0 0-2.6-.58h-3c-2.19 0-3.25.89-3.57 1.57l-.48 1.06-7.67-1.19.48-1.06c.26-.56.2-1.39-.88-2a4.44 4.44 0 0 0-.87-.38c-.91-.27-1.79-.57-2.65-.89a5.56 5.56 0 0 0-4.46.32l-1.33.78-5.63-3.25 1.33-.77c.87-.51 1.67-1.49.55-2.58a17.21 17.21 0 0 1-1.54-1.54 3.19 3.19 0 0 0-.66-.5 5.73 5.73 0 0 0-3.48-.51l-1.82.29-2.08-4.44 1.83-.28c1.18-.19 2.73-.81 2.69-2.08a10.34 10.34 0 0 1 0-1.76 1.76 1.76 0 0 0-1-1.51 5.23 5.23 0 0 0-1.71-.57l-1.83-.28 2-4.44 1.84.29a5 5 0 0 0 4.12-1 18.32 18.32 0 0 1 1.52-1.54c1.11-1.09.29-2.07-.58-2.58l-1.34-.77 5.59-3.25 1.35.78a5.55 5.55 0 0 0 4.45.32c.86-.32 1.74-.62 2.64-.89 1.91-.62 2.05-1.71 1.73-2.39l-.5-1.06 7.66-1.19.49 1.06a2.44 2.44 0 0 0 1 1 5.08 5.08 0 0 0 2.6.58H714c2.19 0 3.25-.89 3.56-1.57l.49-1.06 7.67 1.19-.49 1.06c-.25.56-.2 1.39.89 2a4.71 4.71 0 0 0 .86.37c.91.27 1.79.57 2.66.89a5.49 5.49 0 0 0 4.45-.33l1.33-.77 5.63 3.25-1.33.77c-.86.5-1.67 1.49-.54 2.58a20.16 20.16 0 0 1 1.53 1.54 3.42 3.42 0 0 0 .65.5 5.7 5.7 0 0 0 3.49.5l1.83-.28 2.08 4.44-1.84.28c-1.18.19-2.73.81-2.69 2.08a11.61 11.61 0 0 1 0 1.77 1.74 1.74 0 0 0 1 1.5 5.23 5.23 0 0 0 1.71.57l1.83.28-2 4.44-1.83-.29a5 5 0 0 0-4.12 1 18.35 18.35 0 0 1-1.52 1.54c-1.17 1.1-.3 2.08.52 2.59Zm-37.54-6.62c5.67 3.28 14.84 3.27 20.47 0s5.6-8.58-.07-11.86-14.83-3.27-20.47 0-5.6 8.59.07 11.86"/><path fill="#ced2f4" d="m707.06 356.5-.03 9.57-7.67-1.19.02-9.57 7.68 1.19z"/><path fill="#e0e0eb" d="M726.82 328c-8-4.61-20.88-4.62-28.81 0-3.78 2.19-5.74 5-5.91 7.91.16 2.91 2.15 5.8 6 8 8 4.61 20.88 4.6 28.81 0 3.78-2.2 5.75-5.05 5.91-7.92-.15-2.93-2.15-5.81-6-7.99Zm-4.16 13.47c-5.59 3.25-14.7 3.25-20.33 0-2.66-1.54-4.07-3.53-4.23-5.54.16-2 1.55-4 4.16-5.48 5.6-3.25 14.7-3.25 20.33 0 2.67 1.54 4.08 3.53 4.23 5.55-.16 2-1.55 3.91-4.16 5.43Z"/><path fill="url(#ag)" d="M698 328c7.93-4.62 20.83-4.61 28.81 0 3.85 2.21 5.84 5.1 6 8 .18-3.16-1.81-6.36-6-8.77-8-4.61-20.88-4.61-28.81 0-4.11 2.39-6.08 5.54-5.91 8.67.18-2.9 2.14-5.75 5.91-7.9Z"/><path style="mix-blend-mode:multiply" fill="url(#ah)" d="m493.55 426.51-17.64.1 77.63 44.81-104.62 60.4 17.64.1 104.79-60.5-77.8-44.91z"/><path fill="#ffaf6d" d="m468.02 420.13-104.79 60.5 85.69 49.47 104.79-60.5-85.69-49.47z"/><path fill="#f6f6fb" d="M449.09 517.99v10.29l-82.7-47.75-.17-10.18 82.7 47.74.17-.1z"/><path fill="#bbc0e6" d="m550.38 459.51.17 10.19-101.46 58.58v-10.29l101.29-58.48z"/><path fill="#ffaf6d" d="m468.02 406.4-104.79 60.5 85.69 49.47 104.79-60.5-85.69-49.47z"/><path fill="#fb944b" d="m363.23 482.35 85.69 49.47v-1.72l-84.19-48.61v-12.01l84.19 48.61v-1.72l-85.69-49.47v15.45z"/><path fill="#c85a2b" d="m448.92 516.37 104.79-60.5v1.72l-104.79 60.5v-1.72zM448.92 530.1l104.79-60.5v1.72l-104.79 60.5v-1.72z"/><path fill="#fb944b" d="m456.82 426.51-58.76 33.92 62.06 35.83 58.75-33.93-62.05-35.82z"/><path fill="#e57139" d="m364.73 481.49 1.66-.96v-10.09l-1.66-.96v12.01z"/><path style="mix-blend-mode:multiply" fill="#ced3f8" d="M449.09 528.28h2.98l101.64-58.68-3.16-1.82v1.92l-101.46 58.58z"/><path fill="url(#ai)" d="M481.01 524.73h.01-.01z"/><path fill="#fff" d="m452.1 456.04-2.89-1.67-2.88 1.67 2.88 1.66 2.89-1.66zM458.47 459.72l-2.89-1.67-2.88 1.67 2.88 1.66 2.89-1.66zM464.84 463.39l-2.89-1.66-2.88 1.66 2.88 1.67 2.89-1.67zM471.21 467.07l-2.88-1.66-2.89 1.66 2.89 1.67 2.88-1.67z"/></g></svg>