<svg xmlns="http://www.w3.org/2000/svg" enable-background="new 0 0 600 600" viewBox="0 0 600 600"><path fill="#fff" d="m499.105 340.231-4.758-62.675-28.63 2.19z"/><linearGradient id="a" x1="195.804" x2="282.597" y1="57.503" y2="228.535" gradientUnits="userSpaceOnUse"><stop offset="0" stop-color="#cedcf9" stop-opacity="0"/><stop offset="1" stop-color="#c3d2ff"/></linearGradient><path fill="url(#a)" d="M501.901 407.702H98.161c-50.32 0-73.4-56.98-34.87-86.29.32-.25.65-.49.97-.74 8.78-6.59 14.52-16.22 14.52-30.3 3.42-18.46-15.46-23.39-20.51-55.4-8.89-56.26 21.35-93.23 55.16-112.04 112.71-62.73 326.62-62.73 418.71-2.02 17.73 11.69 27.11 44.75 19.94 60.34-44.14 96.07-20.22 122.02-1.73 155.91 17.74 32.48-8.44 70.54-48.45 70.54z"/><linearGradient id="b" x1="305.446" x2="288.666" y1="518.775" y2="383.138" gradientUnits="userSpaceOnUse"><stop offset="0" stop-color="#cedcf9" stop-opacity="0"/><stop offset="1" stop-color="#c3d2ff"/></linearGradient><path fill="url(#b)" d="M555.914 458.654v1.32c-.16 27.65-40.2 41.42-180.92 40.75-12.54-.05-25.46-.23-38.59-.52-9.76-.21-19.35 2.13-28.06 6.53-21.04 10.62-69.88 17.9-126.74 17.63-76.01-.37-137.54-14.1-137.43-30.67.01-1.96.88-3.88 2.54-5.73 7.15-7.94 6.58-18.94-.39-27-1.47-1.7-2.25-3.38-2.24-5.03 0-.48.01-.97.03-1.48.9-26.2 22.86-46.77 49.08-46.75l410.93.21c28.2.01 51.45 22.56 51.79 50.74z"/><path fill="#373a50" d="M381.287 193.334h-4v-1h4v1zm-8 0h-4v-1h4v1zm-8 0h-4v-1h4v1zm-8 0h-4v-1h4v1zm-8 0h-4v-1h4v1zm-8 0h-4v-1h4v1zm-8 0h-4v-1h4v1zm-8 0h-4v-1h4v1zm-8 0h-4v-1h4v1zm-8 0h-4v-1h4v1zm-8 0h-4v-1h4v1zm-8 0h-4v-1h4v1zm-8 0h-2.725c-.465 0-.93-.055-1.38-.163l.233-.972c.374.09.76.135 1.147.135h2.725v1zm-7.647-2.525a7.141 7.141 0 0 1-1.422-3.99l.998-.047a6.148 6.148 0 0 0 1.223 3.434l-.799.603zm-.43-8.013h-1v-4h1v4zm0-8h-1v-4h1v4zm0-8h-1v-4h1v4zm0-8h-1v-4h1v4zm0-8h-1v-4h1v4z"/><path fill="#111228" d="M505.146 452.498h10.068c12.816 0 17.726-10.395 17.726-23.21V153.805c0-12.816-10.394-23.21-23.21-23.21h-10.068c12.816 0 23.21 10.394 23.21 23.21v275.481c0 12.816-4.91 23.21-17.726 23.21z"/><path fill="#373a50" d="M359.463 153.805v275.481c0 12.816 10.384 23.21 23.21 23.21h125.784c12.816 0 17.726-10.394 17.726-23.21V153.805c0-12.816-10.395-23.21-23.21-23.21h-120.3c-12.826 0-23.21 10.394-23.21 23.21z"/><path fill="#fff" d="M502.972 446.455c9.469 0 17.172-7.703 17.172-17.171v-275.48c0-9.469-7.703-17.172-17.172-17.172h-30.82l-.904 2.996c-1.148 3.808-4.734 6.467-8.72 6.467h-39.412c-3.987 0-7.568-2.656-8.708-6.46l-.9-3.003h-30.836c-9.469 0-17.172 7.703-17.172 17.172v275.48c0 9.468 7.703 17.171 17.172 17.171h120.3z"/><path fill="#657bff" d="m103.012 283.289 2.697 2.042 6.305 4.781 13.306-2.773 3.735-.783c-1.404-6.066-12.702-24.435-12.702-24.435l-13.34 21.168z"/><path fill="#5062eb" d="m105.71 285.33 6.304 4.782 13.306-2.773c-.196-.34-.392-.69-.579-1.03-1.472-2.663-2.824-5.411-3.913-8.261-1.004-2.62-1.285-5.624-2.442-8.142-1.608-3.53-3.02.902-3.94 2.484a20.761 20.761 0 0 1-5.36 6.058c-1.522 1.157-3.334 2.28-3.768 4.135-.221.927-.034 1.888.391 2.748z"/><path fill="#ffdad9" d="m120.87 487.339-.294 14.317a.147.147 0 0 1-.147.125l-15.483-.17-.757-7.351-.668-6.424 17.349-.497z"/><path fill="#111228" d="M139.056 516.155c0 .102-.012.215-.012.328a.542.542 0 0 1-.531.509c-3.585.034-23.026.362-32.91.034-2.41-.08-4.163-2.296-3.71-4.66l2.68-11.207 15.98-.702c.034 0 .057 0 .08.023l12.937 8.708c3.235 1.629 5.486 3.721 5.486 6.967z"/><path fill="#ffdad9" d="m71.11 481.347-5.287 13.309a.147.147 0 0 1-.182.065l-14.443-5.58 1.863-7.15 1.624-9.95 16.425 9.306z"/><path fill="#111228" d="M78.058 514.706c-.036.095-.086.197-.126.303a.542.542 0 0 1-.676.291c-3.37-1.223-21.696-7.722-30.84-11.489-2.229-.918-3.095-3.608-1.844-5.663l6.435-9.56 15.214 4.937c.032.012.053.02.066.049l9.071 12.686c2.46 2.658 3.836 5.405 2.7 8.446z"/><path fill="#373a50" d="M118.73 342.746H61.238c1.15 12.31 3.913 62.354 1.487 79.12-2.743 18.963-11.891 59.324-11.891 59.324-1.186 2.457 19.09 9.854 20.276 7.398 0 0 14.19-44.954 18.475-61.49 2.97-11.465 4.318-50.95 4.318-50.95s6.605 42.19 7.918 54.075c1.778 16.079.193 61.036.193 61.036 0 3.237 21.522 3.237 21.522 0 0 0 6.287-44.267 6.168-61.914-.116-17.326-7.675-66.098-10.974-86.6z"/><path fill="#657bff" d="M58.108 348.39c0 1.787 5.224 3.08 12.643 3.88 18.266 1.948 49.864.85 49.864-3.54.128-4.55 1.072-78.016-4.262-86.609-10.508-16.939-48.895-12.08-58.543-1.795-2.382 2.536-3.318 11.656-3.454 23.158-.289 23.78 2.85 57.76 3.752 64.906z"/><path fill="#5062eb" d="M58.108 348.39c0 1.787 5.224 3.08 12.643 3.88-3.582-5.81-4.697-12.957-4.56-19.832.153-7.572 1.676-15.05 2.348-22.596 1.089-12.09.017-24.256-1.064-36.337l-.008 2.62c-2.008.647-4.024 1.293-5.93 2.204-2.68 1.276-5.08 3.054-7.18 5.155-.29 23.78 2.85 57.76 3.751 64.906z"/><path fill="#ffdad9" d="m70.567 291.183-3.243 17.687 34.209 7.401-1.172 13.454s-44.445 4.932-53.664-5.405c-3.517-3.943.383-39.116.383-39.116"/><path fill="#657bff" d="M45.07 290.508c-.248 1.843 26.684 6.67 26.933 4.827 1.672 1.341 2.747-43.044-12.434-36.708-12.61 5.264-14.499 31.88-14.499 31.88z"/><path fill="#111228" d="M88.786 212.223s2.331 12.963 15.255 10.073c12.92-2.88 9.622-17.462 9.622-17.462l-16.268-.695-8.609 8.084z"/><path fill="#111228" d="M69.49 207.537s-4.394 21.101 11.664 36.738c14.893 14.503 14.558-20.393 15.71-19.823l-11.522-15.295-15.851-1.62z"/><path fill="#ffdad9" d="M78.677 251.364s7.507 11.29 15.147 11.716.286-10.211.286-10.211-.834-1.678-1.26-3.996c-.199-1.035-.314-2.205-.23-3.406a.15.15 0 0 1 .012-.072c.06-.871.223-1.757.545-2.626-2.265-1.087-4.24-2.767-5.858-4.5-3.009-3.212-4.776-6.565-4.776-6.565s-.895 13.794-3.866 19.66z"/><path fill="#f4bebe" d="M86.883 240.757c.926 3.393 4.354 6.699 5.967 8.116-.199-1.035-.314-2.205-.23-3.406a.15.15 0 0 1 .012-.072c-2.197-1.214-4.13-2.905-5.749-4.638z"/><path fill="#ffdad9" d="M74.544 224.827c-1.638 4.793 6.927 8.49 6.927 8.49s4.75 9.017 12.047 12.542c3.151 1.521 6.768 2.029 10.69.339 8.948-3.85 7.08-25.945 6.013-34.453a83.24 83.24 0 0 0-.479-3.335l-32.002-1.875 3.65 16.938s-5.209-3.44-6.846 1.354z"/><ellipse cx="95.615" cy="224.573" fill="#111228" rx="1.3" ry="1.812" transform="rotate(-16.213 95.615 224.573)"/><ellipse cx="105.681" cy="223.121" fill="#111228" rx="1.3" ry="1.812" transform="rotate(-16.213 105.681 223.121)"/><path fill="#111228" d="M106.23 220.509c-.332-.089-.634-.22-.93-.29-.294-.065-.584-.097-.837-.03-.25.054-.482.221-.701.426-.194.239-.383.496-.64.733.072-.33.186-.656.339-.972.183-.305.493-.572.885-.672a1.584 1.584 0 0 1 1.09.157c.317.165.573.386.793.648zM96.383 221.658c-.332-.088-.633-.22-.93-.29-.294-.064-.584-.096-.836-.029-.251.054-.482.22-.701.426-.194.238-.384.495-.64.732.071-.33.186-.655.338-.971.184-.306.493-.573.885-.672a1.587 1.587 0 0 1 1.09.156c.318.165.573.387.794.648zM100.794 222.9c.259.947.463 1.903.66 2.86.214.955.313 1.938.683 2.783.18.429.43.788.777 1.112.326.334.765.693.916 1.25.144.547-.006 1.093-.261 1.53-.274.434-.63.781-1 1.1.59-.743 1.201-1.665.894-2.513-.153-.393-.504-.694-.876-1.024a3.57 3.57 0 0 1-.908-1.256c-.401-.963-.477-1.958-.604-2.92a45.633 45.633 0 0 1-.28-2.922z"/><path fill="#fff" d="M98.945 237.958c.003.03-.001.06.003.09a3.492 3.492 0 1 0 6.913-.997c-.004-.03-.016-.057-.021-.086-2.206 1.044-4.503 1.387-6.895.993z"/><path fill="#111228" d="M74.544 224.827c1.637-4.795 6.847-1.354 6.847-1.354l1.768 1.755 2.55-8.191s16.524 1 25.72-2.114c3.324-1.113 4.538-5.95 4.976-8.374 1.646-9.113-13.509-11.89-13.509-11.89 1.299 3.223-1.657 4.852-1.657 4.852-5.459-7.13-12.283-6.671-12.283-6.671s2.276 5.577-1.16 7.498c-3.447 1.918-11.69-3.02-18.655 2.039-9.635 6.998 5.403 22.45 5.403 22.45z"/><path fill="#ffdad9" d="M101.531 316.272s2.9-5.93 6.49-4.24c3.6 1.69-2.47 5.87-2.47 5.87"/><linearGradient id="c" x1="143.977" x2="144.116" y1="269.901" y2="272.694" gradientUnits="userSpaceOnUse"><stop offset="0" stop-color="#fadf68"/><stop offset="1" stop-color="#eac250"/></linearGradient><path fill="url(#c)" d="M187.92 298.87v-17a2.644 2.644 0 0 0-3.043-2.614l-40.085 6.123a2.644 2.644 0 0 1-2.993-2.104l-.381-1.941a2.644 2.644 0 0 0-3.052-2.095l-34.647 6.083a2.644 2.644 0 0 0-2.162 2.958l8.458 62.764 77.906-52.174z"/><path fill="#fff" d="m110.024 338.44-3.458-45.657 89.468-11.612.66 42.754z"/><path fill="#ebf2ff" d="M144.727 316.271s.37-36.552 8.156-53.179l37.609 2.64s-10.69 38.663-7.786 48.56l-37.98 1.98z"/><linearGradient id="d" x1="155.924" x2="177.849" y1="323.009" y2="355.268" gradientUnits="userSpaceOnUse"><stop offset="0" stop-color="#fadf68"/><stop offset="1" stop-color="#eac250"/></linearGradient><path fill="url(#d)" d="m110.038 311.806-.023 42.799a3.319 3.319 0 0 0 3.804 3.284l81.201-12.007a3.319 3.319 0 0 0 2.83-3.134l2.397-53.519a3.319 3.319 0 0 0-3.759-3.437l-38.677 5.215c-.91.123-1.73.618-2.262 1.367l-7.315 10.295a3.319 3.319 0 0 1-2.259 1.367l-33.064 4.484a3.319 3.319 0 0 0-2.873 3.286z"/><path fill="#ffdad9" d="M125.321 330.312c-7.79 11.19-24.96-.59-24.96-.59l1.17-13.45 4.02 1.63s27.56 1.21 19.77 12.41zM200.058 325.387a7.445 7.445 0 1 1 0-14.89c4.113 0 4.113 14.89 0 14.89z"/><path fill="#ebf2ff" d="m256.591 231.214-26.625 17.671a73.47 73.47 0 0 0-7.267-4.383c-23.094-12.122-36.872-1.403-40.624 2.239 7.756-8.308 16.395-13.4 24.954-16.363 24.797-8.639 48.916.504 49.562.836z"/><path fill="#7a8aee" d="M222.699 244.502s-7.882 2.538-10.042 8.844l-31.622-5.501.015-.032c.032-.016.048-.047.063-.063.095-.11.237-.268.458-.489a2.46 2.46 0 0 1 .283-.3 1.45 1.45 0 0 1 .22-.22c3.753-3.642 17.53-14.361 40.625-2.239z"/><path fill="#ebf2ff" d="M322.381 227.634s-25.766 18.753-42.074 5.94l-32.373 19.772c22.473 15.575 46.32-1.336 74.447-25.712z"/><path fill="#7a8aee" d="m322.381 227.634-32.145 16.604s2.061 5.548-7.359 11.302c13.973-6.918 27.07-16.428 39.504-27.906z"/><path fill="#ebf2ff" d="m425.173 201.955-42.816 16.537s-7.85-9.821-21.202-11.965c-3.39-.568-7.126-.615-11.177.11l-.347.063c-.583.11-1.167.237-1.765.378 0 0 31.197-14.092 44.612-15.638 22.1-2.569 32.695 10.515 32.695 10.515z"/><path fill="#7a8aee" d="m361.155 206.527-1.987 2.822-34.397 11.286c10.12-8.764 23.095-13.557 23.095-13.557l1.765-.378.347-.063c4.051-.725 7.787-.678 11.177-.11z"/><linearGradient id="e" x1="386.791" x2="501.221" y1="307.182" y2="307.182" gradientUnits="userSpaceOnUse"><stop offset="0" stop-color="#fadf68"/><stop offset="1" stop-color="#eac250"/></linearGradient><path fill="url(#e)" d="m501.221 271.842-.24 79.69-104.68-31.01-9.51-54.31 58.37-3.38 1.32 7.88z"/><path fill="#cedcf9" d="M480.566 297.589s-9.567-40.947-16.53-51.354l-50.733 7.915s17.822 37.778 20.96 57.855l46.229-13.944"/><path fill="#ebf2ff" d="M446.935 286.319s-9.568-40.947-16.531-51.354l-50.732 7.915c1.071.317 17.471 29.841 20.959 57.855l46.23-13.944"/><path fill="#cedcf9" d="m391.3 252.152-.247-.97c8.995-2.285 28.066-5.115 39.175-5.336l.02 1c-10.864.216-30.19 3.08-38.949 5.306zM392.754 256.894l-.247-.97c8.995-2.285 28.067-5.115 39.176-5.336l.02 1c-10.863.216-30.19 3.08-38.95 5.306zM394.209 261.636l-.246-.97c8.994-2.286 28.065-5.115 39.174-5.336l.02 1c-10.863.216-30.19 3.08-38.948 5.306zM395.664 266.377l-.246-.969c8.993-2.286 28.064-5.115 39.174-5.337l.02 1c-10.864.217-30.19 3.08-38.948 5.306zM397.118 271.119l-.246-.97c8.994-2.285 28.065-5.115 39.175-5.336l.02 1c-10.864.216-30.19 3.08-38.95 5.306zM398.573 275.86l-.246-.969c8.993-2.286 28.064-5.115 39.175-5.336l.02 1c-10.865.216-30.191 3.08-38.95 5.306zM400.027 280.602l-.246-.969c8.994-2.286 28.065-5.115 39.175-5.337l.02 1c-10.864.217-30.19 3.08-38.949 5.306zM401.482 285.344l-.246-.97c8.994-2.285 28.065-5.114 39.175-5.336l.02 1c-10.864.216-30.19 3.08-38.949 5.306z"/><linearGradient id="f" x1="445.105" x2="450.393" y1="323.362" y2="346.186" gradientUnits="userSpaceOnUse"><stop offset="0" stop-color="#fadf68"/><stop offset="1" stop-color="#eac250"/></linearGradient><path fill="url(#f)" d="m488.306 275.024-45.888-.792-15.099 10.67-41.215 2.143 11.078 64.28 103.794.207z"/><path fill="#3a4ac3" d="M338.194 138.881c0 15.194-12.304 27.498-27.477 27.498h-90.994c-12.72 0-23.03-10.33-23.03-23.05s10.31-23.03 23.03-23.03h.041c.624-12.137 10.683-21.823 23.009-21.823 2.265 0 4.468.333 6.547.956 6.256-10.475 17.708-17.5 30.823-17.5 17.77 0 32.528 12.927 35.375 29.909 12.887 2.265 22.676 13.51 22.676 27.04z"/><path fill="#909eff" d="M332.781 138.881c0 15.194-12.304 27.498-27.477 27.498H214.31c-12.72 0-23.03-10.33-23.03-23.05s10.31-23.03 23.03-23.03h.041c.624-12.137 10.684-21.823 23.009-21.823 2.265 0 4.468.333 6.547.956 6.256-10.475 17.708-17.5 30.823-17.5 17.77 0 32.528 12.927 35.375 29.909 12.887 2.265 22.676 13.51 22.676 27.04z"/><linearGradient id="g" x1="386.791" x2="501.221" y1="383.53" y2="383.53" gradientUnits="userSpaceOnUse"><stop offset="0" stop-color="#3dcfa4"/><stop offset="1" stop-color="#30bb93"/></linearGradient><path fill="url(#g)" d="M497.577 398.487H390.436a3.644 3.644 0 0 1-3.645-3.645v-22.625a3.644 3.644 0 0 1 3.645-3.644h107.141a3.644 3.644 0 0 1 3.644 3.644v22.625a3.644 3.644 0 0 1-3.644 3.645z"/><linearGradient id="h" x1="514.039" x2="448.907" y1="380.586" y2="383.892" gradientUnits="userSpaceOnUse"><stop offset="0" stop-color="#cedcf9" stop-opacity="0"/><stop offset="1" stop-color="#fff"/></linearGradient><path fill="url(#h)" d="M457.558 374.312h8.11v17.87h-8.11z"/><linearGradient id="i" x1="514.071" x2="448.939" y1="381.212" y2="384.518" gradientUnits="userSpaceOnUse"><stop offset="0" stop-color="#cedcf9" stop-opacity="0"/><stop offset="1" stop-color="#fff"/></linearGradient><path fill="url(#i)" d="M469.923 374.312h8.11v17.87h-8.11z"/><linearGradient id="j" x1="514.103" x2="448.971" y1="381.838" y2="385.144" gradientUnits="userSpaceOnUse"><stop offset="0" stop-color="#cedcf9" stop-opacity="0"/><stop offset="1" stop-color="#fff"/></linearGradient><path fill="url(#j)" d="M482.289 374.312h8.11v17.87h-8.11z"/><linearGradient id="k" x1="513.881" x2="448.748" y1="377.457" y2="380.762" gradientUnits="userSpaceOnUse"><stop offset="0" stop-color="#cedcf9" stop-opacity="0"/><stop offset="1" stop-color="#fff"/></linearGradient><path fill="url(#k)" d="M395.731 374.312h8.11v17.87h-8.11z"/><linearGradient id="l" x1="513.912" x2="448.78" y1="378.082" y2="381.388" gradientUnits="userSpaceOnUse"><stop offset="0" stop-color="#cedcf9" stop-opacity="0"/><stop offset="1" stop-color="#fff"/></linearGradient><path fill="url(#l)" d="M408.097 374.312h8.11v17.87h-8.11z"/><linearGradient id="m" x1="513.944" x2="448.812" y1="378.708" y2="382.014" gradientUnits="userSpaceOnUse"><stop offset="0" stop-color="#cedcf9" stop-opacity="0"/><stop offset="1" stop-color="#fff"/></linearGradient><path fill="url(#m)" d="M420.462 374.312h8.11v17.87h-8.11z"/><linearGradient id="n" x1="513.976" x2="448.844" y1="379.334" y2="382.64" gradientUnits="userSpaceOnUse"><stop offset="0" stop-color="#cedcf9" stop-opacity="0"/><stop offset="1" stop-color="#fff"/></linearGradient><path fill="url(#n)" d="M432.827 374.312h8.11v17.87h-8.11z"/><linearGradient id="o" x1="514.008" x2="448.875" y1="379.96" y2="383.266" gradientUnits="userSpaceOnUse"><stop offset="0" stop-color="#cedcf9" stop-opacity="0"/><stop offset="1" stop-color="#fff"/></linearGradient><path fill="url(#o)" d="M445.193 374.312h8.11v17.87h-8.11z"/><path fill="#fff" d="m287.85 134.768-8.83 13.034a.814.814 0 0 1-1.346 0l-8.831-13.034a.806.806 0 0 1 .669-1.262h4.077a.81.81 0 0 0 .809-.808v-16.234a.81.81 0 0 1 .808-.808h6.274a.81.81 0 0 1 .808.808v16.234a.81.81 0 0 0 .816.808h4.077a.808.808 0 0 1 .67 1.262zM264.36 129.673a.812.812 0 0 1-.668 1.268h-4.078a.81.81 0 0 0-.808.809v16.233a.81.81 0 0 1-.809.809h-6.273a.81.81 0 0 1-.809-.809V131.75a.815.815 0 0 0-.815-.809h-4.078c-.648 0-1.031-.732-.669-1.268l8.832-13.035a.814.814 0 0 1 1.345 0l8.83 13.035z"/><linearGradient id="p" x1="1434.017" x2="1411.737" y1="382.802" y2="382.985" gradientTransform="matrix(-1 0 0 1 1777.857 0)" gradientUnits="userSpaceOnUse"><stop offset="0" stop-color="#909eff"/><stop offset="1" stop-color="#6977e3"/></linearGradient><path fill="url(#p)" d="M362.634 312.52h8.577a5.762 5.762 0 0 1 5.761 5.761v129.42a5.762 5.762 0 0 1-5.761 5.763h-8.577V312.519z"/><linearGradient id="q" x1="1411.827" x2="1503.194" y1="382.991" y2="382.991" gradientTransform="matrix(-1 0 0 1 1777.857 0)" gradientUnits="userSpaceOnUse"><stop offset="0" stop-color="#909eff"/><stop offset="1" stop-color="#6977e3"/></linearGradient><path fill="url(#q)" d="M281.435 453.463h77.823a6.772 6.772 0 0 0 6.772-6.772v-127.4a6.772 6.772 0 0 0-6.772-6.771h-77.823a6.772 6.772 0 0 0-6.773 6.772v127.4a6.772 6.772 0 0 0 6.773 6.771z"/><path fill="#fff" d="M281.764 326.786v16.578c0 1.405 1.125 2.548 2.508 2.548h72.148c1.383 0 2.508-1.143 2.508-2.548v-16.578c0-1.405-1.125-2.548-2.508-2.548h-72.148c-1.383 0-2.508 1.143-2.508 2.548z"/><path fill="#373a50" d="M345.791 329.887h4.235v10.376h-4.235zM337.363 329.887h4.235v10.376h-4.235z"/><path fill="#3dcfa4" d="M307.425 331.703h6.984v6.744h-6.984z"/><path fill="#fadf68" d="M296.886 331.703h6.984v6.744h-6.984z"/><path fill="#ff4129" d="M286.348 331.703h6.984v6.744h-6.984z"/><path fill="#fff" d="M281.764 358.73v16.579c0 1.404 1.125 2.547 2.508 2.547h72.148c1.383 0 2.508-1.143 2.508-2.547V358.73c0-1.405-1.125-2.548-2.508-2.548h-72.148c-1.383 0-2.508 1.143-2.508 2.548z"/><path fill="#373a50" d="M345.791 361.831h4.235v10.376h-4.235zM337.363 361.831h4.235v10.376h-4.235z"/><path fill="#3dcfa4" d="M307.425 363.647h6.984v6.744h-6.984z"/><path fill="#fadf68" d="M296.886 363.647h6.984v6.744h-6.984z"/><path fill="#ff4129" d="M286.348 363.647h6.984v6.744h-6.984z"/><path fill="#fff" d="M281.764 390.674v16.579c0 1.405 1.125 2.548 2.508 2.548h72.148c1.383 0 2.508-1.143 2.508-2.548v-16.579c0-1.404-1.125-2.547-2.508-2.547h-72.148c-1.383 0-2.508 1.143-2.508 2.547z"/><path fill="#373a50" d="M345.791 393.776h4.235v10.376h-4.235zM337.363 393.776h4.235v10.376h-4.235z"/><path fill="#3dcfa4" d="M307.425 395.592h6.984v6.744h-6.984z"/><path fill="#fadf68" d="M296.886 395.592h6.984v6.744h-6.984z"/><path fill="#ff4129" d="M286.348 395.592h6.984v6.744h-6.984z"/><path fill="#fff" d="M281.764 422.619v16.578c0 1.405 1.125 2.548 2.508 2.548h72.148c1.383 0 2.508-1.143 2.508-2.548V422.62c0-1.405-1.125-2.548-2.508-2.548h-72.148c-1.383 0-2.508 1.143-2.508 2.548z"/><path fill="#373a50" d="M345.791 425.72h4.235v10.376h-4.235zM337.363 425.72h4.235v10.376h-4.235z"/><path fill="#3dcfa4" d="M307.425 427.536h6.984v6.744h-6.984z"/><path fill="#fadf68" d="M296.886 427.536h6.984v6.744h-6.984z"/><path fill="#ff4129" d="M286.348 427.536h6.984v6.744h-6.984z"/></svg>