<svg xmlns="http://www.w3.org/2000/svg" enable-background="new 0 0 3000 2657.7" viewBox="0 0 3000 2657.7"><rect width="2903.7" height="2561.9" x="48.1" y="47.9" fill="none"/><g opacity=".17"><ellipse cx="1666.4" cy="1865.5" fill="#151519" opacity="0" rx="391.5" ry="172.2"/><ellipse cx="1666.4" cy="1865.5" fill="#151519" opacity=".037" rx="382.3" ry="168.2"/><ellipse cx="1666.4" cy="1865.5" fill="#151519" opacity=".074" rx="373.2" ry="164.2"/><ellipse cx="1666.4" cy="1865.5" fill="#151519" opacity=".111" rx="364" ry="160.2"/><ellipse cx="1666.4" cy="1865.5" fill="#151519" opacity=".148" rx="354.9" ry="156.1"/><ellipse cx="1666.4" cy="1865.5" fill="#151519" opacity=".185" rx="345.7" ry="152.1"/><ellipse cx="1666.4" cy="1865.5" fill="#151519" opacity=".222" rx="336.6" ry="148.1"/><ellipse cx="1666.4" cy="1865.5" fill="#151519" opacity=".259" rx="327.4" ry="144.1"/><ellipse cx="1666.4" cy="1865.5" fill="#151519" opacity=".296" rx="318.3" ry="140"/><ellipse cx="1666.4" cy="1865.5" fill="#151519" opacity=".333" rx="309.1" ry="136"/><ellipse cx="1666.4" cy="1865.5" fill="#151519" opacity=".37" rx="300" ry="132"/><ellipse cx="1666.4" cy="1865.5" fill="#151519" opacity=".407" rx="290.8" ry="127.9"/><ellipse cx="1666.4" cy="1865.5" fill="#151519" opacity=".444" rx="281.7" ry="123.9"/><ellipse cx="1666.4" cy="1865.5" fill="#151519" opacity=".481" rx="272.5" ry="119.9"/><ellipse cx="1666.4" cy="1865.5" fill="#151519" opacity=".518" rx="263.3" ry="115.9"/><ellipse cx="1666.4" cy="1865.5" fill="#151519" opacity=".556" rx="254.2" ry="111.8"/><ellipse cx="1666.4" cy="1865.5" fill="#151519" opacity=".593" rx="245" ry="107.8"/><ellipse cx="1666.4" cy="1865.5" fill="#151519" opacity=".63" rx="235.9" ry="103.8"/><ellipse cx="1666.4" cy="1865.5" fill="#151519" opacity=".667" rx="226.7" ry="99.8"/><ellipse cx="1666.4" cy="1865.5" fill="#151519" opacity=".704" rx="217.6" ry="95.7"/><ellipse cx="1666.4" cy="1865.5" fill="#151519" opacity=".741" rx="208.4" ry="91.7"/><ellipse cx="1666.4" cy="1865.5" fill="#151519" opacity=".778" rx="199.3" ry="87.7"/><ellipse cx="1666.4" cy="1865.5" fill="#151519" opacity=".815" rx="190.1" ry="83.6"/><ellipse cx="1666.4" cy="1865.5" fill="#151519" opacity=".852" rx="181" ry="79.6"/><ellipse cx="1666.4" cy="1865.5" fill="#151519" opacity=".889" rx="171.8" ry="75.6"/><ellipse cx="1666.4" cy="1865.5" fill="#151519" opacity=".926" rx="162.7" ry="71.6"/><ellipse cx="1666.4" cy="1865.5" fill="#151519" opacity=".963" rx="153.5" ry="67.5"/><ellipse cx="1666.4" cy="1865.5" fill="#151519" rx="144.4" ry="63.5"/></g><g opacity=".17"><ellipse cx="1250.2" cy="2252.6" fill="#151519" opacity="0" rx="391.5" ry="172.2"/><ellipse cx="1250.2" cy="2252.6" fill="#151519" opacity=".037" rx="382.3" ry="168.2"/><ellipse cx="1250.2" cy="2252.6" fill="#151519" opacity=".074" rx="373.2" ry="164.2"/><ellipse cx="1250.2" cy="2252.6" fill="#151519" opacity=".111" rx="364" ry="160.2"/><ellipse cx="1250.2" cy="2252.6" fill="#151519" opacity=".148" rx="354.9" ry="156.1"/><ellipse cx="1250.2" cy="2252.6" fill="#151519" opacity=".185" rx="345.7" ry="152.1"/><ellipse cx="1250.2" cy="2252.6" fill="#151519" opacity=".222" rx="336.6" ry="148.1"/><ellipse cx="1250.2" cy="2252.6" fill="#151519" opacity=".259" rx="327.4" ry="144.1"/><ellipse cx="1250.2" cy="2252.6" fill="#151519" opacity=".296" rx="318.3" ry="140"/><ellipse cx="1250.2" cy="2252.6" fill="#151519" opacity=".333" rx="309.1" ry="136"/><ellipse cx="1250.2" cy="2252.6" fill="#151519" opacity=".37" rx="300" ry="132"/><ellipse cx="1250.2" cy="2252.6" fill="#151519" opacity=".407" rx="290.8" ry="127.9"/><ellipse cx="1250.2" cy="2252.6" fill="#151519" opacity=".444" rx="281.7" ry="123.9"/><ellipse cx="1250.2" cy="2252.6" fill="#151519" opacity=".481" rx="272.5" ry="119.9"/><ellipse cx="1250.2" cy="2252.6" fill="#151519" opacity=".518" rx="263.3" ry="115.9"/><ellipse cx="1250.2" cy="2252.6" fill="#151519" opacity=".556" rx="254.2" ry="111.8"/><ellipse cx="1250.2" cy="2252.6" fill="#151519" opacity=".593" rx="245" ry="107.8"/><ellipse cx="1250.2" cy="2252.6" fill="#151519" opacity=".63" rx="235.9" ry="103.8"/><ellipse cx="1250.2" cy="2252.6" fill="#151519" opacity=".667" rx="226.7" ry="99.8"/><ellipse cx="1250.2" cy="2252.6" fill="#151519" opacity=".704" rx="217.6" ry="95.7"/><ellipse cx="1250.2" cy="2252.6" fill="#151519" opacity=".741" rx="208.4" ry="91.7"/><ellipse cx="1250.2" cy="2252.6" fill="#151519" opacity=".778" rx="199.3" ry="87.7"/><ellipse cx="1250.2" cy="2252.6" fill="#151519" opacity=".815" rx="190.1" ry="83.6"/><ellipse cx="1250.2" cy="2252.6" fill="#151519" opacity=".852" rx="181" ry="79.6"/><ellipse cx="1250.2" cy="2252.6" fill="#151519" opacity=".889" rx="171.8" ry="75.6"/><ellipse cx="1250.2" cy="2252.6" fill="#151519" opacity=".926" rx="162.7" ry="71.6"/><ellipse cx="1250.2" cy="2252.6" fill="#151519" opacity=".963" rx="153.5" ry="67.5"/><ellipse cx="1250.2" cy="2252.6" fill="#151519" rx="144.4" ry="63.5"/></g><g opacity=".17"><ellipse cx="772.1" cy="1642.5" fill="#151519" opacity="0" rx="391.5" ry="172.2"/><ellipse cx="772.1" cy="1642.5" fill="#151519" opacity=".037" rx="382.3" ry="168.2"/><ellipse cx="772.1" cy="1642.5" fill="#151519" opacity=".074" rx="373.2" ry="164.2"/><ellipse cx="772.1" cy="1642.5" fill="#151519" opacity=".111" rx="364" ry="160.2"/><ellipse cx="772.1" cy="1642.5" fill="#151519" opacity=".148" rx="354.9" ry="156.1"/><ellipse cx="772.1" cy="1642.5" fill="#151519" opacity=".185" rx="345.7" ry="152.1"/><ellipse cx="772.1" cy="1642.5" fill="#151519" opacity=".222" rx="336.6" ry="148.1"/><ellipse cx="772.1" cy="1642.5" fill="#151519" opacity=".259" rx="327.4" ry="144.1"/><ellipse cx="772.1" cy="1642.5" fill="#151519" opacity=".296" rx="318.3" ry="140"/><ellipse cx="772.1" cy="1642.5" fill="#151519" opacity=".333" rx="309.1" ry="136"/><ellipse cx="772.1" cy="1642.5" fill="#151519" opacity=".37" rx="300" ry="132"/><ellipse cx="772.1" cy="1642.5" fill="#151519" opacity=".407" rx="290.8" ry="127.9"/><ellipse cx="772.1" cy="1642.5" fill="#151519" opacity=".444" rx="281.7" ry="123.9"/><ellipse cx="772.1" cy="1642.5" fill="#151519" opacity=".481" rx="272.5" ry="119.9"/><ellipse cx="772.1" cy="1642.5" fill="#151519" opacity=".518" rx="263.3" ry="115.9"/><ellipse cx="772.1" cy="1642.5" fill="#151519" opacity=".556" rx="254.2" ry="111.8"/><ellipse cx="772.1" cy="1642.5" fill="#151519" opacity=".593" rx="245" ry="107.8"/><ellipse cx="772.1" cy="1642.5" fill="#151519" opacity=".63" rx="235.9" ry="103.8"/><ellipse cx="772.1" cy="1642.5" fill="#151519" opacity=".667" rx="226.7" ry="99.8"/><ellipse cx="772.1" cy="1642.5" fill="#151519" opacity=".704" rx="217.6" ry="95.7"/><ellipse cx="772.1" cy="1642.5" fill="#151519" opacity=".741" rx="208.4" ry="91.7"/><ellipse cx="772.1" cy="1642.5" fill="#151519" opacity=".778" rx="199.3" ry="87.7"/><ellipse cx="772.1" cy="1642.5" fill="#151519" opacity=".815" rx="190.1" ry="83.6"/><ellipse cx="772.1" cy="1642.5" fill="#151519" opacity=".852" rx="181" ry="79.6"/><ellipse cx="772.1" cy="1642.5" fill="#151519" opacity=".889" rx="171.8" ry="75.6"/><ellipse cx="772.1" cy="1642.5" fill="#151519" opacity=".926" rx="162.7" ry="71.6"/><ellipse cx="772.1" cy="1642.5" fill="#151519" opacity=".963" rx="153.5" ry="67.5"/><ellipse cx="772.1" cy="1642.5" fill="#151519" rx="144.4" ry="63.5"/></g><g opacity=".17"><ellipse cx="2285.2" cy="2174.3" fill="#151519" opacity="0" rx="253.6" ry="111.6"/><ellipse cx="2285.2" cy="2174.3" fill="#151519" opacity=".037" rx="247.7" ry="109"/><ellipse cx="2285.2" cy="2174.3" fill="#151519" opacity=".074" rx="241.8" ry="106.4"/><ellipse cx="2285.2" cy="2174.3" fill="#151519" opacity=".111" rx="235.8" ry="103.8"/><ellipse cx="2285.2" cy="2174.3" fill="#151519" opacity=".148" rx="229.9" ry="101.2"/><ellipse cx="2285.2" cy="2174.3" fill="#151519" opacity=".185" rx="224" ry="98.5"/><ellipse cx="2285.2" cy="2174.3" fill="#151519" opacity=".222" rx="218.1" ry="95.9"/><ellipse cx="2285.2" cy="2174.3" fill="#151519" opacity=".259" rx="212.1" ry="93.3"/><ellipse cx="2285.2" cy="2174.3" fill="#151519" opacity=".296" rx="206.2" ry="90.7"/><ellipse cx="2285.2" cy="2174.3" fill="#151519" opacity=".333" rx="200.3" ry="88.1"/><ellipse cx="2285.2" cy="2174.3" fill="#151519" opacity=".37" rx="194.3" ry="85.5"/><ellipse cx="2285.2" cy="2174.3" fill="#151519" opacity=".407" rx="188.4" ry="82.9"/><ellipse cx="2285.2" cy="2174.3" fill="#151519" opacity=".444" rx="182.5" ry="80.3"/><ellipse cx="2285.2" cy="2174.3" fill="#151519" opacity=".481" rx="176.5" ry="77.7"/><ellipse cx="2285.2" cy="2174.3" fill="#151519" opacity=".518" rx="170.6" ry="75.1"/><ellipse cx="2285.2" cy="2174.3" fill="#151519" opacity=".556" rx="164.7" ry="72.5"/><ellipse cx="2285.2" cy="2174.3" fill="#151519" opacity=".593" rx="158.8" ry="69.8"/><ellipse cx="2285.2" cy="2174.3" fill="#151519" opacity=".63" rx="152.8" ry="67.2"/><ellipse cx="2285.2" cy="2174.3" fill="#151519" opacity=".667" rx="146.9" ry="64.6"/><ellipse cx="2285.2" cy="2174.3" fill="#151519" opacity=".704" rx="141" ry="62"/><ellipse cx="2285.2" cy="2174.3" fill="#151519" opacity=".741" rx="135" ry="59.4"/><ellipse cx="2285.2" cy="2174.3" fill="#151519" opacity=".778" rx="129.1" ry="56.8"/><ellipse cx="2285.2" cy="2174.3" fill="#151519" opacity=".815" rx="123.2" ry="54.2"/><ellipse cx="2285.2" cy="2174.3" fill="#151519" opacity=".852" rx="117.2" ry="51.6"/><ellipse cx="2285.2" cy="2174.3" fill="#151519" opacity=".889" rx="111.3" ry="49"/><ellipse cx="2285.2" cy="2174.3" fill="#151519" opacity=".926" rx="105.4" ry="46.4"/><ellipse cx="2285.2" cy="2174.3" fill="#151519" opacity=".963" rx="99.5" ry="43.8"/><ellipse cx="2285.2" cy="2174.3" fill="#151519" rx="93.5" ry="41.1"/></g><path fill="#41afd6" d="M2110.3,1942.4c-3.7,1.8-7.6,3.2-11.7,3.9L2110.3,1942.4z"/><linearGradient id="a" x1="1874.797" x2="1874.797" y1="694.418" y2="1824.302" gradientUnits="userSpaceOnUse"><stop offset="0" stop-color="#dcdfdf"/><stop offset="1" stop-color="#f4f6f7"/></linearGradient><path fill="url(#a)" d="M2239.6,699V1975c0,23-14.2,41-32.9,48.6l0.1,3.9l-51.6,17.3c17-8.3,29.6-25.6,29.6-47.2V721.7    c0-21.2-5.4-41.6-15.4-59.6c-10.5-19.6-26.5-36.3-46.5-47.8l-570.7-330.4c-13.9-8-29.2-8.2-42.1-3l47.5-18.8    c14.2-8.8,32.9-10.5,49.5-0.8l570.7,330.4c18.1,10.4,32.8,25,43.3,42.2C2233,653.1,2239.6,675.6,2239.6,699z"/><path fill="#9ba0b6" d="M2184.7,721.7v1275.9c0,21.6-12.5,38.9-29.6,47.2l-12.8,4.3c-11.8,2.4-24.5,0.8-36.3-6.1l-568.9-329.4    c-35.4-20.5-57.2-58.4-57.2-99.3V325.5c0-21,13-37.6,30-44.6c0.1,0,0.1,0,0.1,0c13-5.2,28.3-5,42.1,3l570.7,330.4    C2161.2,636.4,2184.7,677.4,2184.7,721.7z"/><linearGradient id="b" x1="1497.727" x2="2468.566" y1="206.925" y2="849.733" gradientUnits="userSpaceOnUse"><stop offset="0" stop-color="#dcdfdf"/><stop offset="1" stop-color="#f8fafb"/></linearGradient><path fill="url(#b)" d="M2221,633.8l-51.6,28.3c-10.5-19.6-26.5-36.3-46.5-47.8l-570.7-330.4c-13.9-8-29.2-8.2-42.1-3l47.5-18.8    c14.2-8.8,32.9-10.5,49.5-0.8l570.7,330.4C2195.8,602,2210.5,616.7,2221,633.8z"/><linearGradient id="c" x1="1695.745" x2="1818.2" y1="2061.251" y2="1254.734" gradientUnits="userSpaceOnUse"><stop offset="0" stop-color="#dcdfdf"/><stop offset="1" stop-color="#f8fafb"/></linearGradient><path fill="url(#c)" d="M2105.6,644.1l-154.5-89.4l-44.5,28.3l-190-106.3l-22.3-70.7l-159.5-92.3c-2.2-1.3-4.4-1.9-6.8-1.9    c-5.5,0-13.7,4.3-13.7,13.7v1288.9c0,28.5,15.3,55.1,40,69.4l568.9,329.4c2.9,1.7,5.9,2.5,8.9,2.5c8.7,0,18.1-6.9,18.1-18.1V721.7    C2150.3,689.8,2133.2,660.1,2105.6,644.1z"/><path fill="#d4d6dd" d="M1639.9,545.6l-49.9-28.9c-6.9-4-12.5-13.2-12.5-20.5v0c0-7.3,5.6-10,12.5-6l49.9,28.9      c6.9,4,12.5,13.2,12.5,20.5l0,0C1652.4,546.9,1646.8,549.6,1639.9,545.6z"/><path fill="#d4d6dd" d="M1639.9,1382.8l-49.9-28.9c-6.9-4-12.5-13.2-12.5-20.5l0,0c0-7.3,5.6-10,12.5-6l49.9,28.9      c6.9,4,12.5,13.2,12.5,20.5l0,0C1652.4,1384,1646.8,1386.8,1639.9,1382.8z"/><path fill="#d4d6dd" d="M2070,1631.8l-371.2-214.9c-6.9-4-12.5-13.2-12.5-20.5l0,0c0-7.3,5.6-10,12.5-6l371.2,214.9      c6.9,4,12.5,13.2,12.5,20.5v0C2082.5,1633,2076.8,1635.7,2070,1631.8z"/><path fill="#d4d6dd" d="M1639.9,1471.6l-49.9-28.9c-6.9-4-12.5-13.2-12.5-20.5v0c0-7.3,5.6-10,12.5-6l49.9,28.9      c6.9,4,12.5,13.2,12.5,20.5l0,0C1652.4,1472.9,1646.8,1475.6,1639.9,1471.6z"/><path fill="#d4d6dd" d="M2070,1720.6l-371.2-214.9c-6.9-4-12.5-13.2-12.5-20.5l0,0c0-7.3,5.6-10,12.5-6l371.2,214.9      c6.9,4,12.5,13.2,12.5,20.5l0,0C2082.5,1721.8,2076.8,1724.5,2070,1720.6z"/><path fill="#d4d6dd" d="M1639.9,1560.4l-49.9-28.9c-6.9-4-12.5-13.2-12.5-20.5l0,0c0-7.3,5.6-10,12.5-6l49.9,28.9      c6.9,4,12.5,13.2,12.5,20.5l0,0C1652.4,1561.7,1646.8,1564.4,1639.9,1560.4z"/><path fill="#d4d6dd" d="M2070,1809.4l-371.2-214.9c-6.9-4-12.5-13.2-12.5-20.5v0c0-7.3,5.6-10,12.5-6l371.2,214.9      c6.9,4,12.5,13.2,12.5,20.5l0,0C2082.5,1810.7,2076.8,1813.4,2070,1809.4z"/><path fill="#d4d6dd" d="M1639.9,1649.2l-49.9-28.9c-6.9-4-12.5-13.2-12.5-20.5l0,0c0-7.3,5.6-10,12.5-6l49.9,28.9      c6.9,4,12.5,13.2,12.5,20.5v0C1652.4,1650.5,1646.8,1653.2,1639.9,1649.2z"/><path fill="#d4d6dd" d="M2070,1898.2l-371.2-214.9c-6.9-4-12.5-13.2-12.5-20.5l0,0c0-7.3,5.6-10,12.5-6l371.2,214.9      c6.9,4,12.5,13.2,12.5,20.5l0,0C2082.5,1899.5,2076.8,1902.2,2070,1898.2z"/><path fill="#d4d6dd" d="M1910,702l-216.9-125.6c-6.9-4-12.5-13.2-12.5-20.5l0,0c0-7.3,5.6-10,12.5-6L1910,675.5      c6.9,4,12.5,13.2,12.5,20.5l0,0C1922.5,703.3,1916.9,706,1910,702z"/><path fill="#d4d6dd" d="M1991.5,891.7L1841.7,805c-6.9-4-12.5-13.2-12.5-20.5l0,0c0-7.3,5.6-10,12.5-6l149.8,86.7      c6.9,4,12.5,13.2,12.5,20.5l0,0C2004,893,1998.4,895.7,1991.5,891.7z"/><path fill="#d4d6dd" d="M2095.6,1032.1l-253.9-147c-6.9-4-12.5-13.2-12.5-20.5l0,0c0-7.3,5.6-10,12.5-6l253.9,147      c6.9,4,12.5,13.2,12.5,20.5l0,0C2108.1,1033.4,2102.5,1036.1,2095.6,1032.1z"/><path fill="#d4d6dd" d="M2095.6,1112.2l-253.9-147c-6.9-4-12.5-13.2-12.5-20.5l0,0c0-7.3,5.6-10,12.5-6l253.9,147      c6.9,4,12.5,13.2,12.5,20.5v0C2108.1,1113.5,2102.5,1116.2,2095.6,1112.2z"/><path fill="#d4d6dd" d="M2095.6,1192.3l-253.9-147c-6.9-4-12.5-13.2-12.5-20.5v0c0-7.3,5.6-10,12.5-6l253.9,147      c6.9,4,12.5,13.2,12.5,20.5l0,0C2108.1,1193.6,2102.5,1196.3,2095.6,1192.3z"/><defs><filter id="d" width="530.6" height="410.9" x="1577.5" y="1114" filterUnits="userSpaceOnUse"><feFlood flood-color="#fff" flood-opacity="1" result="back"/><feBlend in="SourceGraphic" in2="back"/></filter></defs><mask id="f" width="530.6" height="410.9" x="1577.5" y="1114" maskUnits="userSpaceOnUse"><g filter="url(#d)"><linearGradient id="e" x1="1819.361" x2="1939.312" y1="1364.433" y2="1159.356" gradientUnits="userSpaceOnUse"><stop offset="0" stop-color="#333"/><stop offset="1" stop-color="#fff"/></linearGradient><path fill="url(#e)" d="M1577.5,1123.9c0,0,49.1,34.5,134.6,0s123.4,24.7,162.8,126.5s95.7,97,129.2,37.8        c33.5-59.2,104.1-23,104.1-23v259.7l-530.6-299.1V1123.9z" mask="url(#f)"/></g></mask><linearGradient id="g" x1="1819.361" x2="1939.312" y1="1364.433" y2="1159.356" gradientUnits="userSpaceOnUse"><stop offset="0" stop-color="#3e9fff"/><stop offset="1" stop-color="#02699b"/></linearGradient><path fill="url(#g)" d="M1577.5,1123.9c0,0,49.1,34.5,134.6,0s123.4,24.7,162.8,126.5s95.7,97,129.2,37.8      c33.5-59.2,104.1-23,104.1-23v259.7l-530.6-299.1V1123.9z"/><defs><filter id="h" width="530.6" height="386.9" x="1577.5" y="1138" filterUnits="userSpaceOnUse"><feFlood flood-color="#fff" flood-opacity="1" result="back"/><feBlend in="SourceGraphic" in2="back"/></filter></defs><mask id="j" width="530.6" height="386.9" x="1577.5" y="1138" maskUnits="userSpaceOnUse"><g filter="url(#h)"><linearGradient id="i" x1="1831.245" x2="1976.704" y1="1370.787" y2="1122.099" gradientUnits="userSpaceOnUse"><stop offset="0" stop-color="#333"/><stop offset="1" stop-color="#fff"/></linearGradient><path fill="url(#i)" d="M1577.5,1177.2c0,0,116.5-63,208.7,92.9c92.2,155.9,171.7-251.8,228.6-95.9s93.3,151.3,93.3,151.3v199.3        l-530.6-299.1V1177.2z" mask="url(#j)"/></g></mask><linearGradient id="k" x1="1831.245" x2="1976.704" y1="1370.787" y2="1122.099" gradientUnits="userSpaceOnUse"><stop offset="0" stop-color="#fecf66"/><stop offset="1" stop-color="#f7a333"/></linearGradient><path fill="url(#k)" d="M1577.5,1177.2c0,0,116.5-63,208.7,92.9c92.2,155.9,171.7-251.8,228.6-95.9s93.3,151.3,93.3,151.3v199.3      l-530.6-299.1V1177.2z"/><linearGradient id="l" x1="1556.574" x2="1786.191" y1="845.131" y2="845.131" gradientUnits="userSpaceOnUse"><stop offset="0" stop-color="#3e9fff"/><stop offset="1" stop-color="#02699b"/></linearGradient><path fill="url(#l)" d="M1786.2,891.6c0,7.9-0.6,15.5-1.7,22.6c-7.5,46.5-38.6,74.1-79.3,72.1c-10.7-0.5-22-3.1-33.8-7.8      c-13.6-5.5-26.7-13.6-38.8-23.5c-44.3-36.4-76-98.5-76-156.4c0-73.7,51.4-112.5,114.8-86.8c31.7,12.8,60.4,39.4,81.2,71.9      C1773.3,816.3,1786.2,854.8,1786.2,891.6z"/><linearGradient id="m" x1="1671.397" x2="1786.191" y1="848.948" y2="848.948" gradientUnits="userSpaceOnUse"><stop offset="0" stop-color="#ffe037"/><stop offset="1" stop-color="#fd9205"/></linearGradient><path fill="url(#m)" d="M1786.2,891.6c0,7.9-0.6,15.5-1.7,22.6l-113-69.1l81.2-61.4C1773.3,816.3,1786.2,854.8,1786.2,891.6z"/><linearGradient id="n" x1="1671.397" x2="1784.445" y1="915.762" y2="915.762" gradientUnits="userSpaceOnUse"><stop offset="0"/><stop offset="1" stop-color="#646363"/></linearGradient><path fill="url(#n)" d="M1784.4,914.2c-7.5,46.5-38.6,74.1-79.3,72.1l-33.8-141.2L1784.4,914.2z"/><path fill="#fff" d="M1705.2,986.3c-10.7-0.5-22-3.1-33.8-7.8c-13.6-5.5-26.7-13.6-38.8-23.5l38.8-109.9L1705.2,986.3z"/><g><linearGradient id="o" x1="1403.062" x2="1103.107" y1="425.232" y2="787.864" gradientUnits="userSpaceOnUse"><stop offset="0" stop-color="#3e9fff"/><stop offset="1" stop-color="#02699b"/></linearGradient><polygon fill="url(#o)" points="1059 705.3 1463.2 933.8 1463.2 488.4 1059 260"/><linearGradient id="p" x1="1486.205" x2="1486.205" y1="438.065" y2="830.544" gradientUnits="userSpaceOnUse"><stop offset="0" stop-color="#3e9fff"/><stop offset="1" stop-color="#02699b"/></linearGradient><polygon fill="url(#p)" points="1509.2 461.3 1463.2 488.4 1463.2 933.8 1509.2 906.6"/><linearGradient id="q" x1="1058.968" x2="1509.193" y1="360.623" y2="360.623" gradientUnits="userSpaceOnUse"><stop offset="0" stop-color="#3e9fff"/><stop offset="1" stop-color="#02699b"/></linearGradient><polygon fill="url(#q)" points="1059 260 1104.9 232.9 1509.2 461.3 1463.2 488.4"/><polygon fill="#fff" points="1244.9 711.6 1284.3 733.8 1284.3 607.9 1365 653.4 1264.6 479.4 1164.2 540.2 1244.9 585.7"/></g><g><linearGradient id="r" x1="2350.454" x2="2295.092" y1="1416.169" y2="807.182" gradientUnits="userSpaceOnUse"><stop offset="0" stop-color="#dcdfdf"/><stop offset="1" stop-color="#f8fafb"/></linearGradient><polygon fill="url(#r)" points="2088.8 1287.1 2573.4 1564.8 2573.4 1119.4 2088.8 841.8"/><polygon fill="#bfc1c1" points="2619.4 1092.3 2573.4 1119.4 2573.4 1564.8 2619.4 1537.7"/><polygon fill="#f69725" points="2088.8 841.8 2134.8 814.7 2619.4 1092.3 2573.4 1119.4"/><linearGradient id="s" x1="2580.742" x2="2110.468" y1="1286.864" y2="771.081" gradientUnits="userSpaceOnUse"><stop offset="0" stop-color="#ffe037"/><stop offset="1" stop-color="#fd9205"/></linearGradient><polygon fill="url(#s)" points="2088.8 906.7 2573.4 1184.3 2573.4 1119.4 2088.8 841.8"/><polygon fill="#d37816" points="2619.4 1092.3 2573.4 1119.4 2573.4 1184.3 2619.4 1157.2"/><polygon fill="#fbffff" points="2123.4 1250.5 2538.8 1488.6 2538.8 1226.3 2123.4 988.2"/><linearGradient id="t" x1="3022.104" x2="3022.104" y1="113.121" y2="94.67" gradientTransform="matrix(1 .5752 0 1 -615.183 -717.537)" gradientUnits="userSpaceOnUse"><stop offset="0" stop-color="#bebebe"/><stop offset="1" stop-color="#fff"/></linearGradient><path fill="url(#t)" d="M2461.4,1165.5l-109-62.7c-5.3-3-9.6-9.8-9.6-15l0,0c0-5.3,4.3-7.1,9.6-4.1l109,62.7c5.3,3,9.6,9.8,9.6,15     v0C2471,1166.7,2466.7,1168.6,2461.4,1165.5z"/><linearGradient id="u" x1="2931.313" x2="2931.313" y1="188.079" y2="165.481" gradientTransform="matrix(1 .5752 0 1 -615.183 -717.537)" gradientUnits="userSpaceOnUse"><stop offset="0" stop-color="#bebebe"/><stop offset="1" stop-color="#fff"/></linearGradient><path fill="url(#u)" d="M2461.4,1240.6l-290.6-171.4c-5.3-3-9.6-9.8-9.6-15l0,0c0-5.3,4.3-7.1,9.6-4.1l290.6,171.4     c5.3,3,9.6,9.8,9.6,15l0,0C2471,1241.8,2466.7,1243.6,2461.4,1240.6z"/><linearGradient id="v" x1="2931.313" x2="2931.313" y1="233.575" y2="210.977" gradientTransform="matrix(1 .5752 0 1 -615.183 -717.537)" gradientUnits="userSpaceOnUse"><stop offset="0" stop-color="#bebebe"/><stop offset="1" stop-color="#fff"/></linearGradient><path fill="url(#v)" d="M2461.4,1286.1l-290.6-171.4c-5.3-3-9.6-9.8-9.6-15l0,0c0-5.3,4.3-7.1,9.6-4.1l290.6,171.4     c5.3,3,9.6,9.8,9.6,15l0,0C2471,1287.3,2466.7,1289.1,2461.4,1286.1z"/><linearGradient id="w" x1="2931.313" x2="2931.313" y1="279.07" y2="256.472" gradientTransform="matrix(1 .5752 0 1 -615.183 -717.537)" gradientUnits="userSpaceOnUse"><stop offset="0" stop-color="#bebebe"/><stop offset="1" stop-color="#fff"/></linearGradient><path fill="url(#w)" d="M2461.4,1331.6l-290.6-171.4c-5.3-3-9.6-9.8-9.6-15v0c0-5.3,4.3-7.1,9.6-4.1l290.6,171.4     c5.3,3,9.6,9.8,9.6,15l0,0C2471,1332.8,2466.7,1334.6,2461.4,1331.6z"/><linearGradient id="x" x1="2931.313" x2="2931.313" y1="324.565" y2="301.967" gradientTransform="matrix(1 .5752 0 1 -615.183 -717.537)" gradientUnits="userSpaceOnUse"><stop offset="0" stop-color="#bebebe"/><stop offset="1" stop-color="#fff"/></linearGradient><path fill="url(#x)" d="M2461.4,1377.1l-290.6-171.4c-5.3-3-9.6-9.8-9.6-15l0,0c0-5.3,4.3-7.1,9.6-4.1l290.6,171.4     c5.3,3,9.6,9.8,9.6,15v0C2471,1378.3,2466.7,1380.1,2461.4,1377.1z"/></g><g><linearGradient id="y" x1="4598.537" x2="4543.175" y1="1560.397" y2="951.409" gradientTransform="matrix(-1 0 0 1 5336.355 0)" gradientUnits="userSpaceOnUse"><stop offset="0" stop-color="#dcdfdf"/><stop offset="1" stop-color="#f8fafb"/></linearGradient><polygon fill="url(#y)" points="999.4 1431.4 514.9 1709 514.9 1263.7 999.4 986"/><polygon fill="#bfc1c1" points="468.9 1236.5 514.9 1263.7 514.9 1709 468.9 1681.9"/><polygon fill="#f69725" points="999.4 986 953.5 958.9 468.9 1236.5 514.9 1263.7"/><linearGradient id="z" x1="4828.825" x2="4358.551" y1="1431.092" y2="915.309" gradientTransform="matrix(-1 0 0 1 5336.355 0)" gradientUnits="userSpaceOnUse"><stop offset="0" stop-color="#ffe037"/><stop offset="1" stop-color="#fd9205"/></linearGradient><polygon fill="url(#z)" points="999.4 1050.9 514.9 1328.6 514.9 1263.7 999.4 986"/><polygon fill="#d37816" points="468.9 1236.5 514.9 1263.7 514.9 1328.6 468.9 1301.5"/><polygon fill="#fbffff" points="964.9 1394.7 549.4 1632.8 549.4 1370.5 964.9 1132.5"/><linearGradient id="A" x1="5270.188" x2="5270.188" y1="-1035.748" y2="-1054.199" gradientTransform="matrix(-1 .5752 0 1 5951.537 -717.537)" gradientUnits="userSpaceOnUse"><stop offset="0" stop-color="#bebebe"/><stop offset="1" stop-color="#fff"/></linearGradient><path fill="url(#A)" d="M626.9,1309.8l109-62.7c5.3-3,9.6-9.8,9.6-15l0,0c0-5.3-4.3-7.1-9.6-4.1l-109,62.7c-5.3,3-9.6,9.8-9.6,15     l0,0C617.3,1311,621.6,1312.8,626.9,1309.8z"/><linearGradient id="B" x1="5179.396" x2="5179.396" y1="-960.79" y2="-983.388" gradientTransform="matrix(-1 .5752 0 1 5951.537 -717.537)" gradientUnits="userSpaceOnUse"><stop offset="0" stop-color="#bebebe"/><stop offset="1" stop-color="#fff"/></linearGradient><path fill="url(#B)" d="M626.9,1384.8l290.6-171.4c5.3-3,9.6-9.8,9.6-15l0,0c0-5.3-4.3-7.1-9.6-4.1l-290.6,171.4     c-5.3,3-9.6,9.8-9.6,15v0C617.3,1386,621.6,1387.8,626.9,1384.8z"/><linearGradient id="C" x1="5179.396" x2="5179.396" y1="-915.295" y2="-937.893" gradientTransform="matrix(-1 .5752 0 1 5951.537 -717.537)" gradientUnits="userSpaceOnUse"><stop offset="0" stop-color="#bebebe"/><stop offset="1" stop-color="#fff"/></linearGradient><path fill="url(#C)" d="M626.9,1430.3l290.6-171.4c5.3-3,9.6-9.8,9.6-15l0,0c0-5.3-4.3-7.1-9.6-4.1l-290.6,171.4     c-5.3,3-9.6,9.8-9.6,15l0,0C617.3,1431.5,621.6,1433.3,626.9,1430.3z"/><linearGradient id="D" x1="5179.396" x2="5179.396" y1="-869.8" y2="-892.398" gradientTransform="matrix(-1 .5752 0 1 5951.537 -717.537)" gradientUnits="userSpaceOnUse"><stop offset="0" stop-color="#bebebe"/><stop offset="1" stop-color="#fff"/></linearGradient><path fill="url(#D)" d="M626.9,1475.8l290.6-171.4c5.3-3,9.6-9.8,9.6-15v0c0-5.3-4.3-7.1-9.6-4.1l-290.6,171.4     c-5.3,3-9.6,9.8-9.6,15l0,0C617.3,1477,621.6,1478.8,626.9,1475.8z"/><linearGradient id="E" x1="5179.396" x2="5179.396" y1="-824.304" y2="-846.903" gradientTransform="matrix(-1 .5752 0 1 5951.537 -717.537)" gradientUnits="userSpaceOnUse"><stop offset="0" stop-color="#bebebe"/><stop offset="1" stop-color="#fff"/></linearGradient><path fill="url(#E)" d="M626.9,1521.3l290.6-171.4c5.3-3,9.6-9.8,9.6-15l0,0c0-5.3-4.3-7.1-9.6-4.1l-290.6,171.4     c-5.3,3-9.6,9.8-9.6,15v0C617.3,1522.5,621.6,1524.3,626.9,1521.3z"/></g><g><linearGradient id="F" x1="1443.469" x2="1388.107" y1="1507.012" y2="898.024" gradientUnits="userSpaceOnUse"><stop offset="0" stop-color="#dcdfdf"/><stop offset="1" stop-color="#f8fafb"/></linearGradient><polygon fill="url(#F)" points="1181.8 1378 1666.4 1655.6 1666.4 1210.3 1181.8 932.6"/><polygon fill="#bfc1c1" points="1712.4 1183.2 1666.4 1210.3 1666.4 1655.6 1712.4 1628.5"/><polygon fill="#f69725" points="1181.8 932.6 1227.8 905.5 1712.4 1183.2 1666.4 1210.3"/><linearGradient id="G" x1="1673.757" x2="1203.483" y1="1377.707" y2="861.924" gradientUnits="userSpaceOnUse"><stop offset="0" stop-color="#ffe037"/><stop offset="1" stop-color="#fd9205"/></linearGradient><polygon fill="url(#G)" points="1181.8 997.5 1666.4 1275.2 1666.4 1210.3 1181.8 932.6"/><polygon fill="#d37816" points="1712.4 1183.2 1666.4 1210.3 1666.4 1275.2 1712.4 1248.1"/><polygon fill="#fbffff" points="1216.4 1341.3 1631.8 1579.4 1631.8 1317.1 1216.4 1079.1"/><linearGradient id="H" x1="2115.119" x2="2115.119" y1="725.662" y2="707.211" gradientTransform="matrix(1 .5752 0 1 -615.183 -717.537)" gradientUnits="userSpaceOnUse"><stop offset="0" stop-color="#bebebe"/><stop offset="1" stop-color="#fff"/></linearGradient><path fill="url(#H)" d="M1554.4,1256.4l-109-62.7c-5.3-3-9.6-9.8-9.6-15l0,0c0-5.3,4.3-7.1,9.6-4.1l109,62.7c5.3,3,9.6,9.8,9.6,15      v0C1564,1257.6,1559.7,1259.4,1554.4,1256.4z"/><linearGradient id="I" x1="2024.328" x2="2024.328" y1="800.62" y2="778.022" gradientTransform="matrix(1 .5752 0 1 -615.183 -717.537)" gradientUnits="userSpaceOnUse"><stop offset="0" stop-color="#bebebe"/><stop offset="1" stop-color="#fff"/></linearGradient><path fill="url(#I)" d="M1554.4,1331.4L1263.9,1160c-5.3-3-9.6-9.8-9.6-15l0,0c0-5.3,4.3-7.1,9.6-4.1l290.6,171.4      c5.3,3,9.6,9.8,9.6,15l0,0C1564,1332.6,1559.7,1334.4,1554.4,1331.4z"/><linearGradient id="J" x1="2024.328" x2="2024.328" y1="846.115" y2="823.517" gradientTransform="matrix(1 .5752 0 1 -615.183 -717.537)" gradientUnits="userSpaceOnUse"><stop offset="0" stop-color="#bebebe"/><stop offset="1" stop-color="#fff"/></linearGradient><path fill="url(#J)" d="M1554.4,1376.9l-290.6-171.4c-5.3-3-9.6-9.8-9.6-15l0,0c0-5.3,4.3-7.1,9.6-4.1l290.6,171.4      c5.3,3,9.6,9.8,9.6,15l0,0C1564,1378.1,1559.7,1379.9,1554.4,1376.9z"/><linearGradient id="K" x1="2024.328" x2="2024.328" y1="891.611" y2="869.013" gradientTransform="matrix(1 .5752 0 1 -615.183 -717.537)" gradientUnits="userSpaceOnUse"><stop offset="0" stop-color="#bebebe"/><stop offset="1" stop-color="#fff"/></linearGradient><path fill="url(#K)" d="M1554.4,1422.4L1263.9,1251c-5.3-3-9.6-9.8-9.6-15l0,0c0-5.3,4.3-7.1,9.6-4.1l290.6,171.4      c5.3,3,9.6,9.8,9.6,15l0,0C1564,1423.6,1559.7,1425.4,1554.4,1422.4z"/><linearGradient id="L" x1="2024.328" x2="2024.328" y1="937.106" y2="914.508" gradientTransform="matrix(1 .5752 0 1 -615.183 -717.537)" gradientUnits="userSpaceOnUse"><stop offset="0" stop-color="#bebebe"/><stop offset="1" stop-color="#fff"/></linearGradient><path fill="url(#L)" d="M1554.4,1467.9l-290.6-171.4c-5.3-3-9.6-9.8-9.6-15l0,0c0-5.3,4.3-7.1,9.6-4.1l290.6,171.4      c5.3,3,9.6,9.8,9.6,15l0,0C1564,1469.1,1559.7,1470.9,1554.4,1467.9z"/><g><path fill="#ffbdbd" d="M1385,1148.1c0,0,5.3,34.2,0,45.6c-5.3,11.4-5.3,11.4-5.3,11.4s7.9,10.5,5.3,22.8     c-2.6,12.3-10.5,59.6-20.2,61.4c-9.6,1.8-36.8-3.5-45.6,0c-8.8,3.5-7.9,44.1-7.9,44.1l-89.5-36.6l24.6-81.2     C1246.4,1215.7,1352.5,1121,1385,1148.1z"/><linearGradient id="M" x1="1192.094" x2="1384.979" y1="1184.463" y2="1184.463" gradientUnits="userSpaceOnUse"><stop offset="0"/><stop offset="1" stop-color="#646363"/></linearGradient><path fill="url(#M)" d="M1385,1124.5c0,23.7-1.8,31.6-14,39.5c-12.3,7.9,0.9,24.6-8.8,35.1c-9.6,10.5-2.6,46.5-15.8,49.1     c-13.2,2.6-4.4-25.4-18.4-25.4c-14,0-7,19.3-5.3,34.2c1.8,14.9-12.3,19.3-36,19.3c-23.7,0-63.1-16.9-64.9-37.8     c-1.8-20.9-45.6-43-23.6-99.5c11.4-29.3,98.2-43.3,122.7-45.9C1345.5,1090.3,1385,1124.5,1385,1124.5z"/><linearGradient id="N" x1="1098.179" x2="1211.458" y1="2166.186" y2="2182.03" gradientUnits="userSpaceOnUse"><stop offset="0"/><stop offset="1" stop-color="#646363"/></linearGradient><path fill="url(#N)" d="M1168.3,2129.6c0,0,7.2-20.7,27.9-17.6c20.7,3.1,31,23.8,10.3,48.6c-20.7,24.8-39.3,69.1-63,74.3      c-23.8,5.3-52.7,0.1-52.7-12.3s6.2-34.6,6.2-34.6L1168.3,2129.6z"/><linearGradient id="O" x1="1239.465" x2="1390.902" y1="2277.396" y2="2298.577" gradientUnits="userSpaceOnUse"><stop offset="0"/><stop offset="1" stop-color="#646363"/></linearGradient><path fill="url(#O)" d="M1243.1,2282.9c0,0-11.7,22.3-6.5,34.7c5.2,12.4,17.6,32,46.5,22.7c28.9-9.3,63-43.7,94-57.5      c31-13.8,21.7-50-5.2-47.9c-26.9,2.1-66.1,11.4-66.1,11.4L1243.1,2282.9z"/><linearGradient id="P" x1="1096.477" x2="1269.837" y1="1940.979" y2="1940.979" gradientUnits="userSpaceOnUse"><stop offset="0"/><stop offset="1" stop-color="#646363"/></linearGradient><path fill="url(#P)" d="M1136.4,1681c0,0-26.4,61.2-13.9,101.9c12.4,40.7,6.2,51.5,6.2,51.5v143.5c0,0-30.5,32.8-31.6,97.2      c-1.1,64.4,0,113,0,113s16.9,20.3,41.8,10.2c24.9-10.2,27.1-16.9,27.1-16.9s15.8-103.9,41.8-158.2      c26-54.2,62.1-310.7,62.1-310.7L1136.4,1681z"/><linearGradient id="Q" x1="1189.869" x2="1385.632" y1="2017.993" y2="2017.993" gradientUnits="userSpaceOnUse"><stop offset="0"/><stop offset="1" stop-color="#646363"/></linearGradient><path fill="url(#Q)" d="M1191.4,1750.6c0,0-7.4,58.9,10.7,92.8s31.6,42.9,31.6,42.9l19.2,155.9c0,0-8.4,35-9.8,110.7      c-1.5,75.7,0,129.9,0,129.9s12.1,23.7,40.3,14.7c28.2-9,39.5-26,39.5-26s0-83.6,29.4-178.5c29.4-94.9,33.3-356.7,33.3-356.7      S1306.1,1788.8,1191.4,1750.6z"/><linearGradient id="R" x1="1110.736" x2="1407.145" y1="1453.693" y2="1453.693" gradientTransform="rotate(-3.268 2545.29 1664.752)" gradientUnits="userSpaceOnUse"><stop offset="0" stop-color="#3e9fff"/><stop offset="1" stop-color="#02699b"/></linearGradient><path fill="url(#R)" d="M1209.6,1268.3c0,0,44.7,34.5,114.2,36.4c16.4,0.4,4.8,23.2,4.8,23.2s58.8,22.8,59.8,40.3      c1,17.4-5.8,371.9-5.8,371.9s-34.9,52.9-148.9,48c-113.9-4.9-121.7-60.9-121.7-60.9s34.9-84.6,31.2-150      c-3.7-65.4-38.6-202.5-28.9-247.6c9.7-45.1,48.7-35.9,74.4-43.5C1214.5,1278.5,1209.6,1268.3,1209.6,1268.3z"/><linearGradient id="S" x1="1358.423" x2="1649.214" y1="1407.562" y2="1407.562" gradientTransform="rotate(-3.268 2545.29 1664.752)" gradientUnits="userSpaceOnUse"><stop offset="0" stop-color="#3e9fff"/><stop offset="1" stop-color="#02699b"/></linearGradient><path fill="url(#S)" d="M1388.4,1368.1c-31.9-7.2-75.6,41.5-18,106.6s107.9,106.5,137.3,97.1S1633,1452,1633,1452s8-23.6-9-39      c-16.9-15.4-28.2-13.8-28.2-13.8s-79.2,77.7-93.6,74.7C1487.7,1470.9,1430.3,1377.6,1388.4,1368.1z"/><linearGradient id="T" x1="1608.273" x2="1697.717" y1="1391.503" y2="1391.503" gradientUnits="userSpaceOnUse"><stop offset="0" stop-color="#d09393"/><stop offset="1" stop-color="#f9c8ca"/></linearGradient><path fill="url(#T)" d="M1609,1402.5c-3.3-1,5.6-21.8,20.8-38.5c15.2-16.7,16.7-22,16.7-22s9.9,5.1,5.8,25.3      c-4.2,20.2,6.3,13.7,18.3,4.9c12-8.8,20.9-35.5,25.1-8.8c4.2,26.7,2.1,64.3-8.4,71.1c-10.5,6.8-52.5,6.3-52.5,6.3      S1636.8,1410.7,1609,1402.5z"/><linearGradient id="U" x1="1339.184" x2="1381.13" y1="1260.337" y2="1260.337" gradientUnits="userSpaceOnUse"><stop offset="0"/><stop offset="1" stop-color="#646363"/></linearGradient><path fill="url(#U)" d="M1355.9,1223.9c0,0-1.6,26,5.9,29.8c7.5,3.8,13.4-4.2,17.5,1.7c4.1,5.8,1.4,37.4-8.9,40.8     c-10.3,3.4-20.2-6.9-25.7-18.5c-5.5-11.7-5.5-34.1-5.5-34.1L1355.9,1223.9z"/></g></g><g><polygon fill="#f69725" points="2111 1895.1 2111 1625.1 2047.7 1587.4 2332.2 1457.2 2607.5 1911.1 2569.3 1928.3 2535.9 1878 2535.9 2148 2497.6 2165.3"/><linearGradient id="V" x1="2237.481" x2="2283.286" y1="2276.314" y2="1974.627" gradientTransform="matrix(1 .5952 0 1 0 -1530.832)" gradientUnits="userSpaceOnUse"><stop offset="0" stop-color="#ffe037"/><stop offset="1" stop-color="#fd9205"/></linearGradient><polygon fill="url(#V)" points="2072.7 1912.4 2072.7 1642.4 2009.4 1604.7 2293.9 1474.4 2569.3 1928.3 2502 1897.8 2497.6 1895.3 2497.6 2165.3"/><linearGradient id="W" x1="2236.837" x2="2277.777" y1="2242.607" y2="1972.964" gradientTransform="matrix(1 .5952 0 1 0 -1530.832)" gradientUnits="userSpaceOnUse"><stop offset="0" stop-color="#dcdfdf"/><stop offset="1" stop-color="#f8fafb"/></linearGradient><polygon fill="url(#W)" points="2285.2 1502.8 2057.1 1607.3 2094.9 1629.8 2094.9 1899.8 2285.2 2013 2475.5 2126.3 2475.5 1856.3 2513.3 1878.8"/><polygon fill="#bfc1c1" points="2292.3 1886.3 2362.9 1928.3 2362.9 1844.6 2292.3 1802.6"/><polygon fill="#bfc1c1" points="2278.1 1877.8 2278.1 1794.2 2207.5 1752.1 2207.5 1835.8"/><polygon fill="#bfc1c1" points="2278.1 1886.4 2207.5 1844.4 2207.5 1928.1 2278.1 1970.1"/><polygon fill="#bfc1c1" points="2292.3 1894.9 2292.3 1978.6 2362.9 2020.6 2362.9 1936.9"/></g><path fill="#bfc1c1" d="M2360.1,1703.3l-0.5-4.9l-13.2-12.4c-0.8-3.5-1.8-7-3.1-10.5l6.5-10.4l-2.4-5.1c-1.3-2.6-2.7-5.2-4.4-7.6   l-3.2-4.7l-12.3,0.3c-2.4-2.9-4.9-5.5-7.6-8l-4.1-17.6l-4-2.9c-1-0.8-2.1-1.4-3.1-2c-1-0.6-2.1-1.1-3.1-1.6l-4-1.7l-4.1,12.8   c-2.6-0.6-5.2-0.9-7.6-0.8l-12.2-14.5l-3.2,1c-1.7,0.5-3.2,1.4-4.4,2.5l-2.5,2.3l6.4,17.8c-1.3,2-2.4,4.3-3.2,6.9l-13.2-2.9   l-0.5,4.3c-0.3,2.2-0.3,4.6,0,7.2l0.5,4.9l13.2,12.4c0.8,3.5,1.8,7,3.1,10.5l-6.5,10.4l2.4,5.1c1.3,2.6,2.7,5.2,4.4,7.6l3.2,4.7   l12.3-0.3c2.4,2.9,4.9,5.5,7.5,8l4.1,17.6l4,2.9c1,0.8,2.1,1.4,3.1,2c1,0.6,2.1,1.1,3.1,1.6l4,1.7l4.1-12.8   c2.7,0.6,5.2,0.9,7.6,0.8l12.2,14.5l3.2-1c1.7-0.5,3.2-1.4,4.4-2.5l2.5-2.3l-6.4-17.8c1.3-2,2.4-4.3,3.2-6.9l13.2,2.9l0.5-4.3   C2360.3,1708.3,2360.3,1705.9,2360.1,1703.3z M2330.4,1692.1c-1.6,13-12.7,16.8-24.9,8.5c-12.1-8.3-20.7-25.5-19.1-38.4   c1.6-13,12.7-16.8,24.9-8.5C2323.5,1661.9,2332,1679.1,2330.4,1692.1z"/></svg>